G04 #@! TF.GenerationSoftware,KiCad,Pcbnew,(5.0.2)-1*
G04 #@! TF.CreationDate,2019-03-19T15:18:45-05:00*
G04 #@! TF.ProjectId,10MHz-Rb-Ref,31304d48-7a2d-4526-922d-5265662e6b69,rev?*
G04 #@! TF.SameCoordinates,Original*
G04 #@! TF.FileFunction,Soldermask,Bot*
G04 #@! TF.FilePolarity,Negative*
%FSLAX46Y46*%
G04 Gerber Fmt 4.6, Leading zero omitted, Abs format (unit mm)*
G04 Created by KiCad (PCBNEW (5.0.2)-1) date 3/19/2019 3:18:45 PM*
%MOMM*%
%LPD*%
G01*
G04 APERTURE LIST*
%ADD10C,0.100000*%
G04 APERTURE END LIST*
D10*
G36*
X112598888Y-148182623D02*
X113014264Y-148265246D01*
X113796814Y-148589389D01*
X114256756Y-148896713D01*
X114501093Y-149059974D01*
X115100026Y-149658907D01*
X115100028Y-149658910D01*
X115570611Y-150363186D01*
X115894754Y-151145736D01*
X116060000Y-151976487D01*
X116060000Y-152823513D01*
X115894754Y-153654264D01*
X115570611Y-154436814D01*
X115103201Y-155136341D01*
X115100026Y-155141093D01*
X114501093Y-155740026D01*
X114501090Y-155740028D01*
X113796814Y-156210611D01*
X113014264Y-156534754D01*
X112183514Y-156700000D01*
X111336486Y-156700000D01*
X110505736Y-156534754D01*
X109723186Y-156210611D01*
X109018910Y-155740028D01*
X109018907Y-155740026D01*
X108419974Y-155141093D01*
X108416799Y-155136341D01*
X107949389Y-154436814D01*
X107625246Y-153654264D01*
X107460000Y-152823513D01*
X107460000Y-151976487D01*
X107625246Y-151145736D01*
X107949389Y-150363186D01*
X108419972Y-149658910D01*
X108419974Y-149658907D01*
X109018907Y-149059974D01*
X109263244Y-148896713D01*
X109723186Y-148589389D01*
X110505736Y-148265246D01*
X110921112Y-148182623D01*
X111336486Y-148100000D01*
X112183514Y-148100000D01*
X112598888Y-148182623D01*
X112598888Y-148182623D01*
G37*
G36*
X51638888Y-148182623D02*
X52054264Y-148265246D01*
X52836814Y-148589389D01*
X53296756Y-148896713D01*
X53541093Y-149059974D01*
X54140026Y-149658907D01*
X54140028Y-149658910D01*
X54610611Y-150363186D01*
X54934754Y-151145736D01*
X55100000Y-151976487D01*
X55100000Y-152823513D01*
X54934754Y-153654264D01*
X54610611Y-154436814D01*
X54143201Y-155136341D01*
X54140026Y-155141093D01*
X53541093Y-155740026D01*
X53541090Y-155740028D01*
X52836814Y-156210611D01*
X52054264Y-156534754D01*
X51223514Y-156700000D01*
X50376486Y-156700000D01*
X49545736Y-156534754D01*
X48763186Y-156210611D01*
X48058910Y-155740028D01*
X48058907Y-155740026D01*
X47459974Y-155141093D01*
X47456799Y-155136341D01*
X46989389Y-154436814D01*
X46665246Y-153654264D01*
X46500000Y-152823513D01*
X46500000Y-151976487D01*
X46665246Y-151145736D01*
X46989389Y-150363186D01*
X47459972Y-149658910D01*
X47459974Y-149658907D01*
X48058907Y-149059974D01*
X48303244Y-148896713D01*
X48763186Y-148589389D01*
X49545736Y-148265246D01*
X49961112Y-148182623D01*
X50376486Y-148100000D01*
X51223514Y-148100000D01*
X51638888Y-148182623D01*
X51638888Y-148182623D01*
G37*
G36*
X65013778Y-146402879D02*
X65259466Y-146504646D01*
X65480578Y-146652389D01*
X65668611Y-146840422D01*
X65816354Y-147061534D01*
X65918121Y-147307222D01*
X65970000Y-147568035D01*
X65970000Y-147833965D01*
X65918121Y-148094778D01*
X65816354Y-148340466D01*
X65668611Y-148561578D01*
X65480578Y-148749611D01*
X65259466Y-148897354D01*
X65013778Y-148999121D01*
X64752965Y-149051000D01*
X64487035Y-149051000D01*
X64226222Y-148999121D01*
X63980534Y-148897354D01*
X63759422Y-148749611D01*
X63571389Y-148561578D01*
X63423646Y-148340466D01*
X63321879Y-148094778D01*
X63270000Y-147833965D01*
X63270000Y-147568035D01*
X63321879Y-147307222D01*
X63423646Y-147061534D01*
X63571389Y-146840422D01*
X63759422Y-146652389D01*
X63980534Y-146504646D01*
X64226222Y-146402879D01*
X64487035Y-146351000D01*
X64752965Y-146351000D01*
X65013778Y-146402879D01*
X65013778Y-146402879D01*
G37*
G36*
X61890637Y-146354439D02*
X61918313Y-146362835D01*
X61943821Y-146376470D01*
X61966181Y-146394819D01*
X61984530Y-146417179D01*
X61998165Y-146442687D01*
X62006561Y-146470363D01*
X62010000Y-146505287D01*
X62010000Y-148896713D01*
X62006561Y-148931637D01*
X61998165Y-148959313D01*
X61984530Y-148984821D01*
X61966181Y-149007181D01*
X61943821Y-149025530D01*
X61918313Y-149039165D01*
X61890637Y-149047561D01*
X61855713Y-149051000D01*
X59464287Y-149051000D01*
X59429363Y-149047561D01*
X59401687Y-149039165D01*
X59376179Y-149025530D01*
X59353819Y-149007181D01*
X59335470Y-148984821D01*
X59321835Y-148959313D01*
X59313439Y-148931637D01*
X59310000Y-148896713D01*
X59310000Y-146505287D01*
X59313439Y-146470363D01*
X59321835Y-146442687D01*
X59335470Y-146417179D01*
X59353819Y-146394819D01*
X59376179Y-146376470D01*
X59401687Y-146362835D01*
X59429363Y-146354439D01*
X59464287Y-146351000D01*
X61855713Y-146351000D01*
X61890637Y-146354439D01*
X61890637Y-146354439D01*
G37*
G36*
X68973778Y-146402879D02*
X69219466Y-146504646D01*
X69440578Y-146652389D01*
X69628611Y-146840422D01*
X69776354Y-147061534D01*
X69878121Y-147307222D01*
X69930000Y-147568035D01*
X69930000Y-147833965D01*
X69878121Y-148094778D01*
X69776354Y-148340466D01*
X69628611Y-148561578D01*
X69440578Y-148749611D01*
X69219466Y-148897354D01*
X68973778Y-148999121D01*
X68712965Y-149051000D01*
X68447035Y-149051000D01*
X68186222Y-148999121D01*
X67940534Y-148897354D01*
X67719422Y-148749611D01*
X67531389Y-148561578D01*
X67383646Y-148340466D01*
X67281879Y-148094778D01*
X67230000Y-147833965D01*
X67230000Y-147568035D01*
X67281879Y-147307222D01*
X67383646Y-147061534D01*
X67531389Y-146840422D01*
X67719422Y-146652389D01*
X67940534Y-146504646D01*
X68186222Y-146402879D01*
X68447035Y-146351000D01*
X68712965Y-146351000D01*
X68973778Y-146402879D01*
X68973778Y-146402879D01*
G37*
G36*
X72933778Y-146402879D02*
X73179466Y-146504646D01*
X73400578Y-146652389D01*
X73588611Y-146840422D01*
X73736354Y-147061534D01*
X73838121Y-147307222D01*
X73890000Y-147568035D01*
X73890000Y-147833965D01*
X73838121Y-148094778D01*
X73736354Y-148340466D01*
X73588611Y-148561578D01*
X73400578Y-148749611D01*
X73179466Y-148897354D01*
X72933778Y-148999121D01*
X72672965Y-149051000D01*
X72407035Y-149051000D01*
X72146222Y-148999121D01*
X71900534Y-148897354D01*
X71679422Y-148749611D01*
X71491389Y-148561578D01*
X71343646Y-148340466D01*
X71241879Y-148094778D01*
X71190000Y-147833965D01*
X71190000Y-147568035D01*
X71241879Y-147307222D01*
X71343646Y-147061534D01*
X71491389Y-146840422D01*
X71679422Y-146652389D01*
X71900534Y-146504646D01*
X72146222Y-146402879D01*
X72407035Y-146351000D01*
X72672965Y-146351000D01*
X72933778Y-146402879D01*
X72933778Y-146402879D01*
G37*
G36*
X87015026Y-141000852D02*
X87156400Y-141043738D01*
X87286690Y-141113378D01*
X87400899Y-141207107D01*
X87494620Y-141321306D01*
X87564262Y-141451599D01*
X87607148Y-141592973D01*
X87618000Y-141703161D01*
X87618000Y-142776839D01*
X87607148Y-142887027D01*
X87564262Y-143028401D01*
X87494620Y-143158694D01*
X87400896Y-143272896D01*
X87286694Y-143366620D01*
X87156401Y-143436262D01*
X87015027Y-143479148D01*
X86868000Y-143493628D01*
X86720974Y-143479148D01*
X86579600Y-143436262D01*
X86449307Y-143366620D01*
X86335105Y-143272896D01*
X86241381Y-143158694D01*
X86171739Y-143028401D01*
X86128853Y-142887027D01*
X86118001Y-142776839D01*
X86118000Y-141703162D01*
X86128852Y-141592974D01*
X86171738Y-141451600D01*
X86241378Y-141321310D01*
X86335107Y-141207101D01*
X86449306Y-141113380D01*
X86579599Y-141043738D01*
X86720973Y-141000852D01*
X86868000Y-140986372D01*
X87015026Y-141000852D01*
X87015026Y-141000852D01*
G37*
G36*
X104795026Y-141000852D02*
X104936400Y-141043738D01*
X105066690Y-141113378D01*
X105180899Y-141207107D01*
X105274620Y-141321306D01*
X105344262Y-141451599D01*
X105387148Y-141592973D01*
X105398000Y-141703161D01*
X105398000Y-142776839D01*
X105387148Y-142887027D01*
X105344262Y-143028401D01*
X105274620Y-143158694D01*
X105180896Y-143272896D01*
X105066694Y-143366620D01*
X104936401Y-143436262D01*
X104795027Y-143479148D01*
X104648000Y-143493628D01*
X104500974Y-143479148D01*
X104359600Y-143436262D01*
X104229307Y-143366620D01*
X104115105Y-143272896D01*
X104021381Y-143158694D01*
X103951739Y-143028401D01*
X103908853Y-142887027D01*
X103898001Y-142776839D01*
X103898000Y-141703162D01*
X103908852Y-141592974D01*
X103951738Y-141451600D01*
X104021378Y-141321310D01*
X104115107Y-141207101D01*
X104229306Y-141113380D01*
X104359599Y-141043738D01*
X104500973Y-141000852D01*
X104648000Y-140986372D01*
X104795026Y-141000852D01*
X104795026Y-141000852D01*
G37*
G36*
X109875026Y-141000852D02*
X110016400Y-141043738D01*
X110146690Y-141113378D01*
X110260899Y-141207107D01*
X110354620Y-141321306D01*
X110424262Y-141451599D01*
X110467148Y-141592973D01*
X110478000Y-141703161D01*
X110478000Y-142776839D01*
X110467148Y-142887027D01*
X110424262Y-143028401D01*
X110354620Y-143158694D01*
X110260896Y-143272896D01*
X110146694Y-143366620D01*
X110016401Y-143436262D01*
X109875027Y-143479148D01*
X109728000Y-143493628D01*
X109580974Y-143479148D01*
X109439600Y-143436262D01*
X109309307Y-143366620D01*
X109195105Y-143272896D01*
X109101381Y-143158694D01*
X109031739Y-143028401D01*
X108988853Y-142887027D01*
X108978001Y-142776839D01*
X108978000Y-141703162D01*
X108988852Y-141592974D01*
X109031738Y-141451600D01*
X109101378Y-141321310D01*
X109195107Y-141207101D01*
X109309306Y-141113380D01*
X109439599Y-141043738D01*
X109580973Y-141000852D01*
X109728000Y-140986372D01*
X109875026Y-141000852D01*
X109875026Y-141000852D01*
G37*
G36*
X89555026Y-141000852D02*
X89696400Y-141043738D01*
X89826690Y-141113378D01*
X89940899Y-141207107D01*
X90034620Y-141321306D01*
X90104262Y-141451599D01*
X90147148Y-141592973D01*
X90158000Y-141703161D01*
X90158000Y-142776839D01*
X90147148Y-142887027D01*
X90104262Y-143028401D01*
X90034620Y-143158694D01*
X89940896Y-143272896D01*
X89826694Y-143366620D01*
X89696401Y-143436262D01*
X89555027Y-143479148D01*
X89408000Y-143493628D01*
X89260974Y-143479148D01*
X89119600Y-143436262D01*
X88989307Y-143366620D01*
X88875105Y-143272896D01*
X88781381Y-143158694D01*
X88711739Y-143028401D01*
X88668853Y-142887027D01*
X88658001Y-142776839D01*
X88658000Y-141703162D01*
X88668852Y-141592974D01*
X88711738Y-141451600D01*
X88781378Y-141321310D01*
X88875107Y-141207101D01*
X88989306Y-141113380D01*
X89119599Y-141043738D01*
X89260973Y-141000852D01*
X89408000Y-140986372D01*
X89555026Y-141000852D01*
X89555026Y-141000852D01*
G37*
G36*
X56602637Y-133527439D02*
X56630313Y-133535835D01*
X56655821Y-133549470D01*
X56678181Y-133567819D01*
X56696530Y-133590179D01*
X56710165Y-133615687D01*
X56718561Y-133643363D01*
X56722000Y-133678287D01*
X56722000Y-136069713D01*
X56718561Y-136104637D01*
X56710165Y-136132313D01*
X56696530Y-136157821D01*
X56678181Y-136180181D01*
X56655821Y-136198530D01*
X56630313Y-136212165D01*
X56602637Y-136220561D01*
X56567713Y-136224000D01*
X54176287Y-136224000D01*
X54141363Y-136220561D01*
X54113687Y-136212165D01*
X54088179Y-136198530D01*
X54065819Y-136180181D01*
X54047470Y-136157821D01*
X54033835Y-136132313D01*
X54025439Y-136104637D01*
X54022000Y-136069713D01*
X54022000Y-133678287D01*
X54025439Y-133643363D01*
X54033835Y-133615687D01*
X54047470Y-133590179D01*
X54065819Y-133567819D01*
X54088179Y-133549470D01*
X54113687Y-133535835D01*
X54141363Y-133527439D01*
X54176287Y-133524000D01*
X56567713Y-133524000D01*
X56602637Y-133527439D01*
X56602637Y-133527439D01*
G37*
G36*
X75565778Y-133575879D02*
X75811466Y-133677646D01*
X76032578Y-133825389D01*
X76220611Y-134013422D01*
X76368354Y-134234534D01*
X76470121Y-134480222D01*
X76522000Y-134741035D01*
X76522000Y-135006965D01*
X76470121Y-135267778D01*
X76368354Y-135513466D01*
X76220611Y-135734578D01*
X76032578Y-135922611D01*
X75811466Y-136070354D01*
X75565778Y-136172121D01*
X75304965Y-136224000D01*
X75039035Y-136224000D01*
X74778222Y-136172121D01*
X74532534Y-136070354D01*
X74311422Y-135922611D01*
X74123389Y-135734578D01*
X73975646Y-135513466D01*
X73873879Y-135267778D01*
X73822000Y-135006965D01*
X73822000Y-134741035D01*
X73873879Y-134480222D01*
X73975646Y-134234534D01*
X74123389Y-134013422D01*
X74311422Y-133825389D01*
X74532534Y-133677646D01*
X74778222Y-133575879D01*
X75039035Y-133524000D01*
X75304965Y-133524000D01*
X75565778Y-133575879D01*
X75565778Y-133575879D01*
G37*
G36*
X71605778Y-133575879D02*
X71851466Y-133677646D01*
X72072578Y-133825389D01*
X72260611Y-134013422D01*
X72408354Y-134234534D01*
X72510121Y-134480222D01*
X72562000Y-134741035D01*
X72562000Y-135006965D01*
X72510121Y-135267778D01*
X72408354Y-135513466D01*
X72260611Y-135734578D01*
X72072578Y-135922611D01*
X71851466Y-136070354D01*
X71605778Y-136172121D01*
X71344965Y-136224000D01*
X71079035Y-136224000D01*
X70818222Y-136172121D01*
X70572534Y-136070354D01*
X70351422Y-135922611D01*
X70163389Y-135734578D01*
X70015646Y-135513466D01*
X69913879Y-135267778D01*
X69862000Y-135006965D01*
X69862000Y-134741035D01*
X69913879Y-134480222D01*
X70015646Y-134234534D01*
X70163389Y-134013422D01*
X70351422Y-133825389D01*
X70572534Y-133677646D01*
X70818222Y-133575879D01*
X71079035Y-133524000D01*
X71344965Y-133524000D01*
X71605778Y-133575879D01*
X71605778Y-133575879D01*
G37*
G36*
X67645778Y-133575879D02*
X67891466Y-133677646D01*
X68112578Y-133825389D01*
X68300611Y-134013422D01*
X68448354Y-134234534D01*
X68550121Y-134480222D01*
X68602000Y-134741035D01*
X68602000Y-135006965D01*
X68550121Y-135267778D01*
X68448354Y-135513466D01*
X68300611Y-135734578D01*
X68112578Y-135922611D01*
X67891466Y-136070354D01*
X67645778Y-136172121D01*
X67384965Y-136224000D01*
X67119035Y-136224000D01*
X66858222Y-136172121D01*
X66612534Y-136070354D01*
X66391422Y-135922611D01*
X66203389Y-135734578D01*
X66055646Y-135513466D01*
X65953879Y-135267778D01*
X65902000Y-135006965D01*
X65902000Y-134741035D01*
X65953879Y-134480222D01*
X66055646Y-134234534D01*
X66203389Y-134013422D01*
X66391422Y-133825389D01*
X66612534Y-133677646D01*
X66858222Y-133575879D01*
X67119035Y-133524000D01*
X67384965Y-133524000D01*
X67645778Y-133575879D01*
X67645778Y-133575879D01*
G37*
G36*
X63685778Y-133575879D02*
X63931466Y-133677646D01*
X64152578Y-133825389D01*
X64340611Y-134013422D01*
X64488354Y-134234534D01*
X64590121Y-134480222D01*
X64642000Y-134741035D01*
X64642000Y-135006965D01*
X64590121Y-135267778D01*
X64488354Y-135513466D01*
X64340611Y-135734578D01*
X64152578Y-135922611D01*
X63931466Y-136070354D01*
X63685778Y-136172121D01*
X63424965Y-136224000D01*
X63159035Y-136224000D01*
X62898222Y-136172121D01*
X62652534Y-136070354D01*
X62431422Y-135922611D01*
X62243389Y-135734578D01*
X62095646Y-135513466D01*
X61993879Y-135267778D01*
X61942000Y-135006965D01*
X61942000Y-134741035D01*
X61993879Y-134480222D01*
X62095646Y-134234534D01*
X62243389Y-134013422D01*
X62431422Y-133825389D01*
X62652534Y-133677646D01*
X62898222Y-133575879D01*
X63159035Y-133524000D01*
X63424965Y-133524000D01*
X63685778Y-133575879D01*
X63685778Y-133575879D01*
G37*
G36*
X59725778Y-133575879D02*
X59971466Y-133677646D01*
X60192578Y-133825389D01*
X60380611Y-134013422D01*
X60528354Y-134234534D01*
X60630121Y-134480222D01*
X60682000Y-134741035D01*
X60682000Y-135006965D01*
X60630121Y-135267778D01*
X60528354Y-135513466D01*
X60380611Y-135734578D01*
X60192578Y-135922611D01*
X59971466Y-136070354D01*
X59725778Y-136172121D01*
X59464965Y-136224000D01*
X59199035Y-136224000D01*
X58938222Y-136172121D01*
X58692534Y-136070354D01*
X58471422Y-135922611D01*
X58283389Y-135734578D01*
X58135646Y-135513466D01*
X58033879Y-135267778D01*
X57982000Y-135006965D01*
X57982000Y-134741035D01*
X58033879Y-134480222D01*
X58135646Y-134234534D01*
X58283389Y-134013422D01*
X58471422Y-133825389D01*
X58692534Y-133677646D01*
X58938222Y-133575879D01*
X59199035Y-133524000D01*
X59464965Y-133524000D01*
X59725778Y-133575879D01*
X59725778Y-133575879D01*
G37*
G36*
X89555026Y-125760852D02*
X89696400Y-125803738D01*
X89826690Y-125873378D01*
X89940899Y-125967107D01*
X90034620Y-126081306D01*
X90104262Y-126211599D01*
X90147148Y-126352973D01*
X90158000Y-126463161D01*
X90158000Y-127536839D01*
X90147148Y-127647027D01*
X90104262Y-127788401D01*
X90034620Y-127918694D01*
X89940896Y-128032896D01*
X89826694Y-128126620D01*
X89696401Y-128196262D01*
X89555027Y-128239148D01*
X89408000Y-128253628D01*
X89260974Y-128239148D01*
X89119600Y-128196262D01*
X88989307Y-128126620D01*
X88875105Y-128032896D01*
X88781381Y-127918694D01*
X88711739Y-127788401D01*
X88668853Y-127647027D01*
X88658001Y-127536839D01*
X88658000Y-126463162D01*
X88668852Y-126352974D01*
X88711738Y-126211600D01*
X88781378Y-126081310D01*
X88875107Y-125967101D01*
X88989306Y-125873380D01*
X89119599Y-125803738D01*
X89260973Y-125760852D01*
X89408000Y-125746372D01*
X89555026Y-125760852D01*
X89555026Y-125760852D01*
G37*
G36*
X109875026Y-125760852D02*
X110016400Y-125803738D01*
X110146690Y-125873378D01*
X110260899Y-125967107D01*
X110354620Y-126081306D01*
X110424262Y-126211599D01*
X110467148Y-126352973D01*
X110478000Y-126463161D01*
X110478000Y-127536839D01*
X110467148Y-127647027D01*
X110424262Y-127788401D01*
X110354620Y-127918694D01*
X110260896Y-128032896D01*
X110146694Y-128126620D01*
X110016401Y-128196262D01*
X109875027Y-128239148D01*
X109728000Y-128253628D01*
X109580974Y-128239148D01*
X109439600Y-128196262D01*
X109309307Y-128126620D01*
X109195105Y-128032896D01*
X109101381Y-127918694D01*
X109031739Y-127788401D01*
X108988853Y-127647027D01*
X108978001Y-127536839D01*
X108978000Y-126463162D01*
X108988852Y-126352974D01*
X109031738Y-126211600D01*
X109101378Y-126081310D01*
X109195107Y-125967101D01*
X109309306Y-125873380D01*
X109439599Y-125803738D01*
X109580973Y-125760852D01*
X109728000Y-125746372D01*
X109875026Y-125760852D01*
X109875026Y-125760852D01*
G37*
G36*
X87015026Y-125760852D02*
X87156400Y-125803738D01*
X87286690Y-125873378D01*
X87400899Y-125967107D01*
X87494620Y-126081306D01*
X87564262Y-126211599D01*
X87607148Y-126352973D01*
X87618000Y-126463161D01*
X87618000Y-127536839D01*
X87607148Y-127647027D01*
X87564262Y-127788401D01*
X87494620Y-127918694D01*
X87400896Y-128032896D01*
X87286694Y-128126620D01*
X87156401Y-128196262D01*
X87015027Y-128239148D01*
X86868000Y-128253628D01*
X86720974Y-128239148D01*
X86579600Y-128196262D01*
X86449307Y-128126620D01*
X86335105Y-128032896D01*
X86241381Y-127918694D01*
X86171739Y-127788401D01*
X86128853Y-127647027D01*
X86118001Y-127536839D01*
X86118000Y-126463162D01*
X86128852Y-126352974D01*
X86171738Y-126211600D01*
X86241378Y-126081310D01*
X86335107Y-125967101D01*
X86449306Y-125873380D01*
X86579599Y-125803738D01*
X86720973Y-125760852D01*
X86868000Y-125746372D01*
X87015026Y-125760852D01*
X87015026Y-125760852D01*
G37*
G36*
X104795026Y-125760852D02*
X104936400Y-125803738D01*
X105066690Y-125873378D01*
X105180899Y-125967107D01*
X105274620Y-126081306D01*
X105344262Y-126211599D01*
X105387148Y-126352973D01*
X105398000Y-126463161D01*
X105398000Y-127536839D01*
X105387148Y-127647027D01*
X105344262Y-127788401D01*
X105274620Y-127918694D01*
X105180896Y-128032896D01*
X105066694Y-128126620D01*
X104936401Y-128196262D01*
X104795027Y-128239148D01*
X104648000Y-128253628D01*
X104500974Y-128239148D01*
X104359600Y-128196262D01*
X104229307Y-128126620D01*
X104115105Y-128032896D01*
X104021381Y-127918694D01*
X103951739Y-127788401D01*
X103908853Y-127647027D01*
X103898001Y-127536839D01*
X103898000Y-126463162D01*
X103908852Y-126352974D01*
X103951738Y-126211600D01*
X104021378Y-126081310D01*
X104115107Y-125967101D01*
X104229306Y-125873380D01*
X104359599Y-125803738D01*
X104500973Y-125760852D01*
X104648000Y-125746372D01*
X104795026Y-125760852D01*
X104795026Y-125760852D01*
G37*
G36*
X56958030Y-119418469D02*
X56958033Y-119418470D01*
X56958034Y-119418470D01*
X57146535Y-119475651D01*
X57146537Y-119475652D01*
X57320260Y-119568509D01*
X57472528Y-119693472D01*
X57597491Y-119845740D01*
X57597492Y-119845742D01*
X57690349Y-120019465D01*
X57747530Y-120207966D01*
X57747531Y-120207970D01*
X57762000Y-120354876D01*
X57762000Y-121453124D01*
X57747531Y-121600030D01*
X57747530Y-121600033D01*
X57747530Y-121600034D01*
X57699151Y-121759520D01*
X57690348Y-121788537D01*
X57597491Y-121962260D01*
X57472528Y-122114528D01*
X57320258Y-122239493D01*
X57146539Y-122332347D01*
X57146536Y-122332348D01*
X57146534Y-122332349D01*
X56958033Y-122389530D01*
X56958032Y-122389530D01*
X56958029Y-122389531D01*
X56762000Y-122408838D01*
X56565970Y-122389531D01*
X56565967Y-122389530D01*
X56565966Y-122389530D01*
X56377465Y-122332349D01*
X56203742Y-122239492D01*
X56203740Y-122239491D01*
X56051472Y-122114528D01*
X55926507Y-121962258D01*
X55833653Y-121788539D01*
X55824850Y-121759519D01*
X55776470Y-121600033D01*
X55776470Y-121600032D01*
X55776469Y-121600029D01*
X55762000Y-121453123D01*
X55762000Y-120354876D01*
X55776469Y-120207965D01*
X55833651Y-120019467D01*
X55926510Y-119845740D01*
X56051473Y-119693472D01*
X56203741Y-119568509D01*
X56377464Y-119475652D01*
X56377466Y-119475651D01*
X56565967Y-119418470D01*
X56565968Y-119418470D01*
X56565971Y-119418469D01*
X56762000Y-119399162D01*
X56958030Y-119418469D01*
X56958030Y-119418469D01*
G37*
G36*
X65262000Y-122404000D02*
X63262000Y-122404000D01*
X63262000Y-119404000D01*
X65262000Y-119404000D01*
X65262000Y-122404000D01*
X65262000Y-122404000D01*
G37*
G36*
X93560000Y-122135000D02*
X91860000Y-122135000D01*
X91860000Y-120435000D01*
X93560000Y-120435000D01*
X93560000Y-122135000D01*
X93560000Y-122135000D01*
G37*
G36*
X95416630Y-120447299D02*
X95576855Y-120495903D01*
X95724520Y-120574831D01*
X95853949Y-120681051D01*
X95960169Y-120810480D01*
X96039097Y-120958145D01*
X96087701Y-121118370D01*
X96104112Y-121285000D01*
X96087701Y-121451630D01*
X96039097Y-121611855D01*
X95960169Y-121759520D01*
X95853949Y-121888949D01*
X95724520Y-121995169D01*
X95576855Y-122074097D01*
X95416630Y-122122701D01*
X95291752Y-122135000D01*
X95208248Y-122135000D01*
X95083370Y-122122701D01*
X94923145Y-122074097D01*
X94775480Y-121995169D01*
X94646051Y-121888949D01*
X94539831Y-121759520D01*
X94460903Y-121611855D01*
X94412299Y-121451630D01*
X94395888Y-121285000D01*
X94412299Y-121118370D01*
X94460903Y-120958145D01*
X94539831Y-120810480D01*
X94646051Y-120681051D01*
X94775480Y-120574831D01*
X94923145Y-120495903D01*
X95083370Y-120447299D01*
X95208248Y-120435000D01*
X95291752Y-120435000D01*
X95416630Y-120447299D01*
X95416630Y-120447299D01*
G37*
G36*
X86616029Y-112694469D02*
X86616032Y-112694470D01*
X86616033Y-112694470D01*
X86804534Y-112751651D01*
X86804536Y-112751652D01*
X86804539Y-112751653D01*
X86978258Y-112844507D01*
X87130528Y-112969472D01*
X87255491Y-113121740D01*
X87348348Y-113295463D01*
X87405531Y-113483970D01*
X87420000Y-113630876D01*
X87420000Y-114729124D01*
X87405531Y-114876030D01*
X87405530Y-114876033D01*
X87405530Y-114876034D01*
X87348350Y-115064533D01*
X87348348Y-115064537D01*
X87255491Y-115238260D01*
X87130528Y-115390528D01*
X86978260Y-115515491D01*
X86978258Y-115515492D01*
X86804535Y-115608349D01*
X86616034Y-115665530D01*
X86616033Y-115665530D01*
X86616030Y-115665531D01*
X86420000Y-115684838D01*
X86223971Y-115665531D01*
X86223968Y-115665530D01*
X86223967Y-115665530D01*
X86035466Y-115608349D01*
X85861743Y-115515492D01*
X85861741Y-115515491D01*
X85709473Y-115390528D01*
X85584510Y-115238260D01*
X85491651Y-115064533D01*
X85434469Y-114876035D01*
X85420000Y-114729124D01*
X85420000Y-113630877D01*
X85434469Y-113483971D01*
X85434470Y-113483967D01*
X85491651Y-113295466D01*
X85491652Y-113295464D01*
X85491653Y-113295461D01*
X85584507Y-113121742D01*
X85709472Y-112969472D01*
X85861740Y-112844509D01*
X86035463Y-112751652D01*
X86035465Y-112751651D01*
X86223966Y-112694470D01*
X86223967Y-112694470D01*
X86223970Y-112694469D01*
X86420000Y-112675162D01*
X86616029Y-112694469D01*
X86616029Y-112694469D01*
G37*
G36*
X91656029Y-112694469D02*
X91656032Y-112694470D01*
X91656033Y-112694470D01*
X91844534Y-112751651D01*
X91844536Y-112751652D01*
X91844539Y-112751653D01*
X92018258Y-112844507D01*
X92170528Y-112969472D01*
X92295491Y-113121740D01*
X92388348Y-113295463D01*
X92445531Y-113483970D01*
X92460000Y-113630876D01*
X92460000Y-114729124D01*
X92445531Y-114876030D01*
X92445530Y-114876033D01*
X92445530Y-114876034D01*
X92388350Y-115064533D01*
X92388348Y-115064537D01*
X92295491Y-115238260D01*
X92170528Y-115390528D01*
X92018260Y-115515491D01*
X92018258Y-115515492D01*
X91844535Y-115608349D01*
X91656034Y-115665530D01*
X91656033Y-115665530D01*
X91656030Y-115665531D01*
X91460000Y-115684838D01*
X91263971Y-115665531D01*
X91263968Y-115665530D01*
X91263967Y-115665530D01*
X91075466Y-115608349D01*
X90901743Y-115515492D01*
X90901741Y-115515491D01*
X90749473Y-115390528D01*
X90624510Y-115238260D01*
X90531651Y-115064533D01*
X90474469Y-114876035D01*
X90460000Y-114729124D01*
X90460000Y-113630877D01*
X90474469Y-113483971D01*
X90474470Y-113483967D01*
X90531651Y-113295466D01*
X90531652Y-113295464D01*
X90531653Y-113295461D01*
X90624507Y-113121742D01*
X90749472Y-112969472D01*
X90901740Y-112844509D01*
X91075463Y-112751652D01*
X91075465Y-112751651D01*
X91263966Y-112694470D01*
X91263967Y-112694470D01*
X91263970Y-112694469D01*
X91460000Y-112675162D01*
X91656029Y-112694469D01*
X91656029Y-112694469D01*
G37*
G36*
X112456030Y-113194469D02*
X112456033Y-113194470D01*
X112456034Y-113194470D01*
X112644535Y-113251651D01*
X112644537Y-113251652D01*
X112818260Y-113344509D01*
X112970528Y-113469472D01*
X113095491Y-113621740D01*
X113188348Y-113795463D01*
X113245531Y-113983970D01*
X113264838Y-114180000D01*
X113245531Y-114376030D01*
X113188348Y-114564537D01*
X113095491Y-114738260D01*
X112970528Y-114890528D01*
X112818260Y-115015491D01*
X112644537Y-115108348D01*
X112644535Y-115108349D01*
X112456034Y-115165530D01*
X112456033Y-115165530D01*
X112456030Y-115165531D01*
X112309124Y-115180000D01*
X111210876Y-115180000D01*
X111063970Y-115165531D01*
X111063967Y-115165530D01*
X111063966Y-115165530D01*
X110875465Y-115108349D01*
X110875463Y-115108348D01*
X110701740Y-115015491D01*
X110549472Y-114890528D01*
X110424509Y-114738260D01*
X110331652Y-114564537D01*
X110274469Y-114376030D01*
X110255162Y-114180000D01*
X110274469Y-113983970D01*
X110331652Y-113795463D01*
X110424509Y-113621740D01*
X110549472Y-113469472D01*
X110701740Y-113344509D01*
X110875463Y-113251652D01*
X110875465Y-113251651D01*
X111063966Y-113194470D01*
X111063967Y-113194470D01*
X111063970Y-113194469D01*
X111210876Y-113180000D01*
X112309124Y-113180000D01*
X112456030Y-113194469D01*
X112456030Y-113194469D01*
G37*
G36*
X91656029Y-105194469D02*
X91656032Y-105194470D01*
X91656033Y-105194470D01*
X91844534Y-105251651D01*
X91844536Y-105251652D01*
X91844539Y-105251653D01*
X92018258Y-105344507D01*
X92170528Y-105469472D01*
X92295491Y-105621740D01*
X92388348Y-105795463D01*
X92445531Y-105983970D01*
X92460000Y-106130876D01*
X92460000Y-107229124D01*
X92445531Y-107376030D01*
X92445530Y-107376033D01*
X92445530Y-107376034D01*
X92388350Y-107564533D01*
X92388348Y-107564537D01*
X92295491Y-107738260D01*
X92170528Y-107890528D01*
X92018260Y-108015491D01*
X92018258Y-108015492D01*
X91844535Y-108108349D01*
X91656034Y-108165530D01*
X91656033Y-108165530D01*
X91656030Y-108165531D01*
X91460000Y-108184838D01*
X91263971Y-108165531D01*
X91263968Y-108165530D01*
X91263967Y-108165530D01*
X91075466Y-108108349D01*
X90901743Y-108015492D01*
X90901741Y-108015491D01*
X90749473Y-107890528D01*
X90624510Y-107738260D01*
X90531651Y-107564533D01*
X90474469Y-107376035D01*
X90460000Y-107229124D01*
X90460000Y-106130877D01*
X90474469Y-105983971D01*
X90474470Y-105983967D01*
X90531651Y-105795466D01*
X90531652Y-105795464D01*
X90531653Y-105795461D01*
X90624507Y-105621742D01*
X90749472Y-105469472D01*
X90901740Y-105344509D01*
X91075463Y-105251652D01*
X91075465Y-105251651D01*
X91263966Y-105194470D01*
X91263967Y-105194470D01*
X91263970Y-105194469D01*
X91460000Y-105175162D01*
X91656029Y-105194469D01*
X91656029Y-105194469D01*
G37*
G36*
X86616029Y-105194469D02*
X86616032Y-105194470D01*
X86616033Y-105194470D01*
X86804534Y-105251651D01*
X86804536Y-105251652D01*
X86804539Y-105251653D01*
X86978258Y-105344507D01*
X87130528Y-105469472D01*
X87255491Y-105621740D01*
X87348348Y-105795463D01*
X87405531Y-105983970D01*
X87420000Y-106130876D01*
X87420000Y-107229124D01*
X87405531Y-107376030D01*
X87405530Y-107376033D01*
X87405530Y-107376034D01*
X87348350Y-107564533D01*
X87348348Y-107564537D01*
X87255491Y-107738260D01*
X87130528Y-107890528D01*
X86978260Y-108015491D01*
X86978258Y-108015492D01*
X86804535Y-108108349D01*
X86616034Y-108165530D01*
X86616033Y-108165530D01*
X86616030Y-108165531D01*
X86420000Y-108184838D01*
X86223971Y-108165531D01*
X86223968Y-108165530D01*
X86223967Y-108165530D01*
X86035466Y-108108349D01*
X85861743Y-108015492D01*
X85861741Y-108015491D01*
X85709473Y-107890528D01*
X85584510Y-107738260D01*
X85491651Y-107564533D01*
X85434469Y-107376035D01*
X85420000Y-107229124D01*
X85420000Y-106130877D01*
X85434469Y-105983971D01*
X85434470Y-105983967D01*
X85491651Y-105795466D01*
X85491652Y-105795464D01*
X85491653Y-105795461D01*
X85584507Y-105621742D01*
X85709472Y-105469472D01*
X85861740Y-105344509D01*
X86035463Y-105251652D01*
X86035465Y-105251651D01*
X86223966Y-105194470D01*
X86223967Y-105194470D01*
X86223970Y-105194469D01*
X86420000Y-105175162D01*
X86616029Y-105194469D01*
X86616029Y-105194469D01*
G37*
G36*
X113260000Y-107680000D02*
X110260000Y-107680000D01*
X110260000Y-105680000D01*
X113260000Y-105680000D01*
X113260000Y-107680000D01*
X113260000Y-107680000D01*
G37*
G36*
X57458030Y-99618469D02*
X57458033Y-99618470D01*
X57458034Y-99618470D01*
X57646535Y-99675651D01*
X57646537Y-99675652D01*
X57820260Y-99768509D01*
X57972528Y-99893472D01*
X58097491Y-100045740D01*
X58190348Y-100219463D01*
X58247531Y-100407970D01*
X58266838Y-100604000D01*
X58247531Y-100800030D01*
X58190348Y-100988537D01*
X58097491Y-101162260D01*
X57972528Y-101314528D01*
X57820260Y-101439491D01*
X57820258Y-101439492D01*
X57646535Y-101532349D01*
X57458034Y-101589530D01*
X57458033Y-101589530D01*
X57458030Y-101589531D01*
X57311124Y-101604000D01*
X56212876Y-101604000D01*
X56065970Y-101589531D01*
X56065967Y-101589530D01*
X56065966Y-101589530D01*
X55877465Y-101532349D01*
X55703742Y-101439492D01*
X55703740Y-101439491D01*
X55551472Y-101314528D01*
X55426509Y-101162260D01*
X55333652Y-100988537D01*
X55276469Y-100800030D01*
X55257162Y-100604000D01*
X55276469Y-100407970D01*
X55333652Y-100219463D01*
X55426509Y-100045740D01*
X55551472Y-99893472D01*
X55703740Y-99768509D01*
X55877463Y-99675652D01*
X55877465Y-99675651D01*
X56065966Y-99618470D01*
X56065967Y-99618470D01*
X56065970Y-99618469D01*
X56212876Y-99604000D01*
X57311124Y-99604000D01*
X57458030Y-99618469D01*
X57458030Y-99618469D01*
G37*
G36*
X64958030Y-99618469D02*
X64958033Y-99618470D01*
X64958034Y-99618470D01*
X65146535Y-99675651D01*
X65146537Y-99675652D01*
X65320260Y-99768509D01*
X65472528Y-99893472D01*
X65597491Y-100045740D01*
X65690348Y-100219463D01*
X65747531Y-100407970D01*
X65766838Y-100604000D01*
X65747531Y-100800030D01*
X65690348Y-100988537D01*
X65597491Y-101162260D01*
X65472528Y-101314528D01*
X65320260Y-101439491D01*
X65320258Y-101439492D01*
X65146535Y-101532349D01*
X64958034Y-101589530D01*
X64958033Y-101589530D01*
X64958030Y-101589531D01*
X64811124Y-101604000D01*
X63712876Y-101604000D01*
X63565970Y-101589531D01*
X63565967Y-101589530D01*
X63565966Y-101589530D01*
X63377465Y-101532349D01*
X63203742Y-101439492D01*
X63203740Y-101439491D01*
X63051472Y-101314528D01*
X62926509Y-101162260D01*
X62833652Y-100988537D01*
X62776469Y-100800030D01*
X62757162Y-100604000D01*
X62776469Y-100407970D01*
X62833652Y-100219463D01*
X62926509Y-100045740D01*
X63051472Y-99893472D01*
X63203740Y-99768509D01*
X63377463Y-99675652D01*
X63377465Y-99675651D01*
X63565966Y-99618470D01*
X63565967Y-99618470D01*
X63565970Y-99618469D01*
X63712876Y-99604000D01*
X64811124Y-99604000D01*
X64958030Y-99618469D01*
X64958030Y-99618469D01*
G37*
G36*
X110450637Y-95173439D02*
X110478313Y-95181835D01*
X110503821Y-95195470D01*
X110526181Y-95213819D01*
X110544530Y-95236179D01*
X110558165Y-95261687D01*
X110566561Y-95289363D01*
X110570000Y-95324287D01*
X110570000Y-97715713D01*
X110566561Y-97750637D01*
X110558165Y-97778313D01*
X110544530Y-97803821D01*
X110526181Y-97826181D01*
X110503821Y-97844530D01*
X110478313Y-97858165D01*
X110450637Y-97866561D01*
X110415713Y-97870000D01*
X108024287Y-97870000D01*
X107989363Y-97866561D01*
X107961687Y-97858165D01*
X107936179Y-97844530D01*
X107913819Y-97826181D01*
X107895470Y-97803821D01*
X107881835Y-97778313D01*
X107873439Y-97750637D01*
X107870000Y-97715713D01*
X107870000Y-95324287D01*
X107873439Y-95289363D01*
X107881835Y-95261687D01*
X107895470Y-95236179D01*
X107913819Y-95213819D01*
X107936179Y-95195470D01*
X107961687Y-95181835D01*
X107989363Y-95173439D01*
X108024287Y-95170000D01*
X110415713Y-95170000D01*
X110450637Y-95173439D01*
X110450637Y-95173439D01*
G37*
G36*
X97320000Y-97320000D02*
X95720000Y-97320000D01*
X95720000Y-95720000D01*
X97320000Y-95720000D01*
X97320000Y-97320000D01*
X97320000Y-97320000D01*
G37*
G36*
X81397649Y-95727717D02*
X81436827Y-95731576D01*
X81512227Y-95754448D01*
X81587629Y-95777321D01*
X81726608Y-95851608D01*
X81848422Y-95951578D01*
X81948392Y-96073392D01*
X82022679Y-96212371D01*
X82068424Y-96363174D01*
X82083870Y-96520000D01*
X82068424Y-96676826D01*
X82022679Y-96827629D01*
X81948392Y-96966608D01*
X81848422Y-97088422D01*
X81726608Y-97188392D01*
X81587629Y-97262679D01*
X81512228Y-97285551D01*
X81436827Y-97308424D01*
X81397649Y-97312283D01*
X81319295Y-97320000D01*
X81240705Y-97320000D01*
X81162351Y-97312283D01*
X81123173Y-97308424D01*
X81047772Y-97285551D01*
X80972371Y-97262679D01*
X80833392Y-97188392D01*
X80711578Y-97088422D01*
X80611608Y-96966608D01*
X80537321Y-96827629D01*
X80491576Y-96676826D01*
X80476130Y-96520000D01*
X80491576Y-96363174D01*
X80537321Y-96212371D01*
X80611608Y-96073392D01*
X80711578Y-95951578D01*
X80833392Y-95851608D01*
X80972371Y-95777321D01*
X81047773Y-95754448D01*
X81123173Y-95731576D01*
X81162351Y-95727717D01*
X81240705Y-95720000D01*
X81319295Y-95720000D01*
X81397649Y-95727717D01*
X81397649Y-95727717D01*
G37*
G36*
X57458030Y-94578469D02*
X57458033Y-94578470D01*
X57458034Y-94578470D01*
X57646535Y-94635651D01*
X57646537Y-94635652D01*
X57820260Y-94728509D01*
X57972528Y-94853472D01*
X58097491Y-95005740D01*
X58097492Y-95005742D01*
X58190349Y-95179465D01*
X58221182Y-95281108D01*
X58247531Y-95367970D01*
X58266838Y-95564000D01*
X58247531Y-95760030D01*
X58247530Y-95760033D01*
X58247530Y-95760034D01*
X58219752Y-95851607D01*
X58190348Y-95948537D01*
X58097491Y-96122260D01*
X57972528Y-96274528D01*
X57820260Y-96399491D01*
X57820258Y-96399492D01*
X57646535Y-96492349D01*
X57458034Y-96549530D01*
X57458033Y-96549530D01*
X57458030Y-96549531D01*
X57311124Y-96564000D01*
X56212876Y-96564000D01*
X56065970Y-96549531D01*
X56065967Y-96549530D01*
X56065966Y-96549530D01*
X55877465Y-96492349D01*
X55703742Y-96399492D01*
X55703740Y-96399491D01*
X55551472Y-96274528D01*
X55426509Y-96122260D01*
X55333652Y-95948537D01*
X55304249Y-95851607D01*
X55276470Y-95760034D01*
X55276470Y-95760033D01*
X55276469Y-95760030D01*
X55257162Y-95564000D01*
X55276469Y-95367970D01*
X55302818Y-95281108D01*
X55333651Y-95179465D01*
X55426508Y-95005742D01*
X55426509Y-95005740D01*
X55551472Y-94853472D01*
X55703740Y-94728509D01*
X55877463Y-94635652D01*
X55877465Y-94635651D01*
X56065966Y-94578470D01*
X56065967Y-94578470D01*
X56065970Y-94578469D01*
X56212876Y-94564000D01*
X57311124Y-94564000D01*
X57458030Y-94578469D01*
X57458030Y-94578469D01*
G37*
G36*
X64958030Y-94578469D02*
X64958033Y-94578470D01*
X64958034Y-94578470D01*
X65146535Y-94635651D01*
X65146537Y-94635652D01*
X65320260Y-94728509D01*
X65472528Y-94853472D01*
X65597491Y-95005740D01*
X65597492Y-95005742D01*
X65690349Y-95179465D01*
X65721182Y-95281108D01*
X65747531Y-95367970D01*
X65766838Y-95564000D01*
X65747531Y-95760030D01*
X65747530Y-95760033D01*
X65747530Y-95760034D01*
X65719752Y-95851607D01*
X65690348Y-95948537D01*
X65597491Y-96122260D01*
X65472528Y-96274528D01*
X65320260Y-96399491D01*
X65320258Y-96399492D01*
X65146535Y-96492349D01*
X64958034Y-96549530D01*
X64958033Y-96549530D01*
X64958030Y-96549531D01*
X64811124Y-96564000D01*
X63712876Y-96564000D01*
X63565970Y-96549531D01*
X63565967Y-96549530D01*
X63565966Y-96549530D01*
X63377465Y-96492349D01*
X63203742Y-96399492D01*
X63203740Y-96399491D01*
X63051472Y-96274528D01*
X62926509Y-96122260D01*
X62833652Y-95948537D01*
X62804249Y-95851607D01*
X62776470Y-95760034D01*
X62776470Y-95760033D01*
X62776469Y-95760030D01*
X62757162Y-95564000D01*
X62776469Y-95367970D01*
X62802818Y-95281108D01*
X62833651Y-95179465D01*
X62926508Y-95005742D01*
X62926509Y-95005740D01*
X63051472Y-94853472D01*
X63203740Y-94728509D01*
X63377463Y-94635652D01*
X63377465Y-94635651D01*
X63565966Y-94578470D01*
X63565967Y-94578470D01*
X63565970Y-94578469D01*
X63712876Y-94564000D01*
X64811124Y-94564000D01*
X64958030Y-94578469D01*
X64958030Y-94578469D01*
G37*
G36*
X96637649Y-93187717D02*
X96676827Y-93191576D01*
X96752227Y-93214448D01*
X96827629Y-93237321D01*
X96966608Y-93311608D01*
X97088422Y-93411578D01*
X97188392Y-93533392D01*
X97262679Y-93672371D01*
X97308424Y-93823174D01*
X97323870Y-93980000D01*
X97308424Y-94136826D01*
X97262679Y-94287629D01*
X97188392Y-94426608D01*
X97088422Y-94548422D01*
X96966608Y-94648392D01*
X96827629Y-94722679D01*
X96752228Y-94745551D01*
X96676827Y-94768424D01*
X96637649Y-94772283D01*
X96559295Y-94780000D01*
X96480705Y-94780000D01*
X96402351Y-94772283D01*
X96363173Y-94768424D01*
X96287772Y-94745551D01*
X96212371Y-94722679D01*
X96073392Y-94648392D01*
X95951578Y-94548422D01*
X95851608Y-94426608D01*
X95777321Y-94287629D01*
X95731576Y-94136826D01*
X95716130Y-93980000D01*
X95731576Y-93823174D01*
X95777321Y-93672371D01*
X95851608Y-93533392D01*
X95951578Y-93411578D01*
X96073392Y-93311608D01*
X96212371Y-93237321D01*
X96287773Y-93214448D01*
X96363173Y-93191576D01*
X96402351Y-93187717D01*
X96480705Y-93180000D01*
X96559295Y-93180000D01*
X96637649Y-93187717D01*
X96637649Y-93187717D01*
G37*
G36*
X81397649Y-93187717D02*
X81436827Y-93191576D01*
X81512227Y-93214448D01*
X81587629Y-93237321D01*
X81726608Y-93311608D01*
X81848422Y-93411578D01*
X81948392Y-93533392D01*
X82022679Y-93672371D01*
X82068424Y-93823174D01*
X82083870Y-93980000D01*
X82068424Y-94136826D01*
X82022679Y-94287629D01*
X81948392Y-94426608D01*
X81848422Y-94548422D01*
X81726608Y-94648392D01*
X81587629Y-94722679D01*
X81512228Y-94745551D01*
X81436827Y-94768424D01*
X81397649Y-94772283D01*
X81319295Y-94780000D01*
X81240705Y-94780000D01*
X81162351Y-94772283D01*
X81123173Y-94768424D01*
X81047772Y-94745551D01*
X80972371Y-94722679D01*
X80833392Y-94648392D01*
X80711578Y-94548422D01*
X80611608Y-94426608D01*
X80537321Y-94287629D01*
X80491576Y-94136826D01*
X80476130Y-93980000D01*
X80491576Y-93823174D01*
X80537321Y-93672371D01*
X80611608Y-93533392D01*
X80711578Y-93411578D01*
X80833392Y-93311608D01*
X80972371Y-93237321D01*
X81047773Y-93214448D01*
X81123173Y-93191576D01*
X81162351Y-93187717D01*
X81240705Y-93180000D01*
X81319295Y-93180000D01*
X81397649Y-93187717D01*
X81397649Y-93187717D01*
G37*
G36*
X109613778Y-91261879D02*
X109859466Y-91363646D01*
X110080578Y-91511389D01*
X110268611Y-91699422D01*
X110416354Y-91920534D01*
X110518121Y-92166222D01*
X110570000Y-92427035D01*
X110570000Y-92692965D01*
X110518121Y-92953778D01*
X110416354Y-93199466D01*
X110268611Y-93420578D01*
X110080578Y-93608611D01*
X109859466Y-93756354D01*
X109613778Y-93858121D01*
X109352965Y-93910000D01*
X109087035Y-93910000D01*
X108826222Y-93858121D01*
X108580534Y-93756354D01*
X108359422Y-93608611D01*
X108171389Y-93420578D01*
X108023646Y-93199466D01*
X107921879Y-92953778D01*
X107870000Y-92692965D01*
X107870000Y-92427035D01*
X107921879Y-92166222D01*
X108023646Y-91920534D01*
X108171389Y-91699422D01*
X108359422Y-91511389D01*
X108580534Y-91363646D01*
X108826222Y-91261879D01*
X109087035Y-91210000D01*
X109352965Y-91210000D01*
X109613778Y-91261879D01*
X109613778Y-91261879D01*
G37*
G36*
X81397649Y-90647717D02*
X81436827Y-90651576D01*
X81512228Y-90674449D01*
X81587629Y-90697321D01*
X81726608Y-90771608D01*
X81848422Y-90871578D01*
X81948392Y-90993392D01*
X82022679Y-91132371D01*
X82022679Y-91132372D01*
X82061965Y-91261879D01*
X82068424Y-91283174D01*
X82083870Y-91440000D01*
X82068424Y-91596826D01*
X82022679Y-91747629D01*
X81948392Y-91886608D01*
X81848422Y-92008422D01*
X81726608Y-92108392D01*
X81587629Y-92182679D01*
X81512227Y-92205552D01*
X81436827Y-92228424D01*
X81397649Y-92232283D01*
X81319295Y-92240000D01*
X81240705Y-92240000D01*
X81162351Y-92232283D01*
X81123173Y-92228424D01*
X81047773Y-92205552D01*
X80972371Y-92182679D01*
X80833392Y-92108392D01*
X80711578Y-92008422D01*
X80611608Y-91886608D01*
X80537321Y-91747629D01*
X80491576Y-91596826D01*
X80476130Y-91440000D01*
X80491576Y-91283174D01*
X80498036Y-91261879D01*
X80537321Y-91132372D01*
X80537321Y-91132371D01*
X80611608Y-90993392D01*
X80711578Y-90871578D01*
X80833392Y-90771608D01*
X80972371Y-90697321D01*
X81047772Y-90674449D01*
X81123173Y-90651576D01*
X81162351Y-90647717D01*
X81240705Y-90640000D01*
X81319295Y-90640000D01*
X81397649Y-90647717D01*
X81397649Y-90647717D01*
G37*
G36*
X96637649Y-90647717D02*
X96676827Y-90651576D01*
X96752228Y-90674449D01*
X96827629Y-90697321D01*
X96966608Y-90771608D01*
X97088422Y-90871578D01*
X97188392Y-90993392D01*
X97262679Y-91132371D01*
X97262679Y-91132372D01*
X97301965Y-91261879D01*
X97308424Y-91283174D01*
X97323870Y-91440000D01*
X97308424Y-91596826D01*
X97262679Y-91747629D01*
X97188392Y-91886608D01*
X97088422Y-92008422D01*
X96966608Y-92108392D01*
X96827629Y-92182679D01*
X96752227Y-92205552D01*
X96676827Y-92228424D01*
X96637649Y-92232283D01*
X96559295Y-92240000D01*
X96480705Y-92240000D01*
X96402351Y-92232283D01*
X96363173Y-92228424D01*
X96287773Y-92205552D01*
X96212371Y-92182679D01*
X96073392Y-92108392D01*
X95951578Y-92008422D01*
X95851608Y-91886608D01*
X95777321Y-91747629D01*
X95731576Y-91596826D01*
X95716130Y-91440000D01*
X95731576Y-91283174D01*
X95738036Y-91261879D01*
X95777321Y-91132372D01*
X95777321Y-91132371D01*
X95851608Y-90993392D01*
X95951578Y-90871578D01*
X96073392Y-90771608D01*
X96212371Y-90697321D01*
X96287772Y-90674449D01*
X96363173Y-90651576D01*
X96402351Y-90647717D01*
X96480705Y-90640000D01*
X96559295Y-90640000D01*
X96637649Y-90647717D01*
X96637649Y-90647717D01*
G37*
G36*
X76366630Y-89332299D02*
X76526855Y-89380903D01*
X76674520Y-89459831D01*
X76803949Y-89566051D01*
X76910169Y-89695480D01*
X76989097Y-89843145D01*
X77037701Y-90003370D01*
X77054112Y-90170000D01*
X77037701Y-90336630D01*
X76989097Y-90496855D01*
X76910169Y-90644520D01*
X76803949Y-90773949D01*
X76674520Y-90880169D01*
X76526855Y-90959097D01*
X76366630Y-91007701D01*
X76241752Y-91020000D01*
X76158248Y-91020000D01*
X76033370Y-91007701D01*
X75873145Y-90959097D01*
X75725480Y-90880169D01*
X75596051Y-90773949D01*
X75489831Y-90644520D01*
X75410903Y-90496855D01*
X75362299Y-90336630D01*
X75345888Y-90170000D01*
X75362299Y-90003370D01*
X75410903Y-89843145D01*
X75489831Y-89695480D01*
X75596051Y-89566051D01*
X75725480Y-89459831D01*
X75873145Y-89380903D01*
X76033370Y-89332299D01*
X76158248Y-89320000D01*
X76241752Y-89320000D01*
X76366630Y-89332299D01*
X76366630Y-89332299D01*
G37*
G36*
X101766630Y-89332299D02*
X101926855Y-89380903D01*
X102074520Y-89459831D01*
X102203949Y-89566051D01*
X102310169Y-89695480D01*
X102389097Y-89843145D01*
X102437701Y-90003370D01*
X102454112Y-90170000D01*
X102437701Y-90336630D01*
X102389097Y-90496855D01*
X102310169Y-90644520D01*
X102203949Y-90773949D01*
X102074520Y-90880169D01*
X101926855Y-90959097D01*
X101766630Y-91007701D01*
X101641752Y-91020000D01*
X101558248Y-91020000D01*
X101433370Y-91007701D01*
X101273145Y-90959097D01*
X101125480Y-90880169D01*
X100996051Y-90773949D01*
X100889831Y-90644520D01*
X100810903Y-90496855D01*
X100762299Y-90336630D01*
X100745888Y-90170000D01*
X100762299Y-90003370D01*
X100810903Y-89843145D01*
X100889831Y-89695480D01*
X100996051Y-89566051D01*
X101125480Y-89459831D01*
X101273145Y-89380903D01*
X101433370Y-89332299D01*
X101558248Y-89320000D01*
X101641752Y-89320000D01*
X101766630Y-89332299D01*
X101766630Y-89332299D01*
G37*
G36*
X81397649Y-88107717D02*
X81436827Y-88111576D01*
X81512227Y-88134448D01*
X81587629Y-88157321D01*
X81726608Y-88231608D01*
X81848422Y-88331578D01*
X81948392Y-88453392D01*
X82022679Y-88592371D01*
X82068424Y-88743174D01*
X82083870Y-88900000D01*
X82068424Y-89056826D01*
X82022679Y-89207629D01*
X81948392Y-89346608D01*
X81848422Y-89468422D01*
X81726608Y-89568392D01*
X81587629Y-89642679D01*
X81512228Y-89665551D01*
X81436827Y-89688424D01*
X81397649Y-89692283D01*
X81319295Y-89700000D01*
X81240705Y-89700000D01*
X81162351Y-89692283D01*
X81123173Y-89688424D01*
X81047772Y-89665551D01*
X80972371Y-89642679D01*
X80833392Y-89568392D01*
X80711578Y-89468422D01*
X80611608Y-89346608D01*
X80537321Y-89207629D01*
X80491576Y-89056826D01*
X80476130Y-88900000D01*
X80491576Y-88743174D01*
X80537321Y-88592371D01*
X80611608Y-88453392D01*
X80711578Y-88331578D01*
X80833392Y-88231608D01*
X80972371Y-88157321D01*
X81047773Y-88134448D01*
X81123173Y-88111576D01*
X81162351Y-88107717D01*
X81240705Y-88100000D01*
X81319295Y-88100000D01*
X81397649Y-88107717D01*
X81397649Y-88107717D01*
G37*
G36*
X96637649Y-88107717D02*
X96676827Y-88111576D01*
X96752227Y-88134448D01*
X96827629Y-88157321D01*
X96966608Y-88231608D01*
X97088422Y-88331578D01*
X97188392Y-88453392D01*
X97262679Y-88592371D01*
X97308424Y-88743174D01*
X97323870Y-88900000D01*
X97308424Y-89056826D01*
X97262679Y-89207629D01*
X97188392Y-89346608D01*
X97088422Y-89468422D01*
X96966608Y-89568392D01*
X96827629Y-89642679D01*
X96752228Y-89665551D01*
X96676827Y-89688424D01*
X96637649Y-89692283D01*
X96559295Y-89700000D01*
X96480705Y-89700000D01*
X96402351Y-89692283D01*
X96363173Y-89688424D01*
X96287772Y-89665551D01*
X96212371Y-89642679D01*
X96073392Y-89568392D01*
X95951578Y-89468422D01*
X95851608Y-89346608D01*
X95777321Y-89207629D01*
X95731576Y-89056826D01*
X95716130Y-88900000D01*
X95731576Y-88743174D01*
X95777321Y-88592371D01*
X95851608Y-88453392D01*
X95951578Y-88331578D01*
X96073392Y-88231608D01*
X96212371Y-88157321D01*
X96287773Y-88134448D01*
X96363173Y-88111576D01*
X96402351Y-88107717D01*
X96480705Y-88100000D01*
X96559295Y-88100000D01*
X96637649Y-88107717D01*
X96637649Y-88107717D01*
G37*
G36*
X102450000Y-88480000D02*
X100750000Y-88480000D01*
X100750000Y-86780000D01*
X102450000Y-86780000D01*
X102450000Y-88480000D01*
X102450000Y-88480000D01*
G37*
G36*
X77050000Y-88480000D02*
X75350000Y-88480000D01*
X75350000Y-86780000D01*
X77050000Y-86780000D01*
X77050000Y-88480000D01*
X77050000Y-88480000D01*
G37*
G36*
X111926630Y-85522299D02*
X112086855Y-85570903D01*
X112234520Y-85649831D01*
X112363949Y-85756051D01*
X112470169Y-85885480D01*
X112549097Y-86033145D01*
X112597701Y-86193370D01*
X112614112Y-86360000D01*
X112597701Y-86526630D01*
X112549097Y-86686855D01*
X112470169Y-86834520D01*
X112363949Y-86963949D01*
X112234520Y-87070169D01*
X112086855Y-87149097D01*
X111926630Y-87197701D01*
X111801752Y-87210000D01*
X111718248Y-87210000D01*
X111593370Y-87197701D01*
X111433145Y-87149097D01*
X111285480Y-87070169D01*
X111156051Y-86963949D01*
X111049831Y-86834520D01*
X110970903Y-86686855D01*
X110922299Y-86526630D01*
X110905888Y-86360000D01*
X110922299Y-86193370D01*
X110970903Y-86033145D01*
X111049831Y-85885480D01*
X111156051Y-85756051D01*
X111285480Y-85649831D01*
X111433145Y-85570903D01*
X111593370Y-85522299D01*
X111718248Y-85510000D01*
X111801752Y-85510000D01*
X111926630Y-85522299D01*
X111926630Y-85522299D01*
G37*
G36*
X110070000Y-87210000D02*
X108370000Y-87210000D01*
X108370000Y-85510000D01*
X110070000Y-85510000D01*
X110070000Y-87210000D01*
X110070000Y-87210000D01*
G37*
G36*
X96637649Y-85567717D02*
X96676827Y-85571576D01*
X96752227Y-85594448D01*
X96827629Y-85617321D01*
X96966608Y-85691608D01*
X97088422Y-85791578D01*
X97188392Y-85913392D01*
X97262679Y-86052371D01*
X97262679Y-86052372D01*
X97308424Y-86203173D01*
X97323870Y-86360000D01*
X97308424Y-86516827D01*
X97305450Y-86526630D01*
X97262679Y-86667629D01*
X97188392Y-86806608D01*
X97088422Y-86928422D01*
X96966608Y-87028392D01*
X96827629Y-87102679D01*
X96752228Y-87125551D01*
X96676827Y-87148424D01*
X96637649Y-87152283D01*
X96559295Y-87160000D01*
X96480705Y-87160000D01*
X96402351Y-87152283D01*
X96363173Y-87148424D01*
X96287772Y-87125551D01*
X96212371Y-87102679D01*
X96073392Y-87028392D01*
X95951578Y-86928422D01*
X95851608Y-86806608D01*
X95777321Y-86667629D01*
X95734550Y-86526630D01*
X95731576Y-86516827D01*
X95716130Y-86360000D01*
X95731576Y-86203173D01*
X95777321Y-86052372D01*
X95777321Y-86052371D01*
X95851608Y-85913392D01*
X95951578Y-85791578D01*
X96073392Y-85691608D01*
X96212371Y-85617321D01*
X96287773Y-85594448D01*
X96363173Y-85571576D01*
X96402351Y-85567717D01*
X96480705Y-85560000D01*
X96559295Y-85560000D01*
X96637649Y-85567717D01*
X96637649Y-85567717D01*
G37*
G36*
X81397649Y-85567717D02*
X81436827Y-85571576D01*
X81512227Y-85594448D01*
X81587629Y-85617321D01*
X81726608Y-85691608D01*
X81848422Y-85791578D01*
X81948392Y-85913392D01*
X82022679Y-86052371D01*
X82022679Y-86052372D01*
X82068424Y-86203173D01*
X82083870Y-86360000D01*
X82068424Y-86516827D01*
X82065450Y-86526630D01*
X82022679Y-86667629D01*
X81948392Y-86806608D01*
X81848422Y-86928422D01*
X81726608Y-87028392D01*
X81587629Y-87102679D01*
X81512228Y-87125551D01*
X81436827Y-87148424D01*
X81397649Y-87152283D01*
X81319295Y-87160000D01*
X81240705Y-87160000D01*
X81162351Y-87152283D01*
X81123173Y-87148424D01*
X81047772Y-87125551D01*
X80972371Y-87102679D01*
X80833392Y-87028392D01*
X80711578Y-86928422D01*
X80611608Y-86806608D01*
X80537321Y-86667629D01*
X80494550Y-86526630D01*
X80491576Y-86516827D01*
X80476130Y-86360000D01*
X80491576Y-86203173D01*
X80537321Y-86052372D01*
X80537321Y-86052371D01*
X80611608Y-85913392D01*
X80711578Y-85791578D01*
X80833392Y-85691608D01*
X80972371Y-85617321D01*
X81047773Y-85594448D01*
X81123173Y-85571576D01*
X81162351Y-85567717D01*
X81240705Y-85560000D01*
X81319295Y-85560000D01*
X81397649Y-85567717D01*
X81397649Y-85567717D01*
G37*
G36*
X109386630Y-82982299D02*
X109546855Y-83030903D01*
X109694520Y-83109831D01*
X109823949Y-83216051D01*
X109930169Y-83345480D01*
X110009097Y-83493145D01*
X110057701Y-83653370D01*
X110074112Y-83820000D01*
X110057701Y-83986630D01*
X110009097Y-84146855D01*
X109930169Y-84294520D01*
X109823949Y-84423949D01*
X109694520Y-84530169D01*
X109546855Y-84609097D01*
X109386630Y-84657701D01*
X109261752Y-84670000D01*
X109178248Y-84670000D01*
X109053370Y-84657701D01*
X108893145Y-84609097D01*
X108745480Y-84530169D01*
X108616051Y-84423949D01*
X108509831Y-84294520D01*
X108430903Y-84146855D01*
X108382299Y-83986630D01*
X108365888Y-83820000D01*
X108382299Y-83653370D01*
X108430903Y-83493145D01*
X108509831Y-83345480D01*
X108616051Y-83216051D01*
X108745480Y-83109831D01*
X108893145Y-83030903D01*
X109053370Y-82982299D01*
X109178248Y-82970000D01*
X109261752Y-82970000D01*
X109386630Y-82982299D01*
X109386630Y-82982299D01*
G37*
G36*
X111926630Y-82982299D02*
X112086855Y-83030903D01*
X112234520Y-83109831D01*
X112363949Y-83216051D01*
X112470169Y-83345480D01*
X112549097Y-83493145D01*
X112597701Y-83653370D01*
X112614112Y-83820000D01*
X112597701Y-83986630D01*
X112549097Y-84146855D01*
X112470169Y-84294520D01*
X112363949Y-84423949D01*
X112234520Y-84530169D01*
X112086855Y-84609097D01*
X111926630Y-84657701D01*
X111801752Y-84670000D01*
X111718248Y-84670000D01*
X111593370Y-84657701D01*
X111433145Y-84609097D01*
X111285480Y-84530169D01*
X111156051Y-84423949D01*
X111049831Y-84294520D01*
X110970903Y-84146855D01*
X110922299Y-83986630D01*
X110905888Y-83820000D01*
X110922299Y-83653370D01*
X110970903Y-83493145D01*
X111049831Y-83345480D01*
X111156051Y-83216051D01*
X111285480Y-83109831D01*
X111433145Y-83030903D01*
X111593370Y-82982299D01*
X111718248Y-82970000D01*
X111801752Y-82970000D01*
X111926630Y-82982299D01*
X111926630Y-82982299D01*
G37*
G36*
X81397649Y-83027717D02*
X81436827Y-83031576D01*
X81512228Y-83054449D01*
X81587629Y-83077321D01*
X81726608Y-83151608D01*
X81848422Y-83251578D01*
X81948392Y-83373392D01*
X82022679Y-83512371D01*
X82022679Y-83512372D01*
X82068424Y-83663173D01*
X82083870Y-83820000D01*
X82068424Y-83976827D01*
X82065450Y-83986630D01*
X82022679Y-84127629D01*
X81948392Y-84266608D01*
X81848422Y-84388422D01*
X81726608Y-84488392D01*
X81587629Y-84562679D01*
X81512227Y-84585552D01*
X81436827Y-84608424D01*
X81397649Y-84612283D01*
X81319295Y-84620000D01*
X81240705Y-84620000D01*
X81162351Y-84612283D01*
X81123173Y-84608424D01*
X81047773Y-84585552D01*
X80972371Y-84562679D01*
X80833392Y-84488392D01*
X80711578Y-84388422D01*
X80611608Y-84266608D01*
X80537321Y-84127629D01*
X80494550Y-83986630D01*
X80491576Y-83976827D01*
X80476130Y-83820000D01*
X80491576Y-83663173D01*
X80537321Y-83512372D01*
X80537321Y-83512371D01*
X80611608Y-83373392D01*
X80711578Y-83251578D01*
X80833392Y-83151608D01*
X80972371Y-83077321D01*
X81047772Y-83054449D01*
X81123173Y-83031576D01*
X81162351Y-83027717D01*
X81240705Y-83020000D01*
X81319295Y-83020000D01*
X81397649Y-83027717D01*
X81397649Y-83027717D01*
G37*
G36*
X96637649Y-83027717D02*
X96676827Y-83031576D01*
X96752228Y-83054449D01*
X96827629Y-83077321D01*
X96966608Y-83151608D01*
X97088422Y-83251578D01*
X97188392Y-83373392D01*
X97262679Y-83512371D01*
X97262679Y-83512372D01*
X97308424Y-83663173D01*
X97323870Y-83820000D01*
X97308424Y-83976827D01*
X97305450Y-83986630D01*
X97262679Y-84127629D01*
X97188392Y-84266608D01*
X97088422Y-84388422D01*
X96966608Y-84488392D01*
X96827629Y-84562679D01*
X96752227Y-84585552D01*
X96676827Y-84608424D01*
X96637649Y-84612283D01*
X96559295Y-84620000D01*
X96480705Y-84620000D01*
X96402351Y-84612283D01*
X96363173Y-84608424D01*
X96287773Y-84585552D01*
X96212371Y-84562679D01*
X96073392Y-84488392D01*
X95951578Y-84388422D01*
X95851608Y-84266608D01*
X95777321Y-84127629D01*
X95734550Y-83986630D01*
X95731576Y-83976827D01*
X95716130Y-83820000D01*
X95731576Y-83663173D01*
X95777321Y-83512372D01*
X95777321Y-83512371D01*
X95851608Y-83373392D01*
X95951578Y-83251578D01*
X96073392Y-83151608D01*
X96212371Y-83077321D01*
X96287772Y-83054449D01*
X96363173Y-83031576D01*
X96402351Y-83027717D01*
X96480705Y-83020000D01*
X96559295Y-83020000D01*
X96637649Y-83027717D01*
X96637649Y-83027717D01*
G37*
G36*
X109386630Y-80442299D02*
X109546855Y-80490903D01*
X109694520Y-80569831D01*
X109823949Y-80676051D01*
X109930169Y-80805480D01*
X110009097Y-80953145D01*
X110057701Y-81113370D01*
X110074112Y-81280000D01*
X110057701Y-81446630D01*
X110009097Y-81606855D01*
X109930169Y-81754520D01*
X109823949Y-81883949D01*
X109694520Y-81990169D01*
X109546855Y-82069097D01*
X109386630Y-82117701D01*
X109261752Y-82130000D01*
X109178248Y-82130000D01*
X109053370Y-82117701D01*
X108893145Y-82069097D01*
X108745480Y-81990169D01*
X108616051Y-81883949D01*
X108509831Y-81754520D01*
X108430903Y-81606855D01*
X108382299Y-81446630D01*
X108365888Y-81280000D01*
X108382299Y-81113370D01*
X108430903Y-80953145D01*
X108509831Y-80805480D01*
X108616051Y-80676051D01*
X108745480Y-80569831D01*
X108893145Y-80490903D01*
X109053370Y-80442299D01*
X109178248Y-80430000D01*
X109261752Y-80430000D01*
X109386630Y-80442299D01*
X109386630Y-80442299D01*
G37*
G36*
X111926630Y-80442299D02*
X112086855Y-80490903D01*
X112234520Y-80569831D01*
X112363949Y-80676051D01*
X112470169Y-80805480D01*
X112549097Y-80953145D01*
X112597701Y-81113370D01*
X112614112Y-81280000D01*
X112597701Y-81446630D01*
X112549097Y-81606855D01*
X112470169Y-81754520D01*
X112363949Y-81883949D01*
X112234520Y-81990169D01*
X112086855Y-82069097D01*
X111926630Y-82117701D01*
X111801752Y-82130000D01*
X111718248Y-82130000D01*
X111593370Y-82117701D01*
X111433145Y-82069097D01*
X111285480Y-81990169D01*
X111156051Y-81883949D01*
X111049831Y-81754520D01*
X110970903Y-81606855D01*
X110922299Y-81446630D01*
X110905888Y-81280000D01*
X110922299Y-81113370D01*
X110970903Y-80953145D01*
X111049831Y-80805480D01*
X111156051Y-80676051D01*
X111285480Y-80569831D01*
X111433145Y-80490903D01*
X111593370Y-80442299D01*
X111718248Y-80430000D01*
X111801752Y-80430000D01*
X111926630Y-80442299D01*
X111926630Y-80442299D01*
G37*
G36*
X81397649Y-80487717D02*
X81436827Y-80491576D01*
X81512227Y-80514448D01*
X81587629Y-80537321D01*
X81726608Y-80611608D01*
X81848422Y-80711578D01*
X81948392Y-80833392D01*
X82022679Y-80972371D01*
X82022679Y-80972372D01*
X82068424Y-81123173D01*
X82083870Y-81280000D01*
X82068424Y-81436827D01*
X82065450Y-81446630D01*
X82022679Y-81587629D01*
X81948392Y-81726608D01*
X81848422Y-81848422D01*
X81726608Y-81948392D01*
X81587629Y-82022679D01*
X81512227Y-82045552D01*
X81436827Y-82068424D01*
X81397649Y-82072283D01*
X81319295Y-82080000D01*
X81240705Y-82080000D01*
X81162351Y-82072283D01*
X81123173Y-82068424D01*
X81047773Y-82045552D01*
X80972371Y-82022679D01*
X80833392Y-81948392D01*
X80711578Y-81848422D01*
X80611608Y-81726608D01*
X80537321Y-81587629D01*
X80494550Y-81446630D01*
X80491576Y-81436827D01*
X80476130Y-81280000D01*
X80491576Y-81123173D01*
X80537321Y-80972372D01*
X80537321Y-80972371D01*
X80611608Y-80833392D01*
X80711578Y-80711578D01*
X80833392Y-80611608D01*
X80972371Y-80537321D01*
X81047773Y-80514448D01*
X81123173Y-80491576D01*
X81162351Y-80487717D01*
X81240705Y-80480000D01*
X81319295Y-80480000D01*
X81397649Y-80487717D01*
X81397649Y-80487717D01*
G37*
G36*
X96637649Y-80487717D02*
X96676827Y-80491576D01*
X96752227Y-80514448D01*
X96827629Y-80537321D01*
X96966608Y-80611608D01*
X97088422Y-80711578D01*
X97188392Y-80833392D01*
X97262679Y-80972371D01*
X97262679Y-80972372D01*
X97308424Y-81123173D01*
X97323870Y-81280000D01*
X97308424Y-81436827D01*
X97305450Y-81446630D01*
X97262679Y-81587629D01*
X97188392Y-81726608D01*
X97088422Y-81848422D01*
X96966608Y-81948392D01*
X96827629Y-82022679D01*
X96752227Y-82045552D01*
X96676827Y-82068424D01*
X96637649Y-82072283D01*
X96559295Y-82080000D01*
X96480705Y-82080000D01*
X96402351Y-82072283D01*
X96363173Y-82068424D01*
X96287773Y-82045552D01*
X96212371Y-82022679D01*
X96073392Y-81948392D01*
X95951578Y-81848422D01*
X95851608Y-81726608D01*
X95777321Y-81587629D01*
X95734550Y-81446630D01*
X95731576Y-81436827D01*
X95716130Y-81280000D01*
X95731576Y-81123173D01*
X95777321Y-80972372D01*
X95777321Y-80972371D01*
X95851608Y-80833392D01*
X95951578Y-80711578D01*
X96073392Y-80611608D01*
X96212371Y-80537321D01*
X96287773Y-80514448D01*
X96363173Y-80491576D01*
X96402351Y-80487717D01*
X96480705Y-80480000D01*
X96559295Y-80480000D01*
X96637649Y-80487717D01*
X96637649Y-80487717D01*
G37*
G36*
X109386630Y-77902299D02*
X109546855Y-77950903D01*
X109694520Y-78029831D01*
X109823949Y-78136051D01*
X109930169Y-78265480D01*
X110009097Y-78413145D01*
X110057701Y-78573370D01*
X110074112Y-78740000D01*
X110057701Y-78906630D01*
X110009097Y-79066855D01*
X109930169Y-79214520D01*
X109823949Y-79343949D01*
X109694520Y-79450169D01*
X109546855Y-79529097D01*
X109386630Y-79577701D01*
X109261752Y-79590000D01*
X109178248Y-79590000D01*
X109053370Y-79577701D01*
X108893145Y-79529097D01*
X108745480Y-79450169D01*
X108616051Y-79343949D01*
X108509831Y-79214520D01*
X108430903Y-79066855D01*
X108382299Y-78906630D01*
X108365888Y-78740000D01*
X108382299Y-78573370D01*
X108430903Y-78413145D01*
X108509831Y-78265480D01*
X108616051Y-78136051D01*
X108745480Y-78029831D01*
X108893145Y-77950903D01*
X109053370Y-77902299D01*
X109178248Y-77890000D01*
X109261752Y-77890000D01*
X109386630Y-77902299D01*
X109386630Y-77902299D01*
G37*
G36*
X111926630Y-77902299D02*
X112086855Y-77950903D01*
X112234520Y-78029831D01*
X112363949Y-78136051D01*
X112470169Y-78265480D01*
X112549097Y-78413145D01*
X112597701Y-78573370D01*
X112614112Y-78740000D01*
X112597701Y-78906630D01*
X112549097Y-79066855D01*
X112470169Y-79214520D01*
X112363949Y-79343949D01*
X112234520Y-79450169D01*
X112086855Y-79529097D01*
X111926630Y-79577701D01*
X111801752Y-79590000D01*
X111718248Y-79590000D01*
X111593370Y-79577701D01*
X111433145Y-79529097D01*
X111285480Y-79450169D01*
X111156051Y-79343949D01*
X111049831Y-79214520D01*
X110970903Y-79066855D01*
X110922299Y-78906630D01*
X110905888Y-78740000D01*
X110922299Y-78573370D01*
X110970903Y-78413145D01*
X111049831Y-78265480D01*
X111156051Y-78136051D01*
X111285480Y-78029831D01*
X111433145Y-77950903D01*
X111593370Y-77902299D01*
X111718248Y-77890000D01*
X111801752Y-77890000D01*
X111926630Y-77902299D01*
X111926630Y-77902299D01*
G37*
G36*
X96637649Y-77947717D02*
X96676827Y-77951576D01*
X96752227Y-77974448D01*
X96827629Y-77997321D01*
X96966608Y-78071608D01*
X97088422Y-78171578D01*
X97188392Y-78293392D01*
X97262679Y-78432371D01*
X97262679Y-78432372D01*
X97308424Y-78583173D01*
X97323870Y-78740000D01*
X97308424Y-78896827D01*
X97305450Y-78906630D01*
X97262679Y-79047629D01*
X97188392Y-79186608D01*
X97088422Y-79308422D01*
X96966608Y-79408392D01*
X96827629Y-79482679D01*
X96752227Y-79505552D01*
X96676827Y-79528424D01*
X96637649Y-79532283D01*
X96559295Y-79540000D01*
X96480705Y-79540000D01*
X96402351Y-79532283D01*
X96363173Y-79528424D01*
X96287772Y-79505551D01*
X96212371Y-79482679D01*
X96073392Y-79408392D01*
X95951578Y-79308422D01*
X95851608Y-79186608D01*
X95777321Y-79047629D01*
X95734550Y-78906630D01*
X95731576Y-78896827D01*
X95716130Y-78740000D01*
X95731576Y-78583173D01*
X95777321Y-78432372D01*
X95777321Y-78432371D01*
X95851608Y-78293392D01*
X95951578Y-78171578D01*
X96073392Y-78071608D01*
X96212371Y-77997321D01*
X96287773Y-77974448D01*
X96363173Y-77951576D01*
X96402351Y-77947717D01*
X96480705Y-77940000D01*
X96559295Y-77940000D01*
X96637649Y-77947717D01*
X96637649Y-77947717D01*
G37*
G36*
X81397649Y-77947717D02*
X81436827Y-77951576D01*
X81512227Y-77974448D01*
X81587629Y-77997321D01*
X81726608Y-78071608D01*
X81848422Y-78171578D01*
X81948392Y-78293392D01*
X82022679Y-78432371D01*
X82022679Y-78432372D01*
X82068424Y-78583173D01*
X82083870Y-78740000D01*
X82068424Y-78896827D01*
X82065450Y-78906630D01*
X82022679Y-79047629D01*
X81948392Y-79186608D01*
X81848422Y-79308422D01*
X81726608Y-79408392D01*
X81587629Y-79482679D01*
X81512227Y-79505552D01*
X81436827Y-79528424D01*
X81397649Y-79532283D01*
X81319295Y-79540000D01*
X81240705Y-79540000D01*
X81162351Y-79532283D01*
X81123173Y-79528424D01*
X81047772Y-79505551D01*
X80972371Y-79482679D01*
X80833392Y-79408392D01*
X80711578Y-79308422D01*
X80611608Y-79186608D01*
X80537321Y-79047629D01*
X80494550Y-78906630D01*
X80491576Y-78896827D01*
X80476130Y-78740000D01*
X80491576Y-78583173D01*
X80537321Y-78432372D01*
X80537321Y-78432371D01*
X80611608Y-78293392D01*
X80711578Y-78171578D01*
X80833392Y-78071608D01*
X80972371Y-77997321D01*
X81047773Y-77974448D01*
X81123173Y-77951576D01*
X81162351Y-77947717D01*
X81240705Y-77940000D01*
X81319295Y-77940000D01*
X81397649Y-77947717D01*
X81397649Y-77947717D01*
G37*
G36*
X111926630Y-75362299D02*
X112086855Y-75410903D01*
X112234520Y-75489831D01*
X112363949Y-75596051D01*
X112470169Y-75725480D01*
X112549097Y-75873145D01*
X112597701Y-76033370D01*
X112614112Y-76200000D01*
X112597701Y-76366630D01*
X112549097Y-76526855D01*
X112470169Y-76674520D01*
X112363949Y-76803949D01*
X112234520Y-76910169D01*
X112086855Y-76989097D01*
X111926630Y-77037701D01*
X111801752Y-77050000D01*
X111718248Y-77050000D01*
X111593370Y-77037701D01*
X111433145Y-76989097D01*
X111285480Y-76910169D01*
X111156051Y-76803949D01*
X111049831Y-76674520D01*
X110970903Y-76526855D01*
X110922299Y-76366630D01*
X110905888Y-76200000D01*
X110922299Y-76033370D01*
X110970903Y-75873145D01*
X111049831Y-75725480D01*
X111156051Y-75596051D01*
X111285480Y-75489831D01*
X111433145Y-75410903D01*
X111593370Y-75362299D01*
X111718248Y-75350000D01*
X111801752Y-75350000D01*
X111926630Y-75362299D01*
X111926630Y-75362299D01*
G37*
G36*
X109386630Y-75362299D02*
X109546855Y-75410903D01*
X109694520Y-75489831D01*
X109823949Y-75596051D01*
X109930169Y-75725480D01*
X110009097Y-75873145D01*
X110057701Y-76033370D01*
X110074112Y-76200000D01*
X110057701Y-76366630D01*
X110009097Y-76526855D01*
X109930169Y-76674520D01*
X109823949Y-76803949D01*
X109694520Y-76910169D01*
X109546855Y-76989097D01*
X109386630Y-77037701D01*
X109261752Y-77050000D01*
X109178248Y-77050000D01*
X109053370Y-77037701D01*
X108893145Y-76989097D01*
X108745480Y-76910169D01*
X108616051Y-76803949D01*
X108509831Y-76674520D01*
X108430903Y-76526855D01*
X108382299Y-76366630D01*
X108365888Y-76200000D01*
X108382299Y-76033370D01*
X108430903Y-75873145D01*
X108509831Y-75725480D01*
X108616051Y-75596051D01*
X108745480Y-75489831D01*
X108893145Y-75410903D01*
X109053370Y-75362299D01*
X109178248Y-75350000D01*
X109261752Y-75350000D01*
X109386630Y-75362299D01*
X109386630Y-75362299D01*
G37*
G36*
X96637649Y-75407717D02*
X96676827Y-75411576D01*
X96752227Y-75434448D01*
X96827629Y-75457321D01*
X96966608Y-75531608D01*
X97088422Y-75631578D01*
X97188392Y-75753392D01*
X97262679Y-75892371D01*
X97262679Y-75892372D01*
X97308424Y-76043173D01*
X97323870Y-76200000D01*
X97308424Y-76356827D01*
X97294508Y-76402701D01*
X97262679Y-76507629D01*
X97188392Y-76646608D01*
X97088422Y-76768422D01*
X96966608Y-76868392D01*
X96827629Y-76942679D01*
X96752228Y-76965551D01*
X96676827Y-76988424D01*
X96637649Y-76992283D01*
X96559295Y-77000000D01*
X96480705Y-77000000D01*
X96402351Y-76992283D01*
X96363173Y-76988424D01*
X96287773Y-76965552D01*
X96212371Y-76942679D01*
X96073392Y-76868392D01*
X95951578Y-76768422D01*
X95851608Y-76646608D01*
X95777321Y-76507629D01*
X95745492Y-76402701D01*
X95731576Y-76356827D01*
X95716130Y-76200000D01*
X95731576Y-76043173D01*
X95777321Y-75892372D01*
X95777321Y-75892371D01*
X95851608Y-75753392D01*
X95951578Y-75631578D01*
X96073392Y-75531608D01*
X96212371Y-75457321D01*
X96287773Y-75434448D01*
X96363173Y-75411576D01*
X96402351Y-75407717D01*
X96480705Y-75400000D01*
X96559295Y-75400000D01*
X96637649Y-75407717D01*
X96637649Y-75407717D01*
G37*
G36*
X81397649Y-75407717D02*
X81436827Y-75411576D01*
X81512227Y-75434448D01*
X81587629Y-75457321D01*
X81726608Y-75531608D01*
X81848422Y-75631578D01*
X81948392Y-75753392D01*
X82022679Y-75892371D01*
X82022679Y-75892372D01*
X82068424Y-76043173D01*
X82083870Y-76200000D01*
X82068424Y-76356827D01*
X82054508Y-76402701D01*
X82022679Y-76507629D01*
X81948392Y-76646608D01*
X81848422Y-76768422D01*
X81726608Y-76868392D01*
X81587629Y-76942679D01*
X81512228Y-76965551D01*
X81436827Y-76988424D01*
X81397649Y-76992283D01*
X81319295Y-77000000D01*
X81240705Y-77000000D01*
X81162351Y-76992283D01*
X81123173Y-76988424D01*
X81047773Y-76965552D01*
X80972371Y-76942679D01*
X80833392Y-76868392D01*
X80711578Y-76768422D01*
X80611608Y-76646608D01*
X80537321Y-76507629D01*
X80505492Y-76402701D01*
X80491576Y-76356827D01*
X80476130Y-76200000D01*
X80491576Y-76043173D01*
X80537321Y-75892372D01*
X80537321Y-75892371D01*
X80611608Y-75753392D01*
X80711578Y-75631578D01*
X80833392Y-75531608D01*
X80972371Y-75457321D01*
X81047773Y-75434448D01*
X81123173Y-75411576D01*
X81162351Y-75407717D01*
X81240705Y-75400000D01*
X81319295Y-75400000D01*
X81397649Y-75407717D01*
X81397649Y-75407717D01*
G37*
G36*
X76366630Y-74727299D02*
X76526855Y-74775903D01*
X76674520Y-74854831D01*
X76803949Y-74961051D01*
X76910169Y-75090480D01*
X76989097Y-75238145D01*
X77037701Y-75398370D01*
X77054112Y-75565000D01*
X77037701Y-75731630D01*
X76989097Y-75891855D01*
X76910169Y-76039520D01*
X76803949Y-76168949D01*
X76674520Y-76275169D01*
X76526855Y-76354097D01*
X76366630Y-76402701D01*
X76241752Y-76415000D01*
X76158248Y-76415000D01*
X76033370Y-76402701D01*
X75873145Y-76354097D01*
X75725480Y-76275169D01*
X75596051Y-76168949D01*
X75489831Y-76039520D01*
X75410903Y-75891855D01*
X75362299Y-75731630D01*
X75345888Y-75565000D01*
X75362299Y-75398370D01*
X75410903Y-75238145D01*
X75489831Y-75090480D01*
X75596051Y-74961051D01*
X75725480Y-74854831D01*
X75873145Y-74775903D01*
X76033370Y-74727299D01*
X76158248Y-74715000D01*
X76241752Y-74715000D01*
X76366630Y-74727299D01*
X76366630Y-74727299D01*
G37*
G36*
X109386630Y-72822299D02*
X109546855Y-72870903D01*
X109694520Y-72949831D01*
X109823949Y-73056051D01*
X109930169Y-73185480D01*
X110009097Y-73333145D01*
X110057701Y-73493370D01*
X110074112Y-73660000D01*
X110057701Y-73826630D01*
X110009097Y-73986855D01*
X109930169Y-74134520D01*
X109823949Y-74263949D01*
X109694520Y-74370169D01*
X109546855Y-74449097D01*
X109386630Y-74497701D01*
X109261752Y-74510000D01*
X109178248Y-74510000D01*
X109053370Y-74497701D01*
X108893145Y-74449097D01*
X108745480Y-74370169D01*
X108616051Y-74263949D01*
X108509831Y-74134520D01*
X108430903Y-73986855D01*
X108382299Y-73826630D01*
X108365888Y-73660000D01*
X108382299Y-73493370D01*
X108430903Y-73333145D01*
X108509831Y-73185480D01*
X108616051Y-73056051D01*
X108745480Y-72949831D01*
X108893145Y-72870903D01*
X109053370Y-72822299D01*
X109178248Y-72810000D01*
X109261752Y-72810000D01*
X109386630Y-72822299D01*
X109386630Y-72822299D01*
G37*
G36*
X111926630Y-72822299D02*
X112086855Y-72870903D01*
X112234520Y-72949831D01*
X112363949Y-73056051D01*
X112470169Y-73185480D01*
X112549097Y-73333145D01*
X112597701Y-73493370D01*
X112614112Y-73660000D01*
X112597701Y-73826630D01*
X112549097Y-73986855D01*
X112470169Y-74134520D01*
X112363949Y-74263949D01*
X112234520Y-74370169D01*
X112086855Y-74449097D01*
X111926630Y-74497701D01*
X111801752Y-74510000D01*
X111718248Y-74510000D01*
X111593370Y-74497701D01*
X111433145Y-74449097D01*
X111285480Y-74370169D01*
X111156051Y-74263949D01*
X111049831Y-74134520D01*
X110970903Y-73986855D01*
X110922299Y-73826630D01*
X110905888Y-73660000D01*
X110922299Y-73493370D01*
X110970903Y-73333145D01*
X111049831Y-73185480D01*
X111156051Y-73056051D01*
X111285480Y-72949831D01*
X111433145Y-72870903D01*
X111593370Y-72822299D01*
X111718248Y-72810000D01*
X111801752Y-72810000D01*
X111926630Y-72822299D01*
X111926630Y-72822299D01*
G37*
G36*
X96637649Y-72867717D02*
X96676827Y-72871576D01*
X96752227Y-72894448D01*
X96827629Y-72917321D01*
X96966608Y-72991608D01*
X97088422Y-73091578D01*
X97188392Y-73213392D01*
X97262679Y-73352371D01*
X97262679Y-73352372D01*
X97308424Y-73503173D01*
X97323870Y-73660000D01*
X97308424Y-73816827D01*
X97305450Y-73826630D01*
X97262679Y-73967629D01*
X97188392Y-74106608D01*
X97088422Y-74228422D01*
X96966608Y-74328392D01*
X96827629Y-74402679D01*
X96752228Y-74425551D01*
X96676827Y-74448424D01*
X96637649Y-74452283D01*
X96559295Y-74460000D01*
X96480705Y-74460000D01*
X96402351Y-74452283D01*
X96363173Y-74448424D01*
X96287772Y-74425551D01*
X96212371Y-74402679D01*
X96073392Y-74328392D01*
X95951578Y-74228422D01*
X95851608Y-74106608D01*
X95777321Y-73967629D01*
X95734550Y-73826630D01*
X95731576Y-73816827D01*
X95716130Y-73660000D01*
X95731576Y-73503173D01*
X95777321Y-73352372D01*
X95777321Y-73352371D01*
X95851608Y-73213392D01*
X95951578Y-73091578D01*
X96073392Y-72991608D01*
X96212371Y-72917321D01*
X96287773Y-72894448D01*
X96363173Y-72871576D01*
X96402351Y-72867717D01*
X96480705Y-72860000D01*
X96559295Y-72860000D01*
X96637649Y-72867717D01*
X96637649Y-72867717D01*
G37*
G36*
X81397649Y-72867717D02*
X81436827Y-72871576D01*
X81512227Y-72894448D01*
X81587629Y-72917321D01*
X81726608Y-72991608D01*
X81848422Y-73091578D01*
X81948392Y-73213392D01*
X82022679Y-73352371D01*
X82022679Y-73352372D01*
X82068424Y-73503173D01*
X82083870Y-73660000D01*
X82068424Y-73816827D01*
X82065450Y-73826630D01*
X82022679Y-73967629D01*
X81948392Y-74106608D01*
X81848422Y-74228422D01*
X81726608Y-74328392D01*
X81587629Y-74402679D01*
X81512228Y-74425551D01*
X81436827Y-74448424D01*
X81397649Y-74452283D01*
X81319295Y-74460000D01*
X81240705Y-74460000D01*
X81162351Y-74452283D01*
X81123173Y-74448424D01*
X81047772Y-74425551D01*
X80972371Y-74402679D01*
X80833392Y-74328392D01*
X80711578Y-74228422D01*
X80611608Y-74106608D01*
X80537321Y-73967629D01*
X80494550Y-73826630D01*
X80491576Y-73816827D01*
X80476130Y-73660000D01*
X80491576Y-73503173D01*
X80537321Y-73352372D01*
X80537321Y-73352371D01*
X80611608Y-73213392D01*
X80711578Y-73091578D01*
X80833392Y-72991608D01*
X80972371Y-72917321D01*
X81047773Y-72894448D01*
X81123173Y-72871576D01*
X81162351Y-72867717D01*
X81240705Y-72860000D01*
X81319295Y-72860000D01*
X81397649Y-72867717D01*
X81397649Y-72867717D01*
G37*
G36*
X77050000Y-73875000D02*
X75350000Y-73875000D01*
X75350000Y-72175000D01*
X77050000Y-72175000D01*
X77050000Y-73875000D01*
X77050000Y-73875000D01*
G37*
G36*
X111926630Y-70282299D02*
X112086855Y-70330903D01*
X112234520Y-70409831D01*
X112363949Y-70516051D01*
X112470169Y-70645480D01*
X112549097Y-70793145D01*
X112597701Y-70953370D01*
X112614112Y-71120000D01*
X112597701Y-71286630D01*
X112549097Y-71446855D01*
X112470169Y-71594520D01*
X112363949Y-71723949D01*
X112234520Y-71830169D01*
X112086855Y-71909097D01*
X111926630Y-71957701D01*
X111801752Y-71970000D01*
X111718248Y-71970000D01*
X111593370Y-71957701D01*
X111433145Y-71909097D01*
X111285480Y-71830169D01*
X111156051Y-71723949D01*
X111049831Y-71594520D01*
X110970903Y-71446855D01*
X110922299Y-71286630D01*
X110905888Y-71120000D01*
X110922299Y-70953370D01*
X110970903Y-70793145D01*
X111049831Y-70645480D01*
X111156051Y-70516051D01*
X111285480Y-70409831D01*
X111433145Y-70330903D01*
X111593370Y-70282299D01*
X111718248Y-70270000D01*
X111801752Y-70270000D01*
X111926630Y-70282299D01*
X111926630Y-70282299D01*
G37*
G36*
X109386630Y-70282299D02*
X109546855Y-70330903D01*
X109694520Y-70409831D01*
X109823949Y-70516051D01*
X109930169Y-70645480D01*
X110009097Y-70793145D01*
X110057701Y-70953370D01*
X110074112Y-71120000D01*
X110057701Y-71286630D01*
X110009097Y-71446855D01*
X109930169Y-71594520D01*
X109823949Y-71723949D01*
X109694520Y-71830169D01*
X109546855Y-71909097D01*
X109386630Y-71957701D01*
X109261752Y-71970000D01*
X109178248Y-71970000D01*
X109053370Y-71957701D01*
X108893145Y-71909097D01*
X108745480Y-71830169D01*
X108616051Y-71723949D01*
X108509831Y-71594520D01*
X108430903Y-71446855D01*
X108382299Y-71286630D01*
X108365888Y-71120000D01*
X108382299Y-70953370D01*
X108430903Y-70793145D01*
X108509831Y-70645480D01*
X108616051Y-70516051D01*
X108745480Y-70409831D01*
X108893145Y-70330903D01*
X109053370Y-70282299D01*
X109178248Y-70270000D01*
X109261752Y-70270000D01*
X109386630Y-70282299D01*
X109386630Y-70282299D01*
G37*
G36*
X96637649Y-70327717D02*
X96676827Y-70331576D01*
X96752227Y-70354448D01*
X96827629Y-70377321D01*
X96966608Y-70451608D01*
X97088422Y-70551578D01*
X97188392Y-70673392D01*
X97262679Y-70812371D01*
X97262679Y-70812372D01*
X97308424Y-70963173D01*
X97323870Y-71120000D01*
X97308424Y-71276827D01*
X97305450Y-71286630D01*
X97262679Y-71427629D01*
X97188392Y-71566608D01*
X97088422Y-71688422D01*
X96966608Y-71788392D01*
X96827629Y-71862679D01*
X96752228Y-71885551D01*
X96676827Y-71908424D01*
X96637649Y-71912283D01*
X96559295Y-71920000D01*
X96480705Y-71920000D01*
X96402351Y-71912283D01*
X96363173Y-71908424D01*
X96287773Y-71885552D01*
X96212371Y-71862679D01*
X96073392Y-71788392D01*
X95951578Y-71688422D01*
X95851608Y-71566608D01*
X95777321Y-71427629D01*
X95734550Y-71286630D01*
X95731576Y-71276827D01*
X95716130Y-71120000D01*
X95731576Y-70963173D01*
X95777321Y-70812372D01*
X95777321Y-70812371D01*
X95851608Y-70673392D01*
X95951578Y-70551578D01*
X96073392Y-70451608D01*
X96212371Y-70377321D01*
X96287773Y-70354448D01*
X96363173Y-70331576D01*
X96402351Y-70327717D01*
X96480705Y-70320000D01*
X96559295Y-70320000D01*
X96637649Y-70327717D01*
X96637649Y-70327717D01*
G37*
G36*
X81397649Y-70327717D02*
X81436827Y-70331576D01*
X81512227Y-70354448D01*
X81587629Y-70377321D01*
X81726608Y-70451608D01*
X81848422Y-70551578D01*
X81948392Y-70673392D01*
X82022679Y-70812371D01*
X82022679Y-70812372D01*
X82068424Y-70963173D01*
X82083870Y-71120000D01*
X82068424Y-71276827D01*
X82065450Y-71286630D01*
X82022679Y-71427629D01*
X81948392Y-71566608D01*
X81848422Y-71688422D01*
X81726608Y-71788392D01*
X81587629Y-71862679D01*
X81512228Y-71885551D01*
X81436827Y-71908424D01*
X81397649Y-71912283D01*
X81319295Y-71920000D01*
X81240705Y-71920000D01*
X81162351Y-71912283D01*
X81123173Y-71908424D01*
X81047773Y-71885552D01*
X80972371Y-71862679D01*
X80833392Y-71788392D01*
X80711578Y-71688422D01*
X80611608Y-71566608D01*
X80537321Y-71427629D01*
X80494550Y-71286630D01*
X80491576Y-71276827D01*
X80476130Y-71120000D01*
X80491576Y-70963173D01*
X80537321Y-70812372D01*
X80537321Y-70812371D01*
X80611608Y-70673392D01*
X80711578Y-70551578D01*
X80833392Y-70451608D01*
X80972371Y-70377321D01*
X81047773Y-70354448D01*
X81123173Y-70331576D01*
X81162351Y-70327717D01*
X81240705Y-70320000D01*
X81319295Y-70320000D01*
X81397649Y-70327717D01*
X81397649Y-70327717D01*
G37*
G36*
X111926630Y-67742299D02*
X112086855Y-67790903D01*
X112234520Y-67869831D01*
X112363949Y-67976051D01*
X112470169Y-68105480D01*
X112549097Y-68253145D01*
X112597701Y-68413370D01*
X112614112Y-68580000D01*
X112597701Y-68746630D01*
X112549097Y-68906855D01*
X112470169Y-69054520D01*
X112363949Y-69183949D01*
X112234520Y-69290169D01*
X112086855Y-69369097D01*
X111926630Y-69417701D01*
X111801752Y-69430000D01*
X111718248Y-69430000D01*
X111593370Y-69417701D01*
X111433145Y-69369097D01*
X111285480Y-69290169D01*
X111156051Y-69183949D01*
X111049831Y-69054520D01*
X110970903Y-68906855D01*
X110922299Y-68746630D01*
X110905888Y-68580000D01*
X110922299Y-68413370D01*
X110970903Y-68253145D01*
X111049831Y-68105480D01*
X111156051Y-67976051D01*
X111285480Y-67869831D01*
X111433145Y-67790903D01*
X111593370Y-67742299D01*
X111718248Y-67730000D01*
X111801752Y-67730000D01*
X111926630Y-67742299D01*
X111926630Y-67742299D01*
G37*
G36*
X109386630Y-67742299D02*
X109546855Y-67790903D01*
X109694520Y-67869831D01*
X109823949Y-67976051D01*
X109930169Y-68105480D01*
X110009097Y-68253145D01*
X110057701Y-68413370D01*
X110074112Y-68580000D01*
X110057701Y-68746630D01*
X110009097Y-68906855D01*
X109930169Y-69054520D01*
X109823949Y-69183949D01*
X109694520Y-69290169D01*
X109546855Y-69369097D01*
X109386630Y-69417701D01*
X109261752Y-69430000D01*
X109178248Y-69430000D01*
X109053370Y-69417701D01*
X108893145Y-69369097D01*
X108745480Y-69290169D01*
X108616051Y-69183949D01*
X108509831Y-69054520D01*
X108430903Y-68906855D01*
X108382299Y-68746630D01*
X108365888Y-68580000D01*
X108382299Y-68413370D01*
X108430903Y-68253145D01*
X108509831Y-68105480D01*
X108616051Y-67976051D01*
X108745480Y-67869831D01*
X108893145Y-67790903D01*
X109053370Y-67742299D01*
X109178248Y-67730000D01*
X109261752Y-67730000D01*
X109386630Y-67742299D01*
X109386630Y-67742299D01*
G37*
G36*
X96637649Y-67787717D02*
X96676827Y-67791576D01*
X96752228Y-67814449D01*
X96827629Y-67837321D01*
X96966608Y-67911608D01*
X97088422Y-68011578D01*
X97188392Y-68133392D01*
X97262679Y-68272371D01*
X97262679Y-68272372D01*
X97308424Y-68423173D01*
X97323870Y-68580000D01*
X97308424Y-68736827D01*
X97305450Y-68746630D01*
X97262679Y-68887629D01*
X97188392Y-69026608D01*
X97088422Y-69148422D01*
X96966608Y-69248392D01*
X96827629Y-69322679D01*
X96752227Y-69345552D01*
X96676827Y-69368424D01*
X96637649Y-69372283D01*
X96559295Y-69380000D01*
X96480705Y-69380000D01*
X96402351Y-69372283D01*
X96363173Y-69368424D01*
X96287772Y-69345551D01*
X96212371Y-69322679D01*
X96073392Y-69248392D01*
X95951578Y-69148422D01*
X95851608Y-69026608D01*
X95777321Y-68887629D01*
X95734550Y-68746630D01*
X95731576Y-68736827D01*
X95716130Y-68580000D01*
X95731576Y-68423173D01*
X95777321Y-68272372D01*
X95777321Y-68272371D01*
X95851608Y-68133392D01*
X95951578Y-68011578D01*
X96073392Y-67911608D01*
X96212371Y-67837321D01*
X96287772Y-67814449D01*
X96363173Y-67791576D01*
X96402351Y-67787717D01*
X96480705Y-67780000D01*
X96559295Y-67780000D01*
X96637649Y-67787717D01*
X96637649Y-67787717D01*
G37*
G36*
X81397649Y-67787717D02*
X81436827Y-67791576D01*
X81512228Y-67814449D01*
X81587629Y-67837321D01*
X81726608Y-67911608D01*
X81848422Y-68011578D01*
X81948392Y-68133392D01*
X82022679Y-68272371D01*
X82022679Y-68272372D01*
X82068424Y-68423173D01*
X82083870Y-68580000D01*
X82068424Y-68736827D01*
X82065450Y-68746630D01*
X82022679Y-68887629D01*
X81948392Y-69026608D01*
X81848422Y-69148422D01*
X81726608Y-69248392D01*
X81587629Y-69322679D01*
X81512227Y-69345552D01*
X81436827Y-69368424D01*
X81397649Y-69372283D01*
X81319295Y-69380000D01*
X81240705Y-69380000D01*
X81162351Y-69372283D01*
X81123173Y-69368424D01*
X81047772Y-69345551D01*
X80972371Y-69322679D01*
X80833392Y-69248392D01*
X80711578Y-69148422D01*
X80611608Y-69026608D01*
X80537321Y-68887629D01*
X80494550Y-68746630D01*
X80491576Y-68736827D01*
X80476130Y-68580000D01*
X80491576Y-68423173D01*
X80537321Y-68272372D01*
X80537321Y-68272371D01*
X80611608Y-68133392D01*
X80711578Y-68011578D01*
X80833392Y-67911608D01*
X80972371Y-67837321D01*
X81047772Y-67814449D01*
X81123173Y-67791576D01*
X81162351Y-67787717D01*
X81240705Y-67780000D01*
X81319295Y-67780000D01*
X81397649Y-67787717D01*
X81397649Y-67787717D01*
G37*
G36*
X81397649Y-65247717D02*
X81436827Y-65251576D01*
X81512228Y-65274449D01*
X81587629Y-65297321D01*
X81726608Y-65371608D01*
X81848422Y-65471578D01*
X81948392Y-65593392D01*
X82022679Y-65732371D01*
X82068424Y-65883174D01*
X82083870Y-66040000D01*
X82068424Y-66196826D01*
X82022679Y-66347629D01*
X81948392Y-66486608D01*
X81848422Y-66608422D01*
X81726608Y-66708392D01*
X81587629Y-66782679D01*
X81512228Y-66805551D01*
X81436827Y-66828424D01*
X81397649Y-66832283D01*
X81319295Y-66840000D01*
X81240705Y-66840000D01*
X81162351Y-66832283D01*
X81123173Y-66828424D01*
X81047772Y-66805551D01*
X80972371Y-66782679D01*
X80833392Y-66708392D01*
X80711578Y-66608422D01*
X80611608Y-66486608D01*
X80537321Y-66347629D01*
X80491576Y-66196826D01*
X80476130Y-66040000D01*
X80491576Y-65883174D01*
X80537321Y-65732371D01*
X80611608Y-65593392D01*
X80711578Y-65471578D01*
X80833392Y-65371608D01*
X80972371Y-65297321D01*
X81047772Y-65274449D01*
X81123173Y-65251576D01*
X81162351Y-65247717D01*
X81240705Y-65240000D01*
X81319295Y-65240000D01*
X81397649Y-65247717D01*
X81397649Y-65247717D01*
G37*
G36*
X96637649Y-65247717D02*
X96676827Y-65251576D01*
X96752228Y-65274449D01*
X96827629Y-65297321D01*
X96966608Y-65371608D01*
X97088422Y-65471578D01*
X97188392Y-65593392D01*
X97262679Y-65732371D01*
X97308424Y-65883174D01*
X97323870Y-66040000D01*
X97308424Y-66196826D01*
X97262679Y-66347629D01*
X97188392Y-66486608D01*
X97088422Y-66608422D01*
X96966608Y-66708392D01*
X96827629Y-66782679D01*
X96752228Y-66805551D01*
X96676827Y-66828424D01*
X96637649Y-66832283D01*
X96559295Y-66840000D01*
X96480705Y-66840000D01*
X96402351Y-66832283D01*
X96363173Y-66828424D01*
X96287772Y-66805551D01*
X96212371Y-66782679D01*
X96073392Y-66708392D01*
X95951578Y-66608422D01*
X95851608Y-66486608D01*
X95777321Y-66347629D01*
X95731576Y-66196826D01*
X95716130Y-66040000D01*
X95731576Y-65883174D01*
X95777321Y-65732371D01*
X95851608Y-65593392D01*
X95951578Y-65471578D01*
X96073392Y-65371608D01*
X96212371Y-65297321D01*
X96287772Y-65274449D01*
X96363173Y-65251576D01*
X96402351Y-65247717D01*
X96480705Y-65240000D01*
X96559295Y-65240000D01*
X96637649Y-65247717D01*
X96637649Y-65247717D01*
G37*
G36*
X81397649Y-62707717D02*
X81436827Y-62711576D01*
X81464597Y-62720000D01*
X81587629Y-62757321D01*
X81726608Y-62831608D01*
X81848422Y-62931578D01*
X81948392Y-63053392D01*
X82022679Y-63192371D01*
X82068424Y-63343174D01*
X82083870Y-63500000D01*
X82068424Y-63656826D01*
X82022679Y-63807629D01*
X81948392Y-63946608D01*
X81848422Y-64068422D01*
X81726608Y-64168392D01*
X81587629Y-64242679D01*
X81512227Y-64265552D01*
X81436827Y-64288424D01*
X81397649Y-64292283D01*
X81319295Y-64300000D01*
X81240705Y-64300000D01*
X81162351Y-64292283D01*
X81123173Y-64288424D01*
X81047772Y-64265551D01*
X80972371Y-64242679D01*
X80833392Y-64168392D01*
X80711578Y-64068422D01*
X80611608Y-63946608D01*
X80537321Y-63807629D01*
X80491576Y-63656826D01*
X80476130Y-63500000D01*
X80491576Y-63343174D01*
X80537321Y-63192371D01*
X80611608Y-63053392D01*
X80711578Y-62931578D01*
X80833392Y-62831608D01*
X80972371Y-62757321D01*
X81095403Y-62720000D01*
X81123173Y-62711576D01*
X81162351Y-62707717D01*
X81240705Y-62700000D01*
X81319295Y-62700000D01*
X81397649Y-62707717D01*
X81397649Y-62707717D01*
G37*
G36*
X96637649Y-62707717D02*
X96676827Y-62711576D01*
X96704597Y-62720000D01*
X96827629Y-62757321D01*
X96966608Y-62831608D01*
X97088422Y-62931578D01*
X97188392Y-63053392D01*
X97262679Y-63192371D01*
X97308424Y-63343174D01*
X97323870Y-63500000D01*
X97308424Y-63656826D01*
X97262679Y-63807629D01*
X97188392Y-63946608D01*
X97088422Y-64068422D01*
X96966608Y-64168392D01*
X96827629Y-64242679D01*
X96752227Y-64265552D01*
X96676827Y-64288424D01*
X96637649Y-64292283D01*
X96559295Y-64300000D01*
X96480705Y-64300000D01*
X96402351Y-64292283D01*
X96363173Y-64288424D01*
X96287772Y-64265551D01*
X96212371Y-64242679D01*
X96073392Y-64168392D01*
X95951578Y-64068422D01*
X95851608Y-63946608D01*
X95777321Y-63807629D01*
X95731576Y-63656826D01*
X95716130Y-63500000D01*
X95731576Y-63343174D01*
X95777321Y-63192371D01*
X95851608Y-63053392D01*
X95951578Y-62931578D01*
X96073392Y-62831608D01*
X96212371Y-62757321D01*
X96335403Y-62720000D01*
X96363173Y-62711576D01*
X96402351Y-62707717D01*
X96480705Y-62700000D01*
X96559295Y-62700000D01*
X96637649Y-62707717D01*
X96637649Y-62707717D01*
G37*
G36*
X51638888Y-54202623D02*
X52054264Y-54285246D01*
X52836814Y-54609389D01*
X53536341Y-55076799D01*
X53541093Y-55079974D01*
X54140026Y-55678907D01*
X54140028Y-55678910D01*
X54610611Y-56383186D01*
X54934754Y-57165736D01*
X55100000Y-57996487D01*
X55100000Y-58843513D01*
X54934754Y-59674264D01*
X54610611Y-60456814D01*
X54479943Y-60652372D01*
X54140026Y-61161093D01*
X53541093Y-61760026D01*
X53541090Y-61760028D01*
X52836814Y-62230611D01*
X52054264Y-62554754D01*
X51223514Y-62720000D01*
X50376486Y-62720000D01*
X49545736Y-62554754D01*
X48763186Y-62230611D01*
X48058910Y-61760028D01*
X48058907Y-61760026D01*
X47459974Y-61161093D01*
X47120057Y-60652372D01*
X46989389Y-60456814D01*
X46665246Y-59674264D01*
X46500000Y-58843513D01*
X46500000Y-57996487D01*
X46665246Y-57165736D01*
X46989389Y-56383186D01*
X47459972Y-55678910D01*
X47459974Y-55678907D01*
X48058907Y-55079974D01*
X48063659Y-55076799D01*
X48763186Y-54609389D01*
X49545736Y-54285246D01*
X49961112Y-54202623D01*
X50376486Y-54120000D01*
X51223514Y-54120000D01*
X51638888Y-54202623D01*
X51638888Y-54202623D01*
G37*
G36*
X112598888Y-54202623D02*
X113014264Y-54285246D01*
X113796814Y-54609389D01*
X114496341Y-55076799D01*
X114501093Y-55079974D01*
X115100026Y-55678907D01*
X115100028Y-55678910D01*
X115570611Y-56383186D01*
X115894754Y-57165736D01*
X116060000Y-57996487D01*
X116060000Y-58843513D01*
X115894754Y-59674264D01*
X115570611Y-60456814D01*
X115439943Y-60652372D01*
X115100026Y-61161093D01*
X114501093Y-61760026D01*
X114501090Y-61760028D01*
X113796814Y-62230611D01*
X113014264Y-62554754D01*
X112183514Y-62720000D01*
X111336486Y-62720000D01*
X110505736Y-62554754D01*
X109723186Y-62230611D01*
X109018910Y-61760028D01*
X109018907Y-61760026D01*
X108419974Y-61161093D01*
X108080057Y-60652372D01*
X107949389Y-60456814D01*
X107625246Y-59674264D01*
X107460000Y-58843513D01*
X107460000Y-57996487D01*
X107625246Y-57165736D01*
X107949389Y-56383186D01*
X108419972Y-55678910D01*
X108419974Y-55678907D01*
X109018907Y-55079974D01*
X109023659Y-55076799D01*
X109723186Y-54609389D01*
X110505736Y-54285246D01*
X110921112Y-54202623D01*
X111336486Y-54120000D01*
X112183514Y-54120000D01*
X112598888Y-54202623D01*
X112598888Y-54202623D01*
G37*
G36*
X96637649Y-60167717D02*
X96676827Y-60171576D01*
X96752227Y-60194448D01*
X96827629Y-60217321D01*
X96966608Y-60291608D01*
X97088422Y-60391578D01*
X97188392Y-60513392D01*
X97262679Y-60652371D01*
X97308424Y-60803174D01*
X97323870Y-60960000D01*
X97308424Y-61116826D01*
X97262679Y-61267629D01*
X97188392Y-61406608D01*
X97088422Y-61528422D01*
X96966608Y-61628392D01*
X96827629Y-61702679D01*
X96752228Y-61725551D01*
X96676827Y-61748424D01*
X96637649Y-61752283D01*
X96559295Y-61760000D01*
X96480705Y-61760000D01*
X96402351Y-61752283D01*
X96363173Y-61748424D01*
X96287772Y-61725551D01*
X96212371Y-61702679D01*
X96073392Y-61628392D01*
X95951578Y-61528422D01*
X95851608Y-61406608D01*
X95777321Y-61267629D01*
X95731576Y-61116826D01*
X95716130Y-60960000D01*
X95731576Y-60803174D01*
X95777321Y-60652371D01*
X95851608Y-60513392D01*
X95951578Y-60391578D01*
X96073392Y-60291608D01*
X96212371Y-60217321D01*
X96287773Y-60194448D01*
X96363173Y-60171576D01*
X96402351Y-60167717D01*
X96480705Y-60160000D01*
X96559295Y-60160000D01*
X96637649Y-60167717D01*
X96637649Y-60167717D01*
G37*
G36*
X81397649Y-60167717D02*
X81436827Y-60171576D01*
X81512227Y-60194448D01*
X81587629Y-60217321D01*
X81726608Y-60291608D01*
X81848422Y-60391578D01*
X81948392Y-60513392D01*
X82022679Y-60652371D01*
X82068424Y-60803174D01*
X82083870Y-60960000D01*
X82068424Y-61116826D01*
X82022679Y-61267629D01*
X81948392Y-61406608D01*
X81848422Y-61528422D01*
X81726608Y-61628392D01*
X81587629Y-61702679D01*
X81512228Y-61725551D01*
X81436827Y-61748424D01*
X81397649Y-61752283D01*
X81319295Y-61760000D01*
X81240705Y-61760000D01*
X81162351Y-61752283D01*
X81123173Y-61748424D01*
X81047772Y-61725551D01*
X80972371Y-61702679D01*
X80833392Y-61628392D01*
X80711578Y-61528422D01*
X80611608Y-61406608D01*
X80537321Y-61267629D01*
X80491576Y-61116826D01*
X80476130Y-60960000D01*
X80491576Y-60803174D01*
X80537321Y-60652371D01*
X80611608Y-60513392D01*
X80711578Y-60391578D01*
X80833392Y-60291608D01*
X80972371Y-60217321D01*
X81047773Y-60194448D01*
X81123173Y-60171576D01*
X81162351Y-60167717D01*
X81240705Y-60160000D01*
X81319295Y-60160000D01*
X81397649Y-60167717D01*
X81397649Y-60167717D01*
G37*
G36*
X68047913Y-58312596D02*
X68047916Y-58312597D01*
X68047917Y-58312597D01*
X68146880Y-58342617D01*
X68238086Y-58391367D01*
X68318027Y-58456973D01*
X68318028Y-58456975D01*
X68318030Y-58456976D01*
X68367231Y-58516929D01*
X68383633Y-58536914D01*
X68432383Y-58628119D01*
X68460382Y-58720420D01*
X68462404Y-58727086D01*
X68470000Y-58804208D01*
X68470000Y-59305791D01*
X68462404Y-59382914D01*
X68462403Y-59382917D01*
X68462403Y-59382918D01*
X68432383Y-59481881D01*
X68383633Y-59573086D01*
X68318027Y-59653027D01*
X68238086Y-59718633D01*
X68146881Y-59767383D01*
X68047918Y-59797403D01*
X68047917Y-59797403D01*
X68047914Y-59797404D01*
X67945000Y-59807540D01*
X67842087Y-59797404D01*
X67842084Y-59797403D01*
X67842083Y-59797403D01*
X67743120Y-59767383D01*
X67651915Y-59718633D01*
X67571974Y-59653027D01*
X67539171Y-59613056D01*
X67506366Y-59573084D01*
X67457618Y-59481883D01*
X67429618Y-59389580D01*
X67420240Y-59366941D01*
X67406626Y-59346567D01*
X67389299Y-59329240D01*
X67368925Y-59315626D01*
X67346286Y-59306248D01*
X67322252Y-59301468D01*
X67297748Y-59301468D01*
X67273714Y-59306248D01*
X67251075Y-59315626D01*
X67230701Y-59329240D01*
X67213374Y-59346567D01*
X67199760Y-59366941D01*
X67190382Y-59389579D01*
X67162383Y-59481881D01*
X67113633Y-59573086D01*
X67048027Y-59653027D01*
X66968086Y-59718633D01*
X66876881Y-59767383D01*
X66777918Y-59797403D01*
X66777917Y-59797403D01*
X66777914Y-59797404D01*
X66675000Y-59807540D01*
X66572087Y-59797404D01*
X66572084Y-59797403D01*
X66572083Y-59797403D01*
X66473120Y-59767383D01*
X66381915Y-59718633D01*
X66301974Y-59653027D01*
X66269171Y-59613056D01*
X66236366Y-59573084D01*
X66187617Y-59481882D01*
X66174618Y-59439029D01*
X66165240Y-59416389D01*
X66151626Y-59396015D01*
X66134299Y-59378688D01*
X66113925Y-59365074D01*
X66091286Y-59355696D01*
X66067252Y-59350916D01*
X66042748Y-59350916D01*
X66018715Y-59355696D01*
X65996075Y-59365074D01*
X65975701Y-59378688D01*
X65958374Y-59396015D01*
X65944760Y-59416389D01*
X65935382Y-59439028D01*
X65930602Y-59463062D01*
X65930000Y-59475314D01*
X65930000Y-59805000D01*
X64880000Y-59805000D01*
X64880000Y-58305000D01*
X65930000Y-58305000D01*
X65930000Y-58634687D01*
X65932402Y-58659073D01*
X65939515Y-58682522D01*
X65951066Y-58704133D01*
X65966612Y-58723075D01*
X65985554Y-58738621D01*
X66007165Y-58750172D01*
X66030614Y-58757285D01*
X66055000Y-58759687D01*
X66079386Y-58757285D01*
X66102835Y-58750172D01*
X66124446Y-58738621D01*
X66143388Y-58723075D01*
X66158934Y-58704133D01*
X66170485Y-58682522D01*
X66174618Y-58670972D01*
X66187617Y-58628119D01*
X66210513Y-58585283D01*
X66236367Y-58536914D01*
X66301973Y-58456973D01*
X66301975Y-58456972D01*
X66301976Y-58456970D01*
X66381913Y-58391368D01*
X66381912Y-58391368D01*
X66381914Y-58391367D01*
X66473119Y-58342617D01*
X66572082Y-58312597D01*
X66572083Y-58312597D01*
X66572086Y-58312596D01*
X66675000Y-58302460D01*
X66777913Y-58312596D01*
X66777916Y-58312597D01*
X66777917Y-58312597D01*
X66876880Y-58342617D01*
X66968086Y-58391367D01*
X67048027Y-58456973D01*
X67048028Y-58456975D01*
X67048030Y-58456976D01*
X67097231Y-58516929D01*
X67113633Y-58536914D01*
X67162383Y-58628119D01*
X67190382Y-58720420D01*
X67199760Y-58743059D01*
X67213374Y-58763433D01*
X67230701Y-58780760D01*
X67251075Y-58794374D01*
X67273714Y-58803752D01*
X67297748Y-58808532D01*
X67322252Y-58808532D01*
X67346286Y-58803752D01*
X67368925Y-58794374D01*
X67389299Y-58780760D01*
X67406626Y-58763433D01*
X67420240Y-58743059D01*
X67429617Y-58720420D01*
X67457616Y-58628122D01*
X67457619Y-58628117D01*
X67506367Y-58536914D01*
X67571973Y-58456973D01*
X67571975Y-58456972D01*
X67571976Y-58456970D01*
X67651913Y-58391368D01*
X67651912Y-58391368D01*
X67651914Y-58391367D01*
X67743119Y-58342617D01*
X67842082Y-58312597D01*
X67842083Y-58312597D01*
X67842086Y-58312596D01*
X67945000Y-58302460D01*
X68047913Y-58312596D01*
X68047913Y-58312596D01*
G37*
M02*
