G04 #@! TF.GenerationSoftware,KiCad,Pcbnew,(5.0.2)-1*
G04 #@! TF.CreationDate,2019-03-19T15:18:45-05:00*
G04 #@! TF.ProjectId,10MHz-Rb-Ref,31304d48-7a2d-4526-922d-5265662e6b69,rev?*
G04 #@! TF.SameCoordinates,Original*
G04 #@! TF.FileFunction,Paste,Top*
G04 #@! TF.FilePolarity,Positive*
%FSLAX46Y46*%
G04 Gerber Fmt 4.6, Leading zero omitted, Abs format (unit mm)*
G04 Created by KiCad (PCBNEW (5.0.2)-1) date 3/19/2019 3:18:45 PM*
%MOMM*%
%LPD*%
G01*
G04 APERTURE LIST*
%ADD10C,0.100000*%
%ADD11C,1.425000*%
%ADD12C,1.525000*%
%ADD13R,0.400000X1.560000*%
G04 APERTURE END LIST*
D10*
G04 #@! TO.C,C1*
G36*
X72531504Y-63877704D02*
X72555773Y-63881304D01*
X72579571Y-63887265D01*
X72602671Y-63895530D01*
X72624849Y-63906020D01*
X72645893Y-63918633D01*
X72665598Y-63933247D01*
X72683777Y-63949723D01*
X72700253Y-63967902D01*
X72714867Y-63987607D01*
X72727480Y-64008651D01*
X72737970Y-64030829D01*
X72746235Y-64053929D01*
X72752196Y-64077727D01*
X72755796Y-64101996D01*
X72757000Y-64126500D01*
X72757000Y-65051500D01*
X72755796Y-65076004D01*
X72752196Y-65100273D01*
X72746235Y-65124071D01*
X72737970Y-65147171D01*
X72727480Y-65169349D01*
X72714867Y-65190393D01*
X72700253Y-65210098D01*
X72683777Y-65228277D01*
X72665598Y-65244753D01*
X72645893Y-65259367D01*
X72624849Y-65271980D01*
X72602671Y-65282470D01*
X72579571Y-65290735D01*
X72555773Y-65296696D01*
X72531504Y-65300296D01*
X72507000Y-65301500D01*
X71257000Y-65301500D01*
X71232496Y-65300296D01*
X71208227Y-65296696D01*
X71184429Y-65290735D01*
X71161329Y-65282470D01*
X71139151Y-65271980D01*
X71118107Y-65259367D01*
X71098402Y-65244753D01*
X71080223Y-65228277D01*
X71063747Y-65210098D01*
X71049133Y-65190393D01*
X71036520Y-65169349D01*
X71026030Y-65147171D01*
X71017765Y-65124071D01*
X71011804Y-65100273D01*
X71008204Y-65076004D01*
X71007000Y-65051500D01*
X71007000Y-64126500D01*
X71008204Y-64101996D01*
X71011804Y-64077727D01*
X71017765Y-64053929D01*
X71026030Y-64030829D01*
X71036520Y-64008651D01*
X71049133Y-63987607D01*
X71063747Y-63967902D01*
X71080223Y-63949723D01*
X71098402Y-63933247D01*
X71118107Y-63918633D01*
X71139151Y-63906020D01*
X71161329Y-63895530D01*
X71184429Y-63887265D01*
X71208227Y-63881304D01*
X71232496Y-63877704D01*
X71257000Y-63876500D01*
X72507000Y-63876500D01*
X72531504Y-63877704D01*
X72531504Y-63877704D01*
G37*
D11*
X71882000Y-64589000D03*
D10*
G36*
X72531504Y-66852704D02*
X72555773Y-66856304D01*
X72579571Y-66862265D01*
X72602671Y-66870530D01*
X72624849Y-66881020D01*
X72645893Y-66893633D01*
X72665598Y-66908247D01*
X72683777Y-66924723D01*
X72700253Y-66942902D01*
X72714867Y-66962607D01*
X72727480Y-66983651D01*
X72737970Y-67005829D01*
X72746235Y-67028929D01*
X72752196Y-67052727D01*
X72755796Y-67076996D01*
X72757000Y-67101500D01*
X72757000Y-68026500D01*
X72755796Y-68051004D01*
X72752196Y-68075273D01*
X72746235Y-68099071D01*
X72737970Y-68122171D01*
X72727480Y-68144349D01*
X72714867Y-68165393D01*
X72700253Y-68185098D01*
X72683777Y-68203277D01*
X72665598Y-68219753D01*
X72645893Y-68234367D01*
X72624849Y-68246980D01*
X72602671Y-68257470D01*
X72579571Y-68265735D01*
X72555773Y-68271696D01*
X72531504Y-68275296D01*
X72507000Y-68276500D01*
X71257000Y-68276500D01*
X71232496Y-68275296D01*
X71208227Y-68271696D01*
X71184429Y-68265735D01*
X71161329Y-68257470D01*
X71139151Y-68246980D01*
X71118107Y-68234367D01*
X71098402Y-68219753D01*
X71080223Y-68203277D01*
X71063747Y-68185098D01*
X71049133Y-68165393D01*
X71036520Y-68144349D01*
X71026030Y-68122171D01*
X71017765Y-68099071D01*
X71011804Y-68075273D01*
X71008204Y-68051004D01*
X71007000Y-68026500D01*
X71007000Y-67101500D01*
X71008204Y-67076996D01*
X71011804Y-67052727D01*
X71017765Y-67028929D01*
X71026030Y-67005829D01*
X71036520Y-66983651D01*
X71049133Y-66962607D01*
X71063747Y-66942902D01*
X71080223Y-66924723D01*
X71098402Y-66908247D01*
X71118107Y-66893633D01*
X71139151Y-66881020D01*
X71161329Y-66870530D01*
X71184429Y-66862265D01*
X71208227Y-66856304D01*
X71232496Y-66852704D01*
X71257000Y-66851500D01*
X72507000Y-66851500D01*
X72531504Y-66852704D01*
X72531504Y-66852704D01*
G37*
D11*
X71882000Y-67564000D03*
G04 #@! TD*
D10*
G04 #@! TO.C,C2*
G36*
X59831504Y-66852704D02*
X59855773Y-66856304D01*
X59879571Y-66862265D01*
X59902671Y-66870530D01*
X59924849Y-66881020D01*
X59945893Y-66893633D01*
X59965598Y-66908247D01*
X59983777Y-66924723D01*
X60000253Y-66942902D01*
X60014867Y-66962607D01*
X60027480Y-66983651D01*
X60037970Y-67005829D01*
X60046235Y-67028929D01*
X60052196Y-67052727D01*
X60055796Y-67076996D01*
X60057000Y-67101500D01*
X60057000Y-68026500D01*
X60055796Y-68051004D01*
X60052196Y-68075273D01*
X60046235Y-68099071D01*
X60037970Y-68122171D01*
X60027480Y-68144349D01*
X60014867Y-68165393D01*
X60000253Y-68185098D01*
X59983777Y-68203277D01*
X59965598Y-68219753D01*
X59945893Y-68234367D01*
X59924849Y-68246980D01*
X59902671Y-68257470D01*
X59879571Y-68265735D01*
X59855773Y-68271696D01*
X59831504Y-68275296D01*
X59807000Y-68276500D01*
X58557000Y-68276500D01*
X58532496Y-68275296D01*
X58508227Y-68271696D01*
X58484429Y-68265735D01*
X58461329Y-68257470D01*
X58439151Y-68246980D01*
X58418107Y-68234367D01*
X58398402Y-68219753D01*
X58380223Y-68203277D01*
X58363747Y-68185098D01*
X58349133Y-68165393D01*
X58336520Y-68144349D01*
X58326030Y-68122171D01*
X58317765Y-68099071D01*
X58311804Y-68075273D01*
X58308204Y-68051004D01*
X58307000Y-68026500D01*
X58307000Y-67101500D01*
X58308204Y-67076996D01*
X58311804Y-67052727D01*
X58317765Y-67028929D01*
X58326030Y-67005829D01*
X58336520Y-66983651D01*
X58349133Y-66962607D01*
X58363747Y-66942902D01*
X58380223Y-66924723D01*
X58398402Y-66908247D01*
X58418107Y-66893633D01*
X58439151Y-66881020D01*
X58461329Y-66870530D01*
X58484429Y-66862265D01*
X58508227Y-66856304D01*
X58532496Y-66852704D01*
X58557000Y-66851500D01*
X59807000Y-66851500D01*
X59831504Y-66852704D01*
X59831504Y-66852704D01*
G37*
D11*
X59182000Y-67564000D03*
D10*
G36*
X59831504Y-63877704D02*
X59855773Y-63881304D01*
X59879571Y-63887265D01*
X59902671Y-63895530D01*
X59924849Y-63906020D01*
X59945893Y-63918633D01*
X59965598Y-63933247D01*
X59983777Y-63949723D01*
X60000253Y-63967902D01*
X60014867Y-63987607D01*
X60027480Y-64008651D01*
X60037970Y-64030829D01*
X60046235Y-64053929D01*
X60052196Y-64077727D01*
X60055796Y-64101996D01*
X60057000Y-64126500D01*
X60057000Y-65051500D01*
X60055796Y-65076004D01*
X60052196Y-65100273D01*
X60046235Y-65124071D01*
X60037970Y-65147171D01*
X60027480Y-65169349D01*
X60014867Y-65190393D01*
X60000253Y-65210098D01*
X59983777Y-65228277D01*
X59965598Y-65244753D01*
X59945893Y-65259367D01*
X59924849Y-65271980D01*
X59902671Y-65282470D01*
X59879571Y-65290735D01*
X59855773Y-65296696D01*
X59831504Y-65300296D01*
X59807000Y-65301500D01*
X58557000Y-65301500D01*
X58532496Y-65300296D01*
X58508227Y-65296696D01*
X58484429Y-65290735D01*
X58461329Y-65282470D01*
X58439151Y-65271980D01*
X58418107Y-65259367D01*
X58398402Y-65244753D01*
X58380223Y-65228277D01*
X58363747Y-65210098D01*
X58349133Y-65190393D01*
X58336520Y-65169349D01*
X58326030Y-65147171D01*
X58317765Y-65124071D01*
X58311804Y-65100273D01*
X58308204Y-65076004D01*
X58307000Y-65051500D01*
X58307000Y-64126500D01*
X58308204Y-64101996D01*
X58311804Y-64077727D01*
X58317765Y-64053929D01*
X58326030Y-64030829D01*
X58336520Y-64008651D01*
X58349133Y-63987607D01*
X58363747Y-63967902D01*
X58380223Y-63949723D01*
X58398402Y-63933247D01*
X58418107Y-63918633D01*
X58439151Y-63906020D01*
X58461329Y-63895530D01*
X58484429Y-63887265D01*
X58508227Y-63881304D01*
X58532496Y-63877704D01*
X58557000Y-63876500D01*
X59807000Y-63876500D01*
X59831504Y-63877704D01*
X59831504Y-63877704D01*
G37*
D11*
X59182000Y-64589000D03*
G04 #@! TD*
D10*
G04 #@! TO.C,R1*
G36*
X68975504Y-72440704D02*
X68999773Y-72444304D01*
X69023571Y-72450265D01*
X69046671Y-72458530D01*
X69068849Y-72469020D01*
X69089893Y-72481633D01*
X69109598Y-72496247D01*
X69127777Y-72512723D01*
X69144253Y-72530902D01*
X69158867Y-72550607D01*
X69171480Y-72571651D01*
X69181970Y-72593829D01*
X69190235Y-72616929D01*
X69196196Y-72640727D01*
X69199796Y-72664996D01*
X69201000Y-72689500D01*
X69201000Y-73614500D01*
X69199796Y-73639004D01*
X69196196Y-73663273D01*
X69190235Y-73687071D01*
X69181970Y-73710171D01*
X69171480Y-73732349D01*
X69158867Y-73753393D01*
X69144253Y-73773098D01*
X69127777Y-73791277D01*
X69109598Y-73807753D01*
X69089893Y-73822367D01*
X69068849Y-73834980D01*
X69046671Y-73845470D01*
X69023571Y-73853735D01*
X68999773Y-73859696D01*
X68975504Y-73863296D01*
X68951000Y-73864500D01*
X67701000Y-73864500D01*
X67676496Y-73863296D01*
X67652227Y-73859696D01*
X67628429Y-73853735D01*
X67605329Y-73845470D01*
X67583151Y-73834980D01*
X67562107Y-73822367D01*
X67542402Y-73807753D01*
X67524223Y-73791277D01*
X67507747Y-73773098D01*
X67493133Y-73753393D01*
X67480520Y-73732349D01*
X67470030Y-73710171D01*
X67461765Y-73687071D01*
X67455804Y-73663273D01*
X67452204Y-73639004D01*
X67451000Y-73614500D01*
X67451000Y-72689500D01*
X67452204Y-72664996D01*
X67455804Y-72640727D01*
X67461765Y-72616929D01*
X67470030Y-72593829D01*
X67480520Y-72571651D01*
X67493133Y-72550607D01*
X67507747Y-72530902D01*
X67524223Y-72512723D01*
X67542402Y-72496247D01*
X67562107Y-72481633D01*
X67583151Y-72469020D01*
X67605329Y-72458530D01*
X67628429Y-72450265D01*
X67652227Y-72444304D01*
X67676496Y-72440704D01*
X67701000Y-72439500D01*
X68951000Y-72439500D01*
X68975504Y-72440704D01*
X68975504Y-72440704D01*
G37*
D11*
X68326000Y-73152000D03*
D10*
G36*
X68975504Y-69465704D02*
X68999773Y-69469304D01*
X69023571Y-69475265D01*
X69046671Y-69483530D01*
X69068849Y-69494020D01*
X69089893Y-69506633D01*
X69109598Y-69521247D01*
X69127777Y-69537723D01*
X69144253Y-69555902D01*
X69158867Y-69575607D01*
X69171480Y-69596651D01*
X69181970Y-69618829D01*
X69190235Y-69641929D01*
X69196196Y-69665727D01*
X69199796Y-69689996D01*
X69201000Y-69714500D01*
X69201000Y-70639500D01*
X69199796Y-70664004D01*
X69196196Y-70688273D01*
X69190235Y-70712071D01*
X69181970Y-70735171D01*
X69171480Y-70757349D01*
X69158867Y-70778393D01*
X69144253Y-70798098D01*
X69127777Y-70816277D01*
X69109598Y-70832753D01*
X69089893Y-70847367D01*
X69068849Y-70859980D01*
X69046671Y-70870470D01*
X69023571Y-70878735D01*
X68999773Y-70884696D01*
X68975504Y-70888296D01*
X68951000Y-70889500D01*
X67701000Y-70889500D01*
X67676496Y-70888296D01*
X67652227Y-70884696D01*
X67628429Y-70878735D01*
X67605329Y-70870470D01*
X67583151Y-70859980D01*
X67562107Y-70847367D01*
X67542402Y-70832753D01*
X67524223Y-70816277D01*
X67507747Y-70798098D01*
X67493133Y-70778393D01*
X67480520Y-70757349D01*
X67470030Y-70735171D01*
X67461765Y-70712071D01*
X67455804Y-70688273D01*
X67452204Y-70664004D01*
X67451000Y-70639500D01*
X67451000Y-69714500D01*
X67452204Y-69689996D01*
X67455804Y-69665727D01*
X67461765Y-69641929D01*
X67470030Y-69618829D01*
X67480520Y-69596651D01*
X67493133Y-69575607D01*
X67507747Y-69555902D01*
X67524223Y-69537723D01*
X67542402Y-69521247D01*
X67562107Y-69506633D01*
X67583151Y-69494020D01*
X67605329Y-69483530D01*
X67628429Y-69475265D01*
X67652227Y-69469304D01*
X67676496Y-69465704D01*
X67701000Y-69464500D01*
X68951000Y-69464500D01*
X68975504Y-69465704D01*
X68975504Y-69465704D01*
G37*
D11*
X68326000Y-70177000D03*
G04 #@! TD*
D10*
G04 #@! TO.C,R2*
G36*
X63895504Y-69465704D02*
X63919773Y-69469304D01*
X63943571Y-69475265D01*
X63966671Y-69483530D01*
X63988849Y-69494020D01*
X64009893Y-69506633D01*
X64029598Y-69521247D01*
X64047777Y-69537723D01*
X64064253Y-69555902D01*
X64078867Y-69575607D01*
X64091480Y-69596651D01*
X64101970Y-69618829D01*
X64110235Y-69641929D01*
X64116196Y-69665727D01*
X64119796Y-69689996D01*
X64121000Y-69714500D01*
X64121000Y-70639500D01*
X64119796Y-70664004D01*
X64116196Y-70688273D01*
X64110235Y-70712071D01*
X64101970Y-70735171D01*
X64091480Y-70757349D01*
X64078867Y-70778393D01*
X64064253Y-70798098D01*
X64047777Y-70816277D01*
X64029598Y-70832753D01*
X64009893Y-70847367D01*
X63988849Y-70859980D01*
X63966671Y-70870470D01*
X63943571Y-70878735D01*
X63919773Y-70884696D01*
X63895504Y-70888296D01*
X63871000Y-70889500D01*
X62621000Y-70889500D01*
X62596496Y-70888296D01*
X62572227Y-70884696D01*
X62548429Y-70878735D01*
X62525329Y-70870470D01*
X62503151Y-70859980D01*
X62482107Y-70847367D01*
X62462402Y-70832753D01*
X62444223Y-70816277D01*
X62427747Y-70798098D01*
X62413133Y-70778393D01*
X62400520Y-70757349D01*
X62390030Y-70735171D01*
X62381765Y-70712071D01*
X62375804Y-70688273D01*
X62372204Y-70664004D01*
X62371000Y-70639500D01*
X62371000Y-69714500D01*
X62372204Y-69689996D01*
X62375804Y-69665727D01*
X62381765Y-69641929D01*
X62390030Y-69618829D01*
X62400520Y-69596651D01*
X62413133Y-69575607D01*
X62427747Y-69555902D01*
X62444223Y-69537723D01*
X62462402Y-69521247D01*
X62482107Y-69506633D01*
X62503151Y-69494020D01*
X62525329Y-69483530D01*
X62548429Y-69475265D01*
X62572227Y-69469304D01*
X62596496Y-69465704D01*
X62621000Y-69464500D01*
X63871000Y-69464500D01*
X63895504Y-69465704D01*
X63895504Y-69465704D01*
G37*
D11*
X63246000Y-70177000D03*
D10*
G36*
X63895504Y-72440704D02*
X63919773Y-72444304D01*
X63943571Y-72450265D01*
X63966671Y-72458530D01*
X63988849Y-72469020D01*
X64009893Y-72481633D01*
X64029598Y-72496247D01*
X64047777Y-72512723D01*
X64064253Y-72530902D01*
X64078867Y-72550607D01*
X64091480Y-72571651D01*
X64101970Y-72593829D01*
X64110235Y-72616929D01*
X64116196Y-72640727D01*
X64119796Y-72664996D01*
X64121000Y-72689500D01*
X64121000Y-73614500D01*
X64119796Y-73639004D01*
X64116196Y-73663273D01*
X64110235Y-73687071D01*
X64101970Y-73710171D01*
X64091480Y-73732349D01*
X64078867Y-73753393D01*
X64064253Y-73773098D01*
X64047777Y-73791277D01*
X64029598Y-73807753D01*
X64009893Y-73822367D01*
X63988849Y-73834980D01*
X63966671Y-73845470D01*
X63943571Y-73853735D01*
X63919773Y-73859696D01*
X63895504Y-73863296D01*
X63871000Y-73864500D01*
X62621000Y-73864500D01*
X62596496Y-73863296D01*
X62572227Y-73859696D01*
X62548429Y-73853735D01*
X62525329Y-73845470D01*
X62503151Y-73834980D01*
X62482107Y-73822367D01*
X62462402Y-73807753D01*
X62444223Y-73791277D01*
X62427747Y-73773098D01*
X62413133Y-73753393D01*
X62400520Y-73732349D01*
X62390030Y-73710171D01*
X62381765Y-73687071D01*
X62375804Y-73663273D01*
X62372204Y-73639004D01*
X62371000Y-73614500D01*
X62371000Y-72689500D01*
X62372204Y-72664996D01*
X62375804Y-72640727D01*
X62381765Y-72616929D01*
X62390030Y-72593829D01*
X62400520Y-72571651D01*
X62413133Y-72550607D01*
X62427747Y-72530902D01*
X62444223Y-72512723D01*
X62462402Y-72496247D01*
X62482107Y-72481633D01*
X62503151Y-72469020D01*
X62525329Y-72458530D01*
X62548429Y-72450265D01*
X62572227Y-72444304D01*
X62596496Y-72440704D01*
X62621000Y-72439500D01*
X63871000Y-72439500D01*
X63895504Y-72440704D01*
X63895504Y-72440704D01*
G37*
D11*
X63246000Y-73152000D03*
G04 #@! TD*
D10*
G04 #@! TO.C,R4*
G36*
X56275504Y-72440704D02*
X56299773Y-72444304D01*
X56323571Y-72450265D01*
X56346671Y-72458530D01*
X56368849Y-72469020D01*
X56389893Y-72481633D01*
X56409598Y-72496247D01*
X56427777Y-72512723D01*
X56444253Y-72530902D01*
X56458867Y-72550607D01*
X56471480Y-72571651D01*
X56481970Y-72593829D01*
X56490235Y-72616929D01*
X56496196Y-72640727D01*
X56499796Y-72664996D01*
X56501000Y-72689500D01*
X56501000Y-73614500D01*
X56499796Y-73639004D01*
X56496196Y-73663273D01*
X56490235Y-73687071D01*
X56481970Y-73710171D01*
X56471480Y-73732349D01*
X56458867Y-73753393D01*
X56444253Y-73773098D01*
X56427777Y-73791277D01*
X56409598Y-73807753D01*
X56389893Y-73822367D01*
X56368849Y-73834980D01*
X56346671Y-73845470D01*
X56323571Y-73853735D01*
X56299773Y-73859696D01*
X56275504Y-73863296D01*
X56251000Y-73864500D01*
X55001000Y-73864500D01*
X54976496Y-73863296D01*
X54952227Y-73859696D01*
X54928429Y-73853735D01*
X54905329Y-73845470D01*
X54883151Y-73834980D01*
X54862107Y-73822367D01*
X54842402Y-73807753D01*
X54824223Y-73791277D01*
X54807747Y-73773098D01*
X54793133Y-73753393D01*
X54780520Y-73732349D01*
X54770030Y-73710171D01*
X54761765Y-73687071D01*
X54755804Y-73663273D01*
X54752204Y-73639004D01*
X54751000Y-73614500D01*
X54751000Y-72689500D01*
X54752204Y-72664996D01*
X54755804Y-72640727D01*
X54761765Y-72616929D01*
X54770030Y-72593829D01*
X54780520Y-72571651D01*
X54793133Y-72550607D01*
X54807747Y-72530902D01*
X54824223Y-72512723D01*
X54842402Y-72496247D01*
X54862107Y-72481633D01*
X54883151Y-72469020D01*
X54905329Y-72458530D01*
X54928429Y-72450265D01*
X54952227Y-72444304D01*
X54976496Y-72440704D01*
X55001000Y-72439500D01*
X56251000Y-72439500D01*
X56275504Y-72440704D01*
X56275504Y-72440704D01*
G37*
D11*
X55626000Y-73152000D03*
D10*
G36*
X56275504Y-69465704D02*
X56299773Y-69469304D01*
X56323571Y-69475265D01*
X56346671Y-69483530D01*
X56368849Y-69494020D01*
X56389893Y-69506633D01*
X56409598Y-69521247D01*
X56427777Y-69537723D01*
X56444253Y-69555902D01*
X56458867Y-69575607D01*
X56471480Y-69596651D01*
X56481970Y-69618829D01*
X56490235Y-69641929D01*
X56496196Y-69665727D01*
X56499796Y-69689996D01*
X56501000Y-69714500D01*
X56501000Y-70639500D01*
X56499796Y-70664004D01*
X56496196Y-70688273D01*
X56490235Y-70712071D01*
X56481970Y-70735171D01*
X56471480Y-70757349D01*
X56458867Y-70778393D01*
X56444253Y-70798098D01*
X56427777Y-70816277D01*
X56409598Y-70832753D01*
X56389893Y-70847367D01*
X56368849Y-70859980D01*
X56346671Y-70870470D01*
X56323571Y-70878735D01*
X56299773Y-70884696D01*
X56275504Y-70888296D01*
X56251000Y-70889500D01*
X55001000Y-70889500D01*
X54976496Y-70888296D01*
X54952227Y-70884696D01*
X54928429Y-70878735D01*
X54905329Y-70870470D01*
X54883151Y-70859980D01*
X54862107Y-70847367D01*
X54842402Y-70832753D01*
X54824223Y-70816277D01*
X54807747Y-70798098D01*
X54793133Y-70778393D01*
X54780520Y-70757349D01*
X54770030Y-70735171D01*
X54761765Y-70712071D01*
X54755804Y-70688273D01*
X54752204Y-70664004D01*
X54751000Y-70639500D01*
X54751000Y-69714500D01*
X54752204Y-69689996D01*
X54755804Y-69665727D01*
X54761765Y-69641929D01*
X54770030Y-69618829D01*
X54780520Y-69596651D01*
X54793133Y-69575607D01*
X54807747Y-69555902D01*
X54824223Y-69537723D01*
X54842402Y-69521247D01*
X54862107Y-69506633D01*
X54883151Y-69494020D01*
X54905329Y-69483530D01*
X54928429Y-69475265D01*
X54952227Y-69469304D01*
X54976496Y-69465704D01*
X55001000Y-69464500D01*
X56251000Y-69464500D01*
X56275504Y-69465704D01*
X56275504Y-69465704D01*
G37*
D11*
X55626000Y-70177000D03*
G04 #@! TD*
D10*
G04 #@! TO.C,R6*
G36*
X56864505Y-85702204D02*
X56888773Y-85705804D01*
X56912572Y-85711765D01*
X56935671Y-85720030D01*
X56957850Y-85730520D01*
X56978893Y-85743132D01*
X56998599Y-85757747D01*
X57016777Y-85774223D01*
X57033253Y-85792401D01*
X57047868Y-85812107D01*
X57060480Y-85833150D01*
X57070970Y-85855329D01*
X57079235Y-85878428D01*
X57085196Y-85902227D01*
X57088796Y-85926495D01*
X57090000Y-85950999D01*
X57090000Y-88801001D01*
X57088796Y-88825505D01*
X57085196Y-88849773D01*
X57079235Y-88873572D01*
X57070970Y-88896671D01*
X57060480Y-88918850D01*
X57047868Y-88939893D01*
X57033253Y-88959599D01*
X57016777Y-88977777D01*
X56998599Y-88994253D01*
X56978893Y-89008868D01*
X56957850Y-89021480D01*
X56935671Y-89031970D01*
X56912572Y-89040235D01*
X56888773Y-89046196D01*
X56864505Y-89049796D01*
X56840001Y-89051000D01*
X55814999Y-89051000D01*
X55790495Y-89049796D01*
X55766227Y-89046196D01*
X55742428Y-89040235D01*
X55719329Y-89031970D01*
X55697150Y-89021480D01*
X55676107Y-89008868D01*
X55656401Y-88994253D01*
X55638223Y-88977777D01*
X55621747Y-88959599D01*
X55607132Y-88939893D01*
X55594520Y-88918850D01*
X55584030Y-88896671D01*
X55575765Y-88873572D01*
X55569804Y-88849773D01*
X55566204Y-88825505D01*
X55565000Y-88801001D01*
X55565000Y-85950999D01*
X55566204Y-85926495D01*
X55569804Y-85902227D01*
X55575765Y-85878428D01*
X55584030Y-85855329D01*
X55594520Y-85833150D01*
X55607132Y-85812107D01*
X55621747Y-85792401D01*
X55638223Y-85774223D01*
X55656401Y-85757747D01*
X55676107Y-85743132D01*
X55697150Y-85730520D01*
X55719329Y-85720030D01*
X55742428Y-85711765D01*
X55766227Y-85705804D01*
X55790495Y-85702204D01*
X55814999Y-85701000D01*
X56840001Y-85701000D01*
X56864505Y-85702204D01*
X56864505Y-85702204D01*
G37*
D12*
X56327500Y-87376000D03*
D10*
G36*
X50889505Y-85702204D02*
X50913773Y-85705804D01*
X50937572Y-85711765D01*
X50960671Y-85720030D01*
X50982850Y-85730520D01*
X51003893Y-85743132D01*
X51023599Y-85757747D01*
X51041777Y-85774223D01*
X51058253Y-85792401D01*
X51072868Y-85812107D01*
X51085480Y-85833150D01*
X51095970Y-85855329D01*
X51104235Y-85878428D01*
X51110196Y-85902227D01*
X51113796Y-85926495D01*
X51115000Y-85950999D01*
X51115000Y-88801001D01*
X51113796Y-88825505D01*
X51110196Y-88849773D01*
X51104235Y-88873572D01*
X51095970Y-88896671D01*
X51085480Y-88918850D01*
X51072868Y-88939893D01*
X51058253Y-88959599D01*
X51041777Y-88977777D01*
X51023599Y-88994253D01*
X51003893Y-89008868D01*
X50982850Y-89021480D01*
X50960671Y-89031970D01*
X50937572Y-89040235D01*
X50913773Y-89046196D01*
X50889505Y-89049796D01*
X50865001Y-89051000D01*
X49839999Y-89051000D01*
X49815495Y-89049796D01*
X49791227Y-89046196D01*
X49767428Y-89040235D01*
X49744329Y-89031970D01*
X49722150Y-89021480D01*
X49701107Y-89008868D01*
X49681401Y-88994253D01*
X49663223Y-88977777D01*
X49646747Y-88959599D01*
X49632132Y-88939893D01*
X49619520Y-88918850D01*
X49609030Y-88896671D01*
X49600765Y-88873572D01*
X49594804Y-88849773D01*
X49591204Y-88825505D01*
X49590000Y-88801001D01*
X49590000Y-85950999D01*
X49591204Y-85926495D01*
X49594804Y-85902227D01*
X49600765Y-85878428D01*
X49609030Y-85855329D01*
X49619520Y-85833150D01*
X49632132Y-85812107D01*
X49646747Y-85792401D01*
X49663223Y-85774223D01*
X49681401Y-85757747D01*
X49701107Y-85743132D01*
X49722150Y-85730520D01*
X49744329Y-85720030D01*
X49767428Y-85711765D01*
X49791227Y-85705804D01*
X49815495Y-85702204D01*
X49839999Y-85701000D01*
X50865001Y-85701000D01*
X50889505Y-85702204D01*
X50889505Y-85702204D01*
G37*
D12*
X50352500Y-87376000D03*
G04 #@! TD*
D13*
G04 #@! TO.C,U2*
X65060000Y-80598000D03*
X65710000Y-80598000D03*
X66370000Y-80598000D03*
X67020000Y-80598000D03*
X67020000Y-77898000D03*
X66370000Y-77898000D03*
X65710000Y-77898000D03*
X65060000Y-77898000D03*
G04 #@! TD*
G04 #@! TO.C,U3*
X52360000Y-77898000D03*
X53010000Y-77898000D03*
X53670000Y-77898000D03*
X54320000Y-77898000D03*
X54320000Y-80598000D03*
X53670000Y-80598000D03*
X53010000Y-80598000D03*
X52360000Y-80598000D03*
G04 #@! TD*
D10*
G04 #@! TO.C,R3*
G36*
X63529005Y-85702204D02*
X63553273Y-85705804D01*
X63577072Y-85711765D01*
X63600171Y-85720030D01*
X63622350Y-85730520D01*
X63643393Y-85743132D01*
X63663099Y-85757747D01*
X63681277Y-85774223D01*
X63697753Y-85792401D01*
X63712368Y-85812107D01*
X63724980Y-85833150D01*
X63735470Y-85855329D01*
X63743735Y-85878428D01*
X63749696Y-85902227D01*
X63753296Y-85926495D01*
X63754500Y-85950999D01*
X63754500Y-88801001D01*
X63753296Y-88825505D01*
X63749696Y-88849773D01*
X63743735Y-88873572D01*
X63735470Y-88896671D01*
X63724980Y-88918850D01*
X63712368Y-88939893D01*
X63697753Y-88959599D01*
X63681277Y-88977777D01*
X63663099Y-88994253D01*
X63643393Y-89008868D01*
X63622350Y-89021480D01*
X63600171Y-89031970D01*
X63577072Y-89040235D01*
X63553273Y-89046196D01*
X63529005Y-89049796D01*
X63504501Y-89051000D01*
X62479499Y-89051000D01*
X62454995Y-89049796D01*
X62430727Y-89046196D01*
X62406928Y-89040235D01*
X62383829Y-89031970D01*
X62361650Y-89021480D01*
X62340607Y-89008868D01*
X62320901Y-88994253D01*
X62302723Y-88977777D01*
X62286247Y-88959599D01*
X62271632Y-88939893D01*
X62259020Y-88918850D01*
X62248530Y-88896671D01*
X62240265Y-88873572D01*
X62234304Y-88849773D01*
X62230704Y-88825505D01*
X62229500Y-88801001D01*
X62229500Y-85950999D01*
X62230704Y-85926495D01*
X62234304Y-85902227D01*
X62240265Y-85878428D01*
X62248530Y-85855329D01*
X62259020Y-85833150D01*
X62271632Y-85812107D01*
X62286247Y-85792401D01*
X62302723Y-85774223D01*
X62320901Y-85757747D01*
X62340607Y-85743132D01*
X62361650Y-85730520D01*
X62383829Y-85720030D01*
X62406928Y-85711765D01*
X62430727Y-85705804D01*
X62454995Y-85702204D01*
X62479499Y-85701000D01*
X63504501Y-85701000D01*
X63529005Y-85702204D01*
X63529005Y-85702204D01*
G37*
D12*
X62992000Y-87376000D03*
D10*
G36*
X69504005Y-85702204D02*
X69528273Y-85705804D01*
X69552072Y-85711765D01*
X69575171Y-85720030D01*
X69597350Y-85730520D01*
X69618393Y-85743132D01*
X69638099Y-85757747D01*
X69656277Y-85774223D01*
X69672753Y-85792401D01*
X69687368Y-85812107D01*
X69699980Y-85833150D01*
X69710470Y-85855329D01*
X69718735Y-85878428D01*
X69724696Y-85902227D01*
X69728296Y-85926495D01*
X69729500Y-85950999D01*
X69729500Y-88801001D01*
X69728296Y-88825505D01*
X69724696Y-88849773D01*
X69718735Y-88873572D01*
X69710470Y-88896671D01*
X69699980Y-88918850D01*
X69687368Y-88939893D01*
X69672753Y-88959599D01*
X69656277Y-88977777D01*
X69638099Y-88994253D01*
X69618393Y-89008868D01*
X69597350Y-89021480D01*
X69575171Y-89031970D01*
X69552072Y-89040235D01*
X69528273Y-89046196D01*
X69504005Y-89049796D01*
X69479501Y-89051000D01*
X68454499Y-89051000D01*
X68429995Y-89049796D01*
X68405727Y-89046196D01*
X68381928Y-89040235D01*
X68358829Y-89031970D01*
X68336650Y-89021480D01*
X68315607Y-89008868D01*
X68295901Y-88994253D01*
X68277723Y-88977777D01*
X68261247Y-88959599D01*
X68246632Y-88939893D01*
X68234020Y-88918850D01*
X68223530Y-88896671D01*
X68215265Y-88873572D01*
X68209304Y-88849773D01*
X68205704Y-88825505D01*
X68204500Y-88801001D01*
X68204500Y-85950999D01*
X68205704Y-85926495D01*
X68209304Y-85902227D01*
X68215265Y-85878428D01*
X68223530Y-85855329D01*
X68234020Y-85833150D01*
X68246632Y-85812107D01*
X68261247Y-85792401D01*
X68277723Y-85774223D01*
X68295901Y-85757747D01*
X68315607Y-85743132D01*
X68336650Y-85730520D01*
X68358829Y-85720030D01*
X68381928Y-85711765D01*
X68405727Y-85705804D01*
X68429995Y-85702204D01*
X68454499Y-85701000D01*
X69479501Y-85701000D01*
X69504005Y-85702204D01*
X69504005Y-85702204D01*
G37*
D12*
X68967000Y-87376000D03*
G04 #@! TD*
D10*
G04 #@! TO.C,R5*
G36*
X51195504Y-72440704D02*
X51219773Y-72444304D01*
X51243571Y-72450265D01*
X51266671Y-72458530D01*
X51288849Y-72469020D01*
X51309893Y-72481633D01*
X51329598Y-72496247D01*
X51347777Y-72512723D01*
X51364253Y-72530902D01*
X51378867Y-72550607D01*
X51391480Y-72571651D01*
X51401970Y-72593829D01*
X51410235Y-72616929D01*
X51416196Y-72640727D01*
X51419796Y-72664996D01*
X51421000Y-72689500D01*
X51421000Y-73614500D01*
X51419796Y-73639004D01*
X51416196Y-73663273D01*
X51410235Y-73687071D01*
X51401970Y-73710171D01*
X51391480Y-73732349D01*
X51378867Y-73753393D01*
X51364253Y-73773098D01*
X51347777Y-73791277D01*
X51329598Y-73807753D01*
X51309893Y-73822367D01*
X51288849Y-73834980D01*
X51266671Y-73845470D01*
X51243571Y-73853735D01*
X51219773Y-73859696D01*
X51195504Y-73863296D01*
X51171000Y-73864500D01*
X49921000Y-73864500D01*
X49896496Y-73863296D01*
X49872227Y-73859696D01*
X49848429Y-73853735D01*
X49825329Y-73845470D01*
X49803151Y-73834980D01*
X49782107Y-73822367D01*
X49762402Y-73807753D01*
X49744223Y-73791277D01*
X49727747Y-73773098D01*
X49713133Y-73753393D01*
X49700520Y-73732349D01*
X49690030Y-73710171D01*
X49681765Y-73687071D01*
X49675804Y-73663273D01*
X49672204Y-73639004D01*
X49671000Y-73614500D01*
X49671000Y-72689500D01*
X49672204Y-72664996D01*
X49675804Y-72640727D01*
X49681765Y-72616929D01*
X49690030Y-72593829D01*
X49700520Y-72571651D01*
X49713133Y-72550607D01*
X49727747Y-72530902D01*
X49744223Y-72512723D01*
X49762402Y-72496247D01*
X49782107Y-72481633D01*
X49803151Y-72469020D01*
X49825329Y-72458530D01*
X49848429Y-72450265D01*
X49872227Y-72444304D01*
X49896496Y-72440704D01*
X49921000Y-72439500D01*
X51171000Y-72439500D01*
X51195504Y-72440704D01*
X51195504Y-72440704D01*
G37*
D11*
X50546000Y-73152000D03*
D10*
G36*
X51195504Y-69465704D02*
X51219773Y-69469304D01*
X51243571Y-69475265D01*
X51266671Y-69483530D01*
X51288849Y-69494020D01*
X51309893Y-69506633D01*
X51329598Y-69521247D01*
X51347777Y-69537723D01*
X51364253Y-69555902D01*
X51378867Y-69575607D01*
X51391480Y-69596651D01*
X51401970Y-69618829D01*
X51410235Y-69641929D01*
X51416196Y-69665727D01*
X51419796Y-69689996D01*
X51421000Y-69714500D01*
X51421000Y-70639500D01*
X51419796Y-70664004D01*
X51416196Y-70688273D01*
X51410235Y-70712071D01*
X51401970Y-70735171D01*
X51391480Y-70757349D01*
X51378867Y-70778393D01*
X51364253Y-70798098D01*
X51347777Y-70816277D01*
X51329598Y-70832753D01*
X51309893Y-70847367D01*
X51288849Y-70859980D01*
X51266671Y-70870470D01*
X51243571Y-70878735D01*
X51219773Y-70884696D01*
X51195504Y-70888296D01*
X51171000Y-70889500D01*
X49921000Y-70889500D01*
X49896496Y-70888296D01*
X49872227Y-70884696D01*
X49848429Y-70878735D01*
X49825329Y-70870470D01*
X49803151Y-70859980D01*
X49782107Y-70847367D01*
X49762402Y-70832753D01*
X49744223Y-70816277D01*
X49727747Y-70798098D01*
X49713133Y-70778393D01*
X49700520Y-70757349D01*
X49690030Y-70735171D01*
X49681765Y-70712071D01*
X49675804Y-70688273D01*
X49672204Y-70664004D01*
X49671000Y-70639500D01*
X49671000Y-69714500D01*
X49672204Y-69689996D01*
X49675804Y-69665727D01*
X49681765Y-69641929D01*
X49690030Y-69618829D01*
X49700520Y-69596651D01*
X49713133Y-69575607D01*
X49727747Y-69555902D01*
X49744223Y-69537723D01*
X49762402Y-69521247D01*
X49782107Y-69506633D01*
X49803151Y-69494020D01*
X49825329Y-69483530D01*
X49848429Y-69475265D01*
X49872227Y-69469304D01*
X49896496Y-69465704D01*
X49921000Y-69464500D01*
X51171000Y-69464500D01*
X51195504Y-69465704D01*
X51195504Y-69465704D01*
G37*
D11*
X50546000Y-70177000D03*
G04 #@! TD*
M02*
