G04 #@! TF.GenerationSoftware,KiCad,Pcbnew,(5.0.2)-1*
G04 #@! TF.CreationDate,2019-03-19T15:18:45-05:00*
G04 #@! TF.ProjectId,10MHz-Rb-Ref,31304d48-7a2d-4526-922d-5265662e6b69,rev?*
G04 #@! TF.SameCoordinates,Original*
G04 #@! TF.FileFunction,Legend,Bot*
G04 #@! TF.FilePolarity,Positive*
%FSLAX46Y46*%
G04 Gerber Fmt 4.6, Leading zero omitted, Abs format (unit mm)*
G04 Created by KiCad (PCBNEW (5.0.2)-1) date 3/19/2019 3:18:45 PM*
%MOMM*%
%LPD*%
G01*
G04 APERTURE LIST*
%ADD10C,0.150000*%
G04 APERTURE END LIST*
D10*
X103043333Y-150377380D02*
X103043333Y-149377380D01*
X102805238Y-149377380D01*
X102662380Y-149425000D01*
X102567142Y-149520238D01*
X102519523Y-149615476D01*
X102471904Y-149805952D01*
X102471904Y-149948809D01*
X102519523Y-150139285D01*
X102567142Y-150234523D01*
X102662380Y-150329761D01*
X102805238Y-150377380D01*
X103043333Y-150377380D01*
X101662380Y-150329761D02*
X101757619Y-150377380D01*
X101948095Y-150377380D01*
X102043333Y-150329761D01*
X102090952Y-150234523D01*
X102090952Y-149853571D01*
X102043333Y-149758333D01*
X101948095Y-149710714D01*
X101757619Y-149710714D01*
X101662380Y-149758333D01*
X101614761Y-149853571D01*
X101614761Y-149948809D01*
X102090952Y-150044047D01*
X101233809Y-150329761D02*
X101138571Y-150377380D01*
X100948095Y-150377380D01*
X100852857Y-150329761D01*
X100805238Y-150234523D01*
X100805238Y-150186904D01*
X100852857Y-150091666D01*
X100948095Y-150044047D01*
X101090952Y-150044047D01*
X101186190Y-149996428D01*
X101233809Y-149901190D01*
X101233809Y-149853571D01*
X101186190Y-149758333D01*
X101090952Y-149710714D01*
X100948095Y-149710714D01*
X100852857Y-149758333D01*
X100376666Y-150377380D02*
X100376666Y-149710714D01*
X100376666Y-149377380D02*
X100424285Y-149425000D01*
X100376666Y-149472619D01*
X100329047Y-149425000D01*
X100376666Y-149377380D01*
X100376666Y-149472619D01*
X99471904Y-149710714D02*
X99471904Y-150520238D01*
X99519523Y-150615476D01*
X99567142Y-150663095D01*
X99662380Y-150710714D01*
X99805238Y-150710714D01*
X99900476Y-150663095D01*
X99471904Y-150329761D02*
X99567142Y-150377380D01*
X99757619Y-150377380D01*
X99852857Y-150329761D01*
X99900476Y-150282142D01*
X99948095Y-150186904D01*
X99948095Y-149901190D01*
X99900476Y-149805952D01*
X99852857Y-149758333D01*
X99757619Y-149710714D01*
X99567142Y-149710714D01*
X99471904Y-149758333D01*
X98995714Y-149710714D02*
X98995714Y-150377380D01*
X98995714Y-149805952D02*
X98948095Y-149758333D01*
X98852857Y-149710714D01*
X98710000Y-149710714D01*
X98614761Y-149758333D01*
X98567142Y-149853571D01*
X98567142Y-150377380D01*
X97710000Y-150329761D02*
X97805238Y-150377380D01*
X97995714Y-150377380D01*
X98090952Y-150329761D01*
X98138571Y-150234523D01*
X98138571Y-149853571D01*
X98090952Y-149758333D01*
X97995714Y-149710714D01*
X97805238Y-149710714D01*
X97710000Y-149758333D01*
X97662380Y-149853571D01*
X97662380Y-149948809D01*
X98138571Y-150044047D01*
X96805238Y-150377380D02*
X96805238Y-149377380D01*
X96805238Y-150329761D02*
X96900476Y-150377380D01*
X97090952Y-150377380D01*
X97186190Y-150329761D01*
X97233809Y-150282142D01*
X97281428Y-150186904D01*
X97281428Y-149901190D01*
X97233809Y-149805952D01*
X97186190Y-149758333D01*
X97090952Y-149710714D01*
X96900476Y-149710714D01*
X96805238Y-149758333D01*
X95567142Y-150377380D02*
X95567142Y-149377380D01*
X95567142Y-149758333D02*
X95471904Y-149710714D01*
X95281428Y-149710714D01*
X95186190Y-149758333D01*
X95138571Y-149805952D01*
X95090952Y-149901190D01*
X95090952Y-150186904D01*
X95138571Y-150282142D01*
X95186190Y-150329761D01*
X95281428Y-150377380D01*
X95471904Y-150377380D01*
X95567142Y-150329761D01*
X94757619Y-149710714D02*
X94519523Y-150377380D01*
X94281428Y-149710714D02*
X94519523Y-150377380D01*
X94614761Y-150615476D01*
X94662380Y-150663095D01*
X94757619Y-150710714D01*
X93138571Y-150377380D02*
X93138571Y-149377380D01*
X92805238Y-150091666D01*
X92471904Y-149377380D01*
X92471904Y-150377380D01*
X91567142Y-150377380D02*
X91567142Y-149853571D01*
X91614761Y-149758333D01*
X91710000Y-149710714D01*
X91900476Y-149710714D01*
X91995714Y-149758333D01*
X91567142Y-150329761D02*
X91662380Y-150377380D01*
X91900476Y-150377380D01*
X91995714Y-150329761D01*
X92043333Y-150234523D01*
X92043333Y-150139285D01*
X91995714Y-150044047D01*
X91900476Y-149996428D01*
X91662380Y-149996428D01*
X91567142Y-149948809D01*
X91090952Y-150377380D02*
X91090952Y-149710714D01*
X91090952Y-149901190D02*
X91043333Y-149805952D01*
X90995714Y-149758333D01*
X90900476Y-149710714D01*
X90805238Y-149710714D01*
X90471904Y-150377380D02*
X90471904Y-149377380D01*
X90376666Y-149996428D02*
X90090952Y-150377380D01*
X90090952Y-149710714D02*
X90471904Y-150091666D01*
X89329047Y-149853571D02*
X89662380Y-149853571D01*
X89662380Y-150377380D02*
X89662380Y-149377380D01*
X89186190Y-149377380D01*
X88805238Y-150377380D02*
X88805238Y-149710714D01*
X88805238Y-149901190D02*
X88757619Y-149805952D01*
X88710000Y-149758333D01*
X88614761Y-149710714D01*
X88519523Y-149710714D01*
X88043333Y-150377380D02*
X88138571Y-150329761D01*
X88186190Y-150282142D01*
X88233809Y-150186904D01*
X88233809Y-149901190D01*
X88186190Y-149805952D01*
X88138571Y-149758333D01*
X88043333Y-149710714D01*
X87900476Y-149710714D01*
X87805238Y-149758333D01*
X87757619Y-149805952D01*
X87710000Y-149901190D01*
X87710000Y-150186904D01*
X87757619Y-150282142D01*
X87805238Y-150329761D01*
X87900476Y-150377380D01*
X88043333Y-150377380D01*
X87281428Y-150377380D02*
X87281428Y-149710714D01*
X87281428Y-149805952D02*
X87233809Y-149758333D01*
X87138571Y-149710714D01*
X86995714Y-149710714D01*
X86900476Y-149758333D01*
X86852857Y-149853571D01*
X86852857Y-150377380D01*
X86852857Y-149853571D02*
X86805238Y-149758333D01*
X86710000Y-149710714D01*
X86567142Y-149710714D01*
X86471904Y-149758333D01*
X86424285Y-149853571D01*
X86424285Y-150377380D01*
X85995714Y-150329761D02*
X85852857Y-150377380D01*
X85614761Y-150377380D01*
X85519523Y-150329761D01*
X85471904Y-150282142D01*
X85424285Y-150186904D01*
X85424285Y-150091666D01*
X85471904Y-149996428D01*
X85519523Y-149948809D01*
X85614761Y-149901190D01*
X85805238Y-149853571D01*
X85900476Y-149805952D01*
X85948095Y-149758333D01*
X85995714Y-149663095D01*
X85995714Y-149567857D01*
X85948095Y-149472619D01*
X85900476Y-149425000D01*
X85805238Y-149377380D01*
X85567142Y-149377380D01*
X85424285Y-149425000D01*
X84567142Y-150377380D02*
X84567142Y-149853571D01*
X84614761Y-149758333D01*
X84710000Y-149710714D01*
X84900476Y-149710714D01*
X84995714Y-149758333D01*
X84567142Y-150329761D02*
X84662380Y-150377380D01*
X84900476Y-150377380D01*
X84995714Y-150329761D01*
X85043333Y-150234523D01*
X85043333Y-150139285D01*
X84995714Y-150044047D01*
X84900476Y-149996428D01*
X84662380Y-149996428D01*
X84567142Y-149948809D01*
X83948095Y-150377380D02*
X84043333Y-150329761D01*
X84090952Y-150234523D01*
X84090952Y-149377380D01*
X83186190Y-150329761D02*
X83281428Y-150377380D01*
X83471904Y-150377380D01*
X83567142Y-150329761D01*
X83614761Y-150234523D01*
X83614761Y-149853571D01*
X83567142Y-149758333D01*
X83471904Y-149710714D01*
X83281428Y-149710714D01*
X83186190Y-149758333D01*
X83138571Y-149853571D01*
X83138571Y-149948809D01*
X83614761Y-150044047D01*
X82757619Y-150329761D02*
X82662380Y-150377380D01*
X82471904Y-150377380D01*
X82376666Y-150329761D01*
X82329047Y-150234523D01*
X82329047Y-150186904D01*
X82376666Y-150091666D01*
X82471904Y-150044047D01*
X82614761Y-150044047D01*
X82710000Y-149996428D01*
X82757619Y-149901190D01*
X82757619Y-149853571D01*
X82710000Y-149758333D01*
X82614761Y-149710714D01*
X82471904Y-149710714D01*
X82376666Y-149758333D01*
X101662380Y-151360714D02*
X101471904Y-152027380D01*
X101281428Y-151551190D01*
X101090952Y-152027380D01*
X100900476Y-151360714D01*
X100614761Y-151360714D02*
X100424285Y-152027380D01*
X100233809Y-151551190D01*
X100043333Y-152027380D01*
X99852857Y-151360714D01*
X99567142Y-151360714D02*
X99376666Y-152027380D01*
X99186190Y-151551190D01*
X98995714Y-152027380D01*
X98805238Y-151360714D01*
X98424285Y-151932142D02*
X98376666Y-151979761D01*
X98424285Y-152027380D01*
X98471904Y-151979761D01*
X98424285Y-151932142D01*
X98424285Y-152027380D01*
X97948095Y-152027380D02*
X97948095Y-151360714D01*
X97948095Y-151455952D02*
X97900476Y-151408333D01*
X97805238Y-151360714D01*
X97662380Y-151360714D01*
X97567142Y-151408333D01*
X97519523Y-151503571D01*
X97519523Y-152027380D01*
X97519523Y-151503571D02*
X97471904Y-151408333D01*
X97376666Y-151360714D01*
X97233809Y-151360714D01*
X97138571Y-151408333D01*
X97090952Y-151503571D01*
X97090952Y-152027380D01*
X96186190Y-152027380D02*
X96186190Y-151503571D01*
X96233809Y-151408333D01*
X96329047Y-151360714D01*
X96519523Y-151360714D01*
X96614761Y-151408333D01*
X96186190Y-151979761D02*
X96281428Y-152027380D01*
X96519523Y-152027380D01*
X96614761Y-151979761D01*
X96662380Y-151884523D01*
X96662380Y-151789285D01*
X96614761Y-151694047D01*
X96519523Y-151646428D01*
X96281428Y-151646428D01*
X96186190Y-151598809D01*
X95710000Y-152027380D02*
X95710000Y-151360714D01*
X95710000Y-151551190D02*
X95662380Y-151455952D01*
X95614761Y-151408333D01*
X95519523Y-151360714D01*
X95424285Y-151360714D01*
X95090952Y-152027380D02*
X95090952Y-151027380D01*
X94995714Y-151646428D02*
X94710000Y-152027380D01*
X94710000Y-151360714D02*
X95090952Y-151741666D01*
X94424285Y-151360714D02*
X94043333Y-151360714D01*
X94281428Y-152027380D02*
X94281428Y-151170238D01*
X94233809Y-151075000D01*
X94138571Y-151027380D01*
X94043333Y-151027380D01*
X93710000Y-152027380D02*
X93710000Y-151360714D01*
X93710000Y-151551190D02*
X93662380Y-151455952D01*
X93614761Y-151408333D01*
X93519523Y-151360714D01*
X93424285Y-151360714D01*
X92948095Y-152027380D02*
X93043333Y-151979761D01*
X93090952Y-151932142D01*
X93138571Y-151836904D01*
X93138571Y-151551190D01*
X93090952Y-151455952D01*
X93043333Y-151408333D01*
X92948095Y-151360714D01*
X92805238Y-151360714D01*
X92710000Y-151408333D01*
X92662380Y-151455952D01*
X92614761Y-151551190D01*
X92614761Y-151836904D01*
X92662380Y-151932142D01*
X92710000Y-151979761D01*
X92805238Y-152027380D01*
X92948095Y-152027380D01*
X92186190Y-152027380D02*
X92186190Y-151360714D01*
X92186190Y-151455952D02*
X92138571Y-151408333D01*
X92043333Y-151360714D01*
X91900476Y-151360714D01*
X91805238Y-151408333D01*
X91757619Y-151503571D01*
X91757619Y-152027380D01*
X91757619Y-151503571D02*
X91710000Y-151408333D01*
X91614761Y-151360714D01*
X91471904Y-151360714D01*
X91376666Y-151408333D01*
X91329047Y-151503571D01*
X91329047Y-152027380D01*
X90900476Y-151979761D02*
X90805238Y-152027380D01*
X90614761Y-152027380D01*
X90519523Y-151979761D01*
X90471904Y-151884523D01*
X90471904Y-151836904D01*
X90519523Y-151741666D01*
X90614761Y-151694047D01*
X90757619Y-151694047D01*
X90852857Y-151646428D01*
X90900476Y-151551190D01*
X90900476Y-151503571D01*
X90852857Y-151408333D01*
X90757619Y-151360714D01*
X90614761Y-151360714D01*
X90519523Y-151408333D01*
X89614761Y-152027380D02*
X89614761Y-151503571D01*
X89662380Y-151408333D01*
X89757619Y-151360714D01*
X89948095Y-151360714D01*
X90043333Y-151408333D01*
X89614761Y-151979761D02*
X89710000Y-152027380D01*
X89948095Y-152027380D01*
X90043333Y-151979761D01*
X90090952Y-151884523D01*
X90090952Y-151789285D01*
X90043333Y-151694047D01*
X89948095Y-151646428D01*
X89710000Y-151646428D01*
X89614761Y-151598809D01*
X88995714Y-152027380D02*
X89090952Y-151979761D01*
X89138571Y-151884523D01*
X89138571Y-151027380D01*
X88233809Y-151979761D02*
X88329047Y-152027380D01*
X88519523Y-152027380D01*
X88614761Y-151979761D01*
X88662380Y-151884523D01*
X88662380Y-151503571D01*
X88614761Y-151408333D01*
X88519523Y-151360714D01*
X88329047Y-151360714D01*
X88233809Y-151408333D01*
X88186190Y-151503571D01*
X88186190Y-151598809D01*
X88662380Y-151694047D01*
X87805238Y-151979761D02*
X87710000Y-152027380D01*
X87519523Y-152027380D01*
X87424285Y-151979761D01*
X87376666Y-151884523D01*
X87376666Y-151836904D01*
X87424285Y-151741666D01*
X87519523Y-151694047D01*
X87662380Y-151694047D01*
X87757619Y-151646428D01*
X87805238Y-151551190D01*
X87805238Y-151503571D01*
X87757619Y-151408333D01*
X87662380Y-151360714D01*
X87519523Y-151360714D01*
X87424285Y-151408333D01*
X86948095Y-151932142D02*
X86900476Y-151979761D01*
X86948095Y-152027380D01*
X86995714Y-151979761D01*
X86948095Y-151932142D01*
X86948095Y-152027380D01*
X86043333Y-151979761D02*
X86138571Y-152027380D01*
X86329047Y-152027380D01*
X86424285Y-151979761D01*
X86471904Y-151932142D01*
X86519523Y-151836904D01*
X86519523Y-151551190D01*
X86471904Y-151455952D01*
X86424285Y-151408333D01*
X86329047Y-151360714D01*
X86138571Y-151360714D01*
X86043333Y-151408333D01*
X85471904Y-152027380D02*
X85567142Y-151979761D01*
X85614761Y-151932142D01*
X85662380Y-151836904D01*
X85662380Y-151551190D01*
X85614761Y-151455952D01*
X85567142Y-151408333D01*
X85471904Y-151360714D01*
X85329047Y-151360714D01*
X85233809Y-151408333D01*
X85186190Y-151455952D01*
X85138571Y-151551190D01*
X85138571Y-151836904D01*
X85186190Y-151932142D01*
X85233809Y-151979761D01*
X85329047Y-152027380D01*
X85471904Y-152027380D01*
X84710000Y-152027380D02*
X84710000Y-151360714D01*
X84710000Y-151455952D02*
X84662380Y-151408333D01*
X84567142Y-151360714D01*
X84424285Y-151360714D01*
X84329047Y-151408333D01*
X84281428Y-151503571D01*
X84281428Y-152027380D01*
X84281428Y-151503571D02*
X84233809Y-151408333D01*
X84138571Y-151360714D01*
X83995714Y-151360714D01*
X83900476Y-151408333D01*
X83852857Y-151503571D01*
X83852857Y-152027380D01*
X103900476Y-153677380D02*
X104471904Y-153677380D01*
X104186190Y-153677380D02*
X104186190Y-152677380D01*
X104281428Y-152820238D01*
X104376666Y-152915476D01*
X104471904Y-152963095D01*
X103281428Y-152677380D02*
X103186190Y-152677380D01*
X103090952Y-152725000D01*
X103043333Y-152772619D01*
X102995714Y-152867857D01*
X102948095Y-153058333D01*
X102948095Y-153296428D01*
X102995714Y-153486904D01*
X103043333Y-153582142D01*
X103090952Y-153629761D01*
X103186190Y-153677380D01*
X103281428Y-153677380D01*
X103376666Y-153629761D01*
X103424285Y-153582142D01*
X103471904Y-153486904D01*
X103519523Y-153296428D01*
X103519523Y-153058333D01*
X103471904Y-152867857D01*
X103424285Y-152772619D01*
X103376666Y-152725000D01*
X103281428Y-152677380D01*
X102519523Y-153677380D02*
X102519523Y-152677380D01*
X102186190Y-153391666D01*
X101852857Y-152677380D01*
X101852857Y-153677380D01*
X101376666Y-153677380D02*
X101376666Y-152677380D01*
X101376666Y-153153571D02*
X100805238Y-153153571D01*
X100805238Y-153677380D02*
X100805238Y-152677380D01*
X100424285Y-153010714D02*
X99900476Y-153010714D01*
X100424285Y-153677380D01*
X99900476Y-153677380D01*
X98186190Y-153677380D02*
X98519523Y-153201190D01*
X98757619Y-153677380D02*
X98757619Y-152677380D01*
X98376666Y-152677380D01*
X98281428Y-152725000D01*
X98233809Y-152772619D01*
X98186190Y-152867857D01*
X98186190Y-153010714D01*
X98233809Y-153105952D01*
X98281428Y-153153571D01*
X98376666Y-153201190D01*
X98757619Y-153201190D01*
X97757619Y-153677380D02*
X97757619Y-152677380D01*
X97757619Y-153058333D02*
X97662380Y-153010714D01*
X97471904Y-153010714D01*
X97376666Y-153058333D01*
X97329047Y-153105952D01*
X97281428Y-153201190D01*
X97281428Y-153486904D01*
X97329047Y-153582142D01*
X97376666Y-153629761D01*
X97471904Y-153677380D01*
X97662380Y-153677380D01*
X97757619Y-153629761D01*
X95519523Y-153677380D02*
X95852857Y-153201190D01*
X96090952Y-153677380D02*
X96090952Y-152677380D01*
X95710000Y-152677380D01*
X95614761Y-152725000D01*
X95567142Y-152772619D01*
X95519523Y-152867857D01*
X95519523Y-153010714D01*
X95567142Y-153105952D01*
X95614761Y-153153571D01*
X95710000Y-153201190D01*
X96090952Y-153201190D01*
X94710000Y-153629761D02*
X94805238Y-153677380D01*
X94995714Y-153677380D01*
X95090952Y-153629761D01*
X95138571Y-153534523D01*
X95138571Y-153153571D01*
X95090952Y-153058333D01*
X94995714Y-153010714D01*
X94805238Y-153010714D01*
X94710000Y-153058333D01*
X94662380Y-153153571D01*
X94662380Y-153248809D01*
X95138571Y-153344047D01*
X94376666Y-153010714D02*
X93995714Y-153010714D01*
X94233809Y-153677380D02*
X94233809Y-152820238D01*
X94186190Y-152725000D01*
X94090952Y-152677380D01*
X93995714Y-152677380D01*
X93281428Y-153629761D02*
X93376666Y-153677380D01*
X93567142Y-153677380D01*
X93662380Y-153629761D01*
X93710000Y-153534523D01*
X93710000Y-153153571D01*
X93662380Y-153058333D01*
X93567142Y-153010714D01*
X93376666Y-153010714D01*
X93281428Y-153058333D01*
X93233809Y-153153571D01*
X93233809Y-153248809D01*
X93710000Y-153344047D01*
X92805238Y-153677380D02*
X92805238Y-153010714D01*
X92805238Y-153201190D02*
X92757619Y-153105952D01*
X92710000Y-153058333D01*
X92614761Y-153010714D01*
X92519523Y-153010714D01*
X91805238Y-153629761D02*
X91900476Y-153677380D01*
X92090952Y-153677380D01*
X92186190Y-153629761D01*
X92233809Y-153534523D01*
X92233809Y-153153571D01*
X92186190Y-153058333D01*
X92090952Y-153010714D01*
X91900476Y-153010714D01*
X91805238Y-153058333D01*
X91757619Y-153153571D01*
X91757619Y-153248809D01*
X92233809Y-153344047D01*
X91329047Y-153010714D02*
X91329047Y-153677380D01*
X91329047Y-153105952D02*
X91281428Y-153058333D01*
X91186190Y-153010714D01*
X91043333Y-153010714D01*
X90948095Y-153058333D01*
X90900476Y-153153571D01*
X90900476Y-153677380D01*
X89995714Y-153629761D02*
X90090952Y-153677380D01*
X90281428Y-153677380D01*
X90376666Y-153629761D01*
X90424285Y-153582142D01*
X90471904Y-153486904D01*
X90471904Y-153201190D01*
X90424285Y-153105952D01*
X90376666Y-153058333D01*
X90281428Y-153010714D01*
X90090952Y-153010714D01*
X89995714Y-153058333D01*
X89186190Y-153629761D02*
X89281428Y-153677380D01*
X89471904Y-153677380D01*
X89567142Y-153629761D01*
X89614761Y-153534523D01*
X89614761Y-153153571D01*
X89567142Y-153058333D01*
X89471904Y-153010714D01*
X89281428Y-153010714D01*
X89186190Y-153058333D01*
X89138571Y-153153571D01*
X89138571Y-153248809D01*
X89614761Y-153344047D01*
X87376666Y-153582142D02*
X87424285Y-153629761D01*
X87567142Y-153677380D01*
X87662380Y-153677380D01*
X87805238Y-153629761D01*
X87900476Y-153534523D01*
X87948095Y-153439285D01*
X87995714Y-153248809D01*
X87995714Y-153105952D01*
X87948095Y-152915476D01*
X87900476Y-152820238D01*
X87805238Y-152725000D01*
X87662380Y-152677380D01*
X87567142Y-152677380D01*
X87424285Y-152725000D01*
X87376666Y-152772619D01*
X86805238Y-153677380D02*
X86900476Y-153629761D01*
X86948095Y-153582142D01*
X86995714Y-153486904D01*
X86995714Y-153201190D01*
X86948095Y-153105952D01*
X86900476Y-153058333D01*
X86805238Y-153010714D01*
X86662380Y-153010714D01*
X86567142Y-153058333D01*
X86519523Y-153105952D01*
X86471904Y-153201190D01*
X86471904Y-153486904D01*
X86519523Y-153582142D01*
X86567142Y-153629761D01*
X86662380Y-153677380D01*
X86805238Y-153677380D01*
X86043333Y-153010714D02*
X86043333Y-153677380D01*
X86043333Y-153105952D02*
X85995714Y-153058333D01*
X85900476Y-153010714D01*
X85757619Y-153010714D01*
X85662380Y-153058333D01*
X85614761Y-153153571D01*
X85614761Y-153677380D01*
X85281428Y-153010714D02*
X84900476Y-153010714D01*
X85138571Y-152677380D02*
X85138571Y-153534523D01*
X85090952Y-153629761D01*
X84995714Y-153677380D01*
X84900476Y-153677380D01*
X84567142Y-153677380D02*
X84567142Y-153010714D01*
X84567142Y-153201190D02*
X84519523Y-153105952D01*
X84471904Y-153058333D01*
X84376666Y-153010714D01*
X84281428Y-153010714D01*
X83805238Y-153677380D02*
X83900476Y-153629761D01*
X83948095Y-153582142D01*
X83995714Y-153486904D01*
X83995714Y-153201190D01*
X83948095Y-153105952D01*
X83900476Y-153058333D01*
X83805238Y-153010714D01*
X83662380Y-153010714D01*
X83567142Y-153058333D01*
X83519523Y-153105952D01*
X83471904Y-153201190D01*
X83471904Y-153486904D01*
X83519523Y-153582142D01*
X83567142Y-153629761D01*
X83662380Y-153677380D01*
X83805238Y-153677380D01*
X82900476Y-153677380D02*
X82995714Y-153629761D01*
X83043333Y-153534523D01*
X83043333Y-152677380D01*
X82376666Y-153677380D02*
X82471904Y-153629761D01*
X82519523Y-153534523D01*
X82519523Y-152677380D01*
X81614761Y-153629761D02*
X81710000Y-153677380D01*
X81900476Y-153677380D01*
X81995714Y-153629761D01*
X82043333Y-153534523D01*
X82043333Y-153153571D01*
X81995714Y-153058333D01*
X81900476Y-153010714D01*
X81710000Y-153010714D01*
X81614761Y-153058333D01*
X81567142Y-153153571D01*
X81567142Y-153248809D01*
X82043333Y-153344047D01*
X81138571Y-153677380D02*
X81138571Y-153010714D01*
X81138571Y-153201190D02*
X81090952Y-153105952D01*
X81043333Y-153058333D01*
X80948095Y-153010714D01*
X80852857Y-153010714D01*
X99376666Y-154660714D02*
X99138571Y-155327380D01*
X98900476Y-154660714D01*
X98567142Y-154422619D02*
X98519523Y-154375000D01*
X98424285Y-154327380D01*
X98186190Y-154327380D01*
X98090952Y-154375000D01*
X98043333Y-154422619D01*
X97995714Y-154517857D01*
X97995714Y-154613095D01*
X98043333Y-154755952D01*
X98614761Y-155327380D01*
X97995714Y-155327380D01*
X97376666Y-154327380D02*
X97281428Y-154327380D01*
X97186190Y-154375000D01*
X97138571Y-154422619D01*
X97090952Y-154517857D01*
X97043333Y-154708333D01*
X97043333Y-154946428D01*
X97090952Y-155136904D01*
X97138571Y-155232142D01*
X97186190Y-155279761D01*
X97281428Y-155327380D01*
X97376666Y-155327380D01*
X97471904Y-155279761D01*
X97519523Y-155232142D01*
X97567142Y-155136904D01*
X97614761Y-154946428D01*
X97614761Y-154708333D01*
X97567142Y-154517857D01*
X97519523Y-154422619D01*
X97471904Y-154375000D01*
X97376666Y-154327380D01*
X96090952Y-155327380D02*
X96662380Y-155327380D01*
X96376666Y-155327380D02*
X96376666Y-154327380D01*
X96471904Y-154470238D01*
X96567142Y-154565476D01*
X96662380Y-154613095D01*
X95519523Y-154755952D02*
X95614761Y-154708333D01*
X95662380Y-154660714D01*
X95710000Y-154565476D01*
X95710000Y-154517857D01*
X95662380Y-154422619D01*
X95614761Y-154375000D01*
X95519523Y-154327380D01*
X95329047Y-154327380D01*
X95233809Y-154375000D01*
X95186190Y-154422619D01*
X95138571Y-154517857D01*
X95138571Y-154565476D01*
X95186190Y-154660714D01*
X95233809Y-154708333D01*
X95329047Y-154755952D01*
X95519523Y-154755952D01*
X95614761Y-154803571D01*
X95662380Y-154851190D01*
X95710000Y-154946428D01*
X95710000Y-155136904D01*
X95662380Y-155232142D01*
X95614761Y-155279761D01*
X95519523Y-155327380D01*
X95329047Y-155327380D01*
X95233809Y-155279761D01*
X95186190Y-155232142D01*
X95138571Y-155136904D01*
X95138571Y-154946428D01*
X95186190Y-154851190D01*
X95233809Y-154803571D01*
X95329047Y-154755952D01*
X94710000Y-155232142D02*
X94662380Y-155279761D01*
X94710000Y-155327380D01*
X94757619Y-155279761D01*
X94710000Y-155232142D01*
X94710000Y-155327380D01*
X93710000Y-155327380D02*
X94281428Y-155327380D01*
X93995714Y-155327380D02*
X93995714Y-154327380D01*
X94090952Y-154470238D01*
X94186190Y-154565476D01*
X94281428Y-154613095D01*
X93329047Y-154422619D02*
X93281428Y-154375000D01*
X93186190Y-154327380D01*
X92948095Y-154327380D01*
X92852857Y-154375000D01*
X92805238Y-154422619D01*
X92757619Y-154517857D01*
X92757619Y-154613095D01*
X92805238Y-154755952D01*
X93376666Y-155327380D01*
X92757619Y-155327380D01*
X92329047Y-155232142D02*
X92281428Y-155279761D01*
X92329047Y-155327380D01*
X92376666Y-155279761D01*
X92329047Y-155232142D01*
X92329047Y-155327380D01*
X91662380Y-154327380D02*
X91567142Y-154327380D01*
X91471904Y-154375000D01*
X91424285Y-154422619D01*
X91376666Y-154517857D01*
X91329047Y-154708333D01*
X91329047Y-154946428D01*
X91376666Y-155136904D01*
X91424285Y-155232142D01*
X91471904Y-155279761D01*
X91567142Y-155327380D01*
X91662380Y-155327380D01*
X91757619Y-155279761D01*
X91805238Y-155232142D01*
X91852857Y-155136904D01*
X91900476Y-154946428D01*
X91900476Y-154708333D01*
X91852857Y-154517857D01*
X91805238Y-154422619D01*
X91757619Y-154375000D01*
X91662380Y-154327380D01*
X90757619Y-154755952D02*
X90852857Y-154708333D01*
X90900476Y-154660714D01*
X90948095Y-154565476D01*
X90948095Y-154517857D01*
X90900476Y-154422619D01*
X90852857Y-154375000D01*
X90757619Y-154327380D01*
X90567142Y-154327380D01*
X90471904Y-154375000D01*
X90424285Y-154422619D01*
X90376666Y-154517857D01*
X90376666Y-154565476D01*
X90424285Y-154660714D01*
X90471904Y-154708333D01*
X90567142Y-154755952D01*
X90757619Y-154755952D01*
X90852857Y-154803571D01*
X90900476Y-154851190D01*
X90948095Y-154946428D01*
X90948095Y-155136904D01*
X90900476Y-155232142D01*
X90852857Y-155279761D01*
X90757619Y-155327380D01*
X90567142Y-155327380D01*
X90471904Y-155279761D01*
X90424285Y-155232142D01*
X90376666Y-155136904D01*
X90376666Y-154946428D01*
X90424285Y-154851190D01*
X90471904Y-154803571D01*
X90567142Y-154755952D01*
X89948095Y-155232142D02*
X89900476Y-155279761D01*
X89948095Y-155327380D01*
X89995714Y-155279761D01*
X89948095Y-155232142D01*
X89948095Y-155327380D01*
X89281428Y-154327380D02*
X89186190Y-154327380D01*
X89090952Y-154375000D01*
X89043333Y-154422619D01*
X88995714Y-154517857D01*
X88948095Y-154708333D01*
X88948095Y-154946428D01*
X88995714Y-155136904D01*
X89043333Y-155232142D01*
X89090952Y-155279761D01*
X89186190Y-155327380D01*
X89281428Y-155327380D01*
X89376666Y-155279761D01*
X89424285Y-155232142D01*
X89471904Y-155136904D01*
X89519523Y-154946428D01*
X89519523Y-154708333D01*
X89471904Y-154517857D01*
X89424285Y-154422619D01*
X89376666Y-154375000D01*
X89281428Y-154327380D01*
X88329047Y-154327380D02*
X88233809Y-154327380D01*
X88138571Y-154375000D01*
X88090952Y-154422619D01*
X88043333Y-154517857D01*
X87995714Y-154708333D01*
X87995714Y-154946428D01*
X88043333Y-155136904D01*
X88090952Y-155232142D01*
X88138571Y-155279761D01*
X88233809Y-155327380D01*
X88329047Y-155327380D01*
X88424285Y-155279761D01*
X88471904Y-155232142D01*
X88519523Y-155136904D01*
X88567142Y-154946428D01*
X88567142Y-154708333D01*
X88519523Y-154517857D01*
X88471904Y-154422619D01*
X88424285Y-154375000D01*
X88329047Y-154327380D01*
X87662380Y-154327380D02*
X87043333Y-154327380D01*
X87376666Y-154708333D01*
X87233809Y-154708333D01*
X87138571Y-154755952D01*
X87090952Y-154803571D01*
X87043333Y-154898809D01*
X87043333Y-155136904D01*
X87090952Y-155232142D01*
X87138571Y-155279761D01*
X87233809Y-155327380D01*
X87519523Y-155327380D01*
X87614761Y-155279761D01*
X87662380Y-155232142D01*
X86424285Y-154327380D02*
X86329047Y-154327380D01*
X86233809Y-154375000D01*
X86186190Y-154422619D01*
X86138571Y-154517857D01*
X86090952Y-154708333D01*
X86090952Y-154946428D01*
X86138571Y-155136904D01*
X86186190Y-155232142D01*
X86233809Y-155279761D01*
X86329047Y-155327380D01*
X86424285Y-155327380D01*
X86519523Y-155279761D01*
X86567142Y-155232142D01*
X86614761Y-155136904D01*
X86662380Y-154946428D01*
X86662380Y-154708333D01*
X86614761Y-154517857D01*
X86567142Y-154422619D01*
X86519523Y-154375000D01*
X86424285Y-154327380D01*
M02*
