G04 #@! TF.GenerationSoftware,KiCad,Pcbnew,(5.0.2)-1*
G04 #@! TF.CreationDate,2019-03-19T15:18:45-05:00*
G04 #@! TF.ProjectId,10MHz-Rb-Ref,31304d48-7a2d-4526-922d-5265662e6b69,rev?*
G04 #@! TF.SameCoordinates,Original*
G04 #@! TF.FileFunction,Legend,Top*
G04 #@! TF.FilePolarity,Positive*
%FSLAX46Y46*%
G04 Gerber Fmt 4.6, Leading zero omitted, Abs format (unit mm)*
G04 Created by KiCad (PCBNEW (5.0.2)-1) date 3/19/2019 3:18:45 PM*
%MOMM*%
%LPD*%
G01*
G04 APERTURE LIST*
%ADD10C,0.150000*%
%ADD11C,0.120000*%
%ADD12C,0.100000*%
G04 APERTURE END LIST*
D10*
X92789523Y-118197380D02*
X92313333Y-118197380D01*
X92265714Y-118673571D01*
X92313333Y-118625952D01*
X92408571Y-118578333D01*
X92646666Y-118578333D01*
X92741904Y-118625952D01*
X92789523Y-118673571D01*
X92837142Y-118768809D01*
X92837142Y-119006904D01*
X92789523Y-119102142D01*
X92741904Y-119149761D01*
X92646666Y-119197380D01*
X92408571Y-119197380D01*
X92313333Y-119149761D01*
X92265714Y-119102142D01*
X93122857Y-118197380D02*
X93456190Y-119197380D01*
X93789523Y-118197380D01*
X94122857Y-119197380D02*
X94122857Y-118197380D01*
X94360952Y-118197380D01*
X94503809Y-118245000D01*
X94599047Y-118340238D01*
X94646666Y-118435476D01*
X94694285Y-118625952D01*
X94694285Y-118768809D01*
X94646666Y-118959285D01*
X94599047Y-119054523D01*
X94503809Y-119149761D01*
X94360952Y-119197380D01*
X94122857Y-119197380D01*
X95694285Y-119102142D02*
X95646666Y-119149761D01*
X95503809Y-119197380D01*
X95408571Y-119197380D01*
X95265714Y-119149761D01*
X95170476Y-119054523D01*
X95122857Y-118959285D01*
X95075238Y-118768809D01*
X95075238Y-118625952D01*
X95122857Y-118435476D01*
X95170476Y-118340238D01*
X95265714Y-118245000D01*
X95408571Y-118197380D01*
X95503809Y-118197380D01*
X95646666Y-118245000D01*
X95694285Y-118292619D01*
X61722619Y-55697380D02*
X61722619Y-54697380D01*
X62198809Y-55030714D02*
X62198809Y-55697380D01*
X62198809Y-55125952D02*
X62246428Y-55078333D01*
X62341666Y-55030714D01*
X62484523Y-55030714D01*
X62579761Y-55078333D01*
X62627380Y-55173571D01*
X62627380Y-55697380D01*
X62960714Y-55030714D02*
X63341666Y-55030714D01*
X63103571Y-54697380D02*
X63103571Y-55554523D01*
X63151190Y-55649761D01*
X63246428Y-55697380D01*
X63341666Y-55697380D01*
X64055952Y-55649761D02*
X63960714Y-55697380D01*
X63770238Y-55697380D01*
X63675000Y-55649761D01*
X63627380Y-55554523D01*
X63627380Y-55173571D01*
X63675000Y-55078333D01*
X63770238Y-55030714D01*
X63960714Y-55030714D01*
X64055952Y-55078333D01*
X64103571Y-55173571D01*
X64103571Y-55268809D01*
X63627380Y-55364047D01*
X64532142Y-55697380D02*
X64532142Y-55030714D01*
X64532142Y-55221190D02*
X64579761Y-55125952D01*
X64627380Y-55078333D01*
X64722619Y-55030714D01*
X64817857Y-55030714D01*
X65151190Y-55030714D02*
X65151190Y-55697380D01*
X65151190Y-55125952D02*
X65198809Y-55078333D01*
X65294047Y-55030714D01*
X65436904Y-55030714D01*
X65532142Y-55078333D01*
X65579761Y-55173571D01*
X65579761Y-55697380D01*
X66484523Y-55697380D02*
X66484523Y-55173571D01*
X66436904Y-55078333D01*
X66341666Y-55030714D01*
X66151190Y-55030714D01*
X66055952Y-55078333D01*
X66484523Y-55649761D02*
X66389285Y-55697380D01*
X66151190Y-55697380D01*
X66055952Y-55649761D01*
X66008333Y-55554523D01*
X66008333Y-55459285D01*
X66055952Y-55364047D01*
X66151190Y-55316428D01*
X66389285Y-55316428D01*
X66484523Y-55268809D01*
X67103571Y-55697380D02*
X67008333Y-55649761D01*
X66960714Y-55554523D01*
X66960714Y-54697380D01*
X68103571Y-54697380D02*
X68675000Y-54697380D01*
X68389285Y-55697380D02*
X68389285Y-54697380D01*
X69389285Y-55649761D02*
X69294047Y-55697380D01*
X69103571Y-55697380D01*
X69008333Y-55649761D01*
X68960714Y-55554523D01*
X68960714Y-55173571D01*
X69008333Y-55078333D01*
X69103571Y-55030714D01*
X69294047Y-55030714D01*
X69389285Y-55078333D01*
X69436904Y-55173571D01*
X69436904Y-55268809D01*
X68960714Y-55364047D01*
X69865476Y-55697380D02*
X69865476Y-55030714D01*
X69865476Y-55125952D02*
X69913095Y-55078333D01*
X70008333Y-55030714D01*
X70151190Y-55030714D01*
X70246428Y-55078333D01*
X70294047Y-55173571D01*
X70294047Y-55697380D01*
X70294047Y-55173571D02*
X70341666Y-55078333D01*
X70436904Y-55030714D01*
X70579761Y-55030714D01*
X70675000Y-55078333D01*
X70722619Y-55173571D01*
X70722619Y-55697380D01*
X71198809Y-55030714D02*
X71198809Y-56030714D01*
X71198809Y-55078333D02*
X71294047Y-55030714D01*
X71484523Y-55030714D01*
X71579761Y-55078333D01*
X71627380Y-55125952D01*
X71675000Y-55221190D01*
X71675000Y-55506904D01*
X71627380Y-55602142D01*
X71579761Y-55649761D01*
X71484523Y-55697380D01*
X71294047Y-55697380D01*
X71198809Y-55649761D01*
X75223809Y-78557380D02*
X75223809Y-77557380D01*
X75652380Y-77652619D02*
X75700000Y-77605000D01*
X75795238Y-77557380D01*
X76033333Y-77557380D01*
X76128571Y-77605000D01*
X76176190Y-77652619D01*
X76223809Y-77747857D01*
X76223809Y-77843095D01*
X76176190Y-77985952D01*
X75604761Y-78557380D01*
X76223809Y-78557380D01*
X77223809Y-78462142D02*
X77176190Y-78509761D01*
X77033333Y-78557380D01*
X76938095Y-78557380D01*
X76795238Y-78509761D01*
X76700000Y-78414523D01*
X76652380Y-78319285D01*
X76604761Y-78128809D01*
X76604761Y-77985952D01*
X76652380Y-77795476D01*
X76700000Y-77700238D01*
X76795238Y-77605000D01*
X76938095Y-77557380D01*
X77033333Y-77557380D01*
X77176190Y-77605000D01*
X77223809Y-77652619D01*
X74485714Y-92162380D02*
X74676190Y-92162380D01*
X74771428Y-92210000D01*
X74866666Y-92305238D01*
X74914285Y-92495714D01*
X74914285Y-92829047D01*
X74866666Y-93019523D01*
X74771428Y-93114761D01*
X74676190Y-93162380D01*
X74485714Y-93162380D01*
X74390476Y-93114761D01*
X74295238Y-93019523D01*
X74247619Y-92829047D01*
X74247619Y-92495714D01*
X74295238Y-92305238D01*
X74390476Y-92210000D01*
X74485714Y-92162380D01*
X75342857Y-92495714D02*
X75342857Y-93495714D01*
X75342857Y-92543333D02*
X75438095Y-92495714D01*
X75628571Y-92495714D01*
X75723809Y-92543333D01*
X75771428Y-92590952D01*
X75819047Y-92686190D01*
X75819047Y-92971904D01*
X75771428Y-93067142D01*
X75723809Y-93114761D01*
X75628571Y-93162380D01*
X75438095Y-93162380D01*
X75342857Y-93114761D01*
X76104761Y-92495714D02*
X76485714Y-92495714D01*
X76247619Y-92162380D02*
X76247619Y-93019523D01*
X76295238Y-93114761D01*
X76390476Y-93162380D01*
X76485714Y-93162380D01*
X77914285Y-92638571D02*
X78057142Y-92686190D01*
X78104761Y-92733809D01*
X78152380Y-92829047D01*
X78152380Y-92971904D01*
X78104761Y-93067142D01*
X78057142Y-93114761D01*
X77961904Y-93162380D01*
X77580952Y-93162380D01*
X77580952Y-92162380D01*
X77914285Y-92162380D01*
X78009523Y-92210000D01*
X78057142Y-92257619D01*
X78104761Y-92352857D01*
X78104761Y-92448095D01*
X78057142Y-92543333D01*
X78009523Y-92590952D01*
X77914285Y-92638571D01*
X77580952Y-92638571D01*
X99957142Y-92162380D02*
X100147619Y-92162380D01*
X100242857Y-92210000D01*
X100338095Y-92305238D01*
X100385714Y-92495714D01*
X100385714Y-92829047D01*
X100338095Y-93019523D01*
X100242857Y-93114761D01*
X100147619Y-93162380D01*
X99957142Y-93162380D01*
X99861904Y-93114761D01*
X99766666Y-93019523D01*
X99719047Y-92829047D01*
X99719047Y-92495714D01*
X99766666Y-92305238D01*
X99861904Y-92210000D01*
X99957142Y-92162380D01*
X100814285Y-92495714D02*
X100814285Y-93495714D01*
X100814285Y-92543333D02*
X100909523Y-92495714D01*
X101100000Y-92495714D01*
X101195238Y-92543333D01*
X101242857Y-92590952D01*
X101290476Y-92686190D01*
X101290476Y-92971904D01*
X101242857Y-93067142D01*
X101195238Y-93114761D01*
X101100000Y-93162380D01*
X100909523Y-93162380D01*
X100814285Y-93114761D01*
X101576190Y-92495714D02*
X101957142Y-92495714D01*
X101719047Y-92162380D02*
X101719047Y-93019523D01*
X101766666Y-93114761D01*
X101861904Y-93162380D01*
X101957142Y-93162380D01*
X103004761Y-92876666D02*
X103480952Y-92876666D01*
X102909523Y-93162380D02*
X103242857Y-92162380D01*
X103576190Y-93162380D01*
X62873095Y-126182380D02*
X62396904Y-126182380D01*
X62396904Y-125182380D01*
X63635000Y-126182380D02*
X63635000Y-125658571D01*
X63587380Y-125563333D01*
X63492142Y-125515714D01*
X63301666Y-125515714D01*
X63206428Y-125563333D01*
X63635000Y-126134761D02*
X63539761Y-126182380D01*
X63301666Y-126182380D01*
X63206428Y-126134761D01*
X63158809Y-126039523D01*
X63158809Y-125944285D01*
X63206428Y-125849047D01*
X63301666Y-125801428D01*
X63539761Y-125801428D01*
X63635000Y-125753809D01*
X64111190Y-126182380D02*
X64111190Y-125515714D01*
X64111190Y-125610952D02*
X64158809Y-125563333D01*
X64254047Y-125515714D01*
X64396904Y-125515714D01*
X64492142Y-125563333D01*
X64539761Y-125658571D01*
X64539761Y-126182380D01*
X64539761Y-125658571D02*
X64587380Y-125563333D01*
X64682619Y-125515714D01*
X64825476Y-125515714D01*
X64920714Y-125563333D01*
X64968333Y-125658571D01*
X64968333Y-126182380D01*
X65444523Y-125515714D02*
X65444523Y-126515714D01*
X65444523Y-125563333D02*
X65539761Y-125515714D01*
X65730238Y-125515714D01*
X65825476Y-125563333D01*
X65873095Y-125610952D01*
X65920714Y-125706190D01*
X65920714Y-125991904D01*
X65873095Y-126087142D01*
X65825476Y-126134761D01*
X65730238Y-126182380D01*
X65539761Y-126182380D01*
X65444523Y-126134761D01*
X57086666Y-125182380D02*
X57753333Y-126182380D01*
X57753333Y-125182380D02*
X57086666Y-126182380D01*
X57991428Y-125515714D02*
X58372380Y-125515714D01*
X58134285Y-125182380D02*
X58134285Y-126039523D01*
X58181904Y-126134761D01*
X58277142Y-126182380D01*
X58372380Y-126182380D01*
X59134285Y-126182380D02*
X59134285Y-125658571D01*
X59086666Y-125563333D01*
X58991428Y-125515714D01*
X58800952Y-125515714D01*
X58705714Y-125563333D01*
X59134285Y-126134761D02*
X59039047Y-126182380D01*
X58800952Y-126182380D01*
X58705714Y-126134761D01*
X58658095Y-126039523D01*
X58658095Y-125944285D01*
X58705714Y-125849047D01*
X58800952Y-125801428D01*
X59039047Y-125801428D01*
X59134285Y-125753809D01*
X59753333Y-126182380D02*
X59658095Y-126134761D01*
X59610476Y-126039523D01*
X59610476Y-125182380D01*
X63849523Y-90622380D02*
X63849523Y-89622380D01*
X63849523Y-90098571D02*
X64420952Y-90098571D01*
X64420952Y-90622380D02*
X64420952Y-89622380D01*
X65278095Y-90574761D02*
X65182857Y-90622380D01*
X64992380Y-90622380D01*
X64897142Y-90574761D01*
X64849523Y-90479523D01*
X64849523Y-90098571D01*
X64897142Y-90003333D01*
X64992380Y-89955714D01*
X65182857Y-89955714D01*
X65278095Y-90003333D01*
X65325714Y-90098571D01*
X65325714Y-90193809D01*
X64849523Y-90289047D01*
X66182857Y-90622380D02*
X66182857Y-90098571D01*
X66135238Y-90003333D01*
X66040000Y-89955714D01*
X65849523Y-89955714D01*
X65754285Y-90003333D01*
X66182857Y-90574761D02*
X66087619Y-90622380D01*
X65849523Y-90622380D01*
X65754285Y-90574761D01*
X65706666Y-90479523D01*
X65706666Y-90384285D01*
X65754285Y-90289047D01*
X65849523Y-90241428D01*
X66087619Y-90241428D01*
X66182857Y-90193809D01*
X66516190Y-89955714D02*
X66897142Y-89955714D01*
X66659047Y-89622380D02*
X66659047Y-90479523D01*
X66706666Y-90574761D01*
X66801904Y-90622380D01*
X66897142Y-90622380D01*
X67611428Y-90574761D02*
X67516190Y-90622380D01*
X67325714Y-90622380D01*
X67230476Y-90574761D01*
X67182857Y-90479523D01*
X67182857Y-90098571D01*
X67230476Y-90003333D01*
X67325714Y-89955714D01*
X67516190Y-89955714D01*
X67611428Y-90003333D01*
X67659047Y-90098571D01*
X67659047Y-90193809D01*
X67182857Y-90289047D01*
X68087619Y-90622380D02*
X68087619Y-89955714D01*
X68087619Y-90146190D02*
X68135238Y-90050952D01*
X68182857Y-90003333D01*
X68278095Y-89955714D01*
X68373333Y-89955714D01*
X50887619Y-90574761D02*
X51030476Y-90622380D01*
X51268571Y-90622380D01*
X51363809Y-90574761D01*
X51411428Y-90527142D01*
X51459047Y-90431904D01*
X51459047Y-90336666D01*
X51411428Y-90241428D01*
X51363809Y-90193809D01*
X51268571Y-90146190D01*
X51078095Y-90098571D01*
X50982857Y-90050952D01*
X50935238Y-90003333D01*
X50887619Y-89908095D01*
X50887619Y-89812857D01*
X50935238Y-89717619D01*
X50982857Y-89670000D01*
X51078095Y-89622380D01*
X51316190Y-89622380D01*
X51459047Y-89670000D01*
X51792380Y-89955714D02*
X52030476Y-90622380D01*
X52268571Y-89955714D02*
X52030476Y-90622380D01*
X51935238Y-90860476D01*
X51887619Y-90908095D01*
X51792380Y-90955714D01*
X52601904Y-90574761D02*
X52697142Y-90622380D01*
X52887619Y-90622380D01*
X52982857Y-90574761D01*
X53030476Y-90479523D01*
X53030476Y-90431904D01*
X52982857Y-90336666D01*
X52887619Y-90289047D01*
X52744761Y-90289047D01*
X52649523Y-90241428D01*
X52601904Y-90146190D01*
X52601904Y-90098571D01*
X52649523Y-90003333D01*
X52744761Y-89955714D01*
X52887619Y-89955714D01*
X52982857Y-90003333D01*
X53316190Y-89955714D02*
X53697142Y-89955714D01*
X53459047Y-89622380D02*
X53459047Y-90479523D01*
X53506666Y-90574761D01*
X53601904Y-90622380D01*
X53697142Y-90622380D01*
X54411428Y-90574761D02*
X54316190Y-90622380D01*
X54125714Y-90622380D01*
X54030476Y-90574761D01*
X53982857Y-90479523D01*
X53982857Y-90098571D01*
X54030476Y-90003333D01*
X54125714Y-89955714D01*
X54316190Y-89955714D01*
X54411428Y-90003333D01*
X54459047Y-90098571D01*
X54459047Y-90193809D01*
X53982857Y-90289047D01*
X54887619Y-90622380D02*
X54887619Y-89955714D01*
X54887619Y-90050952D02*
X54935238Y-90003333D01*
X55030476Y-89955714D01*
X55173333Y-89955714D01*
X55268571Y-90003333D01*
X55316190Y-90098571D01*
X55316190Y-90622380D01*
X55316190Y-90098571D02*
X55363809Y-90003333D01*
X55459047Y-89955714D01*
X55601904Y-89955714D01*
X55697142Y-90003333D01*
X55744761Y-90098571D01*
X55744761Y-90622380D01*
X56658333Y-112847380D02*
X56182142Y-112847380D01*
X56182142Y-111847380D01*
X57420238Y-112847380D02*
X57420238Y-112323571D01*
X57372619Y-112228333D01*
X57277380Y-112180714D01*
X57086904Y-112180714D01*
X56991666Y-112228333D01*
X57420238Y-112799761D02*
X57325000Y-112847380D01*
X57086904Y-112847380D01*
X56991666Y-112799761D01*
X56944047Y-112704523D01*
X56944047Y-112609285D01*
X56991666Y-112514047D01*
X57086904Y-112466428D01*
X57325000Y-112466428D01*
X57420238Y-112418809D01*
X57896428Y-112847380D02*
X57896428Y-112180714D01*
X57896428Y-112275952D02*
X57944047Y-112228333D01*
X58039285Y-112180714D01*
X58182142Y-112180714D01*
X58277380Y-112228333D01*
X58325000Y-112323571D01*
X58325000Y-112847380D01*
X58325000Y-112323571D02*
X58372619Y-112228333D01*
X58467857Y-112180714D01*
X58610714Y-112180714D01*
X58705952Y-112228333D01*
X58753571Y-112323571D01*
X58753571Y-112847380D01*
X59229761Y-112180714D02*
X59229761Y-113180714D01*
X59229761Y-112228333D02*
X59325000Y-112180714D01*
X59515476Y-112180714D01*
X59610714Y-112228333D01*
X59658333Y-112275952D01*
X59705952Y-112371190D01*
X59705952Y-112656904D01*
X59658333Y-112752142D01*
X59610714Y-112799761D01*
X59515476Y-112847380D01*
X59325000Y-112847380D01*
X59229761Y-112799761D01*
X61467857Y-112847380D02*
X61134523Y-112371190D01*
X60896428Y-112847380D02*
X60896428Y-111847380D01*
X61277380Y-111847380D01*
X61372619Y-111895000D01*
X61420238Y-111942619D01*
X61467857Y-112037857D01*
X61467857Y-112180714D01*
X61420238Y-112275952D01*
X61372619Y-112323571D01*
X61277380Y-112371190D01*
X60896428Y-112371190D01*
X62277380Y-112799761D02*
X62182142Y-112847380D01*
X61991666Y-112847380D01*
X61896428Y-112799761D01*
X61848809Y-112704523D01*
X61848809Y-112323571D01*
X61896428Y-112228333D01*
X61991666Y-112180714D01*
X62182142Y-112180714D01*
X62277380Y-112228333D01*
X62325000Y-112323571D01*
X62325000Y-112418809D01*
X61848809Y-112514047D01*
X62896428Y-112847380D02*
X62801190Y-112799761D01*
X62753571Y-112704523D01*
X62753571Y-111847380D01*
X63705952Y-112847380D02*
X63705952Y-112323571D01*
X63658333Y-112228333D01*
X63563095Y-112180714D01*
X63372619Y-112180714D01*
X63277380Y-112228333D01*
X63705952Y-112799761D02*
X63610714Y-112847380D01*
X63372619Y-112847380D01*
X63277380Y-112799761D01*
X63229761Y-112704523D01*
X63229761Y-112609285D01*
X63277380Y-112514047D01*
X63372619Y-112466428D01*
X63610714Y-112466428D01*
X63705952Y-112418809D01*
X64086904Y-112180714D02*
X64325000Y-112847380D01*
X64563095Y-112180714D02*
X64325000Y-112847380D01*
X64229761Y-113085476D01*
X64182142Y-113133095D01*
X64086904Y-113180714D01*
X96528333Y-113593571D02*
X96195000Y-113593571D01*
X96195000Y-114117380D02*
X96195000Y-113117380D01*
X96671190Y-113117380D01*
X97480714Y-114117380D02*
X97480714Y-113593571D01*
X97433095Y-113498333D01*
X97337857Y-113450714D01*
X97147380Y-113450714D01*
X97052142Y-113498333D01*
X97480714Y-114069761D02*
X97385476Y-114117380D01*
X97147380Y-114117380D01*
X97052142Y-114069761D01*
X97004523Y-113974523D01*
X97004523Y-113879285D01*
X97052142Y-113784047D01*
X97147380Y-113736428D01*
X97385476Y-113736428D01*
X97480714Y-113688809D01*
X97956904Y-113450714D02*
X97956904Y-114117380D01*
X97956904Y-113545952D02*
X98004523Y-113498333D01*
X98099761Y-113450714D01*
X98242619Y-113450714D01*
X98337857Y-113498333D01*
X98385476Y-113593571D01*
X98385476Y-114117380D01*
X100195000Y-114117380D02*
X99861666Y-113641190D01*
X99623571Y-114117380D02*
X99623571Y-113117380D01*
X100004523Y-113117380D01*
X100099761Y-113165000D01*
X100147380Y-113212619D01*
X100195000Y-113307857D01*
X100195000Y-113450714D01*
X100147380Y-113545952D01*
X100099761Y-113593571D01*
X100004523Y-113641190D01*
X99623571Y-113641190D01*
X101004523Y-114069761D02*
X100909285Y-114117380D01*
X100718809Y-114117380D01*
X100623571Y-114069761D01*
X100575952Y-113974523D01*
X100575952Y-113593571D01*
X100623571Y-113498333D01*
X100718809Y-113450714D01*
X100909285Y-113450714D01*
X101004523Y-113498333D01*
X101052142Y-113593571D01*
X101052142Y-113688809D01*
X100575952Y-113784047D01*
X101623571Y-114117380D02*
X101528333Y-114069761D01*
X101480714Y-113974523D01*
X101480714Y-113117380D01*
X102433095Y-114117380D02*
X102433095Y-113593571D01*
X102385476Y-113498333D01*
X102290238Y-113450714D01*
X102099761Y-113450714D01*
X102004523Y-113498333D01*
X102433095Y-114069761D02*
X102337857Y-114117380D01*
X102099761Y-114117380D01*
X102004523Y-114069761D01*
X101956904Y-113974523D01*
X101956904Y-113879285D01*
X102004523Y-113784047D01*
X102099761Y-113736428D01*
X102337857Y-113736428D01*
X102433095Y-113688809D01*
X102814047Y-113450714D02*
X103052142Y-114117380D01*
X103290238Y-113450714D02*
X103052142Y-114117380D01*
X102956904Y-114355476D01*
X102909285Y-114403095D01*
X102814047Y-114450714D01*
X108037619Y-65857380D02*
X108037619Y-64857380D01*
X108275714Y-64857380D01*
X108418571Y-64905000D01*
X108513809Y-65000238D01*
X108561428Y-65095476D01*
X108609047Y-65285952D01*
X108609047Y-65428809D01*
X108561428Y-65619285D01*
X108513809Y-65714523D01*
X108418571Y-65809761D01*
X108275714Y-65857380D01*
X108037619Y-65857380D01*
X109037619Y-65857380D02*
X109037619Y-65190714D01*
X109037619Y-64857380D02*
X108990000Y-64905000D01*
X109037619Y-64952619D01*
X109085238Y-64905000D01*
X109037619Y-64857380D01*
X109037619Y-64952619D01*
X109466190Y-65809761D02*
X109561428Y-65857380D01*
X109751904Y-65857380D01*
X109847142Y-65809761D01*
X109894761Y-65714523D01*
X109894761Y-65666904D01*
X109847142Y-65571666D01*
X109751904Y-65524047D01*
X109609047Y-65524047D01*
X109513809Y-65476428D01*
X109466190Y-65381190D01*
X109466190Y-65333571D01*
X109513809Y-65238333D01*
X109609047Y-65190714D01*
X109751904Y-65190714D01*
X109847142Y-65238333D01*
X110323333Y-65190714D02*
X110323333Y-66190714D01*
X110323333Y-65238333D02*
X110418571Y-65190714D01*
X110609047Y-65190714D01*
X110704285Y-65238333D01*
X110751904Y-65285952D01*
X110799523Y-65381190D01*
X110799523Y-65666904D01*
X110751904Y-65762142D01*
X110704285Y-65809761D01*
X110609047Y-65857380D01*
X110418571Y-65857380D01*
X110323333Y-65809761D01*
X111370952Y-65857380D02*
X111275714Y-65809761D01*
X111228095Y-65714523D01*
X111228095Y-64857380D01*
X112180476Y-65857380D02*
X112180476Y-65333571D01*
X112132857Y-65238333D01*
X112037619Y-65190714D01*
X111847142Y-65190714D01*
X111751904Y-65238333D01*
X112180476Y-65809761D02*
X112085238Y-65857380D01*
X111847142Y-65857380D01*
X111751904Y-65809761D01*
X111704285Y-65714523D01*
X111704285Y-65619285D01*
X111751904Y-65524047D01*
X111847142Y-65476428D01*
X112085238Y-65476428D01*
X112180476Y-65428809D01*
X112561428Y-65190714D02*
X112799523Y-65857380D01*
X113037619Y-65190714D02*
X112799523Y-65857380D01*
X112704285Y-66095476D01*
X112656666Y-66143095D01*
X112561428Y-66190714D01*
X105950238Y-99877619D02*
X105997857Y-99830000D01*
X106093095Y-99782380D01*
X106331190Y-99782380D01*
X106426428Y-99830000D01*
X106474047Y-99877619D01*
X106521666Y-99972857D01*
X106521666Y-100068095D01*
X106474047Y-100210952D01*
X105902619Y-100782380D01*
X106521666Y-100782380D01*
X107378809Y-100115714D02*
X107378809Y-100782380D01*
X107140714Y-99734761D02*
X106902619Y-100449047D01*
X107521666Y-100449047D01*
X107759761Y-99782380D02*
X108093095Y-100782380D01*
X108426428Y-99782380D01*
X108759761Y-100782380D02*
X108759761Y-99782380D01*
X108997857Y-99782380D01*
X109140714Y-99830000D01*
X109235952Y-99925238D01*
X109283571Y-100020476D01*
X109331190Y-100210952D01*
X109331190Y-100353809D01*
X109283571Y-100544285D01*
X109235952Y-100639523D01*
X109140714Y-100734761D01*
X108997857Y-100782380D01*
X108759761Y-100782380D01*
X110331190Y-100687142D02*
X110283571Y-100734761D01*
X110140714Y-100782380D01*
X110045476Y-100782380D01*
X109902619Y-100734761D01*
X109807380Y-100639523D01*
X109759761Y-100544285D01*
X109712142Y-100353809D01*
X109712142Y-100210952D01*
X109759761Y-100020476D01*
X109807380Y-99925238D01*
X109902619Y-99830000D01*
X110045476Y-99782380D01*
X110140714Y-99782380D01*
X110283571Y-99830000D01*
X110331190Y-99877619D01*
X111855000Y-100258571D02*
X111521666Y-100258571D01*
X111521666Y-100782380D02*
X111521666Y-99782380D01*
X111997857Y-99782380D01*
X112807380Y-100782380D02*
X112807380Y-100258571D01*
X112759761Y-100163333D01*
X112664523Y-100115714D01*
X112474047Y-100115714D01*
X112378809Y-100163333D01*
X112807380Y-100734761D02*
X112712142Y-100782380D01*
X112474047Y-100782380D01*
X112378809Y-100734761D01*
X112331190Y-100639523D01*
X112331190Y-100544285D01*
X112378809Y-100449047D01*
X112474047Y-100401428D01*
X112712142Y-100401428D01*
X112807380Y-100353809D01*
X113283571Y-100115714D02*
X113283571Y-100782380D01*
X113283571Y-100210952D02*
X113331190Y-100163333D01*
X113426428Y-100115714D01*
X113569285Y-100115714D01*
X113664523Y-100163333D01*
X113712142Y-100258571D01*
X113712142Y-100782380D01*
X84042857Y-66206666D02*
X84519047Y-66206666D01*
X83947619Y-66492380D02*
X84280952Y-65492380D01*
X84614285Y-66492380D01*
X84947619Y-66492380D02*
X84947619Y-65825714D01*
X84947619Y-66016190D02*
X84995238Y-65920952D01*
X85042857Y-65873333D01*
X85138095Y-65825714D01*
X85233333Y-65825714D01*
X85995238Y-66492380D02*
X85995238Y-65492380D01*
X85995238Y-66444761D02*
X85900000Y-66492380D01*
X85709523Y-66492380D01*
X85614285Y-66444761D01*
X85566666Y-66397142D01*
X85519047Y-66301904D01*
X85519047Y-66016190D01*
X85566666Y-65920952D01*
X85614285Y-65873333D01*
X85709523Y-65825714D01*
X85900000Y-65825714D01*
X85995238Y-65873333D01*
X86900000Y-65825714D02*
X86900000Y-66492380D01*
X86471428Y-65825714D02*
X86471428Y-66349523D01*
X86519047Y-66444761D01*
X86614285Y-66492380D01*
X86757142Y-66492380D01*
X86852380Y-66444761D01*
X86900000Y-66397142D01*
X87376190Y-66492380D02*
X87376190Y-65825714D01*
X87376190Y-65492380D02*
X87328571Y-65540000D01*
X87376190Y-65587619D01*
X87423809Y-65540000D01*
X87376190Y-65492380D01*
X87376190Y-65587619D01*
X87852380Y-65825714D02*
X87852380Y-66492380D01*
X87852380Y-65920952D02*
X87900000Y-65873333D01*
X87995238Y-65825714D01*
X88138095Y-65825714D01*
X88233333Y-65873333D01*
X88280952Y-65968571D01*
X88280952Y-66492380D01*
X88900000Y-66492380D02*
X88804761Y-66444761D01*
X88757142Y-66397142D01*
X88709523Y-66301904D01*
X88709523Y-66016190D01*
X88757142Y-65920952D01*
X88804761Y-65873333D01*
X88900000Y-65825714D01*
X89042857Y-65825714D01*
X89138095Y-65873333D01*
X89185714Y-65920952D01*
X89233333Y-66016190D01*
X89233333Y-66301904D01*
X89185714Y-66397142D01*
X89138095Y-66444761D01*
X89042857Y-66492380D01*
X88900000Y-66492380D01*
X90423809Y-66492380D02*
X90423809Y-65492380D01*
X90995238Y-66492380D01*
X90995238Y-65492380D01*
X91900000Y-66492380D02*
X91900000Y-65968571D01*
X91852380Y-65873333D01*
X91757142Y-65825714D01*
X91566666Y-65825714D01*
X91471428Y-65873333D01*
X91900000Y-66444761D02*
X91804761Y-66492380D01*
X91566666Y-66492380D01*
X91471428Y-66444761D01*
X91423809Y-66349523D01*
X91423809Y-66254285D01*
X91471428Y-66159047D01*
X91566666Y-66111428D01*
X91804761Y-66111428D01*
X91900000Y-66063809D01*
X92376190Y-65825714D02*
X92376190Y-66492380D01*
X92376190Y-65920952D02*
X92423809Y-65873333D01*
X92519047Y-65825714D01*
X92661904Y-65825714D01*
X92757142Y-65873333D01*
X92804761Y-65968571D01*
X92804761Y-66492380D01*
X93423809Y-66492380D02*
X93328571Y-66444761D01*
X93280952Y-66397142D01*
X93233333Y-66301904D01*
X93233333Y-66016190D01*
X93280952Y-65920952D01*
X93328571Y-65873333D01*
X93423809Y-65825714D01*
X93566666Y-65825714D01*
X93661904Y-65873333D01*
X93709523Y-65920952D01*
X93757142Y-66016190D01*
X93757142Y-66301904D01*
X93709523Y-66397142D01*
X93661904Y-66444761D01*
X93566666Y-66492380D01*
X93423809Y-66492380D01*
X75009523Y-61047380D02*
X75628571Y-61047380D01*
X75295238Y-61428333D01*
X75438095Y-61428333D01*
X75533333Y-61475952D01*
X75580952Y-61523571D01*
X75628571Y-61618809D01*
X75628571Y-61856904D01*
X75580952Y-61952142D01*
X75533333Y-61999761D01*
X75438095Y-62047380D01*
X75152380Y-62047380D01*
X75057142Y-61999761D01*
X75009523Y-61952142D01*
X75961904Y-61380714D02*
X76200000Y-62047380D01*
X76438095Y-61380714D01*
X76723809Y-61047380D02*
X77342857Y-61047380D01*
X77009523Y-61428333D01*
X77152380Y-61428333D01*
X77247619Y-61475952D01*
X77295238Y-61523571D01*
X77342857Y-61618809D01*
X77342857Y-61856904D01*
X77295238Y-61952142D01*
X77247619Y-61999761D01*
X77152380Y-62047380D01*
X76866666Y-62047380D01*
X76771428Y-61999761D01*
X76723809Y-61952142D01*
X75104761Y-98512380D02*
X75438095Y-99512380D01*
X75771428Y-98512380D01*
X76104761Y-99512380D02*
X76104761Y-98512380D01*
X76580952Y-99512380D02*
X76580952Y-98512380D01*
X77152380Y-99512380D01*
X77152380Y-98512380D01*
X99314285Y-118816428D02*
X100076190Y-118816428D01*
X101028571Y-118197380D02*
X100552380Y-118197380D01*
X100504761Y-118673571D01*
X100552380Y-118625952D01*
X100647619Y-118578333D01*
X100885714Y-118578333D01*
X100980952Y-118625952D01*
X101028571Y-118673571D01*
X101076190Y-118768809D01*
X101076190Y-119006904D01*
X101028571Y-119102142D01*
X100980952Y-119149761D01*
X100885714Y-119197380D01*
X100647619Y-119197380D01*
X100552380Y-119149761D01*
X100504761Y-119102142D01*
X101361904Y-118197380D02*
X101695238Y-119197380D01*
X102028571Y-118197380D01*
X102361904Y-119197380D02*
X102361904Y-118197380D01*
X102600000Y-118197380D01*
X102742857Y-118245000D01*
X102838095Y-118340238D01*
X102885714Y-118435476D01*
X102933333Y-118625952D01*
X102933333Y-118768809D01*
X102885714Y-118959285D01*
X102838095Y-119054523D01*
X102742857Y-119149761D01*
X102600000Y-119197380D01*
X102361904Y-119197380D01*
X103933333Y-119102142D02*
X103885714Y-119149761D01*
X103742857Y-119197380D01*
X103647619Y-119197380D01*
X103504761Y-119149761D01*
X103409523Y-119054523D01*
X103361904Y-118959285D01*
X103314285Y-118768809D01*
X103314285Y-118625952D01*
X103361904Y-118435476D01*
X103409523Y-118340238D01*
X103504761Y-118245000D01*
X103647619Y-118197380D01*
X103742857Y-118197380D01*
X103885714Y-118245000D01*
X103933333Y-118292619D01*
X108664523Y-118197380D02*
X108188333Y-118197380D01*
X108140714Y-118673571D01*
X108188333Y-118625952D01*
X108283571Y-118578333D01*
X108521666Y-118578333D01*
X108616904Y-118625952D01*
X108664523Y-118673571D01*
X108712142Y-118768809D01*
X108712142Y-119006904D01*
X108664523Y-119102142D01*
X108616904Y-119149761D01*
X108521666Y-119197380D01*
X108283571Y-119197380D01*
X108188333Y-119149761D01*
X108140714Y-119102142D01*
X108997857Y-118197380D02*
X109331190Y-119197380D01*
X109664523Y-118197380D01*
X109997857Y-119197380D02*
X109997857Y-118197380D01*
X110235952Y-118197380D01*
X110378809Y-118245000D01*
X110474047Y-118340238D01*
X110521666Y-118435476D01*
X110569285Y-118625952D01*
X110569285Y-118768809D01*
X110521666Y-118959285D01*
X110474047Y-119054523D01*
X110378809Y-119149761D01*
X110235952Y-119197380D01*
X109997857Y-119197380D01*
X111569285Y-119102142D02*
X111521666Y-119149761D01*
X111378809Y-119197380D01*
X111283571Y-119197380D01*
X111140714Y-119149761D01*
X111045476Y-119054523D01*
X110997857Y-118959285D01*
X110950238Y-118768809D01*
X110950238Y-118625952D01*
X110997857Y-118435476D01*
X111045476Y-118340238D01*
X111140714Y-118245000D01*
X111283571Y-118197380D01*
X111378809Y-118197380D01*
X111521666Y-118245000D01*
X111569285Y-118292619D01*
X82376666Y-150377380D02*
X82376666Y-149377380D01*
X82614761Y-149377380D01*
X82757619Y-149425000D01*
X82852857Y-149520238D01*
X82900476Y-149615476D01*
X82948095Y-149805952D01*
X82948095Y-149948809D01*
X82900476Y-150139285D01*
X82852857Y-150234523D01*
X82757619Y-150329761D01*
X82614761Y-150377380D01*
X82376666Y-150377380D01*
X83757619Y-150329761D02*
X83662380Y-150377380D01*
X83471904Y-150377380D01*
X83376666Y-150329761D01*
X83329047Y-150234523D01*
X83329047Y-149853571D01*
X83376666Y-149758333D01*
X83471904Y-149710714D01*
X83662380Y-149710714D01*
X83757619Y-149758333D01*
X83805238Y-149853571D01*
X83805238Y-149948809D01*
X83329047Y-150044047D01*
X84186190Y-150329761D02*
X84281428Y-150377380D01*
X84471904Y-150377380D01*
X84567142Y-150329761D01*
X84614761Y-150234523D01*
X84614761Y-150186904D01*
X84567142Y-150091666D01*
X84471904Y-150044047D01*
X84329047Y-150044047D01*
X84233809Y-149996428D01*
X84186190Y-149901190D01*
X84186190Y-149853571D01*
X84233809Y-149758333D01*
X84329047Y-149710714D01*
X84471904Y-149710714D01*
X84567142Y-149758333D01*
X85043333Y-150377380D02*
X85043333Y-149710714D01*
X85043333Y-149377380D02*
X84995714Y-149425000D01*
X85043333Y-149472619D01*
X85090952Y-149425000D01*
X85043333Y-149377380D01*
X85043333Y-149472619D01*
X85948095Y-149710714D02*
X85948095Y-150520238D01*
X85900476Y-150615476D01*
X85852857Y-150663095D01*
X85757619Y-150710714D01*
X85614761Y-150710714D01*
X85519523Y-150663095D01*
X85948095Y-150329761D02*
X85852857Y-150377380D01*
X85662380Y-150377380D01*
X85567142Y-150329761D01*
X85519523Y-150282142D01*
X85471904Y-150186904D01*
X85471904Y-149901190D01*
X85519523Y-149805952D01*
X85567142Y-149758333D01*
X85662380Y-149710714D01*
X85852857Y-149710714D01*
X85948095Y-149758333D01*
X86424285Y-149710714D02*
X86424285Y-150377380D01*
X86424285Y-149805952D02*
X86471904Y-149758333D01*
X86567142Y-149710714D01*
X86710000Y-149710714D01*
X86805238Y-149758333D01*
X86852857Y-149853571D01*
X86852857Y-150377380D01*
X87710000Y-150329761D02*
X87614761Y-150377380D01*
X87424285Y-150377380D01*
X87329047Y-150329761D01*
X87281428Y-150234523D01*
X87281428Y-149853571D01*
X87329047Y-149758333D01*
X87424285Y-149710714D01*
X87614761Y-149710714D01*
X87710000Y-149758333D01*
X87757619Y-149853571D01*
X87757619Y-149948809D01*
X87281428Y-150044047D01*
X88614761Y-150377380D02*
X88614761Y-149377380D01*
X88614761Y-150329761D02*
X88519523Y-150377380D01*
X88329047Y-150377380D01*
X88233809Y-150329761D01*
X88186190Y-150282142D01*
X88138571Y-150186904D01*
X88138571Y-149901190D01*
X88186190Y-149805952D01*
X88233809Y-149758333D01*
X88329047Y-149710714D01*
X88519523Y-149710714D01*
X88614761Y-149758333D01*
X89852857Y-150377380D02*
X89852857Y-149377380D01*
X89852857Y-149758333D02*
X89948095Y-149710714D01*
X90138571Y-149710714D01*
X90233809Y-149758333D01*
X90281428Y-149805952D01*
X90329047Y-149901190D01*
X90329047Y-150186904D01*
X90281428Y-150282142D01*
X90233809Y-150329761D01*
X90138571Y-150377380D01*
X89948095Y-150377380D01*
X89852857Y-150329761D01*
X90662380Y-149710714D02*
X90900476Y-150377380D01*
X91138571Y-149710714D02*
X90900476Y-150377380D01*
X90805238Y-150615476D01*
X90757619Y-150663095D01*
X90662380Y-150710714D01*
X92281428Y-150377380D02*
X92281428Y-149377380D01*
X92614761Y-150091666D01*
X92948095Y-149377380D01*
X92948095Y-150377380D01*
X93852857Y-150377380D02*
X93852857Y-149853571D01*
X93805238Y-149758333D01*
X93710000Y-149710714D01*
X93519523Y-149710714D01*
X93424285Y-149758333D01*
X93852857Y-150329761D02*
X93757619Y-150377380D01*
X93519523Y-150377380D01*
X93424285Y-150329761D01*
X93376666Y-150234523D01*
X93376666Y-150139285D01*
X93424285Y-150044047D01*
X93519523Y-149996428D01*
X93757619Y-149996428D01*
X93852857Y-149948809D01*
X94329047Y-150377380D02*
X94329047Y-149710714D01*
X94329047Y-149901190D02*
X94376666Y-149805952D01*
X94424285Y-149758333D01*
X94519523Y-149710714D01*
X94614761Y-149710714D01*
X94948095Y-150377380D02*
X94948095Y-149377380D01*
X95043333Y-149996428D02*
X95329047Y-150377380D01*
X95329047Y-149710714D02*
X94948095Y-150091666D01*
X96090952Y-149853571D02*
X95757619Y-149853571D01*
X95757619Y-150377380D02*
X95757619Y-149377380D01*
X96233809Y-149377380D01*
X96614761Y-150377380D02*
X96614761Y-149710714D01*
X96614761Y-149901190D02*
X96662380Y-149805952D01*
X96710000Y-149758333D01*
X96805238Y-149710714D01*
X96900476Y-149710714D01*
X97376666Y-150377380D02*
X97281428Y-150329761D01*
X97233809Y-150282142D01*
X97186190Y-150186904D01*
X97186190Y-149901190D01*
X97233809Y-149805952D01*
X97281428Y-149758333D01*
X97376666Y-149710714D01*
X97519523Y-149710714D01*
X97614761Y-149758333D01*
X97662380Y-149805952D01*
X97710000Y-149901190D01*
X97710000Y-150186904D01*
X97662380Y-150282142D01*
X97614761Y-150329761D01*
X97519523Y-150377380D01*
X97376666Y-150377380D01*
X98138571Y-150377380D02*
X98138571Y-149710714D01*
X98138571Y-149805952D02*
X98186190Y-149758333D01*
X98281428Y-149710714D01*
X98424285Y-149710714D01*
X98519523Y-149758333D01*
X98567142Y-149853571D01*
X98567142Y-150377380D01*
X98567142Y-149853571D02*
X98614761Y-149758333D01*
X98710000Y-149710714D01*
X98852857Y-149710714D01*
X98948095Y-149758333D01*
X98995714Y-149853571D01*
X98995714Y-150377380D01*
X99424285Y-150329761D02*
X99567142Y-150377380D01*
X99805238Y-150377380D01*
X99900476Y-150329761D01*
X99948095Y-150282142D01*
X99995714Y-150186904D01*
X99995714Y-150091666D01*
X99948095Y-149996428D01*
X99900476Y-149948809D01*
X99805238Y-149901190D01*
X99614761Y-149853571D01*
X99519523Y-149805952D01*
X99471904Y-149758333D01*
X99424285Y-149663095D01*
X99424285Y-149567857D01*
X99471904Y-149472619D01*
X99519523Y-149425000D01*
X99614761Y-149377380D01*
X99852857Y-149377380D01*
X99995714Y-149425000D01*
X100852857Y-150377380D02*
X100852857Y-149853571D01*
X100805238Y-149758333D01*
X100710000Y-149710714D01*
X100519523Y-149710714D01*
X100424285Y-149758333D01*
X100852857Y-150329761D02*
X100757619Y-150377380D01*
X100519523Y-150377380D01*
X100424285Y-150329761D01*
X100376666Y-150234523D01*
X100376666Y-150139285D01*
X100424285Y-150044047D01*
X100519523Y-149996428D01*
X100757619Y-149996428D01*
X100852857Y-149948809D01*
X101471904Y-150377380D02*
X101376666Y-150329761D01*
X101329047Y-150234523D01*
X101329047Y-149377380D01*
X102233809Y-150329761D02*
X102138571Y-150377380D01*
X101948095Y-150377380D01*
X101852857Y-150329761D01*
X101805238Y-150234523D01*
X101805238Y-149853571D01*
X101852857Y-149758333D01*
X101948095Y-149710714D01*
X102138571Y-149710714D01*
X102233809Y-149758333D01*
X102281428Y-149853571D01*
X102281428Y-149948809D01*
X101805238Y-150044047D01*
X102662380Y-150329761D02*
X102757619Y-150377380D01*
X102948095Y-150377380D01*
X103043333Y-150329761D01*
X103090952Y-150234523D01*
X103090952Y-150186904D01*
X103043333Y-150091666D01*
X102948095Y-150044047D01*
X102805238Y-150044047D01*
X102710000Y-149996428D01*
X102662380Y-149901190D01*
X102662380Y-149853571D01*
X102710000Y-149758333D01*
X102805238Y-149710714D01*
X102948095Y-149710714D01*
X103043333Y-149758333D01*
X83757619Y-151360714D02*
X83948095Y-152027380D01*
X84138571Y-151551190D01*
X84329047Y-152027380D01*
X84519523Y-151360714D01*
X84805238Y-151360714D02*
X84995714Y-152027380D01*
X85186190Y-151551190D01*
X85376666Y-152027380D01*
X85567142Y-151360714D01*
X85852857Y-151360714D02*
X86043333Y-152027380D01*
X86233809Y-151551190D01*
X86424285Y-152027380D01*
X86614761Y-151360714D01*
X86995714Y-151932142D02*
X87043333Y-151979761D01*
X86995714Y-152027380D01*
X86948095Y-151979761D01*
X86995714Y-151932142D01*
X86995714Y-152027380D01*
X87471904Y-152027380D02*
X87471904Y-151360714D01*
X87471904Y-151455952D02*
X87519523Y-151408333D01*
X87614761Y-151360714D01*
X87757619Y-151360714D01*
X87852857Y-151408333D01*
X87900476Y-151503571D01*
X87900476Y-152027380D01*
X87900476Y-151503571D02*
X87948095Y-151408333D01*
X88043333Y-151360714D01*
X88186190Y-151360714D01*
X88281428Y-151408333D01*
X88329047Y-151503571D01*
X88329047Y-152027380D01*
X89233809Y-152027380D02*
X89233809Y-151503571D01*
X89186190Y-151408333D01*
X89090952Y-151360714D01*
X88900476Y-151360714D01*
X88805238Y-151408333D01*
X89233809Y-151979761D02*
X89138571Y-152027380D01*
X88900476Y-152027380D01*
X88805238Y-151979761D01*
X88757619Y-151884523D01*
X88757619Y-151789285D01*
X88805238Y-151694047D01*
X88900476Y-151646428D01*
X89138571Y-151646428D01*
X89233809Y-151598809D01*
X89710000Y-152027380D02*
X89710000Y-151360714D01*
X89710000Y-151551190D02*
X89757619Y-151455952D01*
X89805238Y-151408333D01*
X89900476Y-151360714D01*
X89995714Y-151360714D01*
X90329047Y-152027380D02*
X90329047Y-151027380D01*
X90424285Y-151646428D02*
X90710000Y-152027380D01*
X90710000Y-151360714D02*
X90329047Y-151741666D01*
X90995714Y-151360714D02*
X91376666Y-151360714D01*
X91138571Y-152027380D02*
X91138571Y-151170238D01*
X91186190Y-151075000D01*
X91281428Y-151027380D01*
X91376666Y-151027380D01*
X91710000Y-152027380D02*
X91710000Y-151360714D01*
X91710000Y-151551190D02*
X91757619Y-151455952D01*
X91805238Y-151408333D01*
X91900476Y-151360714D01*
X91995714Y-151360714D01*
X92471904Y-152027380D02*
X92376666Y-151979761D01*
X92329047Y-151932142D01*
X92281428Y-151836904D01*
X92281428Y-151551190D01*
X92329047Y-151455952D01*
X92376666Y-151408333D01*
X92471904Y-151360714D01*
X92614761Y-151360714D01*
X92710000Y-151408333D01*
X92757619Y-151455952D01*
X92805238Y-151551190D01*
X92805238Y-151836904D01*
X92757619Y-151932142D01*
X92710000Y-151979761D01*
X92614761Y-152027380D01*
X92471904Y-152027380D01*
X93233809Y-152027380D02*
X93233809Y-151360714D01*
X93233809Y-151455952D02*
X93281428Y-151408333D01*
X93376666Y-151360714D01*
X93519523Y-151360714D01*
X93614761Y-151408333D01*
X93662380Y-151503571D01*
X93662380Y-152027380D01*
X93662380Y-151503571D02*
X93710000Y-151408333D01*
X93805238Y-151360714D01*
X93948095Y-151360714D01*
X94043333Y-151408333D01*
X94090952Y-151503571D01*
X94090952Y-152027380D01*
X94519523Y-151979761D02*
X94614761Y-152027380D01*
X94805238Y-152027380D01*
X94900476Y-151979761D01*
X94948095Y-151884523D01*
X94948095Y-151836904D01*
X94900476Y-151741666D01*
X94805238Y-151694047D01*
X94662380Y-151694047D01*
X94567142Y-151646428D01*
X94519523Y-151551190D01*
X94519523Y-151503571D01*
X94567142Y-151408333D01*
X94662380Y-151360714D01*
X94805238Y-151360714D01*
X94900476Y-151408333D01*
X95805238Y-152027380D02*
X95805238Y-151503571D01*
X95757619Y-151408333D01*
X95662380Y-151360714D01*
X95471904Y-151360714D01*
X95376666Y-151408333D01*
X95805238Y-151979761D02*
X95710000Y-152027380D01*
X95471904Y-152027380D01*
X95376666Y-151979761D01*
X95329047Y-151884523D01*
X95329047Y-151789285D01*
X95376666Y-151694047D01*
X95471904Y-151646428D01*
X95710000Y-151646428D01*
X95805238Y-151598809D01*
X96424285Y-152027380D02*
X96329047Y-151979761D01*
X96281428Y-151884523D01*
X96281428Y-151027380D01*
X97186190Y-151979761D02*
X97090952Y-152027380D01*
X96900476Y-152027380D01*
X96805238Y-151979761D01*
X96757619Y-151884523D01*
X96757619Y-151503571D01*
X96805238Y-151408333D01*
X96900476Y-151360714D01*
X97090952Y-151360714D01*
X97186190Y-151408333D01*
X97233809Y-151503571D01*
X97233809Y-151598809D01*
X96757619Y-151694047D01*
X97614761Y-151979761D02*
X97710000Y-152027380D01*
X97900476Y-152027380D01*
X97995714Y-151979761D01*
X98043333Y-151884523D01*
X98043333Y-151836904D01*
X97995714Y-151741666D01*
X97900476Y-151694047D01*
X97757619Y-151694047D01*
X97662380Y-151646428D01*
X97614761Y-151551190D01*
X97614761Y-151503571D01*
X97662380Y-151408333D01*
X97757619Y-151360714D01*
X97900476Y-151360714D01*
X97995714Y-151408333D01*
X98471904Y-151932142D02*
X98519523Y-151979761D01*
X98471904Y-152027380D01*
X98424285Y-151979761D01*
X98471904Y-151932142D01*
X98471904Y-152027380D01*
X99376666Y-151979761D02*
X99281428Y-152027380D01*
X99090952Y-152027380D01*
X98995714Y-151979761D01*
X98948095Y-151932142D01*
X98900476Y-151836904D01*
X98900476Y-151551190D01*
X98948095Y-151455952D01*
X98995714Y-151408333D01*
X99090952Y-151360714D01*
X99281428Y-151360714D01*
X99376666Y-151408333D01*
X99948095Y-152027380D02*
X99852857Y-151979761D01*
X99805238Y-151932142D01*
X99757619Y-151836904D01*
X99757619Y-151551190D01*
X99805238Y-151455952D01*
X99852857Y-151408333D01*
X99948095Y-151360714D01*
X100090952Y-151360714D01*
X100186190Y-151408333D01*
X100233809Y-151455952D01*
X100281428Y-151551190D01*
X100281428Y-151836904D01*
X100233809Y-151932142D01*
X100186190Y-151979761D01*
X100090952Y-152027380D01*
X99948095Y-152027380D01*
X100710000Y-152027380D02*
X100710000Y-151360714D01*
X100710000Y-151455952D02*
X100757619Y-151408333D01*
X100852857Y-151360714D01*
X100995714Y-151360714D01*
X101090952Y-151408333D01*
X101138571Y-151503571D01*
X101138571Y-152027380D01*
X101138571Y-151503571D02*
X101186190Y-151408333D01*
X101281428Y-151360714D01*
X101424285Y-151360714D01*
X101519523Y-151408333D01*
X101567142Y-151503571D01*
X101567142Y-152027380D01*
X81519523Y-153677380D02*
X80948095Y-153677380D01*
X81233809Y-153677380D02*
X81233809Y-152677380D01*
X81138571Y-152820238D01*
X81043333Y-152915476D01*
X80948095Y-152963095D01*
X82138571Y-152677380D02*
X82233809Y-152677380D01*
X82329047Y-152725000D01*
X82376666Y-152772619D01*
X82424285Y-152867857D01*
X82471904Y-153058333D01*
X82471904Y-153296428D01*
X82424285Y-153486904D01*
X82376666Y-153582142D01*
X82329047Y-153629761D01*
X82233809Y-153677380D01*
X82138571Y-153677380D01*
X82043333Y-153629761D01*
X81995714Y-153582142D01*
X81948095Y-153486904D01*
X81900476Y-153296428D01*
X81900476Y-153058333D01*
X81948095Y-152867857D01*
X81995714Y-152772619D01*
X82043333Y-152725000D01*
X82138571Y-152677380D01*
X82900476Y-153677380D02*
X82900476Y-152677380D01*
X83233809Y-153391666D01*
X83567142Y-152677380D01*
X83567142Y-153677380D01*
X84043333Y-153677380D02*
X84043333Y-152677380D01*
X84043333Y-153153571D02*
X84614761Y-153153571D01*
X84614761Y-153677380D02*
X84614761Y-152677380D01*
X84995714Y-153010714D02*
X85519523Y-153010714D01*
X84995714Y-153677380D01*
X85519523Y-153677380D01*
X87233809Y-153677380D02*
X86900476Y-153201190D01*
X86662380Y-153677380D02*
X86662380Y-152677380D01*
X87043333Y-152677380D01*
X87138571Y-152725000D01*
X87186190Y-152772619D01*
X87233809Y-152867857D01*
X87233809Y-153010714D01*
X87186190Y-153105952D01*
X87138571Y-153153571D01*
X87043333Y-153201190D01*
X86662380Y-153201190D01*
X87662380Y-153677380D02*
X87662380Y-152677380D01*
X87662380Y-153058333D02*
X87757619Y-153010714D01*
X87948095Y-153010714D01*
X88043333Y-153058333D01*
X88090952Y-153105952D01*
X88138571Y-153201190D01*
X88138571Y-153486904D01*
X88090952Y-153582142D01*
X88043333Y-153629761D01*
X87948095Y-153677380D01*
X87757619Y-153677380D01*
X87662380Y-153629761D01*
X89900476Y-153677380D02*
X89567142Y-153201190D01*
X89329047Y-153677380D02*
X89329047Y-152677380D01*
X89710000Y-152677380D01*
X89805238Y-152725000D01*
X89852857Y-152772619D01*
X89900476Y-152867857D01*
X89900476Y-153010714D01*
X89852857Y-153105952D01*
X89805238Y-153153571D01*
X89710000Y-153201190D01*
X89329047Y-153201190D01*
X90710000Y-153629761D02*
X90614761Y-153677380D01*
X90424285Y-153677380D01*
X90329047Y-153629761D01*
X90281428Y-153534523D01*
X90281428Y-153153571D01*
X90329047Y-153058333D01*
X90424285Y-153010714D01*
X90614761Y-153010714D01*
X90710000Y-153058333D01*
X90757619Y-153153571D01*
X90757619Y-153248809D01*
X90281428Y-153344047D01*
X91043333Y-153010714D02*
X91424285Y-153010714D01*
X91186190Y-153677380D02*
X91186190Y-152820238D01*
X91233809Y-152725000D01*
X91329047Y-152677380D01*
X91424285Y-152677380D01*
X92138571Y-153629761D02*
X92043333Y-153677380D01*
X91852857Y-153677380D01*
X91757619Y-153629761D01*
X91710000Y-153534523D01*
X91710000Y-153153571D01*
X91757619Y-153058333D01*
X91852857Y-153010714D01*
X92043333Y-153010714D01*
X92138571Y-153058333D01*
X92186190Y-153153571D01*
X92186190Y-153248809D01*
X91710000Y-153344047D01*
X92614761Y-153677380D02*
X92614761Y-153010714D01*
X92614761Y-153201190D02*
X92662380Y-153105952D01*
X92710000Y-153058333D01*
X92805238Y-153010714D01*
X92900476Y-153010714D01*
X93614761Y-153629761D02*
X93519523Y-153677380D01*
X93329047Y-153677380D01*
X93233809Y-153629761D01*
X93186190Y-153534523D01*
X93186190Y-153153571D01*
X93233809Y-153058333D01*
X93329047Y-153010714D01*
X93519523Y-153010714D01*
X93614761Y-153058333D01*
X93662380Y-153153571D01*
X93662380Y-153248809D01*
X93186190Y-153344047D01*
X94090952Y-153010714D02*
X94090952Y-153677380D01*
X94090952Y-153105952D02*
X94138571Y-153058333D01*
X94233809Y-153010714D01*
X94376666Y-153010714D01*
X94471904Y-153058333D01*
X94519523Y-153153571D01*
X94519523Y-153677380D01*
X95424285Y-153629761D02*
X95329047Y-153677380D01*
X95138571Y-153677380D01*
X95043333Y-153629761D01*
X94995714Y-153582142D01*
X94948095Y-153486904D01*
X94948095Y-153201190D01*
X94995714Y-153105952D01*
X95043333Y-153058333D01*
X95138571Y-153010714D01*
X95329047Y-153010714D01*
X95424285Y-153058333D01*
X96233809Y-153629761D02*
X96138571Y-153677380D01*
X95948095Y-153677380D01*
X95852857Y-153629761D01*
X95805238Y-153534523D01*
X95805238Y-153153571D01*
X95852857Y-153058333D01*
X95948095Y-153010714D01*
X96138571Y-153010714D01*
X96233809Y-153058333D01*
X96281428Y-153153571D01*
X96281428Y-153248809D01*
X95805238Y-153344047D01*
X98043333Y-153582142D02*
X97995714Y-153629761D01*
X97852857Y-153677380D01*
X97757619Y-153677380D01*
X97614761Y-153629761D01*
X97519523Y-153534523D01*
X97471904Y-153439285D01*
X97424285Y-153248809D01*
X97424285Y-153105952D01*
X97471904Y-152915476D01*
X97519523Y-152820238D01*
X97614761Y-152725000D01*
X97757619Y-152677380D01*
X97852857Y-152677380D01*
X97995714Y-152725000D01*
X98043333Y-152772619D01*
X98614761Y-153677380D02*
X98519523Y-153629761D01*
X98471904Y-153582142D01*
X98424285Y-153486904D01*
X98424285Y-153201190D01*
X98471904Y-153105952D01*
X98519523Y-153058333D01*
X98614761Y-153010714D01*
X98757619Y-153010714D01*
X98852857Y-153058333D01*
X98900476Y-153105952D01*
X98948095Y-153201190D01*
X98948095Y-153486904D01*
X98900476Y-153582142D01*
X98852857Y-153629761D01*
X98757619Y-153677380D01*
X98614761Y-153677380D01*
X99376666Y-153010714D02*
X99376666Y-153677380D01*
X99376666Y-153105952D02*
X99424285Y-153058333D01*
X99519523Y-153010714D01*
X99662380Y-153010714D01*
X99757619Y-153058333D01*
X99805238Y-153153571D01*
X99805238Y-153677380D01*
X100138571Y-153010714D02*
X100519523Y-153010714D01*
X100281428Y-152677380D02*
X100281428Y-153534523D01*
X100329047Y-153629761D01*
X100424285Y-153677380D01*
X100519523Y-153677380D01*
X100852857Y-153677380D02*
X100852857Y-153010714D01*
X100852857Y-153201190D02*
X100900476Y-153105952D01*
X100948095Y-153058333D01*
X101043333Y-153010714D01*
X101138571Y-153010714D01*
X101614761Y-153677380D02*
X101519523Y-153629761D01*
X101471904Y-153582142D01*
X101424285Y-153486904D01*
X101424285Y-153201190D01*
X101471904Y-153105952D01*
X101519523Y-153058333D01*
X101614761Y-153010714D01*
X101757619Y-153010714D01*
X101852857Y-153058333D01*
X101900476Y-153105952D01*
X101948095Y-153201190D01*
X101948095Y-153486904D01*
X101900476Y-153582142D01*
X101852857Y-153629761D01*
X101757619Y-153677380D01*
X101614761Y-153677380D01*
X102519523Y-153677380D02*
X102424285Y-153629761D01*
X102376666Y-153534523D01*
X102376666Y-152677380D01*
X103043333Y-153677380D02*
X102948095Y-153629761D01*
X102900476Y-153534523D01*
X102900476Y-152677380D01*
X103805238Y-153629761D02*
X103709999Y-153677380D01*
X103519523Y-153677380D01*
X103424285Y-153629761D01*
X103376666Y-153534523D01*
X103376666Y-153153571D01*
X103424285Y-153058333D01*
X103519523Y-153010714D01*
X103709999Y-153010714D01*
X103805238Y-153058333D01*
X103852857Y-153153571D01*
X103852857Y-153248809D01*
X103376666Y-153344047D01*
X104281428Y-153677380D02*
X104281428Y-153010714D01*
X104281428Y-153201190D02*
X104329047Y-153105952D01*
X104376666Y-153058333D01*
X104471904Y-153010714D01*
X104567142Y-153010714D01*
X86043333Y-154660714D02*
X86281428Y-155327380D01*
X86519523Y-154660714D01*
X86852857Y-154422619D02*
X86900476Y-154375000D01*
X86995714Y-154327380D01*
X87233809Y-154327380D01*
X87329047Y-154375000D01*
X87376666Y-154422619D01*
X87424285Y-154517857D01*
X87424285Y-154613095D01*
X87376666Y-154755952D01*
X86805238Y-155327380D01*
X87424285Y-155327380D01*
X88043333Y-154327380D02*
X88138571Y-154327380D01*
X88233809Y-154375000D01*
X88281428Y-154422619D01*
X88329047Y-154517857D01*
X88376666Y-154708333D01*
X88376666Y-154946428D01*
X88329047Y-155136904D01*
X88281428Y-155232142D01*
X88233809Y-155279761D01*
X88138571Y-155327380D01*
X88043333Y-155327380D01*
X87948095Y-155279761D01*
X87900476Y-155232142D01*
X87852857Y-155136904D01*
X87805238Y-154946428D01*
X87805238Y-154708333D01*
X87852857Y-154517857D01*
X87900476Y-154422619D01*
X87948095Y-154375000D01*
X88043333Y-154327380D01*
X89329047Y-155327380D02*
X88757619Y-155327380D01*
X89043333Y-155327380D02*
X89043333Y-154327380D01*
X88948095Y-154470238D01*
X88852857Y-154565476D01*
X88757619Y-154613095D01*
X89900476Y-154755952D02*
X89805238Y-154708333D01*
X89757619Y-154660714D01*
X89710000Y-154565476D01*
X89710000Y-154517857D01*
X89757619Y-154422619D01*
X89805238Y-154375000D01*
X89900476Y-154327380D01*
X90090952Y-154327380D01*
X90186190Y-154375000D01*
X90233809Y-154422619D01*
X90281428Y-154517857D01*
X90281428Y-154565476D01*
X90233809Y-154660714D01*
X90186190Y-154708333D01*
X90090952Y-154755952D01*
X89900476Y-154755952D01*
X89805238Y-154803571D01*
X89757619Y-154851190D01*
X89710000Y-154946428D01*
X89710000Y-155136904D01*
X89757619Y-155232142D01*
X89805238Y-155279761D01*
X89900476Y-155327380D01*
X90090952Y-155327380D01*
X90186190Y-155279761D01*
X90233809Y-155232142D01*
X90281428Y-155136904D01*
X90281428Y-154946428D01*
X90233809Y-154851190D01*
X90186190Y-154803571D01*
X90090952Y-154755952D01*
X90710000Y-155232142D02*
X90757619Y-155279761D01*
X90710000Y-155327380D01*
X90662380Y-155279761D01*
X90710000Y-155232142D01*
X90710000Y-155327380D01*
X91710000Y-155327380D02*
X91138571Y-155327380D01*
X91424285Y-155327380D02*
X91424285Y-154327380D01*
X91329047Y-154470238D01*
X91233809Y-154565476D01*
X91138571Y-154613095D01*
X92090952Y-154422619D02*
X92138571Y-154375000D01*
X92233809Y-154327380D01*
X92471904Y-154327380D01*
X92567142Y-154375000D01*
X92614761Y-154422619D01*
X92662380Y-154517857D01*
X92662380Y-154613095D01*
X92614761Y-154755952D01*
X92043333Y-155327380D01*
X92662380Y-155327380D01*
X93090952Y-155232142D02*
X93138571Y-155279761D01*
X93090952Y-155327380D01*
X93043333Y-155279761D01*
X93090952Y-155232142D01*
X93090952Y-155327380D01*
X93757619Y-154327380D02*
X93852857Y-154327380D01*
X93948095Y-154375000D01*
X93995714Y-154422619D01*
X94043333Y-154517857D01*
X94090952Y-154708333D01*
X94090952Y-154946428D01*
X94043333Y-155136904D01*
X93995714Y-155232142D01*
X93948095Y-155279761D01*
X93852857Y-155327380D01*
X93757619Y-155327380D01*
X93662380Y-155279761D01*
X93614761Y-155232142D01*
X93567142Y-155136904D01*
X93519523Y-154946428D01*
X93519523Y-154708333D01*
X93567142Y-154517857D01*
X93614761Y-154422619D01*
X93662380Y-154375000D01*
X93757619Y-154327380D01*
X94662380Y-154755952D02*
X94567142Y-154708333D01*
X94519523Y-154660714D01*
X94471904Y-154565476D01*
X94471904Y-154517857D01*
X94519523Y-154422619D01*
X94567142Y-154375000D01*
X94662380Y-154327380D01*
X94852857Y-154327380D01*
X94948095Y-154375000D01*
X94995714Y-154422619D01*
X95043333Y-154517857D01*
X95043333Y-154565476D01*
X94995714Y-154660714D01*
X94948095Y-154708333D01*
X94852857Y-154755952D01*
X94662380Y-154755952D01*
X94567142Y-154803571D01*
X94519523Y-154851190D01*
X94471904Y-154946428D01*
X94471904Y-155136904D01*
X94519523Y-155232142D01*
X94567142Y-155279761D01*
X94662380Y-155327380D01*
X94852857Y-155327380D01*
X94948095Y-155279761D01*
X94995714Y-155232142D01*
X95043333Y-155136904D01*
X95043333Y-154946428D01*
X94995714Y-154851190D01*
X94948095Y-154803571D01*
X94852857Y-154755952D01*
X95471904Y-155232142D02*
X95519523Y-155279761D01*
X95471904Y-155327380D01*
X95424285Y-155279761D01*
X95471904Y-155232142D01*
X95471904Y-155327380D01*
X96138571Y-154327380D02*
X96233809Y-154327380D01*
X96329047Y-154375000D01*
X96376666Y-154422619D01*
X96424285Y-154517857D01*
X96471904Y-154708333D01*
X96471904Y-154946428D01*
X96424285Y-155136904D01*
X96376666Y-155232142D01*
X96329047Y-155279761D01*
X96233809Y-155327380D01*
X96138571Y-155327380D01*
X96043333Y-155279761D01*
X95995714Y-155232142D01*
X95948095Y-155136904D01*
X95900476Y-154946428D01*
X95900476Y-154708333D01*
X95948095Y-154517857D01*
X95995714Y-154422619D01*
X96043333Y-154375000D01*
X96138571Y-154327380D01*
X97090952Y-154327380D02*
X97186190Y-154327380D01*
X97281428Y-154375000D01*
X97329047Y-154422619D01*
X97376666Y-154517857D01*
X97424285Y-154708333D01*
X97424285Y-154946428D01*
X97376666Y-155136904D01*
X97329047Y-155232142D01*
X97281428Y-155279761D01*
X97186190Y-155327380D01*
X97090952Y-155327380D01*
X96995714Y-155279761D01*
X96948095Y-155232142D01*
X96900476Y-155136904D01*
X96852857Y-154946428D01*
X96852857Y-154708333D01*
X96900476Y-154517857D01*
X96948095Y-154422619D01*
X96995714Y-154375000D01*
X97090952Y-154327380D01*
X97757619Y-154327380D02*
X98376666Y-154327380D01*
X98043333Y-154708333D01*
X98186190Y-154708333D01*
X98281428Y-154755952D01*
X98329047Y-154803571D01*
X98376666Y-154898809D01*
X98376666Y-155136904D01*
X98329047Y-155232142D01*
X98281428Y-155279761D01*
X98186190Y-155327380D01*
X97900476Y-155327380D01*
X97805238Y-155279761D01*
X97757619Y-155232142D01*
X98995714Y-154327380D02*
X99090952Y-154327380D01*
X99186190Y-154375000D01*
X99233809Y-154422619D01*
X99281428Y-154517857D01*
X99329047Y-154708333D01*
X99329047Y-154946428D01*
X99281428Y-155136904D01*
X99233809Y-155232142D01*
X99186190Y-155279761D01*
X99090952Y-155327380D01*
X98995714Y-155327380D01*
X98900476Y-155279761D01*
X98852857Y-155232142D01*
X98805238Y-155136904D01*
X98757619Y-154946428D01*
X98757619Y-154708333D01*
X98805238Y-154517857D01*
X98852857Y-154422619D01*
X98900476Y-154375000D01*
X98995714Y-154327380D01*
D11*
G04 #@! TO.C,J2*
X53312000Y-139784000D02*
X53312000Y-132764000D01*
X53312000Y-132764000D02*
X54512000Y-132764000D01*
X54512000Y-132764000D02*
X54512000Y-131064000D01*
X54512000Y-131064000D02*
X76032000Y-131064000D01*
X76032000Y-131064000D02*
X76032000Y-132764000D01*
X76032000Y-132764000D02*
X77232000Y-132764000D01*
X77232000Y-132764000D02*
X77232000Y-139784000D01*
X77232000Y-139784000D02*
X53312000Y-139784000D01*
X53112000Y-134874000D02*
X52512000Y-135174000D01*
X52512000Y-135174000D02*
X52512000Y-134574000D01*
X52512000Y-134574000D02*
X53112000Y-134874000D01*
G04 #@! TO.C,U1*
X82323000Y-144880000D02*
X82323000Y-124360000D01*
X82323000Y-144880000D02*
X114273000Y-144880000D01*
X114273000Y-144880000D02*
X114273000Y-124360000D01*
X82323000Y-124360000D02*
X114273000Y-124360000D01*
X82023000Y-145190000D02*
X85023000Y-145190000D01*
X82023000Y-145190000D02*
X82023000Y-142190000D01*
G04 #@! TO.C,A1*
X95250000Y-95250000D02*
X95250000Y-97790000D01*
X95250000Y-97790000D02*
X97920000Y-97790000D01*
X97920000Y-95250000D02*
X97920000Y-57020000D01*
X97920000Y-100460000D02*
X97920000Y-97790000D01*
X82550000Y-97790000D02*
X79880000Y-97790000D01*
X82550000Y-97790000D02*
X82550000Y-59690000D01*
X82550000Y-59690000D02*
X79880000Y-59690000D01*
X95250000Y-95250000D02*
X97920000Y-95250000D01*
X95250000Y-95250000D02*
X95250000Y-59690000D01*
X95250000Y-59690000D02*
X97920000Y-59690000D01*
X97920000Y-57020000D02*
X79880000Y-57020000D01*
X79880000Y-57020000D02*
X79880000Y-100460000D01*
X79880000Y-100460000D02*
X97920000Y-100460000D01*
G04 #@! TO.C,C1*
X72792000Y-66678564D02*
X72792000Y-65474436D01*
X70972000Y-66678564D02*
X70972000Y-65474436D01*
G04 #@! TO.C,C2*
X58272000Y-66678564D02*
X58272000Y-65474436D01*
X60092000Y-66678564D02*
X60092000Y-65474436D01*
G04 #@! TO.C,J1*
X58600000Y-152611000D02*
X58600000Y-145591000D01*
X58600000Y-145591000D02*
X59800000Y-145591000D01*
X59800000Y-145591000D02*
X59800000Y-143891000D01*
X59800000Y-143891000D02*
X73400000Y-143891000D01*
X73400000Y-143891000D02*
X73400000Y-145591000D01*
X73400000Y-145591000D02*
X74600000Y-145591000D01*
X74600000Y-145591000D02*
X74600000Y-152611000D01*
X74600000Y-152611000D02*
X58600000Y-152611000D01*
X58400000Y-147701000D02*
X57800000Y-148001000D01*
X57800000Y-148001000D02*
X57800000Y-147401000D01*
X57800000Y-147401000D02*
X58400000Y-147701000D01*
G04 #@! TO.C,M1*
X114130000Y-98580000D02*
X107110000Y-98580000D01*
X107110000Y-98580000D02*
X107110000Y-97380000D01*
X107110000Y-97380000D02*
X105410000Y-97380000D01*
X105410000Y-97380000D02*
X105410000Y-91700000D01*
X105410000Y-91700000D02*
X107110000Y-91700000D01*
X107110000Y-91700000D02*
X107110000Y-90500000D01*
X107110000Y-90500000D02*
X114130000Y-90500000D01*
X114130000Y-90500000D02*
X114130000Y-98580000D01*
X109220000Y-98780000D02*
X109520000Y-99380000D01*
X109520000Y-99380000D02*
X108920000Y-99380000D01*
X108920000Y-99380000D02*
X109220000Y-98780000D01*
G04 #@! TO.C,R1*
X67416000Y-72266564D02*
X67416000Y-71062436D01*
X69236000Y-72266564D02*
X69236000Y-71062436D01*
G04 #@! TO.C,R2*
X64156000Y-72266564D02*
X64156000Y-71062436D01*
X62336000Y-72266564D02*
X62336000Y-71062436D01*
G04 #@! TO.C,R4*
X54716000Y-72266564D02*
X54716000Y-71062436D01*
X56536000Y-72266564D02*
X56536000Y-71062436D01*
G04 #@! TO.C,R6*
X51287936Y-89086000D02*
X55392064Y-89086000D01*
X51287936Y-85666000D02*
X55392064Y-85666000D01*
G04 #@! TO.C,SW1*
X67262000Y-123654000D02*
X67262000Y-122154000D01*
X65762000Y-123654000D02*
X67262000Y-123654000D01*
X57912000Y-117094000D02*
X56642000Y-117094000D01*
X56642000Y-117094000D02*
X56642000Y-118364000D01*
X64262000Y-118364000D02*
X64262000Y-117094000D01*
X64262000Y-117094000D02*
X62992000Y-117094000D01*
X62992000Y-117094000D02*
X62992000Y-115824000D01*
X62992000Y-115824000D02*
X57912000Y-115824000D01*
X57912000Y-115824000D02*
X57912000Y-118364000D01*
X57912000Y-118364000D02*
X62992000Y-118364000D01*
X62992000Y-118364000D02*
X62992000Y-117094000D01*
X53962000Y-123454000D02*
X67062000Y-123454000D01*
X53962000Y-94054000D02*
X53962000Y-123454000D01*
X67062000Y-94054000D02*
X53962000Y-94054000D01*
X67062000Y-123454000D02*
X67062000Y-94054000D01*
D12*
X61722000Y-118364000D02*
X60452000Y-115824000D01*
D11*
G04 #@! TO.C,SW2*
X114510000Y-103680000D02*
X113010000Y-103680000D01*
X114510000Y-105180000D02*
X114510000Y-103680000D01*
X107950000Y-113030000D02*
X107950000Y-114300000D01*
X107950000Y-114300000D02*
X109220000Y-114300000D01*
X109220000Y-106680000D02*
X107950000Y-106680000D01*
X107950000Y-106680000D02*
X107950000Y-107950000D01*
X107950000Y-107950000D02*
X106680000Y-107950000D01*
X106680000Y-107950000D02*
X106680000Y-113030000D01*
X106680000Y-113030000D02*
X109220000Y-113030000D01*
X109220000Y-113030000D02*
X109220000Y-107950000D01*
X109220000Y-107950000D02*
X107950000Y-107950000D01*
X114310000Y-116980000D02*
X114310000Y-103880000D01*
X84910000Y-116980000D02*
X114310000Y-116980000D01*
X84910000Y-103880000D02*
X84910000Y-116980000D01*
X114310000Y-103880000D02*
X84910000Y-103880000D01*
D12*
X109220000Y-109220000D02*
X106680000Y-110490000D01*
D11*
G04 #@! TO.C,TP1*
X102550000Y-120650000D02*
G75*
G03X102550000Y-120650000I-950000J0D01*
G01*
G04 #@! TO.C,TP2*
X59370000Y-127635000D02*
G75*
G03X59370000Y-127635000I-950000J0D01*
G01*
G04 #@! TO.C,TP3*
X65085000Y-127635000D02*
G75*
G03X65085000Y-127635000I-950000J0D01*
G01*
G04 #@! TO.C,TP4*
X81976000Y-111760000D02*
G75*
G03X81976000Y-111760000I-950000J0D01*
G01*
G04 #@! TO.C,TP5*
X81976000Y-106680000D02*
G75*
G03X81976000Y-106680000I-950000J0D01*
G01*
G04 #@! TO.C,TP6*
X77150000Y-63500000D02*
G75*
G03X77150000Y-63500000I-950000J0D01*
G01*
G04 #@! TO.C,TP7*
X77150000Y-96520000D02*
G75*
G03X77150000Y-96520000I-950000J0D01*
G01*
G04 #@! TO.C,U2*
X67650000Y-80148000D02*
X67650000Y-78348000D01*
X64430000Y-78348000D02*
X64430000Y-81298000D01*
G04 #@! TO.C,U3*
X51730000Y-78348000D02*
X51730000Y-81298000D01*
X54950000Y-80148000D02*
X54950000Y-78348000D01*
G04 #@! TO.C,R3*
X63927436Y-85666000D02*
X68031564Y-85666000D01*
X63927436Y-89086000D02*
X68031564Y-89086000D01*
G04 #@! TO.C,R5*
X49636000Y-72266564D02*
X49636000Y-71062436D01*
X51456000Y-72266564D02*
X51456000Y-71062436D01*
G04 #@! TO.C,U4*
X113090000Y-87690000D02*
X110490000Y-87690000D01*
X113090000Y-87690000D02*
X113090000Y-67250000D01*
X113090000Y-67250000D02*
X107890000Y-67250000D01*
X107890000Y-85090000D02*
X107890000Y-67250000D01*
X110490000Y-85090000D02*
X107890000Y-85090000D01*
X110490000Y-87690000D02*
X110490000Y-85090000D01*
X107890000Y-87690000D02*
X107890000Y-86360000D01*
X109220000Y-87690000D02*
X107890000Y-87690000D01*
G04 #@! TO.C,TP8*
X110805000Y-120650000D02*
G75*
G03X110805000Y-120650000I-950000J0D01*
G01*
G04 #@! TO.C,J3*
X74870000Y-74295000D02*
X77530000Y-74295000D01*
X74870000Y-74295000D02*
X74870000Y-76895000D01*
X74870000Y-76895000D02*
X77530000Y-76895000D01*
X77530000Y-74295000D02*
X77530000Y-76895000D01*
X77530000Y-71695000D02*
X77530000Y-73025000D01*
X76200000Y-71695000D02*
X77530000Y-71695000D01*
G04 #@! TO.C,J4*
X91380000Y-121285000D02*
X91380000Y-119955000D01*
X91380000Y-119955000D02*
X92710000Y-119955000D01*
X93980000Y-119955000D02*
X96580000Y-119955000D01*
X96580000Y-122615000D02*
X96580000Y-119955000D01*
X93980000Y-122615000D02*
X96580000Y-122615000D01*
X93980000Y-122615000D02*
X93980000Y-119955000D01*
G04 #@! TO.C,J5*
X74870000Y-88900000D02*
X77530000Y-88900000D01*
X74870000Y-88900000D02*
X74870000Y-91500000D01*
X74870000Y-91500000D02*
X77530000Y-91500000D01*
X77530000Y-88900000D02*
X77530000Y-91500000D01*
X77530000Y-86300000D02*
X77530000Y-87630000D01*
X76200000Y-86300000D02*
X77530000Y-86300000D01*
G04 #@! TO.C,J6*
X101600000Y-86300000D02*
X102930000Y-86300000D01*
X102930000Y-86300000D02*
X102930000Y-87630000D01*
X102930000Y-88900000D02*
X102930000Y-91500000D01*
X100270000Y-91500000D02*
X102930000Y-91500000D01*
X100270000Y-88900000D02*
X100270000Y-91500000D01*
X100270000Y-88900000D02*
X102930000Y-88900000D01*
G04 #@! TO.C,S1*
X64875000Y-60905000D02*
X68475000Y-60905000D01*
X64836522Y-60893478D02*
G75*
G02X66675000Y-56455000I1838478J1838478D01*
G01*
X68513478Y-60893478D02*
G75*
G03X66675000Y-56455000I-1838478J1838478D01*
G01*
G04 #@! TO.C,J2*
D10*
X51736666Y-132548380D02*
X51736666Y-133262666D01*
X51689047Y-133405523D01*
X51593809Y-133500761D01*
X51450952Y-133548380D01*
X51355714Y-133548380D01*
X52165238Y-132643619D02*
X52212857Y-132596000D01*
X52308095Y-132548380D01*
X52546190Y-132548380D01*
X52641428Y-132596000D01*
X52689047Y-132643619D01*
X52736666Y-132738857D01*
X52736666Y-132834095D01*
X52689047Y-132976952D01*
X52117619Y-133548380D01*
X52736666Y-133548380D01*
G04 #@! TO.C,U1*
X94488095Y-145502380D02*
X94488095Y-146311904D01*
X94535714Y-146407142D01*
X94583333Y-146454761D01*
X94678571Y-146502380D01*
X94869047Y-146502380D01*
X94964285Y-146454761D01*
X95011904Y-146407142D01*
X95059523Y-146311904D01*
X95059523Y-145502380D01*
X96059523Y-146502380D02*
X95488095Y-146502380D01*
X95773809Y-146502380D02*
X95773809Y-145502380D01*
X95678571Y-145645238D01*
X95583333Y-145740476D01*
X95488095Y-145788095D01*
G04 #@! TO.C,A1*
X88185714Y-101766666D02*
X88661904Y-101766666D01*
X88090476Y-102052380D02*
X88423809Y-101052380D01*
X88757142Y-102052380D01*
X89614285Y-102052380D02*
X89042857Y-102052380D01*
X89328571Y-102052380D02*
X89328571Y-101052380D01*
X89233333Y-101195238D01*
X89138095Y-101290476D01*
X89042857Y-101338095D01*
G04 #@! TO.C,C1*
X71715333Y-63349142D02*
X71667714Y-63396761D01*
X71524857Y-63444380D01*
X71429619Y-63444380D01*
X71286761Y-63396761D01*
X71191523Y-63301523D01*
X71143904Y-63206285D01*
X71096285Y-63015809D01*
X71096285Y-62872952D01*
X71143904Y-62682476D01*
X71191523Y-62587238D01*
X71286761Y-62492000D01*
X71429619Y-62444380D01*
X71524857Y-62444380D01*
X71667714Y-62492000D01*
X71715333Y-62539619D01*
X72667714Y-63444380D02*
X72096285Y-63444380D01*
X72382000Y-63444380D02*
X72382000Y-62444380D01*
X72286761Y-62587238D01*
X72191523Y-62682476D01*
X72096285Y-62730095D01*
G04 #@! TO.C,C2*
X59015333Y-63349142D02*
X58967714Y-63396761D01*
X58824857Y-63444380D01*
X58729619Y-63444380D01*
X58586761Y-63396761D01*
X58491523Y-63301523D01*
X58443904Y-63206285D01*
X58396285Y-63015809D01*
X58396285Y-62872952D01*
X58443904Y-62682476D01*
X58491523Y-62587238D01*
X58586761Y-62492000D01*
X58729619Y-62444380D01*
X58824857Y-62444380D01*
X58967714Y-62492000D01*
X59015333Y-62539619D01*
X59396285Y-62539619D02*
X59443904Y-62492000D01*
X59539142Y-62444380D01*
X59777238Y-62444380D01*
X59872476Y-62492000D01*
X59920095Y-62539619D01*
X59967714Y-62634857D01*
X59967714Y-62730095D01*
X59920095Y-62872952D01*
X59348666Y-63444380D01*
X59967714Y-63444380D01*
G04 #@! TO.C,J1*
X56816666Y-145248380D02*
X56816666Y-145962666D01*
X56769047Y-146105523D01*
X56673809Y-146200761D01*
X56530952Y-146248380D01*
X56435714Y-146248380D01*
X57816666Y-146248380D02*
X57245238Y-146248380D01*
X57530952Y-146248380D02*
X57530952Y-145248380D01*
X57435714Y-145391238D01*
X57340476Y-145486476D01*
X57245238Y-145534095D01*
G04 #@! TO.C,M1*
X103330476Y-96972380D02*
X103330476Y-95972380D01*
X103663809Y-96686666D01*
X103997142Y-95972380D01*
X103997142Y-96972380D01*
X104997142Y-96972380D02*
X104425714Y-96972380D01*
X104711428Y-96972380D02*
X104711428Y-95972380D01*
X104616190Y-96115238D01*
X104520952Y-96210476D01*
X104425714Y-96258095D01*
G04 #@! TO.C,R1*
X68159333Y-69032380D02*
X67826000Y-68556190D01*
X67587904Y-69032380D02*
X67587904Y-68032380D01*
X67968857Y-68032380D01*
X68064095Y-68080000D01*
X68111714Y-68127619D01*
X68159333Y-68222857D01*
X68159333Y-68365714D01*
X68111714Y-68460952D01*
X68064095Y-68508571D01*
X67968857Y-68556190D01*
X67587904Y-68556190D01*
X69111714Y-69032380D02*
X68540285Y-69032380D01*
X68826000Y-69032380D02*
X68826000Y-68032380D01*
X68730761Y-68175238D01*
X68635523Y-68270476D01*
X68540285Y-68318095D01*
G04 #@! TO.C,R2*
X63079333Y-69032380D02*
X62746000Y-68556190D01*
X62507904Y-69032380D02*
X62507904Y-68032380D01*
X62888857Y-68032380D01*
X62984095Y-68080000D01*
X63031714Y-68127619D01*
X63079333Y-68222857D01*
X63079333Y-68365714D01*
X63031714Y-68460952D01*
X62984095Y-68508571D01*
X62888857Y-68556190D01*
X62507904Y-68556190D01*
X63460285Y-68127619D02*
X63507904Y-68080000D01*
X63603142Y-68032380D01*
X63841238Y-68032380D01*
X63936476Y-68080000D01*
X63984095Y-68127619D01*
X64031714Y-68222857D01*
X64031714Y-68318095D01*
X63984095Y-68460952D01*
X63412666Y-69032380D01*
X64031714Y-69032380D01*
G04 #@! TO.C,R4*
X55459333Y-69032380D02*
X55126000Y-68556190D01*
X54887904Y-69032380D02*
X54887904Y-68032380D01*
X55268857Y-68032380D01*
X55364095Y-68080000D01*
X55411714Y-68127619D01*
X55459333Y-68222857D01*
X55459333Y-68365714D01*
X55411714Y-68460952D01*
X55364095Y-68508571D01*
X55268857Y-68556190D01*
X54887904Y-68556190D01*
X56316476Y-68365714D02*
X56316476Y-69032380D01*
X56078380Y-67984761D02*
X55840285Y-68699047D01*
X56459333Y-68699047D01*
G04 #@! TO.C,R6*
X53173333Y-85208380D02*
X52840000Y-84732190D01*
X52601904Y-85208380D02*
X52601904Y-84208380D01*
X52982857Y-84208380D01*
X53078095Y-84256000D01*
X53125714Y-84303619D01*
X53173333Y-84398857D01*
X53173333Y-84541714D01*
X53125714Y-84636952D01*
X53078095Y-84684571D01*
X52982857Y-84732190D01*
X52601904Y-84732190D01*
X54030476Y-84208380D02*
X53840000Y-84208380D01*
X53744761Y-84256000D01*
X53697142Y-84303619D01*
X53601904Y-84446476D01*
X53554285Y-84636952D01*
X53554285Y-85017904D01*
X53601904Y-85113142D01*
X53649523Y-85160761D01*
X53744761Y-85208380D01*
X53935238Y-85208380D01*
X54030476Y-85160761D01*
X54078095Y-85113142D01*
X54125714Y-85017904D01*
X54125714Y-84779809D01*
X54078095Y-84684571D01*
X54030476Y-84636952D01*
X53935238Y-84589333D01*
X53744761Y-84589333D01*
X53649523Y-84636952D01*
X53601904Y-84684571D01*
X53554285Y-84779809D01*
G04 #@! TO.C,SW1*
X59626666Y-93368761D02*
X59769523Y-93416380D01*
X60007619Y-93416380D01*
X60102857Y-93368761D01*
X60150476Y-93321142D01*
X60198095Y-93225904D01*
X60198095Y-93130666D01*
X60150476Y-93035428D01*
X60102857Y-92987809D01*
X60007619Y-92940190D01*
X59817142Y-92892571D01*
X59721904Y-92844952D01*
X59674285Y-92797333D01*
X59626666Y-92702095D01*
X59626666Y-92606857D01*
X59674285Y-92511619D01*
X59721904Y-92464000D01*
X59817142Y-92416380D01*
X60055238Y-92416380D01*
X60198095Y-92464000D01*
X60531428Y-92416380D02*
X60769523Y-93416380D01*
X60960000Y-92702095D01*
X61150476Y-93416380D01*
X61388571Y-92416380D01*
X62293333Y-93416380D02*
X61721904Y-93416380D01*
X62007619Y-93416380D02*
X62007619Y-92416380D01*
X61912380Y-92559238D01*
X61817142Y-92654476D01*
X61721904Y-92702095D01*
G04 #@! TO.C,SW2*
X93916666Y-103274761D02*
X94059523Y-103322380D01*
X94297619Y-103322380D01*
X94392857Y-103274761D01*
X94440476Y-103227142D01*
X94488095Y-103131904D01*
X94488095Y-103036666D01*
X94440476Y-102941428D01*
X94392857Y-102893809D01*
X94297619Y-102846190D01*
X94107142Y-102798571D01*
X94011904Y-102750952D01*
X93964285Y-102703333D01*
X93916666Y-102608095D01*
X93916666Y-102512857D01*
X93964285Y-102417619D01*
X94011904Y-102370000D01*
X94107142Y-102322380D01*
X94345238Y-102322380D01*
X94488095Y-102370000D01*
X94821428Y-102322380D02*
X95059523Y-103322380D01*
X95250000Y-102608095D01*
X95440476Y-103322380D01*
X95678571Y-102322380D01*
X96011904Y-102417619D02*
X96059523Y-102370000D01*
X96154761Y-102322380D01*
X96392857Y-102322380D01*
X96488095Y-102370000D01*
X96535714Y-102417619D01*
X96583333Y-102512857D01*
X96583333Y-102608095D01*
X96535714Y-102750952D01*
X95964285Y-103322380D01*
X96583333Y-103322380D01*
G04 #@! TO.C,TP4*
X79764095Y-113498380D02*
X80335523Y-113498380D01*
X80049809Y-114498380D02*
X80049809Y-113498380D01*
X80668857Y-114498380D02*
X80668857Y-113498380D01*
X81049809Y-113498380D01*
X81145047Y-113546000D01*
X81192666Y-113593619D01*
X81240285Y-113688857D01*
X81240285Y-113831714D01*
X81192666Y-113926952D01*
X81145047Y-113974571D01*
X81049809Y-114022190D01*
X80668857Y-114022190D01*
X82097428Y-113831714D02*
X82097428Y-114498380D01*
X81859333Y-113450761D02*
X81621238Y-114165047D01*
X82240285Y-114165047D01*
G04 #@! TO.C,TP5*
X79764095Y-104100380D02*
X80335523Y-104100380D01*
X80049809Y-105100380D02*
X80049809Y-104100380D01*
X80668857Y-105100380D02*
X80668857Y-104100380D01*
X81049809Y-104100380D01*
X81145047Y-104148000D01*
X81192666Y-104195619D01*
X81240285Y-104290857D01*
X81240285Y-104433714D01*
X81192666Y-104528952D01*
X81145047Y-104576571D01*
X81049809Y-104624190D01*
X80668857Y-104624190D01*
X82145047Y-104100380D02*
X81668857Y-104100380D01*
X81621238Y-104576571D01*
X81668857Y-104528952D01*
X81764095Y-104481333D01*
X82002190Y-104481333D01*
X82097428Y-104528952D01*
X82145047Y-104576571D01*
X82192666Y-104671809D01*
X82192666Y-104909904D01*
X82145047Y-105005142D01*
X82097428Y-105052761D01*
X82002190Y-105100380D01*
X81764095Y-105100380D01*
X81668857Y-105052761D01*
X81621238Y-105005142D01*
G04 #@! TO.C,U2*
X65278095Y-75652380D02*
X65278095Y-76461904D01*
X65325714Y-76557142D01*
X65373333Y-76604761D01*
X65468571Y-76652380D01*
X65659047Y-76652380D01*
X65754285Y-76604761D01*
X65801904Y-76557142D01*
X65849523Y-76461904D01*
X65849523Y-75652380D01*
X66278095Y-75747619D02*
X66325714Y-75700000D01*
X66420952Y-75652380D01*
X66659047Y-75652380D01*
X66754285Y-75700000D01*
X66801904Y-75747619D01*
X66849523Y-75842857D01*
X66849523Y-75938095D01*
X66801904Y-76080952D01*
X66230476Y-76652380D01*
X66849523Y-76652380D01*
G04 #@! TO.C,U3*
X52578095Y-75652380D02*
X52578095Y-76461904D01*
X52625714Y-76557142D01*
X52673333Y-76604761D01*
X52768571Y-76652380D01*
X52959047Y-76652380D01*
X53054285Y-76604761D01*
X53101904Y-76557142D01*
X53149523Y-76461904D01*
X53149523Y-75652380D01*
X53530476Y-75652380D02*
X54149523Y-75652380D01*
X53816190Y-76033333D01*
X53959047Y-76033333D01*
X54054285Y-76080952D01*
X54101904Y-76128571D01*
X54149523Y-76223809D01*
X54149523Y-76461904D01*
X54101904Y-76557142D01*
X54054285Y-76604761D01*
X53959047Y-76652380D01*
X53673333Y-76652380D01*
X53578095Y-76604761D01*
X53530476Y-76557142D01*
G04 #@! TO.C,R3*
X65812833Y-85208380D02*
X65479500Y-84732190D01*
X65241404Y-85208380D02*
X65241404Y-84208380D01*
X65622357Y-84208380D01*
X65717595Y-84256000D01*
X65765214Y-84303619D01*
X65812833Y-84398857D01*
X65812833Y-84541714D01*
X65765214Y-84636952D01*
X65717595Y-84684571D01*
X65622357Y-84732190D01*
X65241404Y-84732190D01*
X66146166Y-84208380D02*
X66765214Y-84208380D01*
X66431880Y-84589333D01*
X66574738Y-84589333D01*
X66669976Y-84636952D01*
X66717595Y-84684571D01*
X66765214Y-84779809D01*
X66765214Y-85017904D01*
X66717595Y-85113142D01*
X66669976Y-85160761D01*
X66574738Y-85208380D01*
X66289023Y-85208380D01*
X66193785Y-85160761D01*
X66146166Y-85113142D01*
G04 #@! TO.C,R5*
X50379333Y-69032380D02*
X50046000Y-68556190D01*
X49807904Y-69032380D02*
X49807904Y-68032380D01*
X50188857Y-68032380D01*
X50284095Y-68080000D01*
X50331714Y-68127619D01*
X50379333Y-68222857D01*
X50379333Y-68365714D01*
X50331714Y-68460952D01*
X50284095Y-68508571D01*
X50188857Y-68556190D01*
X49807904Y-68556190D01*
X51284095Y-68032380D02*
X50807904Y-68032380D01*
X50760285Y-68508571D01*
X50807904Y-68460952D01*
X50903142Y-68413333D01*
X51141238Y-68413333D01*
X51236476Y-68460952D01*
X51284095Y-68508571D01*
X51331714Y-68603809D01*
X51331714Y-68841904D01*
X51284095Y-68937142D01*
X51236476Y-68984761D01*
X51141238Y-69032380D01*
X50903142Y-69032380D01*
X50807904Y-68984761D01*
X50760285Y-68937142D01*
G04 #@! TO.C,U4*
X105410095Y-85812380D02*
X105410095Y-86621904D01*
X105457714Y-86717142D01*
X105505333Y-86764761D01*
X105600571Y-86812380D01*
X105791047Y-86812380D01*
X105886285Y-86764761D01*
X105933904Y-86717142D01*
X105981523Y-86621904D01*
X105981523Y-85812380D01*
X106886285Y-86145714D02*
X106886285Y-86812380D01*
X106648190Y-85764761D02*
X106410095Y-86479047D01*
X107029142Y-86479047D01*
G04 #@! TO.C,J3*
X75866666Y-69707380D02*
X75866666Y-70421666D01*
X75819047Y-70564523D01*
X75723809Y-70659761D01*
X75580952Y-70707380D01*
X75485714Y-70707380D01*
X76247619Y-69707380D02*
X76866666Y-69707380D01*
X76533333Y-70088333D01*
X76676190Y-70088333D01*
X76771428Y-70135952D01*
X76819047Y-70183571D01*
X76866666Y-70278809D01*
X76866666Y-70516904D01*
X76819047Y-70612142D01*
X76771428Y-70659761D01*
X76676190Y-70707380D01*
X76390476Y-70707380D01*
X76295238Y-70659761D01*
X76247619Y-70612142D01*
G04 #@! TO.C,J4*
X89606666Y-120737380D02*
X89606666Y-121451666D01*
X89559047Y-121594523D01*
X89463809Y-121689761D01*
X89320952Y-121737380D01*
X89225714Y-121737380D01*
X90511428Y-121070714D02*
X90511428Y-121737380D01*
X90273333Y-120689761D02*
X90035238Y-121404047D01*
X90654285Y-121404047D01*
G04 #@! TO.C,J5*
X75866666Y-84312380D02*
X75866666Y-85026666D01*
X75819047Y-85169523D01*
X75723809Y-85264761D01*
X75580952Y-85312380D01*
X75485714Y-85312380D01*
X76819047Y-84312380D02*
X76342857Y-84312380D01*
X76295238Y-84788571D01*
X76342857Y-84740952D01*
X76438095Y-84693333D01*
X76676190Y-84693333D01*
X76771428Y-84740952D01*
X76819047Y-84788571D01*
X76866666Y-84883809D01*
X76866666Y-85121904D01*
X76819047Y-85217142D01*
X76771428Y-85264761D01*
X76676190Y-85312380D01*
X76438095Y-85312380D01*
X76342857Y-85264761D01*
X76295238Y-85217142D01*
G04 #@! TO.C,J6*
X101266666Y-84312380D02*
X101266666Y-85026666D01*
X101219047Y-85169523D01*
X101123809Y-85264761D01*
X100980952Y-85312380D01*
X100885714Y-85312380D01*
X102171428Y-84312380D02*
X101980952Y-84312380D01*
X101885714Y-84360000D01*
X101838095Y-84407619D01*
X101742857Y-84550476D01*
X101695238Y-84740952D01*
X101695238Y-85121904D01*
X101742857Y-85217142D01*
X101790476Y-85264761D01*
X101885714Y-85312380D01*
X102076190Y-85312380D01*
X102171428Y-85264761D01*
X102219047Y-85217142D01*
X102266666Y-85121904D01*
X102266666Y-84883809D01*
X102219047Y-84788571D01*
X102171428Y-84740952D01*
X102076190Y-84693333D01*
X101885714Y-84693333D01*
X101790476Y-84740952D01*
X101742857Y-84788571D01*
X101695238Y-84883809D01*
G04 #@! TO.C,S1*
X65913095Y-62634761D02*
X66055952Y-62682380D01*
X66294047Y-62682380D01*
X66389285Y-62634761D01*
X66436904Y-62587142D01*
X66484523Y-62491904D01*
X66484523Y-62396666D01*
X66436904Y-62301428D01*
X66389285Y-62253809D01*
X66294047Y-62206190D01*
X66103571Y-62158571D01*
X66008333Y-62110952D01*
X65960714Y-62063333D01*
X65913095Y-61968095D01*
X65913095Y-61872857D01*
X65960714Y-61777619D01*
X66008333Y-61730000D01*
X66103571Y-61682380D01*
X66341666Y-61682380D01*
X66484523Y-61730000D01*
X67436904Y-62682380D02*
X66865476Y-62682380D01*
X67151190Y-62682380D02*
X67151190Y-61682380D01*
X67055952Y-61825238D01*
X66960714Y-61920476D01*
X66865476Y-61968095D01*
G04 #@! TD*
M02*
