G04 #@! TF.GenerationSoftware,KiCad,Pcbnew,(5.0.2)-1*
G04 #@! TF.CreationDate,2019-03-19T15:18:45-05:00*
G04 #@! TF.ProjectId,10MHz-Rb-Ref,31304d48-7a2d-4526-922d-5265662e6b69,rev?*
G04 #@! TF.SameCoordinates,Original*
G04 #@! TF.FileFunction,Copper,L1,Top*
G04 #@! TF.FilePolarity,Positive*
%FSLAX46Y46*%
G04 Gerber Fmt 4.6, Leading zero omitted, Abs format (unit mm)*
G04 Created by KiCad (PCBNEW (5.0.2)-1) date 3/19/2019 3:18:45 PM*
%MOMM*%
%LPD*%
G01*
G04 APERTURE LIST*
G04 #@! TA.AperFunction,Conductor*
%ADD10C,0.100000*%
G04 #@! TD*
G04 #@! TA.AperFunction,ComponentPad*
%ADD11C,2.700000*%
G04 #@! TD*
G04 #@! TA.AperFunction,ComponentPad*
%ADD12O,1.500000X2.500000*%
G04 #@! TD*
G04 #@! TA.AperFunction,ComponentPad*
%ADD13R,1.600000X1.600000*%
G04 #@! TD*
G04 #@! TA.AperFunction,ComponentPad*
%ADD14O,1.600000X1.600000*%
G04 #@! TD*
G04 #@! TA.AperFunction,SMDPad,CuDef*
%ADD15C,1.425000*%
G04 #@! TD*
G04 #@! TA.AperFunction,SMDPad,CuDef*
%ADD16C,1.525000*%
G04 #@! TD*
G04 #@! TA.AperFunction,ComponentPad*
%ADD17R,2.000000X3.000000*%
G04 #@! TD*
G04 #@! TA.AperFunction,ComponentPad*
%ADD18O,2.000000X3.000000*%
G04 #@! TD*
G04 #@! TA.AperFunction,ComponentPad*
%ADD19O,3.000000X2.000000*%
G04 #@! TD*
G04 #@! TA.AperFunction,ComponentPad*
%ADD20R,3.000000X2.000000*%
G04 #@! TD*
G04 #@! TA.AperFunction,BGAPad,CuDef*
%ADD21C,1.500000*%
G04 #@! TD*
G04 #@! TA.AperFunction,SMDPad,CuDef*
%ADD22R,0.400000X1.560000*%
G04 #@! TD*
G04 #@! TA.AperFunction,ComponentPad*
%ADD23C,8.600000*%
G04 #@! TD*
G04 #@! TA.AperFunction,ComponentPad*
%ADD24R,1.700000X1.700000*%
G04 #@! TD*
G04 #@! TA.AperFunction,ComponentPad*
%ADD25O,1.700000X1.700000*%
G04 #@! TD*
G04 #@! TA.AperFunction,ComponentPad*
%ADD26O,1.050000X1.500000*%
G04 #@! TD*
G04 #@! TA.AperFunction,ComponentPad*
%ADD27R,1.050000X1.500000*%
G04 #@! TD*
G04 #@! TA.AperFunction,ViaPad*
%ADD28C,0.800000*%
G04 #@! TD*
G04 #@! TA.AperFunction,Conductor*
%ADD29C,0.250000*%
G04 #@! TD*
G04 #@! TA.AperFunction,Conductor*
%ADD30C,1.000000*%
G04 #@! TD*
G04 #@! TA.AperFunction,Conductor*
%ADD31C,0.350000*%
G04 #@! TD*
G04 #@! TA.AperFunction,Conductor*
%ADD32C,0.254000*%
G04 #@! TD*
G04 APERTURE END LIST*
D10*
G04 #@! TO.N,/GND_24V*
G04 #@! TO.C,J2*
G36*
X56496503Y-133525204D02*
X56520772Y-133528804D01*
X56544570Y-133534765D01*
X56567670Y-133543030D01*
X56589849Y-133553520D01*
X56610892Y-133566133D01*
X56630598Y-133580748D01*
X56648776Y-133597224D01*
X56665252Y-133615402D01*
X56679867Y-133635108D01*
X56692480Y-133656151D01*
X56702970Y-133678330D01*
X56711235Y-133701430D01*
X56717196Y-133725228D01*
X56720796Y-133749497D01*
X56722000Y-133774001D01*
X56722000Y-135973999D01*
X56720796Y-135998503D01*
X56717196Y-136022772D01*
X56711235Y-136046570D01*
X56702970Y-136069670D01*
X56692480Y-136091849D01*
X56679867Y-136112892D01*
X56665252Y-136132598D01*
X56648776Y-136150776D01*
X56630598Y-136167252D01*
X56610892Y-136181867D01*
X56589849Y-136194480D01*
X56567670Y-136204970D01*
X56544570Y-136213235D01*
X56520772Y-136219196D01*
X56496503Y-136222796D01*
X56471999Y-136224000D01*
X54272001Y-136224000D01*
X54247497Y-136222796D01*
X54223228Y-136219196D01*
X54199430Y-136213235D01*
X54176330Y-136204970D01*
X54154151Y-136194480D01*
X54133108Y-136181867D01*
X54113402Y-136167252D01*
X54095224Y-136150776D01*
X54078748Y-136132598D01*
X54064133Y-136112892D01*
X54051520Y-136091849D01*
X54041030Y-136069670D01*
X54032765Y-136046570D01*
X54026804Y-136022772D01*
X54023204Y-135998503D01*
X54022000Y-135973999D01*
X54022000Y-133774001D01*
X54023204Y-133749497D01*
X54026804Y-133725228D01*
X54032765Y-133701430D01*
X54041030Y-133678330D01*
X54051520Y-133656151D01*
X54064133Y-133635108D01*
X54078748Y-133615402D01*
X54095224Y-133597224D01*
X54113402Y-133580748D01*
X54133108Y-133566133D01*
X54154151Y-133553520D01*
X54176330Y-133543030D01*
X54199430Y-133534765D01*
X54223228Y-133528804D01*
X54247497Y-133525204D01*
X54272001Y-133524000D01*
X56471999Y-133524000D01*
X56496503Y-133525204D01*
X56496503Y-133525204D01*
G37*
D11*
G04 #@! TD*
G04 #@! TO.P,J2,1*
G04 #@! TO.N,/GND_24V*
X55372000Y-134874000D03*
G04 #@! TO.P,J2,2*
G04 #@! TO.N,/EFR_XTAL*
X59332000Y-134874000D03*
G04 #@! TO.P,J2,3*
G04 #@! TO.N,/EFR_LAMP*
X63292000Y-134874000D03*
G04 #@! TO.P,J2,4*
G04 #@! TO.N,/EFR_FREQ*
X67252000Y-134874000D03*
G04 #@! TO.P,J2,5*
G04 #@! TO.N,/EFT_24V_SYS*
X71212000Y-134874000D03*
G04 #@! TO.P,J2,6*
G04 #@! TO.N,/EFT_24V_HEAT*
X75172000Y-134874000D03*
G04 #@! TD*
D12*
G04 #@! TO.P,U1,2*
G04 #@! TO.N,Net-(J1-Pad2)*
X86868000Y-142240000D03*
G04 #@! TO.P,U1,9*
G04 #@! TO.N,GND*
X104648000Y-142240000D03*
G04 #@! TO.P,U1,11*
G04 #@! TO.N,Net-(TP1-Pad1)*
X109728000Y-142240000D03*
G04 #@! TO.P,U1,14*
G04 #@! TO.N,+5V*
X109728000Y-127000000D03*
G04 #@! TO.P,U1,16*
G04 #@! TO.N,GND*
X104648000Y-127000000D03*
G04 #@! TO.P,U1,23*
G04 #@! TO.N,Net-(J1-Pad3)*
X86868000Y-127000000D03*
G04 #@! TO.P,U1,3*
G04 #@! TO.N,Net-(J1-Pad2)*
X89408000Y-142240000D03*
G04 #@! TO.P,U1,22*
G04 #@! TO.N,Net-(J1-Pad3)*
X89408000Y-127000000D03*
G04 #@! TD*
D13*
G04 #@! TO.P,A1,1*
G04 #@! TO.N,N/C*
X96520000Y-96520000D03*
D14*
G04 #@! TO.P,A1,17*
G04 #@! TO.N,Net-(A1-Pad17)*
X81280000Y-63500000D03*
G04 #@! TO.P,A1,2*
G04 #@! TO.N,N/C*
X96520000Y-93980000D03*
G04 #@! TO.P,A1,18*
X81280000Y-66040000D03*
G04 #@! TO.P,A1,3*
X96520000Y-91440000D03*
G04 #@! TO.P,A1,19*
G04 #@! TO.N,/EFR_FREQ*
X81280000Y-68580000D03*
G04 #@! TO.P,A1,4*
G04 #@! TO.N,GND*
X96520000Y-88900000D03*
G04 #@! TO.P,A1,20*
G04 #@! TO.N,Net-(A1-Pad20)*
X81280000Y-71120000D03*
G04 #@! TO.P,A1,5*
G04 #@! TO.N,/RELAY_PWR*
X96520000Y-86360000D03*
G04 #@! TO.P,A1,21*
G04 #@! TO.N,N/C*
X81280000Y-73660000D03*
G04 #@! TO.P,A1,6*
G04 #@! TO.N,Net-(A1-Pad6)*
X96520000Y-83820000D03*
G04 #@! TO.P,A1,22*
G04 #@! TO.N,N/C*
X81280000Y-76200000D03*
G04 #@! TO.P,A1,7*
G04 #@! TO.N,/MICRO_D4*
X96520000Y-81280000D03*
G04 #@! TO.P,A1,23*
G04 #@! TO.N,/SDA*
X81280000Y-78740000D03*
G04 #@! TO.P,A1,8*
G04 #@! TO.N,/MICRO_D5*
X96520000Y-78740000D03*
G04 #@! TO.P,A1,24*
G04 #@! TO.N,/SCL*
X81280000Y-81280000D03*
G04 #@! TO.P,A1,9*
G04 #@! TO.N,/MICRO_D6*
X96520000Y-76200000D03*
G04 #@! TO.P,A1,25*
G04 #@! TO.N,N/C*
X81280000Y-83820000D03*
G04 #@! TO.P,A1,10*
G04 #@! TO.N,/MICRO_D7*
X96520000Y-73660000D03*
G04 #@! TO.P,A1,26*
G04 #@! TO.N,N/C*
X81280000Y-86360000D03*
G04 #@! TO.P,A1,11*
G04 #@! TO.N,/MICRO_D8*
X96520000Y-71120000D03*
G04 #@! TO.P,A1,27*
G04 #@! TO.N,+5V*
X81280000Y-88900000D03*
G04 #@! TO.P,A1,12*
G04 #@! TO.N,/MICRO_D9*
X96520000Y-68580000D03*
G04 #@! TO.P,A1,28*
G04 #@! TO.N,N/C*
X81280000Y-91440000D03*
G04 #@! TO.P,A1,13*
G04 #@! TO.N,/MICRO_D10*
X96520000Y-66040000D03*
G04 #@! TO.P,A1,29*
G04 #@! TO.N,N/C*
X81280000Y-93980000D03*
G04 #@! TO.P,A1,14*
G04 #@! TO.N,/MICRO_D11*
X96520000Y-63500000D03*
G04 #@! TO.P,A1,30*
G04 #@! TO.N,Net-(A1-Pad30)*
X81280000Y-96520000D03*
G04 #@! TO.P,A1,15*
G04 #@! TO.N,/MICRO_D12*
X96520000Y-60960000D03*
G04 #@! TO.P,A1,16*
G04 #@! TO.N,N/C*
X81280000Y-60960000D03*
G04 #@! TD*
D10*
G04 #@! TO.N,GND*
G04 #@! TO.C,C1*
G36*
X72531504Y-63877704D02*
X72555773Y-63881304D01*
X72579571Y-63887265D01*
X72602671Y-63895530D01*
X72624849Y-63906020D01*
X72645893Y-63918633D01*
X72665598Y-63933247D01*
X72683777Y-63949723D01*
X72700253Y-63967902D01*
X72714867Y-63987607D01*
X72727480Y-64008651D01*
X72737970Y-64030829D01*
X72746235Y-64053929D01*
X72752196Y-64077727D01*
X72755796Y-64101996D01*
X72757000Y-64126500D01*
X72757000Y-65051500D01*
X72755796Y-65076004D01*
X72752196Y-65100273D01*
X72746235Y-65124071D01*
X72737970Y-65147171D01*
X72727480Y-65169349D01*
X72714867Y-65190393D01*
X72700253Y-65210098D01*
X72683777Y-65228277D01*
X72665598Y-65244753D01*
X72645893Y-65259367D01*
X72624849Y-65271980D01*
X72602671Y-65282470D01*
X72579571Y-65290735D01*
X72555773Y-65296696D01*
X72531504Y-65300296D01*
X72507000Y-65301500D01*
X71257000Y-65301500D01*
X71232496Y-65300296D01*
X71208227Y-65296696D01*
X71184429Y-65290735D01*
X71161329Y-65282470D01*
X71139151Y-65271980D01*
X71118107Y-65259367D01*
X71098402Y-65244753D01*
X71080223Y-65228277D01*
X71063747Y-65210098D01*
X71049133Y-65190393D01*
X71036520Y-65169349D01*
X71026030Y-65147171D01*
X71017765Y-65124071D01*
X71011804Y-65100273D01*
X71008204Y-65076004D01*
X71007000Y-65051500D01*
X71007000Y-64126500D01*
X71008204Y-64101996D01*
X71011804Y-64077727D01*
X71017765Y-64053929D01*
X71026030Y-64030829D01*
X71036520Y-64008651D01*
X71049133Y-63987607D01*
X71063747Y-63967902D01*
X71080223Y-63949723D01*
X71098402Y-63933247D01*
X71118107Y-63918633D01*
X71139151Y-63906020D01*
X71161329Y-63895530D01*
X71184429Y-63887265D01*
X71208227Y-63881304D01*
X71232496Y-63877704D01*
X71257000Y-63876500D01*
X72507000Y-63876500D01*
X72531504Y-63877704D01*
X72531504Y-63877704D01*
G37*
D15*
G04 #@! TD*
G04 #@! TO.P,C1,2*
G04 #@! TO.N,GND*
X71882000Y-64589000D03*
D10*
G04 #@! TO.N,+5V*
G04 #@! TO.C,C1*
G36*
X72531504Y-66852704D02*
X72555773Y-66856304D01*
X72579571Y-66862265D01*
X72602671Y-66870530D01*
X72624849Y-66881020D01*
X72645893Y-66893633D01*
X72665598Y-66908247D01*
X72683777Y-66924723D01*
X72700253Y-66942902D01*
X72714867Y-66962607D01*
X72727480Y-66983651D01*
X72737970Y-67005829D01*
X72746235Y-67028929D01*
X72752196Y-67052727D01*
X72755796Y-67076996D01*
X72757000Y-67101500D01*
X72757000Y-68026500D01*
X72755796Y-68051004D01*
X72752196Y-68075273D01*
X72746235Y-68099071D01*
X72737970Y-68122171D01*
X72727480Y-68144349D01*
X72714867Y-68165393D01*
X72700253Y-68185098D01*
X72683777Y-68203277D01*
X72665598Y-68219753D01*
X72645893Y-68234367D01*
X72624849Y-68246980D01*
X72602671Y-68257470D01*
X72579571Y-68265735D01*
X72555773Y-68271696D01*
X72531504Y-68275296D01*
X72507000Y-68276500D01*
X71257000Y-68276500D01*
X71232496Y-68275296D01*
X71208227Y-68271696D01*
X71184429Y-68265735D01*
X71161329Y-68257470D01*
X71139151Y-68246980D01*
X71118107Y-68234367D01*
X71098402Y-68219753D01*
X71080223Y-68203277D01*
X71063747Y-68185098D01*
X71049133Y-68165393D01*
X71036520Y-68144349D01*
X71026030Y-68122171D01*
X71017765Y-68099071D01*
X71011804Y-68075273D01*
X71008204Y-68051004D01*
X71007000Y-68026500D01*
X71007000Y-67101500D01*
X71008204Y-67076996D01*
X71011804Y-67052727D01*
X71017765Y-67028929D01*
X71026030Y-67005829D01*
X71036520Y-66983651D01*
X71049133Y-66962607D01*
X71063747Y-66942902D01*
X71080223Y-66924723D01*
X71098402Y-66908247D01*
X71118107Y-66893633D01*
X71139151Y-66881020D01*
X71161329Y-66870530D01*
X71184429Y-66862265D01*
X71208227Y-66856304D01*
X71232496Y-66852704D01*
X71257000Y-66851500D01*
X72507000Y-66851500D01*
X72531504Y-66852704D01*
X72531504Y-66852704D01*
G37*
D15*
G04 #@! TD*
G04 #@! TO.P,C1,1*
G04 #@! TO.N,+5V*
X71882000Y-67564000D03*
D10*
G04 #@! TO.N,+5V*
G04 #@! TO.C,C2*
G36*
X59831504Y-66852704D02*
X59855773Y-66856304D01*
X59879571Y-66862265D01*
X59902671Y-66870530D01*
X59924849Y-66881020D01*
X59945893Y-66893633D01*
X59965598Y-66908247D01*
X59983777Y-66924723D01*
X60000253Y-66942902D01*
X60014867Y-66962607D01*
X60027480Y-66983651D01*
X60037970Y-67005829D01*
X60046235Y-67028929D01*
X60052196Y-67052727D01*
X60055796Y-67076996D01*
X60057000Y-67101500D01*
X60057000Y-68026500D01*
X60055796Y-68051004D01*
X60052196Y-68075273D01*
X60046235Y-68099071D01*
X60037970Y-68122171D01*
X60027480Y-68144349D01*
X60014867Y-68165393D01*
X60000253Y-68185098D01*
X59983777Y-68203277D01*
X59965598Y-68219753D01*
X59945893Y-68234367D01*
X59924849Y-68246980D01*
X59902671Y-68257470D01*
X59879571Y-68265735D01*
X59855773Y-68271696D01*
X59831504Y-68275296D01*
X59807000Y-68276500D01*
X58557000Y-68276500D01*
X58532496Y-68275296D01*
X58508227Y-68271696D01*
X58484429Y-68265735D01*
X58461329Y-68257470D01*
X58439151Y-68246980D01*
X58418107Y-68234367D01*
X58398402Y-68219753D01*
X58380223Y-68203277D01*
X58363747Y-68185098D01*
X58349133Y-68165393D01*
X58336520Y-68144349D01*
X58326030Y-68122171D01*
X58317765Y-68099071D01*
X58311804Y-68075273D01*
X58308204Y-68051004D01*
X58307000Y-68026500D01*
X58307000Y-67101500D01*
X58308204Y-67076996D01*
X58311804Y-67052727D01*
X58317765Y-67028929D01*
X58326030Y-67005829D01*
X58336520Y-66983651D01*
X58349133Y-66962607D01*
X58363747Y-66942902D01*
X58380223Y-66924723D01*
X58398402Y-66908247D01*
X58418107Y-66893633D01*
X58439151Y-66881020D01*
X58461329Y-66870530D01*
X58484429Y-66862265D01*
X58508227Y-66856304D01*
X58532496Y-66852704D01*
X58557000Y-66851500D01*
X59807000Y-66851500D01*
X59831504Y-66852704D01*
X59831504Y-66852704D01*
G37*
D15*
G04 #@! TD*
G04 #@! TO.P,C2,1*
G04 #@! TO.N,+5V*
X59182000Y-67564000D03*
D10*
G04 #@! TO.N,GND*
G04 #@! TO.C,C2*
G36*
X59831504Y-63877704D02*
X59855773Y-63881304D01*
X59879571Y-63887265D01*
X59902671Y-63895530D01*
X59924849Y-63906020D01*
X59945893Y-63918633D01*
X59965598Y-63933247D01*
X59983777Y-63949723D01*
X60000253Y-63967902D01*
X60014867Y-63987607D01*
X60027480Y-64008651D01*
X60037970Y-64030829D01*
X60046235Y-64053929D01*
X60052196Y-64077727D01*
X60055796Y-64101996D01*
X60057000Y-64126500D01*
X60057000Y-65051500D01*
X60055796Y-65076004D01*
X60052196Y-65100273D01*
X60046235Y-65124071D01*
X60037970Y-65147171D01*
X60027480Y-65169349D01*
X60014867Y-65190393D01*
X60000253Y-65210098D01*
X59983777Y-65228277D01*
X59965598Y-65244753D01*
X59945893Y-65259367D01*
X59924849Y-65271980D01*
X59902671Y-65282470D01*
X59879571Y-65290735D01*
X59855773Y-65296696D01*
X59831504Y-65300296D01*
X59807000Y-65301500D01*
X58557000Y-65301500D01*
X58532496Y-65300296D01*
X58508227Y-65296696D01*
X58484429Y-65290735D01*
X58461329Y-65282470D01*
X58439151Y-65271980D01*
X58418107Y-65259367D01*
X58398402Y-65244753D01*
X58380223Y-65228277D01*
X58363747Y-65210098D01*
X58349133Y-65190393D01*
X58336520Y-65169349D01*
X58326030Y-65147171D01*
X58317765Y-65124071D01*
X58311804Y-65100273D01*
X58308204Y-65076004D01*
X58307000Y-65051500D01*
X58307000Y-64126500D01*
X58308204Y-64101996D01*
X58311804Y-64077727D01*
X58317765Y-64053929D01*
X58326030Y-64030829D01*
X58336520Y-64008651D01*
X58349133Y-63987607D01*
X58363747Y-63967902D01*
X58380223Y-63949723D01*
X58398402Y-63933247D01*
X58418107Y-63918633D01*
X58439151Y-63906020D01*
X58461329Y-63895530D01*
X58484429Y-63887265D01*
X58508227Y-63881304D01*
X58532496Y-63877704D01*
X58557000Y-63876500D01*
X59807000Y-63876500D01*
X59831504Y-63877704D01*
X59831504Y-63877704D01*
G37*
D15*
G04 #@! TD*
G04 #@! TO.P,C2,2*
G04 #@! TO.N,GND*
X59182000Y-64589000D03*
D10*
G04 #@! TO.N,/GND_24V*
G04 #@! TO.C,J1*
G36*
X61784503Y-146352204D02*
X61808772Y-146355804D01*
X61832570Y-146361765D01*
X61855670Y-146370030D01*
X61877849Y-146380520D01*
X61898892Y-146393133D01*
X61918598Y-146407748D01*
X61936776Y-146424224D01*
X61953252Y-146442402D01*
X61967867Y-146462108D01*
X61980480Y-146483151D01*
X61990970Y-146505330D01*
X61999235Y-146528430D01*
X62005196Y-146552228D01*
X62008796Y-146576497D01*
X62010000Y-146601001D01*
X62010000Y-148800999D01*
X62008796Y-148825503D01*
X62005196Y-148849772D01*
X61999235Y-148873570D01*
X61990970Y-148896670D01*
X61980480Y-148918849D01*
X61967867Y-148939892D01*
X61953252Y-148959598D01*
X61936776Y-148977776D01*
X61918598Y-148994252D01*
X61898892Y-149008867D01*
X61877849Y-149021480D01*
X61855670Y-149031970D01*
X61832570Y-149040235D01*
X61808772Y-149046196D01*
X61784503Y-149049796D01*
X61759999Y-149051000D01*
X59560001Y-149051000D01*
X59535497Y-149049796D01*
X59511228Y-149046196D01*
X59487430Y-149040235D01*
X59464330Y-149031970D01*
X59442151Y-149021480D01*
X59421108Y-149008867D01*
X59401402Y-148994252D01*
X59383224Y-148977776D01*
X59366748Y-148959598D01*
X59352133Y-148939892D01*
X59339520Y-148918849D01*
X59329030Y-148896670D01*
X59320765Y-148873570D01*
X59314804Y-148849772D01*
X59311204Y-148825503D01*
X59310000Y-148800999D01*
X59310000Y-146601001D01*
X59311204Y-146576497D01*
X59314804Y-146552228D01*
X59320765Y-146528430D01*
X59329030Y-146505330D01*
X59339520Y-146483151D01*
X59352133Y-146462108D01*
X59366748Y-146442402D01*
X59383224Y-146424224D01*
X59401402Y-146407748D01*
X59421108Y-146393133D01*
X59442151Y-146380520D01*
X59464330Y-146370030D01*
X59487430Y-146361765D01*
X59511228Y-146355804D01*
X59535497Y-146352204D01*
X59560001Y-146351000D01*
X61759999Y-146351000D01*
X61784503Y-146352204D01*
X61784503Y-146352204D01*
G37*
D11*
G04 #@! TD*
G04 #@! TO.P,J1,1*
G04 #@! TO.N,/GND_24V*
X60660000Y-147701000D03*
G04 #@! TO.P,J1,2*
G04 #@! TO.N,Net-(J1-Pad2)*
X64620000Y-147701000D03*
G04 #@! TO.P,J1,3*
G04 #@! TO.N,Net-(J1-Pad3)*
X68580000Y-147701000D03*
G04 #@! TO.P,J1,4*
G04 #@! TO.N,/VCC_24V*
X72540000Y-147701000D03*
G04 #@! TD*
D10*
G04 #@! TO.N,Net-(M1-Pad1)*
G04 #@! TO.C,M1*
G36*
X110344503Y-95171204D02*
X110368772Y-95174804D01*
X110392570Y-95180765D01*
X110415670Y-95189030D01*
X110437849Y-95199520D01*
X110458892Y-95212133D01*
X110478598Y-95226748D01*
X110496776Y-95243224D01*
X110513252Y-95261402D01*
X110527867Y-95281108D01*
X110540480Y-95302151D01*
X110550970Y-95324330D01*
X110559235Y-95347430D01*
X110565196Y-95371228D01*
X110568796Y-95395497D01*
X110570000Y-95420001D01*
X110570000Y-97619999D01*
X110568796Y-97644503D01*
X110565196Y-97668772D01*
X110559235Y-97692570D01*
X110550970Y-97715670D01*
X110540480Y-97737849D01*
X110527867Y-97758892D01*
X110513252Y-97778598D01*
X110496776Y-97796776D01*
X110478598Y-97813252D01*
X110458892Y-97827867D01*
X110437849Y-97840480D01*
X110415670Y-97850970D01*
X110392570Y-97859235D01*
X110368772Y-97865196D01*
X110344503Y-97868796D01*
X110319999Y-97870000D01*
X108120001Y-97870000D01*
X108095497Y-97868796D01*
X108071228Y-97865196D01*
X108047430Y-97859235D01*
X108024330Y-97850970D01*
X108002151Y-97840480D01*
X107981108Y-97827867D01*
X107961402Y-97813252D01*
X107943224Y-97796776D01*
X107926748Y-97778598D01*
X107912133Y-97758892D01*
X107899520Y-97737849D01*
X107889030Y-97715670D01*
X107880765Y-97692570D01*
X107874804Y-97668772D01*
X107871204Y-97644503D01*
X107870000Y-97619999D01*
X107870000Y-95420001D01*
X107871204Y-95395497D01*
X107874804Y-95371228D01*
X107880765Y-95347430D01*
X107889030Y-95324330D01*
X107899520Y-95302151D01*
X107912133Y-95281108D01*
X107926748Y-95261402D01*
X107943224Y-95243224D01*
X107961402Y-95226748D01*
X107981108Y-95212133D01*
X108002151Y-95199520D01*
X108024330Y-95189030D01*
X108047430Y-95180765D01*
X108071228Y-95174804D01*
X108095497Y-95171204D01*
X108120001Y-95170000D01*
X110319999Y-95170000D01*
X110344503Y-95171204D01*
X110344503Y-95171204D01*
G37*
D11*
G04 #@! TD*
G04 #@! TO.P,M1,1*
G04 #@! TO.N,Net-(M1-Pad1)*
X109220000Y-96520000D03*
G04 #@! TO.P,M1,2*
G04 #@! TO.N,GND*
X109220000Y-92560000D03*
G04 #@! TD*
D10*
G04 #@! TO.N,Net-(R1-Pad1)*
G04 #@! TO.C,R1*
G36*
X68975504Y-72440704D02*
X68999773Y-72444304D01*
X69023571Y-72450265D01*
X69046671Y-72458530D01*
X69068849Y-72469020D01*
X69089893Y-72481633D01*
X69109598Y-72496247D01*
X69127777Y-72512723D01*
X69144253Y-72530902D01*
X69158867Y-72550607D01*
X69171480Y-72571651D01*
X69181970Y-72593829D01*
X69190235Y-72616929D01*
X69196196Y-72640727D01*
X69199796Y-72664996D01*
X69201000Y-72689500D01*
X69201000Y-73614500D01*
X69199796Y-73639004D01*
X69196196Y-73663273D01*
X69190235Y-73687071D01*
X69181970Y-73710171D01*
X69171480Y-73732349D01*
X69158867Y-73753393D01*
X69144253Y-73773098D01*
X69127777Y-73791277D01*
X69109598Y-73807753D01*
X69089893Y-73822367D01*
X69068849Y-73834980D01*
X69046671Y-73845470D01*
X69023571Y-73853735D01*
X68999773Y-73859696D01*
X68975504Y-73863296D01*
X68951000Y-73864500D01*
X67701000Y-73864500D01*
X67676496Y-73863296D01*
X67652227Y-73859696D01*
X67628429Y-73853735D01*
X67605329Y-73845470D01*
X67583151Y-73834980D01*
X67562107Y-73822367D01*
X67542402Y-73807753D01*
X67524223Y-73791277D01*
X67507747Y-73773098D01*
X67493133Y-73753393D01*
X67480520Y-73732349D01*
X67470030Y-73710171D01*
X67461765Y-73687071D01*
X67455804Y-73663273D01*
X67452204Y-73639004D01*
X67451000Y-73614500D01*
X67451000Y-72689500D01*
X67452204Y-72664996D01*
X67455804Y-72640727D01*
X67461765Y-72616929D01*
X67470030Y-72593829D01*
X67480520Y-72571651D01*
X67493133Y-72550607D01*
X67507747Y-72530902D01*
X67524223Y-72512723D01*
X67542402Y-72496247D01*
X67562107Y-72481633D01*
X67583151Y-72469020D01*
X67605329Y-72458530D01*
X67628429Y-72450265D01*
X67652227Y-72444304D01*
X67676496Y-72440704D01*
X67701000Y-72439500D01*
X68951000Y-72439500D01*
X68975504Y-72440704D01*
X68975504Y-72440704D01*
G37*
D15*
G04 #@! TD*
G04 #@! TO.P,R1,1*
G04 #@! TO.N,Net-(R1-Pad1)*
X68326000Y-73152000D03*
D10*
G04 #@! TO.N,GND*
G04 #@! TO.C,R1*
G36*
X68975504Y-69465704D02*
X68999773Y-69469304D01*
X69023571Y-69475265D01*
X69046671Y-69483530D01*
X69068849Y-69494020D01*
X69089893Y-69506633D01*
X69109598Y-69521247D01*
X69127777Y-69537723D01*
X69144253Y-69555902D01*
X69158867Y-69575607D01*
X69171480Y-69596651D01*
X69181970Y-69618829D01*
X69190235Y-69641929D01*
X69196196Y-69665727D01*
X69199796Y-69689996D01*
X69201000Y-69714500D01*
X69201000Y-70639500D01*
X69199796Y-70664004D01*
X69196196Y-70688273D01*
X69190235Y-70712071D01*
X69181970Y-70735171D01*
X69171480Y-70757349D01*
X69158867Y-70778393D01*
X69144253Y-70798098D01*
X69127777Y-70816277D01*
X69109598Y-70832753D01*
X69089893Y-70847367D01*
X69068849Y-70859980D01*
X69046671Y-70870470D01*
X69023571Y-70878735D01*
X68999773Y-70884696D01*
X68975504Y-70888296D01*
X68951000Y-70889500D01*
X67701000Y-70889500D01*
X67676496Y-70888296D01*
X67652227Y-70884696D01*
X67628429Y-70878735D01*
X67605329Y-70870470D01*
X67583151Y-70859980D01*
X67562107Y-70847367D01*
X67542402Y-70832753D01*
X67524223Y-70816277D01*
X67507747Y-70798098D01*
X67493133Y-70778393D01*
X67480520Y-70757349D01*
X67470030Y-70735171D01*
X67461765Y-70712071D01*
X67455804Y-70688273D01*
X67452204Y-70664004D01*
X67451000Y-70639500D01*
X67451000Y-69714500D01*
X67452204Y-69689996D01*
X67455804Y-69665727D01*
X67461765Y-69641929D01*
X67470030Y-69618829D01*
X67480520Y-69596651D01*
X67493133Y-69575607D01*
X67507747Y-69555902D01*
X67524223Y-69537723D01*
X67542402Y-69521247D01*
X67562107Y-69506633D01*
X67583151Y-69494020D01*
X67605329Y-69483530D01*
X67628429Y-69475265D01*
X67652227Y-69469304D01*
X67676496Y-69465704D01*
X67701000Y-69464500D01*
X68951000Y-69464500D01*
X68975504Y-69465704D01*
X68975504Y-69465704D01*
G37*
D15*
G04 #@! TD*
G04 #@! TO.P,R1,2*
G04 #@! TO.N,GND*
X68326000Y-70177000D03*
D10*
G04 #@! TO.N,GND*
G04 #@! TO.C,R2*
G36*
X63895504Y-69465704D02*
X63919773Y-69469304D01*
X63943571Y-69475265D01*
X63966671Y-69483530D01*
X63988849Y-69494020D01*
X64009893Y-69506633D01*
X64029598Y-69521247D01*
X64047777Y-69537723D01*
X64064253Y-69555902D01*
X64078867Y-69575607D01*
X64091480Y-69596651D01*
X64101970Y-69618829D01*
X64110235Y-69641929D01*
X64116196Y-69665727D01*
X64119796Y-69689996D01*
X64121000Y-69714500D01*
X64121000Y-70639500D01*
X64119796Y-70664004D01*
X64116196Y-70688273D01*
X64110235Y-70712071D01*
X64101970Y-70735171D01*
X64091480Y-70757349D01*
X64078867Y-70778393D01*
X64064253Y-70798098D01*
X64047777Y-70816277D01*
X64029598Y-70832753D01*
X64009893Y-70847367D01*
X63988849Y-70859980D01*
X63966671Y-70870470D01*
X63943571Y-70878735D01*
X63919773Y-70884696D01*
X63895504Y-70888296D01*
X63871000Y-70889500D01*
X62621000Y-70889500D01*
X62596496Y-70888296D01*
X62572227Y-70884696D01*
X62548429Y-70878735D01*
X62525329Y-70870470D01*
X62503151Y-70859980D01*
X62482107Y-70847367D01*
X62462402Y-70832753D01*
X62444223Y-70816277D01*
X62427747Y-70798098D01*
X62413133Y-70778393D01*
X62400520Y-70757349D01*
X62390030Y-70735171D01*
X62381765Y-70712071D01*
X62375804Y-70688273D01*
X62372204Y-70664004D01*
X62371000Y-70639500D01*
X62371000Y-69714500D01*
X62372204Y-69689996D01*
X62375804Y-69665727D01*
X62381765Y-69641929D01*
X62390030Y-69618829D01*
X62400520Y-69596651D01*
X62413133Y-69575607D01*
X62427747Y-69555902D01*
X62444223Y-69537723D01*
X62462402Y-69521247D01*
X62482107Y-69506633D01*
X62503151Y-69494020D01*
X62525329Y-69483530D01*
X62548429Y-69475265D01*
X62572227Y-69469304D01*
X62596496Y-69465704D01*
X62621000Y-69464500D01*
X63871000Y-69464500D01*
X63895504Y-69465704D01*
X63895504Y-69465704D01*
G37*
D15*
G04 #@! TD*
G04 #@! TO.P,R2,2*
G04 #@! TO.N,GND*
X63246000Y-70177000D03*
D10*
G04 #@! TO.N,Net-(R2-Pad1)*
G04 #@! TO.C,R2*
G36*
X63895504Y-72440704D02*
X63919773Y-72444304D01*
X63943571Y-72450265D01*
X63966671Y-72458530D01*
X63988849Y-72469020D01*
X64009893Y-72481633D01*
X64029598Y-72496247D01*
X64047777Y-72512723D01*
X64064253Y-72530902D01*
X64078867Y-72550607D01*
X64091480Y-72571651D01*
X64101970Y-72593829D01*
X64110235Y-72616929D01*
X64116196Y-72640727D01*
X64119796Y-72664996D01*
X64121000Y-72689500D01*
X64121000Y-73614500D01*
X64119796Y-73639004D01*
X64116196Y-73663273D01*
X64110235Y-73687071D01*
X64101970Y-73710171D01*
X64091480Y-73732349D01*
X64078867Y-73753393D01*
X64064253Y-73773098D01*
X64047777Y-73791277D01*
X64029598Y-73807753D01*
X64009893Y-73822367D01*
X63988849Y-73834980D01*
X63966671Y-73845470D01*
X63943571Y-73853735D01*
X63919773Y-73859696D01*
X63895504Y-73863296D01*
X63871000Y-73864500D01*
X62621000Y-73864500D01*
X62596496Y-73863296D01*
X62572227Y-73859696D01*
X62548429Y-73853735D01*
X62525329Y-73845470D01*
X62503151Y-73834980D01*
X62482107Y-73822367D01*
X62462402Y-73807753D01*
X62444223Y-73791277D01*
X62427747Y-73773098D01*
X62413133Y-73753393D01*
X62400520Y-73732349D01*
X62390030Y-73710171D01*
X62381765Y-73687071D01*
X62375804Y-73663273D01*
X62372204Y-73639004D01*
X62371000Y-73614500D01*
X62371000Y-72689500D01*
X62372204Y-72664996D01*
X62375804Y-72640727D01*
X62381765Y-72616929D01*
X62390030Y-72593829D01*
X62400520Y-72571651D01*
X62413133Y-72550607D01*
X62427747Y-72530902D01*
X62444223Y-72512723D01*
X62462402Y-72496247D01*
X62482107Y-72481633D01*
X62503151Y-72469020D01*
X62525329Y-72458530D01*
X62548429Y-72450265D01*
X62572227Y-72444304D01*
X62596496Y-72440704D01*
X62621000Y-72439500D01*
X63871000Y-72439500D01*
X63895504Y-72440704D01*
X63895504Y-72440704D01*
G37*
D15*
G04 #@! TD*
G04 #@! TO.P,R2,1*
G04 #@! TO.N,Net-(R2-Pad1)*
X63246000Y-73152000D03*
D10*
G04 #@! TO.N,+5V*
G04 #@! TO.C,R4*
G36*
X56275504Y-72440704D02*
X56299773Y-72444304D01*
X56323571Y-72450265D01*
X56346671Y-72458530D01*
X56368849Y-72469020D01*
X56389893Y-72481633D01*
X56409598Y-72496247D01*
X56427777Y-72512723D01*
X56444253Y-72530902D01*
X56458867Y-72550607D01*
X56471480Y-72571651D01*
X56481970Y-72593829D01*
X56490235Y-72616929D01*
X56496196Y-72640727D01*
X56499796Y-72664996D01*
X56501000Y-72689500D01*
X56501000Y-73614500D01*
X56499796Y-73639004D01*
X56496196Y-73663273D01*
X56490235Y-73687071D01*
X56481970Y-73710171D01*
X56471480Y-73732349D01*
X56458867Y-73753393D01*
X56444253Y-73773098D01*
X56427777Y-73791277D01*
X56409598Y-73807753D01*
X56389893Y-73822367D01*
X56368849Y-73834980D01*
X56346671Y-73845470D01*
X56323571Y-73853735D01*
X56299773Y-73859696D01*
X56275504Y-73863296D01*
X56251000Y-73864500D01*
X55001000Y-73864500D01*
X54976496Y-73863296D01*
X54952227Y-73859696D01*
X54928429Y-73853735D01*
X54905329Y-73845470D01*
X54883151Y-73834980D01*
X54862107Y-73822367D01*
X54842402Y-73807753D01*
X54824223Y-73791277D01*
X54807747Y-73773098D01*
X54793133Y-73753393D01*
X54780520Y-73732349D01*
X54770030Y-73710171D01*
X54761765Y-73687071D01*
X54755804Y-73663273D01*
X54752204Y-73639004D01*
X54751000Y-73614500D01*
X54751000Y-72689500D01*
X54752204Y-72664996D01*
X54755804Y-72640727D01*
X54761765Y-72616929D01*
X54770030Y-72593829D01*
X54780520Y-72571651D01*
X54793133Y-72550607D01*
X54807747Y-72530902D01*
X54824223Y-72512723D01*
X54842402Y-72496247D01*
X54862107Y-72481633D01*
X54883151Y-72469020D01*
X54905329Y-72458530D01*
X54928429Y-72450265D01*
X54952227Y-72444304D01*
X54976496Y-72440704D01*
X55001000Y-72439500D01*
X56251000Y-72439500D01*
X56275504Y-72440704D01*
X56275504Y-72440704D01*
G37*
D15*
G04 #@! TD*
G04 #@! TO.P,R4,1*
G04 #@! TO.N,+5V*
X55626000Y-73152000D03*
D10*
G04 #@! TO.N,GND*
G04 #@! TO.C,R4*
G36*
X56275504Y-69465704D02*
X56299773Y-69469304D01*
X56323571Y-69475265D01*
X56346671Y-69483530D01*
X56368849Y-69494020D01*
X56389893Y-69506633D01*
X56409598Y-69521247D01*
X56427777Y-69537723D01*
X56444253Y-69555902D01*
X56458867Y-69575607D01*
X56471480Y-69596651D01*
X56481970Y-69618829D01*
X56490235Y-69641929D01*
X56496196Y-69665727D01*
X56499796Y-69689996D01*
X56501000Y-69714500D01*
X56501000Y-70639500D01*
X56499796Y-70664004D01*
X56496196Y-70688273D01*
X56490235Y-70712071D01*
X56481970Y-70735171D01*
X56471480Y-70757349D01*
X56458867Y-70778393D01*
X56444253Y-70798098D01*
X56427777Y-70816277D01*
X56409598Y-70832753D01*
X56389893Y-70847367D01*
X56368849Y-70859980D01*
X56346671Y-70870470D01*
X56323571Y-70878735D01*
X56299773Y-70884696D01*
X56275504Y-70888296D01*
X56251000Y-70889500D01*
X55001000Y-70889500D01*
X54976496Y-70888296D01*
X54952227Y-70884696D01*
X54928429Y-70878735D01*
X54905329Y-70870470D01*
X54883151Y-70859980D01*
X54862107Y-70847367D01*
X54842402Y-70832753D01*
X54824223Y-70816277D01*
X54807747Y-70798098D01*
X54793133Y-70778393D01*
X54780520Y-70757349D01*
X54770030Y-70735171D01*
X54761765Y-70712071D01*
X54755804Y-70688273D01*
X54752204Y-70664004D01*
X54751000Y-70639500D01*
X54751000Y-69714500D01*
X54752204Y-69689996D01*
X54755804Y-69665727D01*
X54761765Y-69641929D01*
X54770030Y-69618829D01*
X54780520Y-69596651D01*
X54793133Y-69575607D01*
X54807747Y-69555902D01*
X54824223Y-69537723D01*
X54842402Y-69521247D01*
X54862107Y-69506633D01*
X54883151Y-69494020D01*
X54905329Y-69483530D01*
X54928429Y-69475265D01*
X54952227Y-69469304D01*
X54976496Y-69465704D01*
X55001000Y-69464500D01*
X56251000Y-69464500D01*
X56275504Y-69465704D01*
X56275504Y-69465704D01*
G37*
D15*
G04 #@! TD*
G04 #@! TO.P,R4,2*
G04 #@! TO.N,GND*
X55626000Y-70177000D03*
D10*
G04 #@! TO.N,Net-(R6-Pad2)*
G04 #@! TO.C,R6*
G36*
X56864505Y-85702204D02*
X56888773Y-85705804D01*
X56912572Y-85711765D01*
X56935671Y-85720030D01*
X56957850Y-85730520D01*
X56978893Y-85743132D01*
X56998599Y-85757747D01*
X57016777Y-85774223D01*
X57033253Y-85792401D01*
X57047868Y-85812107D01*
X57060480Y-85833150D01*
X57070970Y-85855329D01*
X57079235Y-85878428D01*
X57085196Y-85902227D01*
X57088796Y-85926495D01*
X57090000Y-85950999D01*
X57090000Y-88801001D01*
X57088796Y-88825505D01*
X57085196Y-88849773D01*
X57079235Y-88873572D01*
X57070970Y-88896671D01*
X57060480Y-88918850D01*
X57047868Y-88939893D01*
X57033253Y-88959599D01*
X57016777Y-88977777D01*
X56998599Y-88994253D01*
X56978893Y-89008868D01*
X56957850Y-89021480D01*
X56935671Y-89031970D01*
X56912572Y-89040235D01*
X56888773Y-89046196D01*
X56864505Y-89049796D01*
X56840001Y-89051000D01*
X55814999Y-89051000D01*
X55790495Y-89049796D01*
X55766227Y-89046196D01*
X55742428Y-89040235D01*
X55719329Y-89031970D01*
X55697150Y-89021480D01*
X55676107Y-89008868D01*
X55656401Y-88994253D01*
X55638223Y-88977777D01*
X55621747Y-88959599D01*
X55607132Y-88939893D01*
X55594520Y-88918850D01*
X55584030Y-88896671D01*
X55575765Y-88873572D01*
X55569804Y-88849773D01*
X55566204Y-88825505D01*
X55565000Y-88801001D01*
X55565000Y-85950999D01*
X55566204Y-85926495D01*
X55569804Y-85902227D01*
X55575765Y-85878428D01*
X55584030Y-85855329D01*
X55594520Y-85833150D01*
X55607132Y-85812107D01*
X55621747Y-85792401D01*
X55638223Y-85774223D01*
X55656401Y-85757747D01*
X55676107Y-85743132D01*
X55697150Y-85730520D01*
X55719329Y-85720030D01*
X55742428Y-85711765D01*
X55766227Y-85705804D01*
X55790495Y-85702204D01*
X55814999Y-85701000D01*
X56840001Y-85701000D01*
X56864505Y-85702204D01*
X56864505Y-85702204D01*
G37*
D16*
G04 #@! TD*
G04 #@! TO.P,R6,2*
G04 #@! TO.N,Net-(R6-Pad2)*
X56327500Y-87376000D03*
D10*
G04 #@! TO.N,/VCC_24V*
G04 #@! TO.C,R6*
G36*
X50889505Y-85702204D02*
X50913773Y-85705804D01*
X50937572Y-85711765D01*
X50960671Y-85720030D01*
X50982850Y-85730520D01*
X51003893Y-85743132D01*
X51023599Y-85757747D01*
X51041777Y-85774223D01*
X51058253Y-85792401D01*
X51072868Y-85812107D01*
X51085480Y-85833150D01*
X51095970Y-85855329D01*
X51104235Y-85878428D01*
X51110196Y-85902227D01*
X51113796Y-85926495D01*
X51115000Y-85950999D01*
X51115000Y-88801001D01*
X51113796Y-88825505D01*
X51110196Y-88849773D01*
X51104235Y-88873572D01*
X51095970Y-88896671D01*
X51085480Y-88918850D01*
X51072868Y-88939893D01*
X51058253Y-88959599D01*
X51041777Y-88977777D01*
X51023599Y-88994253D01*
X51003893Y-89008868D01*
X50982850Y-89021480D01*
X50960671Y-89031970D01*
X50937572Y-89040235D01*
X50913773Y-89046196D01*
X50889505Y-89049796D01*
X50865001Y-89051000D01*
X49839999Y-89051000D01*
X49815495Y-89049796D01*
X49791227Y-89046196D01*
X49767428Y-89040235D01*
X49744329Y-89031970D01*
X49722150Y-89021480D01*
X49701107Y-89008868D01*
X49681401Y-88994253D01*
X49663223Y-88977777D01*
X49646747Y-88959599D01*
X49632132Y-88939893D01*
X49619520Y-88918850D01*
X49609030Y-88896671D01*
X49600765Y-88873572D01*
X49594804Y-88849773D01*
X49591204Y-88825505D01*
X49590000Y-88801001D01*
X49590000Y-85950999D01*
X49591204Y-85926495D01*
X49594804Y-85902227D01*
X49600765Y-85878428D01*
X49609030Y-85855329D01*
X49619520Y-85833150D01*
X49632132Y-85812107D01*
X49646747Y-85792401D01*
X49663223Y-85774223D01*
X49681401Y-85757747D01*
X49701107Y-85743132D01*
X49722150Y-85730520D01*
X49744329Y-85720030D01*
X49767428Y-85711765D01*
X49791227Y-85705804D01*
X49815495Y-85702204D01*
X49839999Y-85701000D01*
X50865001Y-85701000D01*
X50889505Y-85702204D01*
X50889505Y-85702204D01*
G37*
D16*
G04 #@! TD*
G04 #@! TO.P,R6,1*
G04 #@! TO.N,/VCC_24V*
X50352500Y-87376000D03*
D17*
G04 #@! TO.P,SW1,A1*
G04 #@! TO.N,/RELAY_PWR*
X64262000Y-120904000D03*
D18*
G04 #@! TO.P,SW1,A2*
G04 #@! TO.N,GND*
X56762000Y-120904000D03*
D19*
G04 #@! TO.P,SW1,11*
G04 #@! TO.N,/EFT_24V_SYS*
X64262000Y-100604000D03*
G04 #@! TO.P,SW1,24*
G04 #@! TO.N,Net-(R6-Pad2)*
X56762000Y-95564000D03*
G04 #@! TO.P,SW1,21*
G04 #@! TO.N,/EFT_24V_HEAT*
X56762000Y-100604000D03*
G04 #@! TO.P,SW1,14*
G04 #@! TO.N,Net-(R3-Pad2)*
X64262000Y-95564000D03*
G04 #@! TD*
D20*
G04 #@! TO.P,SW2,A1*
G04 #@! TO.N,Net-(A1-Pad6)*
X111760000Y-106680000D03*
D19*
G04 #@! TO.P,SW2,A2*
G04 #@! TO.N,GND*
X111760000Y-114180000D03*
D18*
G04 #@! TO.P,SW2,11*
G04 #@! TO.N,Net-(SW2-Pad11)*
X91460000Y-106680000D03*
G04 #@! TO.P,SW2,24*
G04 #@! TO.N,Net-(M1-Pad1)*
X86420000Y-114180000D03*
G04 #@! TO.P,SW2,21*
G04 #@! TO.N,/VCC_24V*
X91460000Y-114180000D03*
G04 #@! TO.P,SW2,14*
G04 #@! TO.N,Net-(SW2-Pad14)*
X86420000Y-106680000D03*
G04 #@! TD*
D21*
G04 #@! TO.P,TP1,1*
G04 #@! TO.N,Net-(TP1-Pad1)*
X101600000Y-120650000D03*
G04 #@! TD*
G04 #@! TO.P,TP2,1*
G04 #@! TO.N,/EFR_XTAL*
X58420000Y-127635000D03*
G04 #@! TD*
G04 #@! TO.P,TP3,1*
G04 #@! TO.N,/EFR_LAMP*
X64135000Y-127635000D03*
G04 #@! TD*
G04 #@! TO.P,TP4,1*
G04 #@! TO.N,Net-(SW2-Pad11)*
X81026000Y-111760000D03*
G04 #@! TD*
G04 #@! TO.P,TP5,1*
G04 #@! TO.N,Net-(SW2-Pad14)*
X81026000Y-106680000D03*
G04 #@! TD*
G04 #@! TO.P,TP6,1*
G04 #@! TO.N,Net-(A1-Pad17)*
X76200000Y-63500000D03*
G04 #@! TD*
G04 #@! TO.P,TP7,1*
G04 #@! TO.N,Net-(A1-Pad30)*
X76200000Y-96520000D03*
G04 #@! TD*
D22*
G04 #@! TO.P,U2,1*
G04 #@! TO.N,/VCC_24V*
X65060000Y-80598000D03*
G04 #@! TO.P,U2,2*
G04 #@! TO.N,Net-(R3-Pad2)*
X65710000Y-80598000D03*
G04 #@! TO.P,U2,3*
G04 #@! TO.N,GND*
X66370000Y-80598000D03*
G04 #@! TO.P,U2,4*
G04 #@! TO.N,+5V*
X67020000Y-80598000D03*
G04 #@! TO.P,U2,5*
G04 #@! TO.N,/SCL*
X67020000Y-77898000D03*
G04 #@! TO.P,U2,6*
G04 #@! TO.N,/SDA*
X66370000Y-77898000D03*
G04 #@! TO.P,U2,7*
G04 #@! TO.N,Net-(R1-Pad1)*
X65710000Y-77898000D03*
G04 #@! TO.P,U2,8*
G04 #@! TO.N,Net-(R2-Pad1)*
X65060000Y-77898000D03*
G04 #@! TD*
G04 #@! TO.P,U3,8*
G04 #@! TO.N,Net-(R5-Pad1)*
X52360000Y-77898000D03*
G04 #@! TO.P,U3,7*
G04 #@! TO.N,+5V*
X53010000Y-77898000D03*
G04 #@! TO.P,U3,6*
G04 #@! TO.N,/SDA*
X53670000Y-77898000D03*
G04 #@! TO.P,U3,5*
G04 #@! TO.N,/SCL*
X54320000Y-77898000D03*
G04 #@! TO.P,U3,4*
G04 #@! TO.N,+5V*
X54320000Y-80598000D03*
G04 #@! TO.P,U3,3*
G04 #@! TO.N,GND*
X53670000Y-80598000D03*
G04 #@! TO.P,U3,2*
G04 #@! TO.N,Net-(R6-Pad2)*
X53010000Y-80598000D03*
G04 #@! TO.P,U3,1*
G04 #@! TO.N,/VCC_24V*
X52360000Y-80598000D03*
G04 #@! TD*
D10*
G04 #@! TO.N,/VCC_24V*
G04 #@! TO.C,R3*
G36*
X63529005Y-85702204D02*
X63553273Y-85705804D01*
X63577072Y-85711765D01*
X63600171Y-85720030D01*
X63622350Y-85730520D01*
X63643393Y-85743132D01*
X63663099Y-85757747D01*
X63681277Y-85774223D01*
X63697753Y-85792401D01*
X63712368Y-85812107D01*
X63724980Y-85833150D01*
X63735470Y-85855329D01*
X63743735Y-85878428D01*
X63749696Y-85902227D01*
X63753296Y-85926495D01*
X63754500Y-85950999D01*
X63754500Y-88801001D01*
X63753296Y-88825505D01*
X63749696Y-88849773D01*
X63743735Y-88873572D01*
X63735470Y-88896671D01*
X63724980Y-88918850D01*
X63712368Y-88939893D01*
X63697753Y-88959599D01*
X63681277Y-88977777D01*
X63663099Y-88994253D01*
X63643393Y-89008868D01*
X63622350Y-89021480D01*
X63600171Y-89031970D01*
X63577072Y-89040235D01*
X63553273Y-89046196D01*
X63529005Y-89049796D01*
X63504501Y-89051000D01*
X62479499Y-89051000D01*
X62454995Y-89049796D01*
X62430727Y-89046196D01*
X62406928Y-89040235D01*
X62383829Y-89031970D01*
X62361650Y-89021480D01*
X62340607Y-89008868D01*
X62320901Y-88994253D01*
X62302723Y-88977777D01*
X62286247Y-88959599D01*
X62271632Y-88939893D01*
X62259020Y-88918850D01*
X62248530Y-88896671D01*
X62240265Y-88873572D01*
X62234304Y-88849773D01*
X62230704Y-88825505D01*
X62229500Y-88801001D01*
X62229500Y-85950999D01*
X62230704Y-85926495D01*
X62234304Y-85902227D01*
X62240265Y-85878428D01*
X62248530Y-85855329D01*
X62259020Y-85833150D01*
X62271632Y-85812107D01*
X62286247Y-85792401D01*
X62302723Y-85774223D01*
X62320901Y-85757747D01*
X62340607Y-85743132D01*
X62361650Y-85730520D01*
X62383829Y-85720030D01*
X62406928Y-85711765D01*
X62430727Y-85705804D01*
X62454995Y-85702204D01*
X62479499Y-85701000D01*
X63504501Y-85701000D01*
X63529005Y-85702204D01*
X63529005Y-85702204D01*
G37*
D16*
G04 #@! TD*
G04 #@! TO.P,R3,1*
G04 #@! TO.N,/VCC_24V*
X62992000Y-87376000D03*
D10*
G04 #@! TO.N,Net-(R3-Pad2)*
G04 #@! TO.C,R3*
G36*
X69504005Y-85702204D02*
X69528273Y-85705804D01*
X69552072Y-85711765D01*
X69575171Y-85720030D01*
X69597350Y-85730520D01*
X69618393Y-85743132D01*
X69638099Y-85757747D01*
X69656277Y-85774223D01*
X69672753Y-85792401D01*
X69687368Y-85812107D01*
X69699980Y-85833150D01*
X69710470Y-85855329D01*
X69718735Y-85878428D01*
X69724696Y-85902227D01*
X69728296Y-85926495D01*
X69729500Y-85950999D01*
X69729500Y-88801001D01*
X69728296Y-88825505D01*
X69724696Y-88849773D01*
X69718735Y-88873572D01*
X69710470Y-88896671D01*
X69699980Y-88918850D01*
X69687368Y-88939893D01*
X69672753Y-88959599D01*
X69656277Y-88977777D01*
X69638099Y-88994253D01*
X69618393Y-89008868D01*
X69597350Y-89021480D01*
X69575171Y-89031970D01*
X69552072Y-89040235D01*
X69528273Y-89046196D01*
X69504005Y-89049796D01*
X69479501Y-89051000D01*
X68454499Y-89051000D01*
X68429995Y-89049796D01*
X68405727Y-89046196D01*
X68381928Y-89040235D01*
X68358829Y-89031970D01*
X68336650Y-89021480D01*
X68315607Y-89008868D01*
X68295901Y-88994253D01*
X68277723Y-88977777D01*
X68261247Y-88959599D01*
X68246632Y-88939893D01*
X68234020Y-88918850D01*
X68223530Y-88896671D01*
X68215265Y-88873572D01*
X68209304Y-88849773D01*
X68205704Y-88825505D01*
X68204500Y-88801001D01*
X68204500Y-85950999D01*
X68205704Y-85926495D01*
X68209304Y-85902227D01*
X68215265Y-85878428D01*
X68223530Y-85855329D01*
X68234020Y-85833150D01*
X68246632Y-85812107D01*
X68261247Y-85792401D01*
X68277723Y-85774223D01*
X68295901Y-85757747D01*
X68315607Y-85743132D01*
X68336650Y-85730520D01*
X68358829Y-85720030D01*
X68381928Y-85711765D01*
X68405727Y-85705804D01*
X68429995Y-85702204D01*
X68454499Y-85701000D01*
X69479501Y-85701000D01*
X69504005Y-85702204D01*
X69504005Y-85702204D01*
G37*
D16*
G04 #@! TD*
G04 #@! TO.P,R3,2*
G04 #@! TO.N,Net-(R3-Pad2)*
X68967000Y-87376000D03*
D10*
G04 #@! TO.N,Net-(R5-Pad1)*
G04 #@! TO.C,R5*
G36*
X51195504Y-72440704D02*
X51219773Y-72444304D01*
X51243571Y-72450265D01*
X51266671Y-72458530D01*
X51288849Y-72469020D01*
X51309893Y-72481633D01*
X51329598Y-72496247D01*
X51347777Y-72512723D01*
X51364253Y-72530902D01*
X51378867Y-72550607D01*
X51391480Y-72571651D01*
X51401970Y-72593829D01*
X51410235Y-72616929D01*
X51416196Y-72640727D01*
X51419796Y-72664996D01*
X51421000Y-72689500D01*
X51421000Y-73614500D01*
X51419796Y-73639004D01*
X51416196Y-73663273D01*
X51410235Y-73687071D01*
X51401970Y-73710171D01*
X51391480Y-73732349D01*
X51378867Y-73753393D01*
X51364253Y-73773098D01*
X51347777Y-73791277D01*
X51329598Y-73807753D01*
X51309893Y-73822367D01*
X51288849Y-73834980D01*
X51266671Y-73845470D01*
X51243571Y-73853735D01*
X51219773Y-73859696D01*
X51195504Y-73863296D01*
X51171000Y-73864500D01*
X49921000Y-73864500D01*
X49896496Y-73863296D01*
X49872227Y-73859696D01*
X49848429Y-73853735D01*
X49825329Y-73845470D01*
X49803151Y-73834980D01*
X49782107Y-73822367D01*
X49762402Y-73807753D01*
X49744223Y-73791277D01*
X49727747Y-73773098D01*
X49713133Y-73753393D01*
X49700520Y-73732349D01*
X49690030Y-73710171D01*
X49681765Y-73687071D01*
X49675804Y-73663273D01*
X49672204Y-73639004D01*
X49671000Y-73614500D01*
X49671000Y-72689500D01*
X49672204Y-72664996D01*
X49675804Y-72640727D01*
X49681765Y-72616929D01*
X49690030Y-72593829D01*
X49700520Y-72571651D01*
X49713133Y-72550607D01*
X49727747Y-72530902D01*
X49744223Y-72512723D01*
X49762402Y-72496247D01*
X49782107Y-72481633D01*
X49803151Y-72469020D01*
X49825329Y-72458530D01*
X49848429Y-72450265D01*
X49872227Y-72444304D01*
X49896496Y-72440704D01*
X49921000Y-72439500D01*
X51171000Y-72439500D01*
X51195504Y-72440704D01*
X51195504Y-72440704D01*
G37*
D15*
G04 #@! TD*
G04 #@! TO.P,R5,1*
G04 #@! TO.N,Net-(R5-Pad1)*
X50546000Y-73152000D03*
D10*
G04 #@! TO.N,GND*
G04 #@! TO.C,R5*
G36*
X51195504Y-69465704D02*
X51219773Y-69469304D01*
X51243571Y-69475265D01*
X51266671Y-69483530D01*
X51288849Y-69494020D01*
X51309893Y-69506633D01*
X51329598Y-69521247D01*
X51347777Y-69537723D01*
X51364253Y-69555902D01*
X51378867Y-69575607D01*
X51391480Y-69596651D01*
X51401970Y-69618829D01*
X51410235Y-69641929D01*
X51416196Y-69665727D01*
X51419796Y-69689996D01*
X51421000Y-69714500D01*
X51421000Y-70639500D01*
X51419796Y-70664004D01*
X51416196Y-70688273D01*
X51410235Y-70712071D01*
X51401970Y-70735171D01*
X51391480Y-70757349D01*
X51378867Y-70778393D01*
X51364253Y-70798098D01*
X51347777Y-70816277D01*
X51329598Y-70832753D01*
X51309893Y-70847367D01*
X51288849Y-70859980D01*
X51266671Y-70870470D01*
X51243571Y-70878735D01*
X51219773Y-70884696D01*
X51195504Y-70888296D01*
X51171000Y-70889500D01*
X49921000Y-70889500D01*
X49896496Y-70888296D01*
X49872227Y-70884696D01*
X49848429Y-70878735D01*
X49825329Y-70870470D01*
X49803151Y-70859980D01*
X49782107Y-70847367D01*
X49762402Y-70832753D01*
X49744223Y-70816277D01*
X49727747Y-70798098D01*
X49713133Y-70778393D01*
X49700520Y-70757349D01*
X49690030Y-70735171D01*
X49681765Y-70712071D01*
X49675804Y-70688273D01*
X49672204Y-70664004D01*
X49671000Y-70639500D01*
X49671000Y-69714500D01*
X49672204Y-69689996D01*
X49675804Y-69665727D01*
X49681765Y-69641929D01*
X49690030Y-69618829D01*
X49700520Y-69596651D01*
X49713133Y-69575607D01*
X49727747Y-69555902D01*
X49744223Y-69537723D01*
X49762402Y-69521247D01*
X49782107Y-69506633D01*
X49803151Y-69494020D01*
X49825329Y-69483530D01*
X49848429Y-69475265D01*
X49872227Y-69469304D01*
X49896496Y-69465704D01*
X49921000Y-69464500D01*
X51171000Y-69464500D01*
X51195504Y-69465704D01*
X51195504Y-69465704D01*
G37*
D15*
G04 #@! TD*
G04 #@! TO.P,R5,2*
G04 #@! TO.N,GND*
X50546000Y-70177000D03*
D23*
G04 #@! TO.P,H1,1*
G04 #@! TO.N,GND*
X50800000Y-152400000D03*
G04 #@! TD*
G04 #@! TO.P,H2,1*
G04 #@! TO.N,GND*
X111760000Y-152400000D03*
G04 #@! TD*
G04 #@! TO.P,H3,1*
G04 #@! TO.N,GND*
X50800000Y-58420000D03*
G04 #@! TD*
G04 #@! TO.P,H4,1*
G04 #@! TO.N,GND*
X111760000Y-58420000D03*
G04 #@! TD*
D24*
G04 #@! TO.P,U4,1*
G04 #@! TO.N,GND*
X109220000Y-86360000D03*
D25*
G04 #@! TO.P,U4,2*
G04 #@! TO.N,+5V*
X111760000Y-86360000D03*
G04 #@! TO.P,U4,3*
G04 #@! TO.N,N/C*
X109220000Y-83820000D03*
G04 #@! TO.P,U4,4*
G04 #@! TO.N,/MICRO_D7*
X111760000Y-83820000D03*
G04 #@! TO.P,U4,5*
G04 #@! TO.N,/MICRO_D5*
X109220000Y-81280000D03*
G04 #@! TO.P,U4,6*
G04 #@! TO.N,/MICRO_D8*
X111760000Y-81280000D03*
G04 #@! TO.P,U4,7*
G04 #@! TO.N,N/C*
X109220000Y-78740000D03*
G04 #@! TO.P,U4,8*
X111760000Y-78740000D03*
G04 #@! TO.P,U4,9*
X109220000Y-76200000D03*
G04 #@! TO.P,U4,10*
X111760000Y-76200000D03*
G04 #@! TO.P,U4,11*
G04 #@! TO.N,/MICRO_D9*
X109220000Y-73660000D03*
G04 #@! TO.P,U4,12*
G04 #@! TO.N,/MICRO_D10*
X111760000Y-73660000D03*
G04 #@! TO.P,U4,13*
G04 #@! TO.N,/MICRO_D11*
X109220000Y-71120000D03*
G04 #@! TO.P,U4,14*
G04 #@! TO.N,/MICRO_D12*
X111760000Y-71120000D03*
G04 #@! TO.P,U4,15*
G04 #@! TO.N,N/C*
X109220000Y-68580000D03*
G04 #@! TO.P,U4,16*
X111760000Y-68580000D03*
G04 #@! TD*
D21*
G04 #@! TO.P,TP8,1*
G04 #@! TO.N,+5V*
X109855000Y-120650000D03*
G04 #@! TD*
D24*
G04 #@! TO.P,J3,1*
G04 #@! TO.N,/SDA*
X76200000Y-73025000D03*
D25*
G04 #@! TO.P,J3,2*
G04 #@! TO.N,/SCL*
X76200000Y-75565000D03*
G04 #@! TD*
G04 #@! TO.P,J4,2*
G04 #@! TO.N,GND*
X95250000Y-121285000D03*
D24*
G04 #@! TO.P,J4,1*
G04 #@! TO.N,+5V*
X92710000Y-121285000D03*
G04 #@! TD*
G04 #@! TO.P,J5,1*
G04 #@! TO.N,/MICRO_D4*
X76200000Y-87630000D03*
D25*
G04 #@! TO.P,J5,2*
G04 #@! TO.N,+5V*
X76200000Y-90170000D03*
G04 #@! TD*
G04 #@! TO.P,J6,2*
G04 #@! TO.N,+5V*
X101600000Y-90170000D03*
D24*
G04 #@! TO.P,J6,1*
G04 #@! TO.N,/MICRO_D6*
X101600000Y-87630000D03*
G04 #@! TD*
D26*
G04 #@! TO.P,S1,2*
G04 #@! TO.N,Net-(A1-Pad20)*
X66675000Y-59055000D03*
G04 #@! TO.P,S1,3*
G04 #@! TO.N,GND*
X67945000Y-59055000D03*
D27*
G04 #@! TO.P,S1,1*
G04 #@! TO.N,+5V*
X65405000Y-59055000D03*
G04 #@! TD*
D28*
G04 #@! TO.N,/SDA*
X55880000Y-75692000D03*
X68834000Y-75692000D03*
G04 #@! TO.N,/SCL*
X56388000Y-77724000D03*
X69342000Y-77724000D03*
G04 #@! TO.N,+5V*
X53009800Y-73279000D03*
X69977000Y-67564000D03*
X57277000Y-67564000D03*
G04 #@! TD*
D29*
G04 #@! TO.N,Net-(A1-Pad17)*
X76200000Y-63500000D02*
X81280000Y-63500000D01*
G04 #@! TO.N,/EFR_FREQ*
X85090000Y-72390000D02*
X81280000Y-68580000D01*
X67252000Y-134874000D02*
X67252000Y-136783188D01*
X76200000Y-138430000D02*
X78740000Y-135890000D01*
X67252000Y-136783188D02*
X68898812Y-138430000D01*
X68898812Y-138430000D02*
X76200000Y-138430000D01*
X85090000Y-72390000D02*
X85090000Y-96520000D01*
X85090000Y-96520000D02*
X78740000Y-102870000D01*
X78740000Y-102870000D02*
X78740000Y-117602000D01*
X78740000Y-135890000D02*
X78740000Y-117602000D01*
X78740000Y-117602000D02*
X78740000Y-116840000D01*
G04 #@! TO.N,GND*
X53670000Y-81106000D02*
X53670000Y-82626000D01*
X66370000Y-81106000D02*
X66370000Y-82626000D01*
G04 #@! TO.N,/SDA*
X55314315Y-75692000D02*
X55880000Y-75692000D01*
X54846000Y-75692000D02*
X55314315Y-75692000D01*
X53670000Y-76868000D02*
X54846000Y-75692000D01*
X53670000Y-77898000D02*
X53670000Y-76868000D01*
X68268315Y-75692000D02*
X68834000Y-75692000D01*
X67546000Y-75692000D02*
X68268315Y-75692000D01*
X66370000Y-76868000D02*
X67546000Y-75692000D01*
X66370000Y-77898000D02*
X66370000Y-76868000D01*
X77300000Y-73025000D02*
X78740000Y-74465000D01*
X76200000Y-73025000D02*
X77300000Y-73025000D01*
X78740000Y-74465000D02*
X78740000Y-77470000D01*
X80010000Y-78740000D02*
X78740000Y-77470000D01*
X81280000Y-78740000D02*
X80010000Y-78740000D01*
G04 #@! TO.N,/SCL*
X56214000Y-77898000D02*
X56388000Y-77724000D01*
X54320000Y-77898000D02*
X56214000Y-77898000D01*
X69168000Y-77898000D02*
X69342000Y-77724000D01*
X67020000Y-77898000D02*
X69168000Y-77898000D01*
X80010000Y-81280000D02*
X81280000Y-81280000D01*
X76200000Y-75565000D02*
X76200000Y-77470000D01*
X76200000Y-77470000D02*
X80010000Y-81280000D01*
G04 #@! TO.N,/MICRO_D7*
X96520000Y-73660000D02*
X97790000Y-73660000D01*
X97790000Y-73660000D02*
X106680000Y-82550000D01*
X110490000Y-82550000D02*
X111760000Y-83820000D01*
X106680000Y-82550000D02*
X110490000Y-82550000D01*
G04 #@! TO.N,/MICRO_D8*
X97651370Y-71120000D02*
X106541370Y-80010000D01*
X96520000Y-71120000D02*
X97651370Y-71120000D01*
X106541370Y-80010000D02*
X110490000Y-80010000D01*
X110490000Y-80010000D02*
X111760000Y-81280000D01*
G04 #@! TO.N,+5V*
X53010000Y-76868000D02*
X53010000Y-77898000D01*
X54651000Y-73152000D02*
X53010000Y-74793000D01*
X55626000Y-73152000D02*
X54651000Y-73152000D01*
X71882000Y-67564000D02*
X69977000Y-67564000D01*
X53010000Y-75692000D02*
X53010000Y-76868000D01*
X53010000Y-73844885D02*
X53010000Y-74980800D01*
X53009800Y-73844685D02*
X53010000Y-73844885D01*
X53009800Y-73279000D02*
X53009800Y-73844685D01*
X53010000Y-74793000D02*
X53010000Y-74980800D01*
X53010000Y-74980800D02*
X53010000Y-75692000D01*
X71882000Y-77978000D02*
X71882000Y-75946000D01*
X69262000Y-80598000D02*
X71882000Y-77978000D01*
X67020000Y-80598000D02*
X69262000Y-80598000D01*
X71882000Y-67564000D02*
X71882000Y-75946000D01*
X71882000Y-75946000D02*
X71882000Y-76186000D01*
X59182000Y-67564000D02*
X57277000Y-67564000D01*
X59182000Y-76186000D02*
X59182000Y-67564000D01*
X56562000Y-80598000D02*
X59182000Y-77978000D01*
X54320000Y-80598000D02*
X56562000Y-80598000D01*
X59182000Y-77978000D02*
X59182000Y-76186000D01*
X109855000Y-126873000D02*
X109728000Y-127000000D01*
X109855000Y-120650000D02*
X109855000Y-126873000D01*
G04 #@! TO.N,/MICRO_D9*
X102870000Y-73660000D02*
X109220000Y-73660000D01*
X96520000Y-68580000D02*
X97790000Y-68580000D01*
X97790000Y-68580000D02*
X102870000Y-73660000D01*
G04 #@! TO.N,/MICRO_D10*
X110490000Y-72390000D02*
X111760000Y-73660000D01*
X104140000Y-72390000D02*
X110490000Y-72390000D01*
X96520000Y-66040000D02*
X97790000Y-66040000D01*
X97790000Y-66040000D02*
X104140000Y-72390000D01*
G04 #@! TO.N,/MICRO_D11*
X96520000Y-63500000D02*
X97790000Y-63500000D01*
X105410000Y-71120000D02*
X109220000Y-71120000D01*
X97790000Y-63500000D02*
X105410000Y-71120000D01*
G04 #@! TO.N,Net-(A1-Pad30)*
X80405002Y-96520000D02*
X81280000Y-96520000D01*
X76200000Y-96520000D02*
X80405002Y-96520000D01*
G04 #@! TO.N,/MICRO_D12*
X97790000Y-60960000D02*
X106680000Y-69850000D01*
X96520000Y-60960000D02*
X97790000Y-60960000D01*
X106680000Y-69850000D02*
X110490000Y-69850000D01*
X110490000Y-69850000D02*
X111760000Y-71120000D01*
D30*
G04 #@! TO.N,/VCC_24V*
X91460000Y-114680000D02*
X91460000Y-114180000D01*
X59690000Y-152400000D02*
X50352500Y-143062500D01*
X69850000Y-152400000D02*
X59690000Y-152400000D01*
X72540000Y-147701000D02*
X72540000Y-149710000D01*
X72540000Y-149710000D02*
X69850000Y-152400000D01*
D31*
X50292000Y-83153500D02*
X50292000Y-86614000D01*
X52360000Y-80598000D02*
X50292000Y-83153500D01*
X65060000Y-80598000D02*
X62992000Y-83153500D01*
X62992000Y-83153500D02*
X62992000Y-86614000D01*
D30*
X50352500Y-143062500D02*
X49022000Y-141732000D01*
X49022000Y-141732000D02*
X49022000Y-99060000D01*
X49022000Y-90481500D02*
X49022000Y-93218000D01*
X50352500Y-89151000D02*
X49022000Y-90481500D01*
X50352500Y-87376000D02*
X50352500Y-89151000D01*
X49022000Y-99060000D02*
X49022000Y-93218000D01*
X49022000Y-93218000D02*
X49022000Y-92456000D01*
X72540000Y-144930000D02*
X72540000Y-147701000D01*
X71120000Y-143510000D02*
X72540000Y-144930000D01*
X55372000Y-143510000D02*
X71120000Y-143510000D01*
X52070000Y-140208000D02*
X55372000Y-143510000D01*
X60452000Y-104902000D02*
X52070000Y-113284000D01*
X60452000Y-89916000D02*
X60452000Y-104902000D01*
X62992000Y-87376000D02*
X60452000Y-89916000D01*
X52070000Y-113284000D02*
X52070000Y-140208000D01*
D29*
G04 #@! TO.N,/EFR_XTAL*
X59332000Y-128547000D02*
X58420000Y-127635000D01*
X59332000Y-134874000D02*
X59332000Y-128547000D01*
G04 #@! TO.N,/EFR_LAMP*
X63292000Y-128478000D02*
X64135000Y-127635000D01*
X63292000Y-134874000D02*
X63292000Y-128478000D01*
D30*
G04 #@! TO.N,/EFT_24V_SYS*
X71212000Y-132964812D02*
X71212000Y-134874000D01*
X71212000Y-109554000D02*
X71212000Y-132964812D01*
X64262000Y-102604000D02*
X71212000Y-109554000D01*
X64262000Y-100604000D02*
X64262000Y-102604000D01*
D31*
G04 #@! TO.N,/EFT_24V_HEAT*
X75184000Y-134862000D02*
X75172000Y-134874000D01*
D29*
G04 #@! TO.N,Net-(R1-Pad1)*
X65710000Y-76868000D02*
X65710000Y-77898000D01*
X65710000Y-74793000D02*
X65710000Y-76868000D01*
X67351000Y-73152000D02*
X65710000Y-74793000D01*
X68326000Y-73152000D02*
X67351000Y-73152000D01*
D31*
G04 #@! TO.N,Net-(R6-Pad2)*
X53010000Y-84058500D02*
X56327500Y-87376000D01*
X53010000Y-80598000D02*
X53010000Y-84058500D01*
D30*
X56327500Y-95129500D02*
X56762000Y-95564000D01*
X56327500Y-87376000D02*
X56327500Y-95129500D01*
D29*
G04 #@! TO.N,Net-(SW2-Pad14)*
X81026000Y-106680000D02*
X86420000Y-106680000D01*
G04 #@! TO.N,Net-(SW2-Pad11)*
X91460000Y-106680000D02*
X90210000Y-106680000D01*
X85130000Y-111760000D02*
X86614000Y-110276000D01*
X81026000Y-111760000D02*
X85130000Y-111760000D01*
X90210000Y-106680000D02*
X86614000Y-110276000D01*
X86614000Y-110276000D02*
X86400000Y-110490000D01*
G04 #@! TO.N,Net-(TP1-Pad1)*
X101600000Y-120650000D02*
X101600000Y-130810000D01*
X109728000Y-138938000D02*
X109728000Y-142240000D01*
X101600000Y-130810000D02*
X109728000Y-138938000D01*
G04 #@! TO.N,Net-(R2-Pad1)*
X64610000Y-77898000D02*
X65060000Y-77898000D01*
X63246000Y-76534000D02*
X64610000Y-77898000D01*
X63246000Y-73152000D02*
X63246000Y-76534000D01*
D31*
G04 #@! TO.N,Net-(R3-Pad2)*
X65710000Y-84119000D02*
X68967000Y-87376000D01*
X65710000Y-80598000D02*
X65710000Y-84119000D01*
D30*
X68967000Y-89151000D02*
X68967000Y-87376000D01*
X68967000Y-93359000D02*
X68967000Y-89151000D01*
X66762000Y-95564000D02*
X68967000Y-93359000D01*
X64262000Y-95564000D02*
X66762000Y-95564000D01*
D29*
G04 #@! TO.N,Net-(R5-Pad1)*
X51910000Y-77898000D02*
X52360000Y-77898000D01*
X50546000Y-76534000D02*
X51910000Y-77898000D01*
X50546000Y-73152000D02*
X50546000Y-76534000D01*
G04 #@! TO.N,/MICRO_D6*
X96520000Y-76200000D02*
X97790000Y-76200000D01*
X101600000Y-80010000D02*
X101600000Y-87630000D01*
X97790000Y-76200000D02*
X101600000Y-80010000D01*
G04 #@! TD*
D32*
G04 #@! TO.N,GND*
G36*
X109023506Y-54197510D02*
X108906139Y-54275932D01*
X108405290Y-54885684D01*
X111760000Y-58240395D01*
X111774142Y-58226252D01*
X111953748Y-58405858D01*
X111939605Y-58420000D01*
X115294316Y-61774710D01*
X115904068Y-61273861D01*
X116155000Y-60691307D01*
X116155001Y-150097088D01*
X115982490Y-149663506D01*
X115904068Y-149546139D01*
X115294316Y-149045290D01*
X111939605Y-152400000D01*
X111953748Y-152414142D01*
X111774142Y-152593748D01*
X111760000Y-152579605D01*
X108405290Y-155934316D01*
X108906139Y-156544068D01*
X109488693Y-156795000D01*
X53102914Y-156795000D01*
X53536494Y-156622490D01*
X53653861Y-156544068D01*
X54154710Y-155934316D01*
X50800000Y-152579605D01*
X50785858Y-152593748D01*
X50606252Y-152414142D01*
X50620395Y-152400000D01*
X50979605Y-152400000D01*
X54334316Y-155754710D01*
X54944068Y-155253861D01*
X55720745Y-153450758D01*
X55748283Y-151487686D01*
X55022490Y-149663506D01*
X54944068Y-149546139D01*
X54334316Y-149045290D01*
X50979605Y-152400000D01*
X50620395Y-152400000D01*
X47265684Y-149045290D01*
X46655932Y-149546139D01*
X46405000Y-150128693D01*
X46405000Y-148865684D01*
X47445290Y-148865684D01*
X50800000Y-152220395D01*
X54154710Y-148865684D01*
X53653861Y-148255932D01*
X51850758Y-147479255D01*
X49887686Y-147451717D01*
X48063506Y-148177510D01*
X47946139Y-148255932D01*
X47445290Y-148865684D01*
X46405000Y-148865684D01*
X46405000Y-90481500D01*
X47864765Y-90481500D01*
X47887000Y-90593283D01*
X47887001Y-92344214D01*
X47887000Y-92344217D01*
X47887000Y-93329782D01*
X47887001Y-93329787D01*
X47887000Y-99171782D01*
X47887001Y-99171787D01*
X47887000Y-141620217D01*
X47864765Y-141732000D01*
X47952854Y-142174854D01*
X48203711Y-142550289D01*
X48298482Y-142613613D01*
X49628976Y-143944108D01*
X49628979Y-143944110D01*
X58808389Y-153123521D01*
X58871711Y-153218289D01*
X59247145Y-153469146D01*
X59689999Y-153557235D01*
X59801782Y-153535000D01*
X69738217Y-153535000D01*
X69850000Y-153557235D01*
X69961783Y-153535000D01*
X70292855Y-153469146D01*
X70527570Y-153312314D01*
X106811717Y-153312314D01*
X107537510Y-155136494D01*
X107615932Y-155253861D01*
X108225684Y-155754710D01*
X111580395Y-152400000D01*
X108225684Y-149045290D01*
X107615932Y-149546139D01*
X106839255Y-151349242D01*
X106811717Y-153312314D01*
X70527570Y-153312314D01*
X70668289Y-153218289D01*
X70731613Y-153123518D01*
X73263524Y-150591609D01*
X73358289Y-150528289D01*
X73609146Y-150152855D01*
X73675000Y-149821783D01*
X73697235Y-149710001D01*
X73675000Y-149598219D01*
X73675000Y-149373213D01*
X74182529Y-148865684D01*
X108405290Y-148865684D01*
X111760000Y-152220395D01*
X115114710Y-148865684D01*
X114613861Y-148255932D01*
X112810758Y-147479255D01*
X110847686Y-147451717D01*
X109023506Y-148177510D01*
X108906139Y-148255932D01*
X108405290Y-148865684D01*
X74182529Y-148865684D01*
X74222801Y-148825412D01*
X74525000Y-148095841D01*
X74525000Y-147306159D01*
X74222801Y-146576588D01*
X73675000Y-146028787D01*
X73675000Y-145041781D01*
X73697235Y-144929999D01*
X73675000Y-144818217D01*
X73609146Y-144487145D01*
X73358289Y-144111711D01*
X73263521Y-144048389D01*
X72001613Y-142786482D01*
X71938289Y-142691711D01*
X71562855Y-142440854D01*
X71231783Y-142375000D01*
X71120000Y-142352765D01*
X71008217Y-142375000D01*
X55842132Y-142375000D01*
X55070726Y-141603594D01*
X85483000Y-141603594D01*
X85483000Y-142876407D01*
X85563359Y-143280400D01*
X85869472Y-143738529D01*
X86327601Y-144044641D01*
X86868000Y-144152133D01*
X87408400Y-144044641D01*
X87866529Y-143738529D01*
X88138000Y-143332244D01*
X88409472Y-143738529D01*
X88867601Y-144044641D01*
X89408000Y-144152133D01*
X89948400Y-144044641D01*
X90406529Y-143738529D01*
X90712641Y-143280400D01*
X90793000Y-142876407D01*
X90793000Y-142367000D01*
X103263000Y-142367000D01*
X103263000Y-142867000D01*
X103417028Y-143387349D01*
X103758460Y-143809145D01*
X104235316Y-144068173D01*
X104306815Y-144082318D01*
X104521000Y-143959656D01*
X104521000Y-142367000D01*
X104775000Y-142367000D01*
X104775000Y-143959656D01*
X104989185Y-144082318D01*
X105060684Y-144068173D01*
X105537540Y-143809145D01*
X105878972Y-143387349D01*
X106033000Y-142867000D01*
X106033000Y-142367000D01*
X104775000Y-142367000D01*
X104521000Y-142367000D01*
X103263000Y-142367000D01*
X90793000Y-142367000D01*
X90793000Y-141613000D01*
X103263000Y-141613000D01*
X103263000Y-142113000D01*
X104521000Y-142113000D01*
X104521000Y-140520344D01*
X104775000Y-140520344D01*
X104775000Y-142113000D01*
X106033000Y-142113000D01*
X106033000Y-141613000D01*
X105878972Y-141092651D01*
X105537540Y-140670855D01*
X105060684Y-140411827D01*
X104989185Y-140397682D01*
X104775000Y-140520344D01*
X104521000Y-140520344D01*
X104306815Y-140397682D01*
X104235316Y-140411827D01*
X103758460Y-140670855D01*
X103417028Y-141092651D01*
X103263000Y-141613000D01*
X90793000Y-141613000D01*
X90793000Y-141603593D01*
X90712641Y-141199600D01*
X90406528Y-140741471D01*
X89948399Y-140435359D01*
X89408000Y-140327867D01*
X88867600Y-140435359D01*
X88409471Y-140741472D01*
X88138000Y-141147757D01*
X87866528Y-140741471D01*
X87408399Y-140435359D01*
X86868000Y-140327867D01*
X86327600Y-140435359D01*
X85869471Y-140741472D01*
X85563359Y-141199601D01*
X85483000Y-141603594D01*
X55070726Y-141603594D01*
X53205000Y-139737869D01*
X53205000Y-133774001D01*
X53374560Y-133774001D01*
X53374560Y-135973999D01*
X53442874Y-136317435D01*
X53637414Y-136608586D01*
X53928565Y-136803126D01*
X54272001Y-136871440D01*
X56471999Y-136871440D01*
X56815435Y-136803126D01*
X57106586Y-136608586D01*
X57301126Y-136317435D01*
X57369440Y-135973999D01*
X57369440Y-135323016D01*
X57649199Y-135998412D01*
X58207588Y-136556801D01*
X58937159Y-136859000D01*
X59726841Y-136859000D01*
X60456412Y-136556801D01*
X61014801Y-135998412D01*
X61312000Y-135280912D01*
X61609199Y-135998412D01*
X62167588Y-136556801D01*
X62897159Y-136859000D01*
X63686841Y-136859000D01*
X64416412Y-136556801D01*
X64974801Y-135998412D01*
X65272000Y-135280912D01*
X65569199Y-135998412D01*
X66127588Y-136556801D01*
X66492001Y-136707746D01*
X66492001Y-136708336D01*
X66477112Y-136783188D01*
X66492001Y-136858040D01*
X66536097Y-137079725D01*
X66704072Y-137331117D01*
X66767528Y-137373517D01*
X68308483Y-138914473D01*
X68350883Y-138977929D01*
X68602275Y-139145904D01*
X68823960Y-139190000D01*
X68823965Y-139190000D01*
X68898812Y-139204888D01*
X68973659Y-139190000D01*
X76125153Y-139190000D01*
X76200000Y-139204888D01*
X76274847Y-139190000D01*
X76274852Y-139190000D01*
X76496537Y-139145904D01*
X76747929Y-138977929D01*
X76790331Y-138914470D01*
X79224476Y-136480327D01*
X79287929Y-136437929D01*
X79330327Y-136374476D01*
X79330329Y-136374474D01*
X79423349Y-136235259D01*
X79455904Y-136186537D01*
X79500000Y-135964852D01*
X79500000Y-135964848D01*
X79514888Y-135890001D01*
X79500000Y-135815154D01*
X79500000Y-126363594D01*
X85483000Y-126363594D01*
X85483000Y-127636407D01*
X85563359Y-128040400D01*
X85869472Y-128498529D01*
X86327601Y-128804641D01*
X86868000Y-128912133D01*
X87408400Y-128804641D01*
X87866529Y-128498529D01*
X88138000Y-128092244D01*
X88409472Y-128498529D01*
X88867601Y-128804641D01*
X89408000Y-128912133D01*
X89948400Y-128804641D01*
X90406529Y-128498529D01*
X90712641Y-128040400D01*
X90793000Y-127636407D01*
X90793000Y-126363593D01*
X90712641Y-125959600D01*
X90406528Y-125501471D01*
X89948399Y-125195359D01*
X89408000Y-125087867D01*
X88867600Y-125195359D01*
X88409471Y-125501472D01*
X88138000Y-125907757D01*
X87866528Y-125501471D01*
X87408399Y-125195359D01*
X86868000Y-125087867D01*
X86327600Y-125195359D01*
X85869471Y-125501472D01*
X85563359Y-125959601D01*
X85483000Y-126363594D01*
X79500000Y-126363594D01*
X79500000Y-120435000D01*
X91212560Y-120435000D01*
X91212560Y-122135000D01*
X91261843Y-122382765D01*
X91402191Y-122592809D01*
X91612235Y-122733157D01*
X91860000Y-122782440D01*
X93560000Y-122782440D01*
X93807765Y-122733157D01*
X94017809Y-122592809D01*
X94158157Y-122382765D01*
X94178739Y-122279292D01*
X94483076Y-122556645D01*
X94893110Y-122726476D01*
X95123000Y-122605155D01*
X95123000Y-121412000D01*
X95377000Y-121412000D01*
X95377000Y-122605155D01*
X95606890Y-122726476D01*
X96016924Y-122556645D01*
X96445183Y-122166358D01*
X96691486Y-121641892D01*
X96570819Y-121412000D01*
X95377000Y-121412000D01*
X95123000Y-121412000D01*
X95103000Y-121412000D01*
X95103000Y-121158000D01*
X95123000Y-121158000D01*
X95123000Y-119964845D01*
X95377000Y-119964845D01*
X95377000Y-121158000D01*
X96570819Y-121158000D01*
X96691486Y-120928108D01*
X96445183Y-120403642D01*
X96413213Y-120374506D01*
X100215000Y-120374506D01*
X100215000Y-120925494D01*
X100425853Y-121434540D01*
X100815460Y-121824147D01*
X100840000Y-121834312D01*
X100840001Y-130735148D01*
X100825112Y-130810000D01*
X100840001Y-130884852D01*
X100884097Y-131106537D01*
X101052072Y-131357929D01*
X101115528Y-131400329D01*
X108968000Y-139252802D01*
X108968000Y-140582091D01*
X108729471Y-140741472D01*
X108423359Y-141199601D01*
X108343000Y-141603594D01*
X108343000Y-142876407D01*
X108423359Y-143280400D01*
X108729472Y-143738529D01*
X109187601Y-144044641D01*
X109728000Y-144152133D01*
X110268400Y-144044641D01*
X110726529Y-143738529D01*
X111032641Y-143280400D01*
X111113000Y-142876407D01*
X111113000Y-141603593D01*
X111032641Y-141199600D01*
X110726528Y-140741471D01*
X110488000Y-140582092D01*
X110488000Y-139012848D01*
X110502888Y-138938000D01*
X110488000Y-138863152D01*
X110488000Y-138863148D01*
X110443904Y-138641463D01*
X110443904Y-138641462D01*
X110318329Y-138453527D01*
X110275929Y-138390071D01*
X110212473Y-138347671D01*
X102360000Y-130495199D01*
X102360000Y-127127000D01*
X103263000Y-127127000D01*
X103263000Y-127627000D01*
X103417028Y-128147349D01*
X103758460Y-128569145D01*
X104235316Y-128828173D01*
X104306815Y-128842318D01*
X104521000Y-128719656D01*
X104521000Y-127127000D01*
X104775000Y-127127000D01*
X104775000Y-128719656D01*
X104989185Y-128842318D01*
X105060684Y-128828173D01*
X105537540Y-128569145D01*
X105878972Y-128147349D01*
X106033000Y-127627000D01*
X106033000Y-127127000D01*
X104775000Y-127127000D01*
X104521000Y-127127000D01*
X103263000Y-127127000D01*
X102360000Y-127127000D01*
X102360000Y-126373000D01*
X103263000Y-126373000D01*
X103263000Y-126873000D01*
X104521000Y-126873000D01*
X104521000Y-125280344D01*
X104775000Y-125280344D01*
X104775000Y-126873000D01*
X106033000Y-126873000D01*
X106033000Y-126373000D01*
X106030216Y-126363594D01*
X108343000Y-126363594D01*
X108343000Y-127636407D01*
X108423359Y-128040400D01*
X108729472Y-128498529D01*
X109187601Y-128804641D01*
X109728000Y-128912133D01*
X110268400Y-128804641D01*
X110726529Y-128498529D01*
X111032641Y-128040400D01*
X111113000Y-127636407D01*
X111113000Y-126363593D01*
X111032641Y-125959600D01*
X110726528Y-125501471D01*
X110615000Y-125426950D01*
X110615000Y-121834312D01*
X110639540Y-121824147D01*
X111029147Y-121434540D01*
X111240000Y-120925494D01*
X111240000Y-120374506D01*
X111029147Y-119865460D01*
X110639540Y-119475853D01*
X110130494Y-119265000D01*
X109579506Y-119265000D01*
X109070460Y-119475853D01*
X108680853Y-119865460D01*
X108470000Y-120374506D01*
X108470000Y-120925494D01*
X108680853Y-121434540D01*
X109070460Y-121824147D01*
X109095000Y-121834312D01*
X109095001Y-125257232D01*
X108729471Y-125501472D01*
X108423359Y-125959601D01*
X108343000Y-126363594D01*
X106030216Y-126363594D01*
X105878972Y-125852651D01*
X105537540Y-125430855D01*
X105060684Y-125171827D01*
X104989185Y-125157682D01*
X104775000Y-125280344D01*
X104521000Y-125280344D01*
X104306815Y-125157682D01*
X104235316Y-125171827D01*
X103758460Y-125430855D01*
X103417028Y-125852651D01*
X103263000Y-126373000D01*
X102360000Y-126373000D01*
X102360000Y-121834312D01*
X102384540Y-121824147D01*
X102774147Y-121434540D01*
X102985000Y-120925494D01*
X102985000Y-120374506D01*
X102774147Y-119865460D01*
X102384540Y-119475853D01*
X101875494Y-119265000D01*
X101324506Y-119265000D01*
X100815460Y-119475853D01*
X100425853Y-119865460D01*
X100215000Y-120374506D01*
X96413213Y-120374506D01*
X96016924Y-120013355D01*
X95606890Y-119843524D01*
X95377000Y-119964845D01*
X95123000Y-119964845D01*
X94893110Y-119843524D01*
X94483076Y-120013355D01*
X94178739Y-120290708D01*
X94158157Y-120187235D01*
X94017809Y-119977191D01*
X93807765Y-119836843D01*
X93560000Y-119787560D01*
X91860000Y-119787560D01*
X91612235Y-119836843D01*
X91402191Y-119977191D01*
X91261843Y-120187235D01*
X91212560Y-120435000D01*
X79500000Y-120435000D01*
X79500000Y-106404506D01*
X79641000Y-106404506D01*
X79641000Y-106955494D01*
X79851853Y-107464540D01*
X80241460Y-107854147D01*
X80750506Y-108065000D01*
X81301494Y-108065000D01*
X81810540Y-107854147D01*
X82200147Y-107464540D01*
X82210312Y-107440000D01*
X84804686Y-107440000D01*
X84879864Y-107817945D01*
X85241232Y-108358769D01*
X85782056Y-108720136D01*
X86420000Y-108847031D01*
X87057945Y-108720136D01*
X87169805Y-108645393D01*
X86129530Y-109685669D01*
X86129527Y-109685671D01*
X84815199Y-111000000D01*
X82210312Y-111000000D01*
X82200147Y-110975460D01*
X81810540Y-110585853D01*
X81301494Y-110375000D01*
X80750506Y-110375000D01*
X80241460Y-110585853D01*
X79851853Y-110975460D01*
X79641000Y-111484506D01*
X79641000Y-112035494D01*
X79851853Y-112544540D01*
X80241460Y-112934147D01*
X80750506Y-113145000D01*
X81301494Y-113145000D01*
X81810540Y-112934147D01*
X82200147Y-112544540D01*
X82210312Y-112520000D01*
X85055153Y-112520000D01*
X85130000Y-112534888D01*
X85204847Y-112520000D01*
X85204852Y-112520000D01*
X85232344Y-112514532D01*
X84879864Y-113042056D01*
X84785000Y-113518970D01*
X84785000Y-114841031D01*
X84879864Y-115317945D01*
X85241232Y-115858769D01*
X85782056Y-116220136D01*
X86420000Y-116347031D01*
X87057945Y-116220136D01*
X87598769Y-115858769D01*
X87960136Y-115317945D01*
X88055000Y-114841031D01*
X88055000Y-113518970D01*
X89825000Y-113518970D01*
X89825000Y-114841031D01*
X89919864Y-115317945D01*
X90281232Y-115858769D01*
X90822056Y-116220136D01*
X91460000Y-116347031D01*
X92097945Y-116220136D01*
X92638769Y-115858769D01*
X93000136Y-115317945D01*
X93095000Y-114841031D01*
X93095000Y-114560434D01*
X109669876Y-114560434D01*
X109700856Y-114688355D01*
X110014078Y-115246317D01*
X110516980Y-115641942D01*
X111133000Y-115815000D01*
X111633000Y-115815000D01*
X111633000Y-114307000D01*
X111887000Y-114307000D01*
X111887000Y-115815000D01*
X112387000Y-115815000D01*
X113003020Y-115641942D01*
X113505922Y-115246317D01*
X113819144Y-114688355D01*
X113850124Y-114560434D01*
X113730777Y-114307000D01*
X111887000Y-114307000D01*
X111633000Y-114307000D01*
X109789223Y-114307000D01*
X109669876Y-114560434D01*
X93095000Y-114560434D01*
X93095000Y-113799566D01*
X109669876Y-113799566D01*
X109789223Y-114053000D01*
X111633000Y-114053000D01*
X111633000Y-112545000D01*
X111887000Y-112545000D01*
X111887000Y-114053000D01*
X113730777Y-114053000D01*
X113850124Y-113799566D01*
X113819144Y-113671645D01*
X113505922Y-113113683D01*
X113003020Y-112718058D01*
X112387000Y-112545000D01*
X111887000Y-112545000D01*
X111633000Y-112545000D01*
X111133000Y-112545000D01*
X110516980Y-112718058D01*
X110014078Y-113113683D01*
X109700856Y-113671645D01*
X109669876Y-113799566D01*
X93095000Y-113799566D01*
X93095000Y-113518969D01*
X93000136Y-113042055D01*
X92638769Y-112501231D01*
X92097944Y-112139864D01*
X91460000Y-112012969D01*
X90822055Y-112139864D01*
X90281231Y-112501231D01*
X89919864Y-113042056D01*
X89825000Y-113518970D01*
X88055000Y-113518970D01*
X88055000Y-113518969D01*
X87960136Y-113042055D01*
X87598769Y-112501231D01*
X87057944Y-112139864D01*
X86420000Y-112012969D01*
X85835585Y-112129216D01*
X87204329Y-110760473D01*
X87204331Y-110760470D01*
X90010785Y-107954017D01*
X90281232Y-108358769D01*
X90822056Y-108720136D01*
X91460000Y-108847031D01*
X92097945Y-108720136D01*
X92638769Y-108358769D01*
X93000136Y-107817945D01*
X93095000Y-107341031D01*
X93095000Y-106018969D01*
X93027575Y-105680000D01*
X109612560Y-105680000D01*
X109612560Y-107680000D01*
X109661843Y-107927765D01*
X109802191Y-108137809D01*
X110012235Y-108278157D01*
X110260000Y-108327440D01*
X113260000Y-108327440D01*
X113507765Y-108278157D01*
X113717809Y-108137809D01*
X113858157Y-107927765D01*
X113907440Y-107680000D01*
X113907440Y-105680000D01*
X113858157Y-105432235D01*
X113717809Y-105222191D01*
X113507765Y-105081843D01*
X113260000Y-105032560D01*
X110260000Y-105032560D01*
X110012235Y-105081843D01*
X109802191Y-105222191D01*
X109661843Y-105432235D01*
X109612560Y-105680000D01*
X93027575Y-105680000D01*
X93000136Y-105542055D01*
X92638769Y-105001231D01*
X92097944Y-104639864D01*
X91460000Y-104512969D01*
X90822055Y-104639864D01*
X90281231Y-105001231D01*
X89919864Y-105542056D01*
X89825000Y-106018970D01*
X89825000Y-106023205D01*
X89662071Y-106132071D01*
X89619671Y-106195527D01*
X87885394Y-107929805D01*
X87960136Y-107817945D01*
X88055000Y-107341031D01*
X88055000Y-106018969D01*
X87960136Y-105542055D01*
X87598769Y-105001231D01*
X87057944Y-104639864D01*
X86420000Y-104512969D01*
X85782055Y-104639864D01*
X85241231Y-105001231D01*
X84879864Y-105542056D01*
X84804686Y-105920000D01*
X82210312Y-105920000D01*
X82200147Y-105895460D01*
X81810540Y-105505853D01*
X81301494Y-105295000D01*
X80750506Y-105295000D01*
X80241460Y-105505853D01*
X79851853Y-105895460D01*
X79641000Y-106404506D01*
X79500000Y-106404506D01*
X79500000Y-103184801D01*
X85574473Y-97110329D01*
X85637929Y-97067929D01*
X85805904Y-96816537D01*
X85850000Y-96594852D01*
X85850000Y-96594848D01*
X85864888Y-96520001D01*
X85850000Y-96445154D01*
X85850000Y-91440000D01*
X95056887Y-91440000D01*
X95168260Y-91999909D01*
X95485423Y-92474577D01*
X95837758Y-92710000D01*
X95485423Y-92945423D01*
X95168260Y-93420091D01*
X95056887Y-93980000D01*
X95168260Y-94539909D01*
X95485423Y-95014577D01*
X95606106Y-95095215D01*
X95472235Y-95121843D01*
X95262191Y-95262191D01*
X95121843Y-95472235D01*
X95072560Y-95720000D01*
X95072560Y-97320000D01*
X95121843Y-97567765D01*
X95262191Y-97777809D01*
X95472235Y-97918157D01*
X95720000Y-97967440D01*
X97320000Y-97967440D01*
X97567765Y-97918157D01*
X97777809Y-97777809D01*
X97918157Y-97567765D01*
X97967440Y-97320000D01*
X97967440Y-95720000D01*
X97918157Y-95472235D01*
X97883256Y-95420001D01*
X107222560Y-95420001D01*
X107222560Y-97619999D01*
X107290874Y-97963435D01*
X107485414Y-98254586D01*
X107776565Y-98449126D01*
X108120001Y-98517440D01*
X110319999Y-98517440D01*
X110663435Y-98449126D01*
X110954586Y-98254586D01*
X111149126Y-97963435D01*
X111217440Y-97619999D01*
X111217440Y-95420001D01*
X111149126Y-95076565D01*
X110954586Y-94785414D01*
X110663435Y-94590874D01*
X110319999Y-94522560D01*
X109691847Y-94522560D01*
X110304522Y-94268782D01*
X110445988Y-93965593D01*
X109220000Y-92739605D01*
X107994012Y-93965593D01*
X108135478Y-94268782D01*
X108791377Y-94522560D01*
X108120001Y-94522560D01*
X107776565Y-94590874D01*
X107485414Y-94785414D01*
X107290874Y-95076565D01*
X107222560Y-95420001D01*
X97883256Y-95420001D01*
X97777809Y-95262191D01*
X97567765Y-95121843D01*
X97433894Y-95095215D01*
X97554577Y-95014577D01*
X97871740Y-94539909D01*
X97983113Y-93980000D01*
X97871740Y-93420091D01*
X97554577Y-92945423D01*
X97202242Y-92710000D01*
X97554577Y-92474577D01*
X97730055Y-92211955D01*
X107226263Y-92211955D01*
X107244836Y-93001418D01*
X107511218Y-93644522D01*
X107814407Y-93785988D01*
X109040395Y-92560000D01*
X109399605Y-92560000D01*
X110625593Y-93785988D01*
X110928782Y-93644522D01*
X111213737Y-92908045D01*
X111195164Y-92118582D01*
X110928782Y-91475478D01*
X110625593Y-91334012D01*
X109399605Y-92560000D01*
X109040395Y-92560000D01*
X107814407Y-91334012D01*
X107511218Y-91475478D01*
X107226263Y-92211955D01*
X97730055Y-92211955D01*
X97871740Y-91999909D01*
X97983113Y-91440000D01*
X97871740Y-90880091D01*
X97554577Y-90405423D01*
X97170892Y-90149053D01*
X97375134Y-90052389D01*
X97751041Y-89637423D01*
X97911904Y-89249039D01*
X97789915Y-89027000D01*
X96647000Y-89027000D01*
X96647000Y-89047000D01*
X96393000Y-89047000D01*
X96393000Y-89027000D01*
X95250085Y-89027000D01*
X95128096Y-89249039D01*
X95288959Y-89637423D01*
X95664866Y-90052389D01*
X95869108Y-90149053D01*
X95485423Y-90405423D01*
X95168260Y-90880091D01*
X95056887Y-91440000D01*
X85850000Y-91440000D01*
X85850000Y-72464848D01*
X85864888Y-72390000D01*
X85850000Y-72315152D01*
X85850000Y-72315148D01*
X85805904Y-72093463D01*
X85805904Y-72093462D01*
X85680329Y-71905527D01*
X85637929Y-71842071D01*
X85574473Y-71799671D01*
X82678688Y-68903887D01*
X82743113Y-68580000D01*
X82631740Y-68020091D01*
X82314577Y-67545423D01*
X81962242Y-67310000D01*
X82314577Y-67074577D01*
X82631740Y-66599909D01*
X82743113Y-66040000D01*
X82631740Y-65480091D01*
X82314577Y-65005423D01*
X81962242Y-64770000D01*
X82314577Y-64534577D01*
X82631740Y-64059909D01*
X82743113Y-63500000D01*
X82631740Y-62940091D01*
X82314577Y-62465423D01*
X81962242Y-62230000D01*
X82314577Y-61994577D01*
X82631740Y-61519909D01*
X82743113Y-60960000D01*
X95056887Y-60960000D01*
X95168260Y-61519909D01*
X95485423Y-61994577D01*
X95837758Y-62230000D01*
X95485423Y-62465423D01*
X95168260Y-62940091D01*
X95056887Y-63500000D01*
X95168260Y-64059909D01*
X95485423Y-64534577D01*
X95837758Y-64770000D01*
X95485423Y-65005423D01*
X95168260Y-65480091D01*
X95056887Y-66040000D01*
X95168260Y-66599909D01*
X95485423Y-67074577D01*
X95837758Y-67310000D01*
X95485423Y-67545423D01*
X95168260Y-68020091D01*
X95056887Y-68580000D01*
X95168260Y-69139909D01*
X95485423Y-69614577D01*
X95837758Y-69850000D01*
X95485423Y-70085423D01*
X95168260Y-70560091D01*
X95056887Y-71120000D01*
X95168260Y-71679909D01*
X95485423Y-72154577D01*
X95837758Y-72390000D01*
X95485423Y-72625423D01*
X95168260Y-73100091D01*
X95056887Y-73660000D01*
X95168260Y-74219909D01*
X95485423Y-74694577D01*
X95837758Y-74930000D01*
X95485423Y-75165423D01*
X95168260Y-75640091D01*
X95056887Y-76200000D01*
X95168260Y-76759909D01*
X95485423Y-77234577D01*
X95837758Y-77470000D01*
X95485423Y-77705423D01*
X95168260Y-78180091D01*
X95056887Y-78740000D01*
X95168260Y-79299909D01*
X95485423Y-79774577D01*
X95837758Y-80010000D01*
X95485423Y-80245423D01*
X95168260Y-80720091D01*
X95056887Y-81280000D01*
X95168260Y-81839909D01*
X95485423Y-82314577D01*
X95837758Y-82550000D01*
X95485423Y-82785423D01*
X95168260Y-83260091D01*
X95056887Y-83820000D01*
X95168260Y-84379909D01*
X95485423Y-84854577D01*
X95837758Y-85090000D01*
X95485423Y-85325423D01*
X95168260Y-85800091D01*
X95056887Y-86360000D01*
X95168260Y-86919909D01*
X95485423Y-87394577D01*
X95869108Y-87650947D01*
X95664866Y-87747611D01*
X95288959Y-88162577D01*
X95128096Y-88550961D01*
X95250085Y-88773000D01*
X96393000Y-88773000D01*
X96393000Y-88753000D01*
X96647000Y-88753000D01*
X96647000Y-88773000D01*
X97789915Y-88773000D01*
X97911904Y-88550961D01*
X97751041Y-88162577D01*
X97375134Y-87747611D01*
X97170892Y-87650947D01*
X97554577Y-87394577D01*
X97871740Y-86919909D01*
X97983113Y-86360000D01*
X97871740Y-85800091D01*
X97554577Y-85325423D01*
X97202242Y-85090000D01*
X97554577Y-84854577D01*
X97871740Y-84379909D01*
X97983113Y-83820000D01*
X97871740Y-83260091D01*
X97554577Y-82785423D01*
X97202242Y-82550000D01*
X97554577Y-82314577D01*
X97871740Y-81839909D01*
X97983113Y-81280000D01*
X97871740Y-80720091D01*
X97554577Y-80245423D01*
X97202242Y-80010000D01*
X97554577Y-79774577D01*
X97871740Y-79299909D01*
X97983113Y-78740000D01*
X97871740Y-78180091D01*
X97554577Y-77705423D01*
X97202242Y-77470000D01*
X97554577Y-77234577D01*
X97632763Y-77117564D01*
X100840000Y-80324802D01*
X100840001Y-86132560D01*
X100750000Y-86132560D01*
X100502235Y-86181843D01*
X100292191Y-86322191D01*
X100151843Y-86532235D01*
X100102560Y-86780000D01*
X100102560Y-88480000D01*
X100151843Y-88727765D01*
X100292191Y-88937809D01*
X100502235Y-89078157D01*
X100547619Y-89087184D01*
X100529375Y-89099375D01*
X100201161Y-89590582D01*
X100085908Y-90170000D01*
X100201161Y-90749418D01*
X100529375Y-91240625D01*
X101020582Y-91568839D01*
X101453744Y-91655000D01*
X101746256Y-91655000D01*
X102179418Y-91568839D01*
X102670625Y-91240625D01*
X102728234Y-91154407D01*
X107994012Y-91154407D01*
X109220000Y-92380395D01*
X110445988Y-91154407D01*
X110304522Y-90851218D01*
X109568045Y-90566263D01*
X108778582Y-90584836D01*
X108135478Y-90851218D01*
X107994012Y-91154407D01*
X102728234Y-91154407D01*
X102998839Y-90749418D01*
X103114092Y-90170000D01*
X102998839Y-89590582D01*
X102670625Y-89099375D01*
X102652381Y-89087184D01*
X102697765Y-89078157D01*
X102907809Y-88937809D01*
X103048157Y-88727765D01*
X103097440Y-88480000D01*
X103097440Y-86780000D01*
X103070737Y-86645750D01*
X107735000Y-86645750D01*
X107735000Y-87336310D01*
X107831673Y-87569699D01*
X108010302Y-87748327D01*
X108243691Y-87845000D01*
X108934250Y-87845000D01*
X109093000Y-87686250D01*
X109093000Y-86487000D01*
X107893750Y-86487000D01*
X107735000Y-86645750D01*
X103070737Y-86645750D01*
X103048157Y-86532235D01*
X102907809Y-86322191D01*
X102697765Y-86181843D01*
X102450000Y-86132560D01*
X102360000Y-86132560D01*
X102360000Y-80084848D01*
X102374888Y-80010000D01*
X102360000Y-79935152D01*
X102360000Y-79935148D01*
X102315904Y-79713463D01*
X102315904Y-79713462D01*
X102190329Y-79525527D01*
X102147929Y-79462071D01*
X102084473Y-79419671D01*
X98380331Y-75715530D01*
X98337929Y-75652071D01*
X98086537Y-75484096D01*
X97864852Y-75440000D01*
X97864847Y-75440000D01*
X97790000Y-75425112D01*
X97735358Y-75435981D01*
X97554577Y-75165423D01*
X97202242Y-74930000D01*
X97554577Y-74694577D01*
X97632763Y-74577564D01*
X106089670Y-83034472D01*
X106132071Y-83097929D01*
X106383463Y-83265904D01*
X106605148Y-83310000D01*
X106605152Y-83310000D01*
X106680000Y-83324888D01*
X106754848Y-83310000D01*
X107807353Y-83310000D01*
X107705908Y-83820000D01*
X107821161Y-84399418D01*
X108149375Y-84890625D01*
X108171033Y-84905096D01*
X108010302Y-84971673D01*
X107831673Y-85150301D01*
X107735000Y-85383690D01*
X107735000Y-86074250D01*
X107893750Y-86233000D01*
X109093000Y-86233000D01*
X109093000Y-86213000D01*
X109347000Y-86213000D01*
X109347000Y-86233000D01*
X109367000Y-86233000D01*
X109367000Y-86487000D01*
X109347000Y-86487000D01*
X109347000Y-87686250D01*
X109505750Y-87845000D01*
X110196309Y-87845000D01*
X110429698Y-87748327D01*
X110608327Y-87569699D01*
X110674904Y-87408968D01*
X110689375Y-87430625D01*
X111180582Y-87758839D01*
X111613744Y-87845000D01*
X111906256Y-87845000D01*
X112339418Y-87758839D01*
X112830625Y-87430625D01*
X113158839Y-86939418D01*
X113274092Y-86360000D01*
X113158839Y-85780582D01*
X112830625Y-85289375D01*
X112532239Y-85090000D01*
X112830625Y-84890625D01*
X113158839Y-84399418D01*
X113274092Y-83820000D01*
X113158839Y-83240582D01*
X112830625Y-82749375D01*
X112532239Y-82550000D01*
X112830625Y-82350625D01*
X113158839Y-81859418D01*
X113274092Y-81280000D01*
X113158839Y-80700582D01*
X112830625Y-80209375D01*
X112532239Y-80010000D01*
X112830625Y-79810625D01*
X113158839Y-79319418D01*
X113274092Y-78740000D01*
X113158839Y-78160582D01*
X112830625Y-77669375D01*
X112532239Y-77470000D01*
X112830625Y-77270625D01*
X113158839Y-76779418D01*
X113274092Y-76200000D01*
X113158839Y-75620582D01*
X112830625Y-75129375D01*
X112532239Y-74930000D01*
X112830625Y-74730625D01*
X113158839Y-74239418D01*
X113274092Y-73660000D01*
X113158839Y-73080582D01*
X112830625Y-72589375D01*
X112532239Y-72390000D01*
X112830625Y-72190625D01*
X113158839Y-71699418D01*
X113274092Y-71120000D01*
X113158839Y-70540582D01*
X112830625Y-70049375D01*
X112532239Y-69850000D01*
X112830625Y-69650625D01*
X113158839Y-69159418D01*
X113274092Y-68580000D01*
X113158839Y-68000582D01*
X112830625Y-67509375D01*
X112339418Y-67181161D01*
X111906256Y-67095000D01*
X111613744Y-67095000D01*
X111180582Y-67181161D01*
X110689375Y-67509375D01*
X110490000Y-67807761D01*
X110290625Y-67509375D01*
X109799418Y-67181161D01*
X109366256Y-67095000D01*
X109073744Y-67095000D01*
X108640582Y-67181161D01*
X108149375Y-67509375D01*
X107821161Y-68000582D01*
X107705908Y-68580000D01*
X107807353Y-69090000D01*
X106994802Y-69090000D01*
X99859118Y-61954316D01*
X108405290Y-61954316D01*
X108906139Y-62564068D01*
X110709242Y-63340745D01*
X112672314Y-63368283D01*
X114496494Y-62642490D01*
X114613861Y-62564068D01*
X115114710Y-61954316D01*
X111760000Y-58599605D01*
X108405290Y-61954316D01*
X99859118Y-61954316D01*
X98380331Y-60475530D01*
X98337929Y-60412071D01*
X98086537Y-60244096D01*
X97864852Y-60200000D01*
X97864847Y-60200000D01*
X97790000Y-60185112D01*
X97735358Y-60195981D01*
X97554577Y-59925423D01*
X97079909Y-59608260D01*
X96661333Y-59525000D01*
X96378667Y-59525000D01*
X95960091Y-59608260D01*
X95485423Y-59925423D01*
X95168260Y-60400091D01*
X95056887Y-60960000D01*
X82743113Y-60960000D01*
X82631740Y-60400091D01*
X82314577Y-59925423D01*
X81839909Y-59608260D01*
X81421333Y-59525000D01*
X81138667Y-59525000D01*
X80720091Y-59608260D01*
X80245423Y-59925423D01*
X79928260Y-60400091D01*
X79816887Y-60960000D01*
X79928260Y-61519909D01*
X80245423Y-61994577D01*
X80597758Y-62230000D01*
X80245423Y-62465423D01*
X80061957Y-62740000D01*
X77384312Y-62740000D01*
X77374147Y-62715460D01*
X76984540Y-62325853D01*
X76475494Y-62115000D01*
X75924506Y-62115000D01*
X75415460Y-62325853D01*
X75025853Y-62715460D01*
X74815000Y-63224506D01*
X74815000Y-63775494D01*
X75025853Y-64284540D01*
X75415460Y-64674147D01*
X75924506Y-64885000D01*
X76475494Y-64885000D01*
X76984540Y-64674147D01*
X77374147Y-64284540D01*
X77384312Y-64260000D01*
X80061957Y-64260000D01*
X80245423Y-64534577D01*
X80597758Y-64770000D01*
X80245423Y-65005423D01*
X79928260Y-65480091D01*
X79816887Y-66040000D01*
X79928260Y-66599909D01*
X80245423Y-67074577D01*
X80597758Y-67310000D01*
X80245423Y-67545423D01*
X79928260Y-68020091D01*
X79816887Y-68580000D01*
X79928260Y-69139909D01*
X80245423Y-69614577D01*
X80597758Y-69850000D01*
X80245423Y-70085423D01*
X79928260Y-70560091D01*
X79816887Y-71120000D01*
X79928260Y-71679909D01*
X80245423Y-72154577D01*
X80597758Y-72390000D01*
X80245423Y-72625423D01*
X79928260Y-73100091D01*
X79816887Y-73660000D01*
X79928260Y-74219909D01*
X80245423Y-74694577D01*
X80597758Y-74930000D01*
X80245423Y-75165423D01*
X79928260Y-75640091D01*
X79816887Y-76200000D01*
X79928260Y-76759909D01*
X80245423Y-77234577D01*
X80597758Y-77470000D01*
X80245423Y-77705423D01*
X80167238Y-77822436D01*
X79500000Y-77155199D01*
X79500000Y-74539848D01*
X79514888Y-74465000D01*
X79500000Y-74390152D01*
X79500000Y-74390148D01*
X79455904Y-74168463D01*
X79287929Y-73917071D01*
X79224473Y-73874671D01*
X77890331Y-72540530D01*
X77847929Y-72477071D01*
X77697440Y-72376517D01*
X77697440Y-72175000D01*
X77648157Y-71927235D01*
X77507809Y-71717191D01*
X77297765Y-71576843D01*
X77050000Y-71527560D01*
X75350000Y-71527560D01*
X75102235Y-71576843D01*
X74892191Y-71717191D01*
X74751843Y-71927235D01*
X74702560Y-72175000D01*
X74702560Y-73875000D01*
X74751843Y-74122765D01*
X74892191Y-74332809D01*
X75102235Y-74473157D01*
X75147619Y-74482184D01*
X75129375Y-74494375D01*
X74801161Y-74985582D01*
X74685908Y-75565000D01*
X74801161Y-76144418D01*
X75129375Y-76635625D01*
X75440001Y-76843178D01*
X75440001Y-77395148D01*
X75425112Y-77470000D01*
X75440001Y-77544852D01*
X75484097Y-77766537D01*
X75652072Y-78017929D01*
X75715528Y-78060329D01*
X79419671Y-81764473D01*
X79462071Y-81827929D01*
X79525527Y-81870329D01*
X79713462Y-81995904D01*
X79761605Y-82005480D01*
X79935148Y-82040000D01*
X79935152Y-82040000D01*
X80010000Y-82054888D01*
X80064642Y-82044019D01*
X80245423Y-82314577D01*
X80597758Y-82550000D01*
X80245423Y-82785423D01*
X79928260Y-83260091D01*
X79816887Y-83820000D01*
X79928260Y-84379909D01*
X80245423Y-84854577D01*
X80597758Y-85090000D01*
X80245423Y-85325423D01*
X79928260Y-85800091D01*
X79816887Y-86360000D01*
X79928260Y-86919909D01*
X80245423Y-87394577D01*
X80597758Y-87630000D01*
X80245423Y-87865423D01*
X79928260Y-88340091D01*
X79816887Y-88900000D01*
X79928260Y-89459909D01*
X80245423Y-89934577D01*
X80597758Y-90170000D01*
X80245423Y-90405423D01*
X79928260Y-90880091D01*
X79816887Y-91440000D01*
X79928260Y-91999909D01*
X80245423Y-92474577D01*
X80597758Y-92710000D01*
X80245423Y-92945423D01*
X79928260Y-93420091D01*
X79816887Y-93980000D01*
X79928260Y-94539909D01*
X80245423Y-95014577D01*
X80597758Y-95250000D01*
X80245423Y-95485423D01*
X80061957Y-95760000D01*
X77384312Y-95760000D01*
X77374147Y-95735460D01*
X76984540Y-95345853D01*
X76475494Y-95135000D01*
X75924506Y-95135000D01*
X75415460Y-95345853D01*
X75025853Y-95735460D01*
X74815000Y-96244506D01*
X74815000Y-96795494D01*
X75025853Y-97304540D01*
X75415460Y-97694147D01*
X75924506Y-97905000D01*
X76475494Y-97905000D01*
X76984540Y-97694147D01*
X77374147Y-97304540D01*
X77384312Y-97280000D01*
X80061957Y-97280000D01*
X80245423Y-97554577D01*
X80720091Y-97871740D01*
X81138667Y-97955000D01*
X81421333Y-97955000D01*
X81839909Y-97871740D01*
X82314577Y-97554577D01*
X82631740Y-97079909D01*
X82743113Y-96520000D01*
X82631740Y-95960091D01*
X82314577Y-95485423D01*
X81962242Y-95250000D01*
X82314577Y-95014577D01*
X82631740Y-94539909D01*
X82743113Y-93980000D01*
X82631740Y-93420091D01*
X82314577Y-92945423D01*
X81962242Y-92710000D01*
X82314577Y-92474577D01*
X82631740Y-91999909D01*
X82743113Y-91440000D01*
X82631740Y-90880091D01*
X82314577Y-90405423D01*
X81962242Y-90170000D01*
X82314577Y-89934577D01*
X82631740Y-89459909D01*
X82743113Y-88900000D01*
X82631740Y-88340091D01*
X82314577Y-87865423D01*
X81962242Y-87630000D01*
X82314577Y-87394577D01*
X82631740Y-86919909D01*
X82743113Y-86360000D01*
X82631740Y-85800091D01*
X82314577Y-85325423D01*
X81962242Y-85090000D01*
X82314577Y-84854577D01*
X82631740Y-84379909D01*
X82743113Y-83820000D01*
X82631740Y-83260091D01*
X82314577Y-82785423D01*
X81962242Y-82550000D01*
X82314577Y-82314577D01*
X82631740Y-81839909D01*
X82743113Y-81280000D01*
X82631740Y-80720091D01*
X82314577Y-80245423D01*
X81962242Y-80010000D01*
X82314577Y-79774577D01*
X82631740Y-79299909D01*
X82743113Y-78740000D01*
X82631740Y-78180091D01*
X82314577Y-77705423D01*
X81962242Y-77470000D01*
X82314577Y-77234577D01*
X82631740Y-76759909D01*
X82743113Y-76200000D01*
X82631740Y-75640091D01*
X82314577Y-75165423D01*
X81962242Y-74930000D01*
X82314577Y-74694577D01*
X82631740Y-74219909D01*
X82743113Y-73660000D01*
X82631740Y-73100091D01*
X82314577Y-72625423D01*
X81962242Y-72390000D01*
X82314577Y-72154577D01*
X82631740Y-71679909D01*
X82743113Y-71120000D01*
X82742595Y-71117397D01*
X84330000Y-72704802D01*
X84330001Y-96205197D01*
X78255530Y-102279669D01*
X78192071Y-102322071D01*
X78024096Y-102573464D01*
X77980000Y-102795149D01*
X77980000Y-102795153D01*
X77965112Y-102870000D01*
X77980000Y-102944847D01*
X77980001Y-116765143D01*
X77980000Y-116765148D01*
X77980000Y-117676851D01*
X77980001Y-117676856D01*
X77980000Y-135575197D01*
X75885199Y-137670000D01*
X69213614Y-137670000D01*
X68181252Y-136637639D01*
X68376412Y-136556801D01*
X68934801Y-135998412D01*
X69232000Y-135280912D01*
X69529199Y-135998412D01*
X70087588Y-136556801D01*
X70817159Y-136859000D01*
X71606841Y-136859000D01*
X72336412Y-136556801D01*
X72894801Y-135998412D01*
X73192000Y-135280912D01*
X73489199Y-135998412D01*
X74047588Y-136556801D01*
X74777159Y-136859000D01*
X75566841Y-136859000D01*
X76296412Y-136556801D01*
X76854801Y-135998412D01*
X77157000Y-135268841D01*
X77157000Y-134479159D01*
X76854801Y-133749588D01*
X76296412Y-133191199D01*
X75566841Y-132889000D01*
X74777159Y-132889000D01*
X74047588Y-133191199D01*
X73489199Y-133749588D01*
X73192000Y-134467088D01*
X72894801Y-133749588D01*
X72347000Y-133201787D01*
X72347000Y-109665781D01*
X72369235Y-109553999D01*
X72347000Y-109442217D01*
X72281146Y-109111145D01*
X72030289Y-108735711D01*
X71935522Y-108672390D01*
X65404334Y-102141203D01*
X65940769Y-101782769D01*
X66302136Y-101241945D01*
X66429031Y-100604000D01*
X66302136Y-99966055D01*
X65940769Y-99425231D01*
X65399945Y-99063864D01*
X64923031Y-98969000D01*
X63600969Y-98969000D01*
X63124055Y-99063864D01*
X62583231Y-99425231D01*
X62221864Y-99966055D01*
X62094969Y-100604000D01*
X62221864Y-101241945D01*
X62583231Y-101782769D01*
X63124055Y-102144136D01*
X63127001Y-102144722D01*
X63127001Y-102492212D01*
X63104765Y-102604000D01*
X63192854Y-103046854D01*
X63192855Y-103046855D01*
X63443712Y-103422289D01*
X63538480Y-103485611D01*
X70077000Y-110024132D01*
X70077001Y-132853025D01*
X70077000Y-132853030D01*
X70077000Y-133201787D01*
X69529199Y-133749588D01*
X69232000Y-134467088D01*
X68934801Y-133749588D01*
X68376412Y-133191199D01*
X67646841Y-132889000D01*
X66857159Y-132889000D01*
X66127588Y-133191199D01*
X65569199Y-133749588D01*
X65272000Y-134467088D01*
X64974801Y-133749588D01*
X64416412Y-133191199D01*
X64052000Y-133040254D01*
X64052000Y-129020000D01*
X64410494Y-129020000D01*
X64919540Y-128809147D01*
X65309147Y-128419540D01*
X65520000Y-127910494D01*
X65520000Y-127359506D01*
X65309147Y-126850460D01*
X64919540Y-126460853D01*
X64410494Y-126250000D01*
X63859506Y-126250000D01*
X63350460Y-126460853D01*
X62960853Y-126850460D01*
X62750000Y-127359506D01*
X62750000Y-127910494D01*
X62755066Y-127922725D01*
X62744072Y-127930071D01*
X62701672Y-127993527D01*
X62701671Y-127993528D01*
X62576097Y-128181463D01*
X62517112Y-128478000D01*
X62532001Y-128552852D01*
X62532000Y-133040254D01*
X62167588Y-133191199D01*
X61609199Y-133749588D01*
X61312000Y-134467088D01*
X61014801Y-133749588D01*
X60456412Y-133191199D01*
X60092000Y-133040254D01*
X60092000Y-128621848D01*
X60106888Y-128547000D01*
X60092000Y-128472152D01*
X60092000Y-128472148D01*
X60047904Y-128250463D01*
X60047904Y-128250462D01*
X59922329Y-128062527D01*
X59879929Y-127999071D01*
X59816473Y-127956671D01*
X59794835Y-127935034D01*
X59805000Y-127910494D01*
X59805000Y-127359506D01*
X59594147Y-126850460D01*
X59204540Y-126460853D01*
X58695494Y-126250000D01*
X58144506Y-126250000D01*
X57635460Y-126460853D01*
X57245853Y-126850460D01*
X57035000Y-127359506D01*
X57035000Y-127910494D01*
X57245853Y-128419540D01*
X57635460Y-128809147D01*
X58144506Y-129020000D01*
X58572001Y-129020000D01*
X58572000Y-133040254D01*
X58207588Y-133191199D01*
X57649199Y-133749588D01*
X57369440Y-134424984D01*
X57369440Y-133774001D01*
X57301126Y-133430565D01*
X57106586Y-133139414D01*
X56815435Y-132944874D01*
X56471999Y-132876560D01*
X54272001Y-132876560D01*
X53928565Y-132944874D01*
X53637414Y-133139414D01*
X53442874Y-133430565D01*
X53374560Y-133774001D01*
X53205000Y-133774001D01*
X53205000Y-121031000D01*
X55127000Y-121031000D01*
X55127000Y-121531000D01*
X55300058Y-122147020D01*
X55695683Y-122649922D01*
X56253645Y-122963144D01*
X56381566Y-122994124D01*
X56635000Y-122874777D01*
X56635000Y-121031000D01*
X56889000Y-121031000D01*
X56889000Y-122874777D01*
X57142434Y-122994124D01*
X57270355Y-122963144D01*
X57828317Y-122649922D01*
X58223942Y-122147020D01*
X58397000Y-121531000D01*
X58397000Y-121031000D01*
X56889000Y-121031000D01*
X56635000Y-121031000D01*
X55127000Y-121031000D01*
X53205000Y-121031000D01*
X53205000Y-120277000D01*
X55127000Y-120277000D01*
X55127000Y-120777000D01*
X56635000Y-120777000D01*
X56635000Y-118933223D01*
X56889000Y-118933223D01*
X56889000Y-120777000D01*
X58397000Y-120777000D01*
X58397000Y-120277000D01*
X58223942Y-119660980D01*
X58021780Y-119404000D01*
X62614560Y-119404000D01*
X62614560Y-122404000D01*
X62663843Y-122651765D01*
X62804191Y-122861809D01*
X63014235Y-123002157D01*
X63262000Y-123051440D01*
X65262000Y-123051440D01*
X65509765Y-123002157D01*
X65719809Y-122861809D01*
X65860157Y-122651765D01*
X65909440Y-122404000D01*
X65909440Y-119404000D01*
X65860157Y-119156235D01*
X65719809Y-118946191D01*
X65509765Y-118805843D01*
X65262000Y-118756560D01*
X63262000Y-118756560D01*
X63014235Y-118805843D01*
X62804191Y-118946191D01*
X62663843Y-119156235D01*
X62614560Y-119404000D01*
X58021780Y-119404000D01*
X57828317Y-119158078D01*
X57270355Y-118844856D01*
X57142434Y-118813876D01*
X56889000Y-118933223D01*
X56635000Y-118933223D01*
X56381566Y-118813876D01*
X56253645Y-118844856D01*
X55695683Y-119158078D01*
X55300058Y-119660980D01*
X55127000Y-120277000D01*
X53205000Y-120277000D01*
X53205000Y-113754131D01*
X61175521Y-105783611D01*
X61270289Y-105720289D01*
X61521146Y-105344855D01*
X61587000Y-105013783D01*
X61609235Y-104902001D01*
X61587000Y-104790218D01*
X61587000Y-90386131D01*
X62308671Y-89664460D01*
X62479499Y-89698440D01*
X63504501Y-89698440D01*
X63847936Y-89630127D01*
X64139086Y-89435586D01*
X64333627Y-89144436D01*
X64401940Y-88801001D01*
X64401940Y-85950999D01*
X64333627Y-85607564D01*
X64139086Y-85316414D01*
X63847936Y-85121873D01*
X63802000Y-85112736D01*
X63802000Y-83440184D01*
X64900000Y-82083347D01*
X64900001Y-84039222D01*
X64884132Y-84119000D01*
X64946998Y-84435046D01*
X65126024Y-84702977D01*
X65193654Y-84748166D01*
X67557060Y-87111573D01*
X67557060Y-88801001D01*
X67625373Y-89144436D01*
X67819914Y-89435586D01*
X67832001Y-89443662D01*
X67832000Y-92888868D01*
X66291869Y-94429000D01*
X65970015Y-94429000D01*
X65940769Y-94385231D01*
X65399945Y-94023864D01*
X64923031Y-93929000D01*
X63600969Y-93929000D01*
X63124055Y-94023864D01*
X62583231Y-94385231D01*
X62221864Y-94926055D01*
X62094969Y-95564000D01*
X62221864Y-96201945D01*
X62583231Y-96742769D01*
X63124055Y-97104136D01*
X63600969Y-97199000D01*
X64923031Y-97199000D01*
X65399945Y-97104136D01*
X65940769Y-96742769D01*
X65970015Y-96699000D01*
X66650217Y-96699000D01*
X66762000Y-96721235D01*
X66873783Y-96699000D01*
X67204855Y-96633146D01*
X67580289Y-96382289D01*
X67643613Y-96287518D01*
X69690521Y-94240611D01*
X69785289Y-94177289D01*
X70036146Y-93801855D01*
X70102000Y-93470783D01*
X70102000Y-93470782D01*
X70124235Y-93359000D01*
X70102000Y-93247217D01*
X70102000Y-90170000D01*
X74685908Y-90170000D01*
X74801161Y-90749418D01*
X75129375Y-91240625D01*
X75620582Y-91568839D01*
X76053744Y-91655000D01*
X76346256Y-91655000D01*
X76779418Y-91568839D01*
X77270625Y-91240625D01*
X77598839Y-90749418D01*
X77714092Y-90170000D01*
X77598839Y-89590582D01*
X77270625Y-89099375D01*
X77252381Y-89087184D01*
X77297765Y-89078157D01*
X77507809Y-88937809D01*
X77648157Y-88727765D01*
X77697440Y-88480000D01*
X77697440Y-86780000D01*
X77648157Y-86532235D01*
X77507809Y-86322191D01*
X77297765Y-86181843D01*
X77050000Y-86132560D01*
X75350000Y-86132560D01*
X75102235Y-86181843D01*
X74892191Y-86322191D01*
X74751843Y-86532235D01*
X74702560Y-86780000D01*
X74702560Y-88480000D01*
X74751843Y-88727765D01*
X74892191Y-88937809D01*
X75102235Y-89078157D01*
X75147619Y-89087184D01*
X75129375Y-89099375D01*
X74801161Y-89590582D01*
X74685908Y-90170000D01*
X70102000Y-90170000D01*
X70102000Y-89443662D01*
X70114086Y-89435586D01*
X70308627Y-89144436D01*
X70376940Y-88801001D01*
X70376940Y-85950999D01*
X70308627Y-85607564D01*
X70114086Y-85316414D01*
X69822936Y-85121873D01*
X69479501Y-85053560D01*
X68454499Y-85053560D01*
X68111064Y-85121873D01*
X67959595Y-85223082D01*
X66520000Y-83783488D01*
X66520000Y-81941254D01*
X66572235Y-81976157D01*
X66596792Y-81981042D01*
X66628750Y-82013000D01*
X66696310Y-82013000D01*
X66716148Y-82004783D01*
X66820000Y-82025440D01*
X67220000Y-82025440D01*
X67467765Y-81976157D01*
X67677809Y-81835809D01*
X67818157Y-81625765D01*
X67867440Y-81378000D01*
X67867440Y-81358000D01*
X69187153Y-81358000D01*
X69262000Y-81372888D01*
X69336847Y-81358000D01*
X69336852Y-81358000D01*
X69558537Y-81313904D01*
X69809929Y-81145929D01*
X69852331Y-81082470D01*
X72366473Y-78568329D01*
X72429929Y-78525929D01*
X72597904Y-78274537D01*
X72642000Y-78052852D01*
X72642000Y-78052848D01*
X72656888Y-77978000D01*
X72642000Y-77903152D01*
X72642000Y-68897087D01*
X72850435Y-68855626D01*
X73141586Y-68661086D01*
X73336126Y-68369935D01*
X73404440Y-68026500D01*
X73404440Y-67101500D01*
X73336126Y-66758065D01*
X73141586Y-66466914D01*
X72850435Y-66272374D01*
X72507000Y-66204060D01*
X71257000Y-66204060D01*
X70913565Y-66272374D01*
X70622414Y-66466914D01*
X70494642Y-66658138D01*
X70182874Y-66529000D01*
X69771126Y-66529000D01*
X69390720Y-66686569D01*
X69099569Y-66977720D01*
X68942000Y-67358126D01*
X68942000Y-67769874D01*
X69099569Y-68150280D01*
X69390720Y-68441431D01*
X69771126Y-68599000D01*
X70182874Y-68599000D01*
X70494642Y-68469862D01*
X70622414Y-68661086D01*
X70913565Y-68855626D01*
X71122000Y-68897087D01*
X71122001Y-75871144D01*
X71122000Y-75871149D01*
X71122000Y-76260852D01*
X71122001Y-76260856D01*
X71122000Y-77663198D01*
X68947199Y-79838000D01*
X67867440Y-79838000D01*
X67867440Y-79818000D01*
X67818157Y-79570235D01*
X67677809Y-79360191D01*
X67509905Y-79248000D01*
X67677809Y-79135809D01*
X67818157Y-78925765D01*
X67867440Y-78678000D01*
X67867440Y-78658000D01*
X68892290Y-78658000D01*
X69136126Y-78759000D01*
X69547874Y-78759000D01*
X69928280Y-78601431D01*
X70219431Y-78310280D01*
X70377000Y-77929874D01*
X70377000Y-77518126D01*
X70219431Y-77137720D01*
X69928280Y-76846569D01*
X69547874Y-76689000D01*
X69136126Y-76689000D01*
X68755720Y-76846569D01*
X68464569Y-77137720D01*
X68464453Y-77138000D01*
X67867440Y-77138000D01*
X67867440Y-77118000D01*
X67818157Y-76870235D01*
X67677809Y-76660191D01*
X67662704Y-76650098D01*
X67860802Y-76452000D01*
X68130289Y-76452000D01*
X68247720Y-76569431D01*
X68628126Y-76727000D01*
X69039874Y-76727000D01*
X69420280Y-76569431D01*
X69711431Y-76278280D01*
X69869000Y-75897874D01*
X69869000Y-75486126D01*
X69711431Y-75105720D01*
X69420280Y-74814569D01*
X69039874Y-74657000D01*
X68628126Y-74657000D01*
X68247720Y-74814569D01*
X68130289Y-74932000D01*
X67620846Y-74932000D01*
X67545999Y-74917112D01*
X67471152Y-74932000D01*
X67471148Y-74932000D01*
X67249463Y-74976096D01*
X66998071Y-75144071D01*
X66955671Y-75207527D01*
X66470000Y-75693198D01*
X66470000Y-75107801D01*
X67223653Y-74354149D01*
X67357565Y-74443626D01*
X67701000Y-74511940D01*
X68951000Y-74511940D01*
X69294435Y-74443626D01*
X69585586Y-74249086D01*
X69780126Y-73957935D01*
X69848440Y-73614500D01*
X69848440Y-72689500D01*
X69780126Y-72346065D01*
X69585586Y-72054914D01*
X69294435Y-71860374D01*
X68951000Y-71792060D01*
X67701000Y-71792060D01*
X67357565Y-71860374D01*
X67066414Y-72054914D01*
X66871874Y-72346065D01*
X66823233Y-72590599D01*
X66803071Y-72604071D01*
X66760673Y-72667524D01*
X65225530Y-74202669D01*
X65162071Y-74245071D01*
X64994096Y-74496464D01*
X64950000Y-74718149D01*
X64950000Y-74718153D01*
X64935112Y-74793000D01*
X64950000Y-74867847D01*
X64950001Y-76470560D01*
X64860000Y-76470560D01*
X64612235Y-76519843D01*
X64429048Y-76642246D01*
X64006000Y-76219199D01*
X64006000Y-74485087D01*
X64214435Y-74443626D01*
X64505586Y-74249086D01*
X64700126Y-73957935D01*
X64768440Y-73614500D01*
X64768440Y-72689500D01*
X64700126Y-72346065D01*
X64505586Y-72054914D01*
X64214435Y-71860374D01*
X63871000Y-71792060D01*
X62621000Y-71792060D01*
X62277565Y-71860374D01*
X61986414Y-72054914D01*
X61791874Y-72346065D01*
X61723560Y-72689500D01*
X61723560Y-73614500D01*
X61791874Y-73957935D01*
X61986414Y-74249086D01*
X62277565Y-74443626D01*
X62486000Y-74485087D01*
X62486001Y-76459148D01*
X62471112Y-76534000D01*
X62486001Y-76608852D01*
X62496213Y-76660191D01*
X62530097Y-76830537D01*
X62619167Y-76963839D01*
X62698072Y-77081929D01*
X62761528Y-77124329D01*
X64019673Y-78382476D01*
X64062071Y-78445929D01*
X64125524Y-78488327D01*
X64125526Y-78488329D01*
X64181799Y-78525929D01*
X64212560Y-78546483D01*
X64212560Y-78678000D01*
X64261843Y-78925765D01*
X64402191Y-79135809D01*
X64570095Y-79248000D01*
X64402191Y-79360191D01*
X64261843Y-79570235D01*
X64212560Y-79818000D01*
X64212560Y-80357581D01*
X62439716Y-82548346D01*
X62408023Y-82569523D01*
X62339071Y-82672717D01*
X62312160Y-82705972D01*
X62294852Y-82738896D01*
X62228997Y-82837455D01*
X62220450Y-82880426D01*
X62200064Y-82919204D01*
X62189257Y-83037242D01*
X62182000Y-83073727D01*
X62182000Y-83116510D01*
X62170685Y-83240099D01*
X62182000Y-83276497D01*
X62182001Y-85112736D01*
X62136064Y-85121873D01*
X61844914Y-85316414D01*
X61650373Y-85607564D01*
X61582060Y-85950999D01*
X61582060Y-87180808D01*
X59728482Y-89034387D01*
X59633711Y-89097711D01*
X59423474Y-89412354D01*
X59382854Y-89473146D01*
X59294765Y-89916000D01*
X59317000Y-90027783D01*
X59317001Y-104431867D01*
X51346482Y-112402387D01*
X51251711Y-112465711D01*
X51083099Y-112718058D01*
X51000854Y-112841146D01*
X50912765Y-113284000D01*
X50935000Y-113395783D01*
X50935001Y-140096212D01*
X50912765Y-140208000D01*
X51000854Y-140650854D01*
X51061403Y-140741471D01*
X51251712Y-141026289D01*
X51346480Y-141089611D01*
X54490389Y-144233521D01*
X54553711Y-144328289D01*
X54929145Y-144579146D01*
X55371999Y-144667235D01*
X55483782Y-144645000D01*
X70649869Y-144645000D01*
X71405000Y-145400132D01*
X71405000Y-146028787D01*
X70857199Y-146576588D01*
X70560000Y-147294088D01*
X70262801Y-146576588D01*
X69704412Y-146018199D01*
X68974841Y-145716000D01*
X68185159Y-145716000D01*
X67455588Y-146018199D01*
X66897199Y-146576588D01*
X66600000Y-147294088D01*
X66302801Y-146576588D01*
X65744412Y-146018199D01*
X65014841Y-145716000D01*
X64225159Y-145716000D01*
X63495588Y-146018199D01*
X62937199Y-146576588D01*
X62657440Y-147251984D01*
X62657440Y-146601001D01*
X62589126Y-146257565D01*
X62394586Y-145966414D01*
X62103435Y-145771874D01*
X61759999Y-145703560D01*
X59560001Y-145703560D01*
X59216565Y-145771874D01*
X58925414Y-145966414D01*
X58730874Y-146257565D01*
X58662560Y-146601001D01*
X58662560Y-148800999D01*
X58730874Y-149144435D01*
X58925414Y-149435586D01*
X59216565Y-149630126D01*
X59560001Y-149698440D01*
X61759999Y-149698440D01*
X62103435Y-149630126D01*
X62394586Y-149435586D01*
X62589126Y-149144435D01*
X62657440Y-148800999D01*
X62657440Y-148150016D01*
X62937199Y-148825412D01*
X63495588Y-149383801D01*
X64225159Y-149686000D01*
X65014841Y-149686000D01*
X65744412Y-149383801D01*
X66302801Y-148825412D01*
X66600000Y-148107912D01*
X66897199Y-148825412D01*
X67455588Y-149383801D01*
X68185159Y-149686000D01*
X68974841Y-149686000D01*
X69704412Y-149383801D01*
X70262801Y-148825412D01*
X70560000Y-148107912D01*
X70857199Y-148825412D01*
X71338327Y-149306540D01*
X69379869Y-151265000D01*
X60160132Y-151265000D01*
X51234110Y-142338979D01*
X51234108Y-142338976D01*
X50157000Y-141261869D01*
X50157000Y-100604000D01*
X54594969Y-100604000D01*
X54721864Y-101241945D01*
X55083231Y-101782769D01*
X55624055Y-102144136D01*
X56100969Y-102239000D01*
X57423031Y-102239000D01*
X57899945Y-102144136D01*
X58440769Y-101782769D01*
X58802136Y-101241945D01*
X58929031Y-100604000D01*
X58802136Y-99966055D01*
X58440769Y-99425231D01*
X57899945Y-99063864D01*
X57423031Y-98969000D01*
X56100969Y-98969000D01*
X55624055Y-99063864D01*
X55083231Y-99425231D01*
X54721864Y-99966055D01*
X54594969Y-100604000D01*
X50157000Y-100604000D01*
X50157000Y-90951631D01*
X51076021Y-90032611D01*
X51170789Y-89969289D01*
X51421646Y-89593855D01*
X51446006Y-89471387D01*
X51499586Y-89435586D01*
X51694127Y-89144436D01*
X51762440Y-88801001D01*
X51762440Y-85950999D01*
X51694127Y-85607564D01*
X51499586Y-85316414D01*
X51208436Y-85121873D01*
X51102000Y-85100702D01*
X51102000Y-83440184D01*
X52200000Y-82083347D01*
X52200001Y-83978722D01*
X52184132Y-84058500D01*
X52245682Y-84367929D01*
X52246998Y-84374546D01*
X52426024Y-84642477D01*
X52493654Y-84687666D01*
X54917560Y-87111573D01*
X54917560Y-88801001D01*
X54985873Y-89144436D01*
X55180414Y-89435586D01*
X55192500Y-89443662D01*
X55192501Y-94312219D01*
X55083231Y-94385231D01*
X54721864Y-94926055D01*
X54594969Y-95564000D01*
X54721864Y-96201945D01*
X55083231Y-96742769D01*
X55624055Y-97104136D01*
X56100969Y-97199000D01*
X57423031Y-97199000D01*
X57899945Y-97104136D01*
X58440769Y-96742769D01*
X58802136Y-96201945D01*
X58929031Y-95564000D01*
X58802136Y-94926055D01*
X58440769Y-94385231D01*
X57899945Y-94023864D01*
X57462500Y-93936851D01*
X57462500Y-89443662D01*
X57474586Y-89435586D01*
X57669127Y-89144436D01*
X57737440Y-88801001D01*
X57737440Y-85950999D01*
X57669127Y-85607564D01*
X57474586Y-85316414D01*
X57183436Y-85121873D01*
X56840001Y-85053560D01*
X55814999Y-85053560D01*
X55471564Y-85121873D01*
X55320095Y-85223082D01*
X53820000Y-83722988D01*
X53820000Y-81941254D01*
X53872235Y-81976157D01*
X53896792Y-81981042D01*
X53928750Y-82013000D01*
X53996310Y-82013000D01*
X54016148Y-82004783D01*
X54120000Y-82025440D01*
X54520000Y-82025440D01*
X54767765Y-81976157D01*
X54977809Y-81835809D01*
X55118157Y-81625765D01*
X55167440Y-81378000D01*
X55167440Y-81358000D01*
X56487153Y-81358000D01*
X56562000Y-81372888D01*
X56636847Y-81358000D01*
X56636852Y-81358000D01*
X56858537Y-81313904D01*
X57109929Y-81145929D01*
X57152331Y-81082470D01*
X59666473Y-78568329D01*
X59729929Y-78525929D01*
X59897904Y-78274537D01*
X59942000Y-78052852D01*
X59942000Y-78052848D01*
X59956888Y-77978000D01*
X59942000Y-77903152D01*
X59942000Y-70462750D01*
X61736000Y-70462750D01*
X61736000Y-71015809D01*
X61832673Y-71249198D01*
X62011301Y-71427827D01*
X62244690Y-71524500D01*
X62960250Y-71524500D01*
X63119000Y-71365750D01*
X63119000Y-70304000D01*
X63373000Y-70304000D01*
X63373000Y-71365750D01*
X63531750Y-71524500D01*
X64247310Y-71524500D01*
X64480699Y-71427827D01*
X64659327Y-71249198D01*
X64756000Y-71015809D01*
X64756000Y-70462750D01*
X66816000Y-70462750D01*
X66816000Y-71015809D01*
X66912673Y-71249198D01*
X67091301Y-71427827D01*
X67324690Y-71524500D01*
X68040250Y-71524500D01*
X68199000Y-71365750D01*
X68199000Y-70304000D01*
X68453000Y-70304000D01*
X68453000Y-71365750D01*
X68611750Y-71524500D01*
X69327310Y-71524500D01*
X69560699Y-71427827D01*
X69739327Y-71249198D01*
X69836000Y-71015809D01*
X69836000Y-70462750D01*
X69677250Y-70304000D01*
X68453000Y-70304000D01*
X68199000Y-70304000D01*
X66974750Y-70304000D01*
X66816000Y-70462750D01*
X64756000Y-70462750D01*
X64597250Y-70304000D01*
X63373000Y-70304000D01*
X63119000Y-70304000D01*
X61894750Y-70304000D01*
X61736000Y-70462750D01*
X59942000Y-70462750D01*
X59942000Y-69338191D01*
X61736000Y-69338191D01*
X61736000Y-69891250D01*
X61894750Y-70050000D01*
X63119000Y-70050000D01*
X63119000Y-68988250D01*
X63373000Y-68988250D01*
X63373000Y-70050000D01*
X64597250Y-70050000D01*
X64756000Y-69891250D01*
X64756000Y-69338191D01*
X66816000Y-69338191D01*
X66816000Y-69891250D01*
X66974750Y-70050000D01*
X68199000Y-70050000D01*
X68199000Y-68988250D01*
X68453000Y-68988250D01*
X68453000Y-70050000D01*
X69677250Y-70050000D01*
X69836000Y-69891250D01*
X69836000Y-69338191D01*
X69739327Y-69104802D01*
X69560699Y-68926173D01*
X69327310Y-68829500D01*
X68611750Y-68829500D01*
X68453000Y-68988250D01*
X68199000Y-68988250D01*
X68040250Y-68829500D01*
X67324690Y-68829500D01*
X67091301Y-68926173D01*
X66912673Y-69104802D01*
X66816000Y-69338191D01*
X64756000Y-69338191D01*
X64659327Y-69104802D01*
X64480699Y-68926173D01*
X64247310Y-68829500D01*
X63531750Y-68829500D01*
X63373000Y-68988250D01*
X63119000Y-68988250D01*
X62960250Y-68829500D01*
X62244690Y-68829500D01*
X62011301Y-68926173D01*
X61832673Y-69104802D01*
X61736000Y-69338191D01*
X59942000Y-69338191D01*
X59942000Y-68897087D01*
X60150435Y-68855626D01*
X60441586Y-68661086D01*
X60636126Y-68369935D01*
X60704440Y-68026500D01*
X60704440Y-67101500D01*
X60636126Y-66758065D01*
X60441586Y-66466914D01*
X60150435Y-66272374D01*
X59807000Y-66204060D01*
X58557000Y-66204060D01*
X58213565Y-66272374D01*
X57922414Y-66466914D01*
X57794642Y-66658138D01*
X57482874Y-66529000D01*
X57071126Y-66529000D01*
X56690720Y-66686569D01*
X56399569Y-66977720D01*
X56242000Y-67358126D01*
X56242000Y-67769874D01*
X56399569Y-68150280D01*
X56690720Y-68441431D01*
X57071126Y-68599000D01*
X57482874Y-68599000D01*
X57794642Y-68469862D01*
X57922414Y-68661086D01*
X58213565Y-68855626D01*
X58422001Y-68897087D01*
X58422000Y-76260851D01*
X58422001Y-76260856D01*
X58422000Y-77663198D01*
X56247199Y-79838000D01*
X55167440Y-79838000D01*
X55167440Y-79818000D01*
X55118157Y-79570235D01*
X54977809Y-79360191D01*
X54809905Y-79248000D01*
X54977809Y-79135809D01*
X55118157Y-78925765D01*
X55167440Y-78678000D01*
X55167440Y-78658000D01*
X55938290Y-78658000D01*
X56182126Y-78759000D01*
X56593874Y-78759000D01*
X56974280Y-78601431D01*
X57265431Y-78310280D01*
X57423000Y-77929874D01*
X57423000Y-77518126D01*
X57265431Y-77137720D01*
X56974280Y-76846569D01*
X56593874Y-76689000D01*
X56182126Y-76689000D01*
X55801720Y-76846569D01*
X55510569Y-77137720D01*
X55510453Y-77138000D01*
X55167440Y-77138000D01*
X55167440Y-77118000D01*
X55118157Y-76870235D01*
X54977809Y-76660191D01*
X54962704Y-76650098D01*
X55160802Y-76452000D01*
X55176289Y-76452000D01*
X55293720Y-76569431D01*
X55674126Y-76727000D01*
X56085874Y-76727000D01*
X56466280Y-76569431D01*
X56757431Y-76278280D01*
X56915000Y-75897874D01*
X56915000Y-75486126D01*
X56757431Y-75105720D01*
X56466280Y-74814569D01*
X56085874Y-74657000D01*
X55674126Y-74657000D01*
X55293720Y-74814569D01*
X55176289Y-74932000D01*
X54920846Y-74932000D01*
X54845999Y-74917112D01*
X54771152Y-74932000D01*
X54771148Y-74932000D01*
X54549463Y-74976096D01*
X54298071Y-75144071D01*
X54255671Y-75207527D01*
X53770000Y-75693198D01*
X53770000Y-75107801D01*
X54523653Y-74354149D01*
X54657565Y-74443626D01*
X55001000Y-74511940D01*
X56251000Y-74511940D01*
X56594435Y-74443626D01*
X56885586Y-74249086D01*
X57080126Y-73957935D01*
X57148440Y-73614500D01*
X57148440Y-72689500D01*
X57080126Y-72346065D01*
X56885586Y-72054914D01*
X56594435Y-71860374D01*
X56251000Y-71792060D01*
X55001000Y-71792060D01*
X54657565Y-71860374D01*
X54366414Y-72054914D01*
X54171874Y-72346065D01*
X54123233Y-72590599D01*
X54103071Y-72604071D01*
X54060673Y-72667524D01*
X53930651Y-72797546D01*
X53887231Y-72692720D01*
X53596080Y-72401569D01*
X53215674Y-72244000D01*
X52803926Y-72244000D01*
X52423520Y-72401569D01*
X52132369Y-72692720D01*
X52068440Y-72847059D01*
X52068440Y-72689500D01*
X52000126Y-72346065D01*
X51805586Y-72054914D01*
X51514435Y-71860374D01*
X51171000Y-71792060D01*
X49921000Y-71792060D01*
X49577565Y-71860374D01*
X49286414Y-72054914D01*
X49091874Y-72346065D01*
X49023560Y-72689500D01*
X49023560Y-73614500D01*
X49091874Y-73957935D01*
X49286414Y-74249086D01*
X49577565Y-74443626D01*
X49786000Y-74485087D01*
X49786001Y-76459148D01*
X49771112Y-76534000D01*
X49786001Y-76608852D01*
X49796213Y-76660191D01*
X49830097Y-76830537D01*
X49919167Y-76963839D01*
X49998072Y-77081929D01*
X50061528Y-77124329D01*
X51319673Y-78382476D01*
X51362071Y-78445929D01*
X51425524Y-78488327D01*
X51425526Y-78488329D01*
X51481799Y-78525929D01*
X51512560Y-78546483D01*
X51512560Y-78678000D01*
X51561843Y-78925765D01*
X51702191Y-79135809D01*
X51870095Y-79248000D01*
X51702191Y-79360191D01*
X51561843Y-79570235D01*
X51512560Y-79818000D01*
X51512560Y-80357581D01*
X49739716Y-82548346D01*
X49708023Y-82569523D01*
X49639071Y-82672717D01*
X49612160Y-82705972D01*
X49594852Y-82738896D01*
X49528997Y-82837455D01*
X49520450Y-82880426D01*
X49500064Y-82919204D01*
X49489257Y-83037242D01*
X49482000Y-83073727D01*
X49482000Y-83116510D01*
X49470685Y-83240099D01*
X49482000Y-83276497D01*
X49482001Y-85131604D01*
X49205414Y-85316414D01*
X49010873Y-85607564D01*
X48942560Y-85950999D01*
X48942560Y-88801001D01*
X48968244Y-88930124D01*
X48298482Y-89599887D01*
X48203711Y-89663211D01*
X47952855Y-90038645D01*
X47952854Y-90038646D01*
X47864765Y-90481500D01*
X46405000Y-90481500D01*
X46405000Y-70462750D01*
X49036000Y-70462750D01*
X49036000Y-71015809D01*
X49132673Y-71249198D01*
X49311301Y-71427827D01*
X49544690Y-71524500D01*
X50260250Y-71524500D01*
X50419000Y-71365750D01*
X50419000Y-70304000D01*
X50673000Y-70304000D01*
X50673000Y-71365750D01*
X50831750Y-71524500D01*
X51547310Y-71524500D01*
X51780699Y-71427827D01*
X51959327Y-71249198D01*
X52056000Y-71015809D01*
X52056000Y-70462750D01*
X54116000Y-70462750D01*
X54116000Y-71015809D01*
X54212673Y-71249198D01*
X54391301Y-71427827D01*
X54624690Y-71524500D01*
X55340250Y-71524500D01*
X55499000Y-71365750D01*
X55499000Y-70304000D01*
X55753000Y-70304000D01*
X55753000Y-71365750D01*
X55911750Y-71524500D01*
X56627310Y-71524500D01*
X56860699Y-71427827D01*
X57039327Y-71249198D01*
X57136000Y-71015809D01*
X57136000Y-70462750D01*
X56977250Y-70304000D01*
X55753000Y-70304000D01*
X55499000Y-70304000D01*
X54274750Y-70304000D01*
X54116000Y-70462750D01*
X52056000Y-70462750D01*
X51897250Y-70304000D01*
X50673000Y-70304000D01*
X50419000Y-70304000D01*
X49194750Y-70304000D01*
X49036000Y-70462750D01*
X46405000Y-70462750D01*
X46405000Y-69338191D01*
X49036000Y-69338191D01*
X49036000Y-69891250D01*
X49194750Y-70050000D01*
X50419000Y-70050000D01*
X50419000Y-68988250D01*
X50673000Y-68988250D01*
X50673000Y-70050000D01*
X51897250Y-70050000D01*
X52056000Y-69891250D01*
X52056000Y-69338191D01*
X54116000Y-69338191D01*
X54116000Y-69891250D01*
X54274750Y-70050000D01*
X55499000Y-70050000D01*
X55499000Y-68988250D01*
X55753000Y-68988250D01*
X55753000Y-70050000D01*
X56977250Y-70050000D01*
X57136000Y-69891250D01*
X57136000Y-69338191D01*
X57039327Y-69104802D01*
X56860699Y-68926173D01*
X56627310Y-68829500D01*
X55911750Y-68829500D01*
X55753000Y-68988250D01*
X55499000Y-68988250D01*
X55340250Y-68829500D01*
X54624690Y-68829500D01*
X54391301Y-68926173D01*
X54212673Y-69104802D01*
X54116000Y-69338191D01*
X52056000Y-69338191D01*
X51959327Y-69104802D01*
X51780699Y-68926173D01*
X51547310Y-68829500D01*
X50831750Y-68829500D01*
X50673000Y-68988250D01*
X50419000Y-68988250D01*
X50260250Y-68829500D01*
X49544690Y-68829500D01*
X49311301Y-68926173D01*
X49132673Y-69104802D01*
X49036000Y-69338191D01*
X46405000Y-69338191D01*
X46405000Y-64874750D01*
X57672000Y-64874750D01*
X57672000Y-65427809D01*
X57768673Y-65661198D01*
X57947301Y-65839827D01*
X58180690Y-65936500D01*
X58896250Y-65936500D01*
X59055000Y-65777750D01*
X59055000Y-64716000D01*
X59309000Y-64716000D01*
X59309000Y-65777750D01*
X59467750Y-65936500D01*
X60183310Y-65936500D01*
X60416699Y-65839827D01*
X60595327Y-65661198D01*
X60692000Y-65427809D01*
X60692000Y-64874750D01*
X70372000Y-64874750D01*
X70372000Y-65427809D01*
X70468673Y-65661198D01*
X70647301Y-65839827D01*
X70880690Y-65936500D01*
X71596250Y-65936500D01*
X71755000Y-65777750D01*
X71755000Y-64716000D01*
X72009000Y-64716000D01*
X72009000Y-65777750D01*
X72167750Y-65936500D01*
X72883310Y-65936500D01*
X73116699Y-65839827D01*
X73295327Y-65661198D01*
X73392000Y-65427809D01*
X73392000Y-64874750D01*
X73233250Y-64716000D01*
X72009000Y-64716000D01*
X71755000Y-64716000D01*
X70530750Y-64716000D01*
X70372000Y-64874750D01*
X60692000Y-64874750D01*
X60533250Y-64716000D01*
X59309000Y-64716000D01*
X59055000Y-64716000D01*
X57830750Y-64716000D01*
X57672000Y-64874750D01*
X46405000Y-64874750D01*
X46405000Y-63750191D01*
X57672000Y-63750191D01*
X57672000Y-64303250D01*
X57830750Y-64462000D01*
X59055000Y-64462000D01*
X59055000Y-63400250D01*
X59309000Y-63400250D01*
X59309000Y-64462000D01*
X60533250Y-64462000D01*
X60692000Y-64303250D01*
X60692000Y-63750191D01*
X70372000Y-63750191D01*
X70372000Y-64303250D01*
X70530750Y-64462000D01*
X71755000Y-64462000D01*
X71755000Y-63400250D01*
X72009000Y-63400250D01*
X72009000Y-64462000D01*
X73233250Y-64462000D01*
X73392000Y-64303250D01*
X73392000Y-63750191D01*
X73295327Y-63516802D01*
X73116699Y-63338173D01*
X72883310Y-63241500D01*
X72167750Y-63241500D01*
X72009000Y-63400250D01*
X71755000Y-63400250D01*
X71596250Y-63241500D01*
X70880690Y-63241500D01*
X70647301Y-63338173D01*
X70468673Y-63516802D01*
X70372000Y-63750191D01*
X60692000Y-63750191D01*
X60595327Y-63516802D01*
X60416699Y-63338173D01*
X60183310Y-63241500D01*
X59467750Y-63241500D01*
X59309000Y-63400250D01*
X59055000Y-63400250D01*
X58896250Y-63241500D01*
X58180690Y-63241500D01*
X57947301Y-63338173D01*
X57768673Y-63516802D01*
X57672000Y-63750191D01*
X46405000Y-63750191D01*
X46405000Y-61954316D01*
X47445290Y-61954316D01*
X47946139Y-62564068D01*
X49749242Y-63340745D01*
X51712314Y-63368283D01*
X53536494Y-62642490D01*
X53653861Y-62564068D01*
X54154710Y-61954316D01*
X50800000Y-58599605D01*
X47445290Y-61954316D01*
X46405000Y-61954316D01*
X46405000Y-60722914D01*
X46577510Y-61156494D01*
X46655932Y-61273861D01*
X47265684Y-61774710D01*
X50620395Y-58420000D01*
X50979605Y-58420000D01*
X54334316Y-61774710D01*
X54944068Y-61273861D01*
X55720745Y-59470758D01*
X55737098Y-58305000D01*
X64232560Y-58305000D01*
X64232560Y-59805000D01*
X64281843Y-60052765D01*
X64422191Y-60262809D01*
X64632235Y-60403157D01*
X64880000Y-60452440D01*
X65930000Y-60452440D01*
X66177765Y-60403157D01*
X66223134Y-60372842D01*
X66675000Y-60462725D01*
X67127609Y-60372695D01*
X67319996Y-60244146D01*
X67577664Y-60390266D01*
X67639190Y-60398964D01*
X67818000Y-60273163D01*
X67818000Y-59479709D01*
X67835000Y-59394245D01*
X67835000Y-59182000D01*
X68072000Y-59182000D01*
X68072000Y-60273163D01*
X68250810Y-60398964D01*
X68312336Y-60390266D01*
X68709255Y-60165179D01*
X68989823Y-59805331D01*
X69111326Y-59365506D01*
X69082434Y-59332314D01*
X106811717Y-59332314D01*
X107537510Y-61156494D01*
X107615932Y-61273861D01*
X108225684Y-61774710D01*
X111580395Y-58420000D01*
X108225684Y-55065290D01*
X107615932Y-55566139D01*
X106839255Y-57369242D01*
X106811717Y-59332314D01*
X69082434Y-59332314D01*
X68951593Y-59182000D01*
X68072000Y-59182000D01*
X67835000Y-59182000D01*
X67835000Y-58715754D01*
X67818000Y-58630290D01*
X67818000Y-57836837D01*
X68072000Y-57836837D01*
X68072000Y-58928000D01*
X68951593Y-58928000D01*
X69111326Y-58744494D01*
X68989823Y-58304669D01*
X68709255Y-57944821D01*
X68312336Y-57719734D01*
X68250810Y-57711036D01*
X68072000Y-57836837D01*
X67818000Y-57836837D01*
X67639190Y-57711036D01*
X67577664Y-57719734D01*
X67319996Y-57865854D01*
X67127608Y-57737305D01*
X66675000Y-57647275D01*
X66223133Y-57737157D01*
X66177765Y-57706843D01*
X65930000Y-57657560D01*
X64880000Y-57657560D01*
X64632235Y-57706843D01*
X64422191Y-57847191D01*
X64281843Y-58057235D01*
X64232560Y-58305000D01*
X55737098Y-58305000D01*
X55748283Y-57507686D01*
X55022490Y-55683506D01*
X54944068Y-55566139D01*
X54334316Y-55065290D01*
X50979605Y-58420000D01*
X50620395Y-58420000D01*
X50606252Y-58405858D01*
X50785858Y-58226252D01*
X50800000Y-58240395D01*
X54154710Y-54885684D01*
X53653861Y-54275932D01*
X53071307Y-54025000D01*
X109457086Y-54025000D01*
X109023506Y-54197510D01*
X109023506Y-54197510D01*
G37*
X109023506Y-54197510D02*
X108906139Y-54275932D01*
X108405290Y-54885684D01*
X111760000Y-58240395D01*
X111774142Y-58226252D01*
X111953748Y-58405858D01*
X111939605Y-58420000D01*
X115294316Y-61774710D01*
X115904068Y-61273861D01*
X116155000Y-60691307D01*
X116155001Y-150097088D01*
X115982490Y-149663506D01*
X115904068Y-149546139D01*
X115294316Y-149045290D01*
X111939605Y-152400000D01*
X111953748Y-152414142D01*
X111774142Y-152593748D01*
X111760000Y-152579605D01*
X108405290Y-155934316D01*
X108906139Y-156544068D01*
X109488693Y-156795000D01*
X53102914Y-156795000D01*
X53536494Y-156622490D01*
X53653861Y-156544068D01*
X54154710Y-155934316D01*
X50800000Y-152579605D01*
X50785858Y-152593748D01*
X50606252Y-152414142D01*
X50620395Y-152400000D01*
X50979605Y-152400000D01*
X54334316Y-155754710D01*
X54944068Y-155253861D01*
X55720745Y-153450758D01*
X55748283Y-151487686D01*
X55022490Y-149663506D01*
X54944068Y-149546139D01*
X54334316Y-149045290D01*
X50979605Y-152400000D01*
X50620395Y-152400000D01*
X47265684Y-149045290D01*
X46655932Y-149546139D01*
X46405000Y-150128693D01*
X46405000Y-148865684D01*
X47445290Y-148865684D01*
X50800000Y-152220395D01*
X54154710Y-148865684D01*
X53653861Y-148255932D01*
X51850758Y-147479255D01*
X49887686Y-147451717D01*
X48063506Y-148177510D01*
X47946139Y-148255932D01*
X47445290Y-148865684D01*
X46405000Y-148865684D01*
X46405000Y-90481500D01*
X47864765Y-90481500D01*
X47887000Y-90593283D01*
X47887001Y-92344214D01*
X47887000Y-92344217D01*
X47887000Y-93329782D01*
X47887001Y-93329787D01*
X47887000Y-99171782D01*
X47887001Y-99171787D01*
X47887000Y-141620217D01*
X47864765Y-141732000D01*
X47952854Y-142174854D01*
X48203711Y-142550289D01*
X48298482Y-142613613D01*
X49628976Y-143944108D01*
X49628979Y-143944110D01*
X58808389Y-153123521D01*
X58871711Y-153218289D01*
X59247145Y-153469146D01*
X59689999Y-153557235D01*
X59801782Y-153535000D01*
X69738217Y-153535000D01*
X69850000Y-153557235D01*
X69961783Y-153535000D01*
X70292855Y-153469146D01*
X70527570Y-153312314D01*
X106811717Y-153312314D01*
X107537510Y-155136494D01*
X107615932Y-155253861D01*
X108225684Y-155754710D01*
X111580395Y-152400000D01*
X108225684Y-149045290D01*
X107615932Y-149546139D01*
X106839255Y-151349242D01*
X106811717Y-153312314D01*
X70527570Y-153312314D01*
X70668289Y-153218289D01*
X70731613Y-153123518D01*
X73263524Y-150591609D01*
X73358289Y-150528289D01*
X73609146Y-150152855D01*
X73675000Y-149821783D01*
X73697235Y-149710001D01*
X73675000Y-149598219D01*
X73675000Y-149373213D01*
X74182529Y-148865684D01*
X108405290Y-148865684D01*
X111760000Y-152220395D01*
X115114710Y-148865684D01*
X114613861Y-148255932D01*
X112810758Y-147479255D01*
X110847686Y-147451717D01*
X109023506Y-148177510D01*
X108906139Y-148255932D01*
X108405290Y-148865684D01*
X74182529Y-148865684D01*
X74222801Y-148825412D01*
X74525000Y-148095841D01*
X74525000Y-147306159D01*
X74222801Y-146576588D01*
X73675000Y-146028787D01*
X73675000Y-145041781D01*
X73697235Y-144929999D01*
X73675000Y-144818217D01*
X73609146Y-144487145D01*
X73358289Y-144111711D01*
X73263521Y-144048389D01*
X72001613Y-142786482D01*
X71938289Y-142691711D01*
X71562855Y-142440854D01*
X71231783Y-142375000D01*
X71120000Y-142352765D01*
X71008217Y-142375000D01*
X55842132Y-142375000D01*
X55070726Y-141603594D01*
X85483000Y-141603594D01*
X85483000Y-142876407D01*
X85563359Y-143280400D01*
X85869472Y-143738529D01*
X86327601Y-144044641D01*
X86868000Y-144152133D01*
X87408400Y-144044641D01*
X87866529Y-143738529D01*
X88138000Y-143332244D01*
X88409472Y-143738529D01*
X88867601Y-144044641D01*
X89408000Y-144152133D01*
X89948400Y-144044641D01*
X90406529Y-143738529D01*
X90712641Y-143280400D01*
X90793000Y-142876407D01*
X90793000Y-142367000D01*
X103263000Y-142367000D01*
X103263000Y-142867000D01*
X103417028Y-143387349D01*
X103758460Y-143809145D01*
X104235316Y-144068173D01*
X104306815Y-144082318D01*
X104521000Y-143959656D01*
X104521000Y-142367000D01*
X104775000Y-142367000D01*
X104775000Y-143959656D01*
X104989185Y-144082318D01*
X105060684Y-144068173D01*
X105537540Y-143809145D01*
X105878972Y-143387349D01*
X106033000Y-142867000D01*
X106033000Y-142367000D01*
X104775000Y-142367000D01*
X104521000Y-142367000D01*
X103263000Y-142367000D01*
X90793000Y-142367000D01*
X90793000Y-141613000D01*
X103263000Y-141613000D01*
X103263000Y-142113000D01*
X104521000Y-142113000D01*
X104521000Y-140520344D01*
X104775000Y-140520344D01*
X104775000Y-142113000D01*
X106033000Y-142113000D01*
X106033000Y-141613000D01*
X105878972Y-141092651D01*
X105537540Y-140670855D01*
X105060684Y-140411827D01*
X104989185Y-140397682D01*
X104775000Y-140520344D01*
X104521000Y-140520344D01*
X104306815Y-140397682D01*
X104235316Y-140411827D01*
X103758460Y-140670855D01*
X103417028Y-141092651D01*
X103263000Y-141613000D01*
X90793000Y-141613000D01*
X90793000Y-141603593D01*
X90712641Y-141199600D01*
X90406528Y-140741471D01*
X89948399Y-140435359D01*
X89408000Y-140327867D01*
X88867600Y-140435359D01*
X88409471Y-140741472D01*
X88138000Y-141147757D01*
X87866528Y-140741471D01*
X87408399Y-140435359D01*
X86868000Y-140327867D01*
X86327600Y-140435359D01*
X85869471Y-140741472D01*
X85563359Y-141199601D01*
X85483000Y-141603594D01*
X55070726Y-141603594D01*
X53205000Y-139737869D01*
X53205000Y-133774001D01*
X53374560Y-133774001D01*
X53374560Y-135973999D01*
X53442874Y-136317435D01*
X53637414Y-136608586D01*
X53928565Y-136803126D01*
X54272001Y-136871440D01*
X56471999Y-136871440D01*
X56815435Y-136803126D01*
X57106586Y-136608586D01*
X57301126Y-136317435D01*
X57369440Y-135973999D01*
X57369440Y-135323016D01*
X57649199Y-135998412D01*
X58207588Y-136556801D01*
X58937159Y-136859000D01*
X59726841Y-136859000D01*
X60456412Y-136556801D01*
X61014801Y-135998412D01*
X61312000Y-135280912D01*
X61609199Y-135998412D01*
X62167588Y-136556801D01*
X62897159Y-136859000D01*
X63686841Y-136859000D01*
X64416412Y-136556801D01*
X64974801Y-135998412D01*
X65272000Y-135280912D01*
X65569199Y-135998412D01*
X66127588Y-136556801D01*
X66492001Y-136707746D01*
X66492001Y-136708336D01*
X66477112Y-136783188D01*
X66492001Y-136858040D01*
X66536097Y-137079725D01*
X66704072Y-137331117D01*
X66767528Y-137373517D01*
X68308483Y-138914473D01*
X68350883Y-138977929D01*
X68602275Y-139145904D01*
X68823960Y-139190000D01*
X68823965Y-139190000D01*
X68898812Y-139204888D01*
X68973659Y-139190000D01*
X76125153Y-139190000D01*
X76200000Y-139204888D01*
X76274847Y-139190000D01*
X76274852Y-139190000D01*
X76496537Y-139145904D01*
X76747929Y-138977929D01*
X76790331Y-138914470D01*
X79224476Y-136480327D01*
X79287929Y-136437929D01*
X79330327Y-136374476D01*
X79330329Y-136374474D01*
X79423349Y-136235259D01*
X79455904Y-136186537D01*
X79500000Y-135964852D01*
X79500000Y-135964848D01*
X79514888Y-135890001D01*
X79500000Y-135815154D01*
X79500000Y-126363594D01*
X85483000Y-126363594D01*
X85483000Y-127636407D01*
X85563359Y-128040400D01*
X85869472Y-128498529D01*
X86327601Y-128804641D01*
X86868000Y-128912133D01*
X87408400Y-128804641D01*
X87866529Y-128498529D01*
X88138000Y-128092244D01*
X88409472Y-128498529D01*
X88867601Y-128804641D01*
X89408000Y-128912133D01*
X89948400Y-128804641D01*
X90406529Y-128498529D01*
X90712641Y-128040400D01*
X90793000Y-127636407D01*
X90793000Y-126363593D01*
X90712641Y-125959600D01*
X90406528Y-125501471D01*
X89948399Y-125195359D01*
X89408000Y-125087867D01*
X88867600Y-125195359D01*
X88409471Y-125501472D01*
X88138000Y-125907757D01*
X87866528Y-125501471D01*
X87408399Y-125195359D01*
X86868000Y-125087867D01*
X86327600Y-125195359D01*
X85869471Y-125501472D01*
X85563359Y-125959601D01*
X85483000Y-126363594D01*
X79500000Y-126363594D01*
X79500000Y-120435000D01*
X91212560Y-120435000D01*
X91212560Y-122135000D01*
X91261843Y-122382765D01*
X91402191Y-122592809D01*
X91612235Y-122733157D01*
X91860000Y-122782440D01*
X93560000Y-122782440D01*
X93807765Y-122733157D01*
X94017809Y-122592809D01*
X94158157Y-122382765D01*
X94178739Y-122279292D01*
X94483076Y-122556645D01*
X94893110Y-122726476D01*
X95123000Y-122605155D01*
X95123000Y-121412000D01*
X95377000Y-121412000D01*
X95377000Y-122605155D01*
X95606890Y-122726476D01*
X96016924Y-122556645D01*
X96445183Y-122166358D01*
X96691486Y-121641892D01*
X96570819Y-121412000D01*
X95377000Y-121412000D01*
X95123000Y-121412000D01*
X95103000Y-121412000D01*
X95103000Y-121158000D01*
X95123000Y-121158000D01*
X95123000Y-119964845D01*
X95377000Y-119964845D01*
X95377000Y-121158000D01*
X96570819Y-121158000D01*
X96691486Y-120928108D01*
X96445183Y-120403642D01*
X96413213Y-120374506D01*
X100215000Y-120374506D01*
X100215000Y-120925494D01*
X100425853Y-121434540D01*
X100815460Y-121824147D01*
X100840000Y-121834312D01*
X100840001Y-130735148D01*
X100825112Y-130810000D01*
X100840001Y-130884852D01*
X100884097Y-131106537D01*
X101052072Y-131357929D01*
X101115528Y-131400329D01*
X108968000Y-139252802D01*
X108968000Y-140582091D01*
X108729471Y-140741472D01*
X108423359Y-141199601D01*
X108343000Y-141603594D01*
X108343000Y-142876407D01*
X108423359Y-143280400D01*
X108729472Y-143738529D01*
X109187601Y-144044641D01*
X109728000Y-144152133D01*
X110268400Y-144044641D01*
X110726529Y-143738529D01*
X111032641Y-143280400D01*
X111113000Y-142876407D01*
X111113000Y-141603593D01*
X111032641Y-141199600D01*
X110726528Y-140741471D01*
X110488000Y-140582092D01*
X110488000Y-139012848D01*
X110502888Y-138938000D01*
X110488000Y-138863152D01*
X110488000Y-138863148D01*
X110443904Y-138641463D01*
X110443904Y-138641462D01*
X110318329Y-138453527D01*
X110275929Y-138390071D01*
X110212473Y-138347671D01*
X102360000Y-130495199D01*
X102360000Y-127127000D01*
X103263000Y-127127000D01*
X103263000Y-127627000D01*
X103417028Y-128147349D01*
X103758460Y-128569145D01*
X104235316Y-128828173D01*
X104306815Y-128842318D01*
X104521000Y-128719656D01*
X104521000Y-127127000D01*
X104775000Y-127127000D01*
X104775000Y-128719656D01*
X104989185Y-128842318D01*
X105060684Y-128828173D01*
X105537540Y-128569145D01*
X105878972Y-128147349D01*
X106033000Y-127627000D01*
X106033000Y-127127000D01*
X104775000Y-127127000D01*
X104521000Y-127127000D01*
X103263000Y-127127000D01*
X102360000Y-127127000D01*
X102360000Y-126373000D01*
X103263000Y-126373000D01*
X103263000Y-126873000D01*
X104521000Y-126873000D01*
X104521000Y-125280344D01*
X104775000Y-125280344D01*
X104775000Y-126873000D01*
X106033000Y-126873000D01*
X106033000Y-126373000D01*
X106030216Y-126363594D01*
X108343000Y-126363594D01*
X108343000Y-127636407D01*
X108423359Y-128040400D01*
X108729472Y-128498529D01*
X109187601Y-128804641D01*
X109728000Y-128912133D01*
X110268400Y-128804641D01*
X110726529Y-128498529D01*
X111032641Y-128040400D01*
X111113000Y-127636407D01*
X111113000Y-126363593D01*
X111032641Y-125959600D01*
X110726528Y-125501471D01*
X110615000Y-125426950D01*
X110615000Y-121834312D01*
X110639540Y-121824147D01*
X111029147Y-121434540D01*
X111240000Y-120925494D01*
X111240000Y-120374506D01*
X111029147Y-119865460D01*
X110639540Y-119475853D01*
X110130494Y-119265000D01*
X109579506Y-119265000D01*
X109070460Y-119475853D01*
X108680853Y-119865460D01*
X108470000Y-120374506D01*
X108470000Y-120925494D01*
X108680853Y-121434540D01*
X109070460Y-121824147D01*
X109095000Y-121834312D01*
X109095001Y-125257232D01*
X108729471Y-125501472D01*
X108423359Y-125959601D01*
X108343000Y-126363594D01*
X106030216Y-126363594D01*
X105878972Y-125852651D01*
X105537540Y-125430855D01*
X105060684Y-125171827D01*
X104989185Y-125157682D01*
X104775000Y-125280344D01*
X104521000Y-125280344D01*
X104306815Y-125157682D01*
X104235316Y-125171827D01*
X103758460Y-125430855D01*
X103417028Y-125852651D01*
X103263000Y-126373000D01*
X102360000Y-126373000D01*
X102360000Y-121834312D01*
X102384540Y-121824147D01*
X102774147Y-121434540D01*
X102985000Y-120925494D01*
X102985000Y-120374506D01*
X102774147Y-119865460D01*
X102384540Y-119475853D01*
X101875494Y-119265000D01*
X101324506Y-119265000D01*
X100815460Y-119475853D01*
X100425853Y-119865460D01*
X100215000Y-120374506D01*
X96413213Y-120374506D01*
X96016924Y-120013355D01*
X95606890Y-119843524D01*
X95377000Y-119964845D01*
X95123000Y-119964845D01*
X94893110Y-119843524D01*
X94483076Y-120013355D01*
X94178739Y-120290708D01*
X94158157Y-120187235D01*
X94017809Y-119977191D01*
X93807765Y-119836843D01*
X93560000Y-119787560D01*
X91860000Y-119787560D01*
X91612235Y-119836843D01*
X91402191Y-119977191D01*
X91261843Y-120187235D01*
X91212560Y-120435000D01*
X79500000Y-120435000D01*
X79500000Y-106404506D01*
X79641000Y-106404506D01*
X79641000Y-106955494D01*
X79851853Y-107464540D01*
X80241460Y-107854147D01*
X80750506Y-108065000D01*
X81301494Y-108065000D01*
X81810540Y-107854147D01*
X82200147Y-107464540D01*
X82210312Y-107440000D01*
X84804686Y-107440000D01*
X84879864Y-107817945D01*
X85241232Y-108358769D01*
X85782056Y-108720136D01*
X86420000Y-108847031D01*
X87057945Y-108720136D01*
X87169805Y-108645393D01*
X86129530Y-109685669D01*
X86129527Y-109685671D01*
X84815199Y-111000000D01*
X82210312Y-111000000D01*
X82200147Y-110975460D01*
X81810540Y-110585853D01*
X81301494Y-110375000D01*
X80750506Y-110375000D01*
X80241460Y-110585853D01*
X79851853Y-110975460D01*
X79641000Y-111484506D01*
X79641000Y-112035494D01*
X79851853Y-112544540D01*
X80241460Y-112934147D01*
X80750506Y-113145000D01*
X81301494Y-113145000D01*
X81810540Y-112934147D01*
X82200147Y-112544540D01*
X82210312Y-112520000D01*
X85055153Y-112520000D01*
X85130000Y-112534888D01*
X85204847Y-112520000D01*
X85204852Y-112520000D01*
X85232344Y-112514532D01*
X84879864Y-113042056D01*
X84785000Y-113518970D01*
X84785000Y-114841031D01*
X84879864Y-115317945D01*
X85241232Y-115858769D01*
X85782056Y-116220136D01*
X86420000Y-116347031D01*
X87057945Y-116220136D01*
X87598769Y-115858769D01*
X87960136Y-115317945D01*
X88055000Y-114841031D01*
X88055000Y-113518970D01*
X89825000Y-113518970D01*
X89825000Y-114841031D01*
X89919864Y-115317945D01*
X90281232Y-115858769D01*
X90822056Y-116220136D01*
X91460000Y-116347031D01*
X92097945Y-116220136D01*
X92638769Y-115858769D01*
X93000136Y-115317945D01*
X93095000Y-114841031D01*
X93095000Y-114560434D01*
X109669876Y-114560434D01*
X109700856Y-114688355D01*
X110014078Y-115246317D01*
X110516980Y-115641942D01*
X111133000Y-115815000D01*
X111633000Y-115815000D01*
X111633000Y-114307000D01*
X111887000Y-114307000D01*
X111887000Y-115815000D01*
X112387000Y-115815000D01*
X113003020Y-115641942D01*
X113505922Y-115246317D01*
X113819144Y-114688355D01*
X113850124Y-114560434D01*
X113730777Y-114307000D01*
X111887000Y-114307000D01*
X111633000Y-114307000D01*
X109789223Y-114307000D01*
X109669876Y-114560434D01*
X93095000Y-114560434D01*
X93095000Y-113799566D01*
X109669876Y-113799566D01*
X109789223Y-114053000D01*
X111633000Y-114053000D01*
X111633000Y-112545000D01*
X111887000Y-112545000D01*
X111887000Y-114053000D01*
X113730777Y-114053000D01*
X113850124Y-113799566D01*
X113819144Y-113671645D01*
X113505922Y-113113683D01*
X113003020Y-112718058D01*
X112387000Y-112545000D01*
X111887000Y-112545000D01*
X111633000Y-112545000D01*
X111133000Y-112545000D01*
X110516980Y-112718058D01*
X110014078Y-113113683D01*
X109700856Y-113671645D01*
X109669876Y-113799566D01*
X93095000Y-113799566D01*
X93095000Y-113518969D01*
X93000136Y-113042055D01*
X92638769Y-112501231D01*
X92097944Y-112139864D01*
X91460000Y-112012969D01*
X90822055Y-112139864D01*
X90281231Y-112501231D01*
X89919864Y-113042056D01*
X89825000Y-113518970D01*
X88055000Y-113518970D01*
X88055000Y-113518969D01*
X87960136Y-113042055D01*
X87598769Y-112501231D01*
X87057944Y-112139864D01*
X86420000Y-112012969D01*
X85835585Y-112129216D01*
X87204329Y-110760473D01*
X87204331Y-110760470D01*
X90010785Y-107954017D01*
X90281232Y-108358769D01*
X90822056Y-108720136D01*
X91460000Y-108847031D01*
X92097945Y-108720136D01*
X92638769Y-108358769D01*
X93000136Y-107817945D01*
X93095000Y-107341031D01*
X93095000Y-106018969D01*
X93027575Y-105680000D01*
X109612560Y-105680000D01*
X109612560Y-107680000D01*
X109661843Y-107927765D01*
X109802191Y-108137809D01*
X110012235Y-108278157D01*
X110260000Y-108327440D01*
X113260000Y-108327440D01*
X113507765Y-108278157D01*
X113717809Y-108137809D01*
X113858157Y-107927765D01*
X113907440Y-107680000D01*
X113907440Y-105680000D01*
X113858157Y-105432235D01*
X113717809Y-105222191D01*
X113507765Y-105081843D01*
X113260000Y-105032560D01*
X110260000Y-105032560D01*
X110012235Y-105081843D01*
X109802191Y-105222191D01*
X109661843Y-105432235D01*
X109612560Y-105680000D01*
X93027575Y-105680000D01*
X93000136Y-105542055D01*
X92638769Y-105001231D01*
X92097944Y-104639864D01*
X91460000Y-104512969D01*
X90822055Y-104639864D01*
X90281231Y-105001231D01*
X89919864Y-105542056D01*
X89825000Y-106018970D01*
X89825000Y-106023205D01*
X89662071Y-106132071D01*
X89619671Y-106195527D01*
X87885394Y-107929805D01*
X87960136Y-107817945D01*
X88055000Y-107341031D01*
X88055000Y-106018969D01*
X87960136Y-105542055D01*
X87598769Y-105001231D01*
X87057944Y-104639864D01*
X86420000Y-104512969D01*
X85782055Y-104639864D01*
X85241231Y-105001231D01*
X84879864Y-105542056D01*
X84804686Y-105920000D01*
X82210312Y-105920000D01*
X82200147Y-105895460D01*
X81810540Y-105505853D01*
X81301494Y-105295000D01*
X80750506Y-105295000D01*
X80241460Y-105505853D01*
X79851853Y-105895460D01*
X79641000Y-106404506D01*
X79500000Y-106404506D01*
X79500000Y-103184801D01*
X85574473Y-97110329D01*
X85637929Y-97067929D01*
X85805904Y-96816537D01*
X85850000Y-96594852D01*
X85850000Y-96594848D01*
X85864888Y-96520001D01*
X85850000Y-96445154D01*
X85850000Y-91440000D01*
X95056887Y-91440000D01*
X95168260Y-91999909D01*
X95485423Y-92474577D01*
X95837758Y-92710000D01*
X95485423Y-92945423D01*
X95168260Y-93420091D01*
X95056887Y-93980000D01*
X95168260Y-94539909D01*
X95485423Y-95014577D01*
X95606106Y-95095215D01*
X95472235Y-95121843D01*
X95262191Y-95262191D01*
X95121843Y-95472235D01*
X95072560Y-95720000D01*
X95072560Y-97320000D01*
X95121843Y-97567765D01*
X95262191Y-97777809D01*
X95472235Y-97918157D01*
X95720000Y-97967440D01*
X97320000Y-97967440D01*
X97567765Y-97918157D01*
X97777809Y-97777809D01*
X97918157Y-97567765D01*
X97967440Y-97320000D01*
X97967440Y-95720000D01*
X97918157Y-95472235D01*
X97883256Y-95420001D01*
X107222560Y-95420001D01*
X107222560Y-97619999D01*
X107290874Y-97963435D01*
X107485414Y-98254586D01*
X107776565Y-98449126D01*
X108120001Y-98517440D01*
X110319999Y-98517440D01*
X110663435Y-98449126D01*
X110954586Y-98254586D01*
X111149126Y-97963435D01*
X111217440Y-97619999D01*
X111217440Y-95420001D01*
X111149126Y-95076565D01*
X110954586Y-94785414D01*
X110663435Y-94590874D01*
X110319999Y-94522560D01*
X109691847Y-94522560D01*
X110304522Y-94268782D01*
X110445988Y-93965593D01*
X109220000Y-92739605D01*
X107994012Y-93965593D01*
X108135478Y-94268782D01*
X108791377Y-94522560D01*
X108120001Y-94522560D01*
X107776565Y-94590874D01*
X107485414Y-94785414D01*
X107290874Y-95076565D01*
X107222560Y-95420001D01*
X97883256Y-95420001D01*
X97777809Y-95262191D01*
X97567765Y-95121843D01*
X97433894Y-95095215D01*
X97554577Y-95014577D01*
X97871740Y-94539909D01*
X97983113Y-93980000D01*
X97871740Y-93420091D01*
X97554577Y-92945423D01*
X97202242Y-92710000D01*
X97554577Y-92474577D01*
X97730055Y-92211955D01*
X107226263Y-92211955D01*
X107244836Y-93001418D01*
X107511218Y-93644522D01*
X107814407Y-93785988D01*
X109040395Y-92560000D01*
X109399605Y-92560000D01*
X110625593Y-93785988D01*
X110928782Y-93644522D01*
X111213737Y-92908045D01*
X111195164Y-92118582D01*
X110928782Y-91475478D01*
X110625593Y-91334012D01*
X109399605Y-92560000D01*
X109040395Y-92560000D01*
X107814407Y-91334012D01*
X107511218Y-91475478D01*
X107226263Y-92211955D01*
X97730055Y-92211955D01*
X97871740Y-91999909D01*
X97983113Y-91440000D01*
X97871740Y-90880091D01*
X97554577Y-90405423D01*
X97170892Y-90149053D01*
X97375134Y-90052389D01*
X97751041Y-89637423D01*
X97911904Y-89249039D01*
X97789915Y-89027000D01*
X96647000Y-89027000D01*
X96647000Y-89047000D01*
X96393000Y-89047000D01*
X96393000Y-89027000D01*
X95250085Y-89027000D01*
X95128096Y-89249039D01*
X95288959Y-89637423D01*
X95664866Y-90052389D01*
X95869108Y-90149053D01*
X95485423Y-90405423D01*
X95168260Y-90880091D01*
X95056887Y-91440000D01*
X85850000Y-91440000D01*
X85850000Y-72464848D01*
X85864888Y-72390000D01*
X85850000Y-72315152D01*
X85850000Y-72315148D01*
X85805904Y-72093463D01*
X85805904Y-72093462D01*
X85680329Y-71905527D01*
X85637929Y-71842071D01*
X85574473Y-71799671D01*
X82678688Y-68903887D01*
X82743113Y-68580000D01*
X82631740Y-68020091D01*
X82314577Y-67545423D01*
X81962242Y-67310000D01*
X82314577Y-67074577D01*
X82631740Y-66599909D01*
X82743113Y-66040000D01*
X82631740Y-65480091D01*
X82314577Y-65005423D01*
X81962242Y-64770000D01*
X82314577Y-64534577D01*
X82631740Y-64059909D01*
X82743113Y-63500000D01*
X82631740Y-62940091D01*
X82314577Y-62465423D01*
X81962242Y-62230000D01*
X82314577Y-61994577D01*
X82631740Y-61519909D01*
X82743113Y-60960000D01*
X95056887Y-60960000D01*
X95168260Y-61519909D01*
X95485423Y-61994577D01*
X95837758Y-62230000D01*
X95485423Y-62465423D01*
X95168260Y-62940091D01*
X95056887Y-63500000D01*
X95168260Y-64059909D01*
X95485423Y-64534577D01*
X95837758Y-64770000D01*
X95485423Y-65005423D01*
X95168260Y-65480091D01*
X95056887Y-66040000D01*
X95168260Y-66599909D01*
X95485423Y-67074577D01*
X95837758Y-67310000D01*
X95485423Y-67545423D01*
X95168260Y-68020091D01*
X95056887Y-68580000D01*
X95168260Y-69139909D01*
X95485423Y-69614577D01*
X95837758Y-69850000D01*
X95485423Y-70085423D01*
X95168260Y-70560091D01*
X95056887Y-71120000D01*
X95168260Y-71679909D01*
X95485423Y-72154577D01*
X95837758Y-72390000D01*
X95485423Y-72625423D01*
X95168260Y-73100091D01*
X95056887Y-73660000D01*
X95168260Y-74219909D01*
X95485423Y-74694577D01*
X95837758Y-74930000D01*
X95485423Y-75165423D01*
X95168260Y-75640091D01*
X95056887Y-76200000D01*
X95168260Y-76759909D01*
X95485423Y-77234577D01*
X95837758Y-77470000D01*
X95485423Y-77705423D01*
X95168260Y-78180091D01*
X95056887Y-78740000D01*
X95168260Y-79299909D01*
X95485423Y-79774577D01*
X95837758Y-80010000D01*
X95485423Y-80245423D01*
X95168260Y-80720091D01*
X95056887Y-81280000D01*
X95168260Y-81839909D01*
X95485423Y-82314577D01*
X95837758Y-82550000D01*
X95485423Y-82785423D01*
X95168260Y-83260091D01*
X95056887Y-83820000D01*
X95168260Y-84379909D01*
X95485423Y-84854577D01*
X95837758Y-85090000D01*
X95485423Y-85325423D01*
X95168260Y-85800091D01*
X95056887Y-86360000D01*
X95168260Y-86919909D01*
X95485423Y-87394577D01*
X95869108Y-87650947D01*
X95664866Y-87747611D01*
X95288959Y-88162577D01*
X95128096Y-88550961D01*
X95250085Y-88773000D01*
X96393000Y-88773000D01*
X96393000Y-88753000D01*
X96647000Y-88753000D01*
X96647000Y-88773000D01*
X97789915Y-88773000D01*
X97911904Y-88550961D01*
X97751041Y-88162577D01*
X97375134Y-87747611D01*
X97170892Y-87650947D01*
X97554577Y-87394577D01*
X97871740Y-86919909D01*
X97983113Y-86360000D01*
X97871740Y-85800091D01*
X97554577Y-85325423D01*
X97202242Y-85090000D01*
X97554577Y-84854577D01*
X97871740Y-84379909D01*
X97983113Y-83820000D01*
X97871740Y-83260091D01*
X97554577Y-82785423D01*
X97202242Y-82550000D01*
X97554577Y-82314577D01*
X97871740Y-81839909D01*
X97983113Y-81280000D01*
X97871740Y-80720091D01*
X97554577Y-80245423D01*
X97202242Y-80010000D01*
X97554577Y-79774577D01*
X97871740Y-79299909D01*
X97983113Y-78740000D01*
X97871740Y-78180091D01*
X97554577Y-77705423D01*
X97202242Y-77470000D01*
X97554577Y-77234577D01*
X97632763Y-77117564D01*
X100840000Y-80324802D01*
X100840001Y-86132560D01*
X100750000Y-86132560D01*
X100502235Y-86181843D01*
X100292191Y-86322191D01*
X100151843Y-86532235D01*
X100102560Y-86780000D01*
X100102560Y-88480000D01*
X100151843Y-88727765D01*
X100292191Y-88937809D01*
X100502235Y-89078157D01*
X100547619Y-89087184D01*
X100529375Y-89099375D01*
X100201161Y-89590582D01*
X100085908Y-90170000D01*
X100201161Y-90749418D01*
X100529375Y-91240625D01*
X101020582Y-91568839D01*
X101453744Y-91655000D01*
X101746256Y-91655000D01*
X102179418Y-91568839D01*
X102670625Y-91240625D01*
X102728234Y-91154407D01*
X107994012Y-91154407D01*
X109220000Y-92380395D01*
X110445988Y-91154407D01*
X110304522Y-90851218D01*
X109568045Y-90566263D01*
X108778582Y-90584836D01*
X108135478Y-90851218D01*
X107994012Y-91154407D01*
X102728234Y-91154407D01*
X102998839Y-90749418D01*
X103114092Y-90170000D01*
X102998839Y-89590582D01*
X102670625Y-89099375D01*
X102652381Y-89087184D01*
X102697765Y-89078157D01*
X102907809Y-88937809D01*
X103048157Y-88727765D01*
X103097440Y-88480000D01*
X103097440Y-86780000D01*
X103070737Y-86645750D01*
X107735000Y-86645750D01*
X107735000Y-87336310D01*
X107831673Y-87569699D01*
X108010302Y-87748327D01*
X108243691Y-87845000D01*
X108934250Y-87845000D01*
X109093000Y-87686250D01*
X109093000Y-86487000D01*
X107893750Y-86487000D01*
X107735000Y-86645750D01*
X103070737Y-86645750D01*
X103048157Y-86532235D01*
X102907809Y-86322191D01*
X102697765Y-86181843D01*
X102450000Y-86132560D01*
X102360000Y-86132560D01*
X102360000Y-80084848D01*
X102374888Y-80010000D01*
X102360000Y-79935152D01*
X102360000Y-79935148D01*
X102315904Y-79713463D01*
X102315904Y-79713462D01*
X102190329Y-79525527D01*
X102147929Y-79462071D01*
X102084473Y-79419671D01*
X98380331Y-75715530D01*
X98337929Y-75652071D01*
X98086537Y-75484096D01*
X97864852Y-75440000D01*
X97864847Y-75440000D01*
X97790000Y-75425112D01*
X97735358Y-75435981D01*
X97554577Y-75165423D01*
X97202242Y-74930000D01*
X97554577Y-74694577D01*
X97632763Y-74577564D01*
X106089670Y-83034472D01*
X106132071Y-83097929D01*
X106383463Y-83265904D01*
X106605148Y-83310000D01*
X106605152Y-83310000D01*
X106680000Y-83324888D01*
X106754848Y-83310000D01*
X107807353Y-83310000D01*
X107705908Y-83820000D01*
X107821161Y-84399418D01*
X108149375Y-84890625D01*
X108171033Y-84905096D01*
X108010302Y-84971673D01*
X107831673Y-85150301D01*
X107735000Y-85383690D01*
X107735000Y-86074250D01*
X107893750Y-86233000D01*
X109093000Y-86233000D01*
X109093000Y-86213000D01*
X109347000Y-86213000D01*
X109347000Y-86233000D01*
X109367000Y-86233000D01*
X109367000Y-86487000D01*
X109347000Y-86487000D01*
X109347000Y-87686250D01*
X109505750Y-87845000D01*
X110196309Y-87845000D01*
X110429698Y-87748327D01*
X110608327Y-87569699D01*
X110674904Y-87408968D01*
X110689375Y-87430625D01*
X111180582Y-87758839D01*
X111613744Y-87845000D01*
X111906256Y-87845000D01*
X112339418Y-87758839D01*
X112830625Y-87430625D01*
X113158839Y-86939418D01*
X113274092Y-86360000D01*
X113158839Y-85780582D01*
X112830625Y-85289375D01*
X112532239Y-85090000D01*
X112830625Y-84890625D01*
X113158839Y-84399418D01*
X113274092Y-83820000D01*
X113158839Y-83240582D01*
X112830625Y-82749375D01*
X112532239Y-82550000D01*
X112830625Y-82350625D01*
X113158839Y-81859418D01*
X113274092Y-81280000D01*
X113158839Y-80700582D01*
X112830625Y-80209375D01*
X112532239Y-80010000D01*
X112830625Y-79810625D01*
X113158839Y-79319418D01*
X113274092Y-78740000D01*
X113158839Y-78160582D01*
X112830625Y-77669375D01*
X112532239Y-77470000D01*
X112830625Y-77270625D01*
X113158839Y-76779418D01*
X113274092Y-76200000D01*
X113158839Y-75620582D01*
X112830625Y-75129375D01*
X112532239Y-74930000D01*
X112830625Y-74730625D01*
X113158839Y-74239418D01*
X113274092Y-73660000D01*
X113158839Y-73080582D01*
X112830625Y-72589375D01*
X112532239Y-72390000D01*
X112830625Y-72190625D01*
X113158839Y-71699418D01*
X113274092Y-71120000D01*
X113158839Y-70540582D01*
X112830625Y-70049375D01*
X112532239Y-69850000D01*
X112830625Y-69650625D01*
X113158839Y-69159418D01*
X113274092Y-68580000D01*
X113158839Y-68000582D01*
X112830625Y-67509375D01*
X112339418Y-67181161D01*
X111906256Y-67095000D01*
X111613744Y-67095000D01*
X111180582Y-67181161D01*
X110689375Y-67509375D01*
X110490000Y-67807761D01*
X110290625Y-67509375D01*
X109799418Y-67181161D01*
X109366256Y-67095000D01*
X109073744Y-67095000D01*
X108640582Y-67181161D01*
X108149375Y-67509375D01*
X107821161Y-68000582D01*
X107705908Y-68580000D01*
X107807353Y-69090000D01*
X106994802Y-69090000D01*
X99859118Y-61954316D01*
X108405290Y-61954316D01*
X108906139Y-62564068D01*
X110709242Y-63340745D01*
X112672314Y-63368283D01*
X114496494Y-62642490D01*
X114613861Y-62564068D01*
X115114710Y-61954316D01*
X111760000Y-58599605D01*
X108405290Y-61954316D01*
X99859118Y-61954316D01*
X98380331Y-60475530D01*
X98337929Y-60412071D01*
X98086537Y-60244096D01*
X97864852Y-60200000D01*
X97864847Y-60200000D01*
X97790000Y-60185112D01*
X97735358Y-60195981D01*
X97554577Y-59925423D01*
X97079909Y-59608260D01*
X96661333Y-59525000D01*
X96378667Y-59525000D01*
X95960091Y-59608260D01*
X95485423Y-59925423D01*
X95168260Y-60400091D01*
X95056887Y-60960000D01*
X82743113Y-60960000D01*
X82631740Y-60400091D01*
X82314577Y-59925423D01*
X81839909Y-59608260D01*
X81421333Y-59525000D01*
X81138667Y-59525000D01*
X80720091Y-59608260D01*
X80245423Y-59925423D01*
X79928260Y-60400091D01*
X79816887Y-60960000D01*
X79928260Y-61519909D01*
X80245423Y-61994577D01*
X80597758Y-62230000D01*
X80245423Y-62465423D01*
X80061957Y-62740000D01*
X77384312Y-62740000D01*
X77374147Y-62715460D01*
X76984540Y-62325853D01*
X76475494Y-62115000D01*
X75924506Y-62115000D01*
X75415460Y-62325853D01*
X75025853Y-62715460D01*
X74815000Y-63224506D01*
X74815000Y-63775494D01*
X75025853Y-64284540D01*
X75415460Y-64674147D01*
X75924506Y-64885000D01*
X76475494Y-64885000D01*
X76984540Y-64674147D01*
X77374147Y-64284540D01*
X77384312Y-64260000D01*
X80061957Y-64260000D01*
X80245423Y-64534577D01*
X80597758Y-64770000D01*
X80245423Y-65005423D01*
X79928260Y-65480091D01*
X79816887Y-66040000D01*
X79928260Y-66599909D01*
X80245423Y-67074577D01*
X80597758Y-67310000D01*
X80245423Y-67545423D01*
X79928260Y-68020091D01*
X79816887Y-68580000D01*
X79928260Y-69139909D01*
X80245423Y-69614577D01*
X80597758Y-69850000D01*
X80245423Y-70085423D01*
X79928260Y-70560091D01*
X79816887Y-71120000D01*
X79928260Y-71679909D01*
X80245423Y-72154577D01*
X80597758Y-72390000D01*
X80245423Y-72625423D01*
X79928260Y-73100091D01*
X79816887Y-73660000D01*
X79928260Y-74219909D01*
X80245423Y-74694577D01*
X80597758Y-74930000D01*
X80245423Y-75165423D01*
X79928260Y-75640091D01*
X79816887Y-76200000D01*
X79928260Y-76759909D01*
X80245423Y-77234577D01*
X80597758Y-77470000D01*
X80245423Y-77705423D01*
X80167238Y-77822436D01*
X79500000Y-77155199D01*
X79500000Y-74539848D01*
X79514888Y-74465000D01*
X79500000Y-74390152D01*
X79500000Y-74390148D01*
X79455904Y-74168463D01*
X79287929Y-73917071D01*
X79224473Y-73874671D01*
X77890331Y-72540530D01*
X77847929Y-72477071D01*
X77697440Y-72376517D01*
X77697440Y-72175000D01*
X77648157Y-71927235D01*
X77507809Y-71717191D01*
X77297765Y-71576843D01*
X77050000Y-71527560D01*
X75350000Y-71527560D01*
X75102235Y-71576843D01*
X74892191Y-71717191D01*
X74751843Y-71927235D01*
X74702560Y-72175000D01*
X74702560Y-73875000D01*
X74751843Y-74122765D01*
X74892191Y-74332809D01*
X75102235Y-74473157D01*
X75147619Y-74482184D01*
X75129375Y-74494375D01*
X74801161Y-74985582D01*
X74685908Y-75565000D01*
X74801161Y-76144418D01*
X75129375Y-76635625D01*
X75440001Y-76843178D01*
X75440001Y-77395148D01*
X75425112Y-77470000D01*
X75440001Y-77544852D01*
X75484097Y-77766537D01*
X75652072Y-78017929D01*
X75715528Y-78060329D01*
X79419671Y-81764473D01*
X79462071Y-81827929D01*
X79525527Y-81870329D01*
X79713462Y-81995904D01*
X79761605Y-82005480D01*
X79935148Y-82040000D01*
X79935152Y-82040000D01*
X80010000Y-82054888D01*
X80064642Y-82044019D01*
X80245423Y-82314577D01*
X80597758Y-82550000D01*
X80245423Y-82785423D01*
X79928260Y-83260091D01*
X79816887Y-83820000D01*
X79928260Y-84379909D01*
X80245423Y-84854577D01*
X80597758Y-85090000D01*
X80245423Y-85325423D01*
X79928260Y-85800091D01*
X79816887Y-86360000D01*
X79928260Y-86919909D01*
X80245423Y-87394577D01*
X80597758Y-87630000D01*
X80245423Y-87865423D01*
X79928260Y-88340091D01*
X79816887Y-88900000D01*
X79928260Y-89459909D01*
X80245423Y-89934577D01*
X80597758Y-90170000D01*
X80245423Y-90405423D01*
X79928260Y-90880091D01*
X79816887Y-91440000D01*
X79928260Y-91999909D01*
X80245423Y-92474577D01*
X80597758Y-92710000D01*
X80245423Y-92945423D01*
X79928260Y-93420091D01*
X79816887Y-93980000D01*
X79928260Y-94539909D01*
X80245423Y-95014577D01*
X80597758Y-95250000D01*
X80245423Y-95485423D01*
X80061957Y-95760000D01*
X77384312Y-95760000D01*
X77374147Y-95735460D01*
X76984540Y-95345853D01*
X76475494Y-95135000D01*
X75924506Y-95135000D01*
X75415460Y-95345853D01*
X75025853Y-95735460D01*
X74815000Y-96244506D01*
X74815000Y-96795494D01*
X75025853Y-97304540D01*
X75415460Y-97694147D01*
X75924506Y-97905000D01*
X76475494Y-97905000D01*
X76984540Y-97694147D01*
X77374147Y-97304540D01*
X77384312Y-97280000D01*
X80061957Y-97280000D01*
X80245423Y-97554577D01*
X80720091Y-97871740D01*
X81138667Y-97955000D01*
X81421333Y-97955000D01*
X81839909Y-97871740D01*
X82314577Y-97554577D01*
X82631740Y-97079909D01*
X82743113Y-96520000D01*
X82631740Y-95960091D01*
X82314577Y-95485423D01*
X81962242Y-95250000D01*
X82314577Y-95014577D01*
X82631740Y-94539909D01*
X82743113Y-93980000D01*
X82631740Y-93420091D01*
X82314577Y-92945423D01*
X81962242Y-92710000D01*
X82314577Y-92474577D01*
X82631740Y-91999909D01*
X82743113Y-91440000D01*
X82631740Y-90880091D01*
X82314577Y-90405423D01*
X81962242Y-90170000D01*
X82314577Y-89934577D01*
X82631740Y-89459909D01*
X82743113Y-88900000D01*
X82631740Y-88340091D01*
X82314577Y-87865423D01*
X81962242Y-87630000D01*
X82314577Y-87394577D01*
X82631740Y-86919909D01*
X82743113Y-86360000D01*
X82631740Y-85800091D01*
X82314577Y-85325423D01*
X81962242Y-85090000D01*
X82314577Y-84854577D01*
X82631740Y-84379909D01*
X82743113Y-83820000D01*
X82631740Y-83260091D01*
X82314577Y-82785423D01*
X81962242Y-82550000D01*
X82314577Y-82314577D01*
X82631740Y-81839909D01*
X82743113Y-81280000D01*
X82631740Y-80720091D01*
X82314577Y-80245423D01*
X81962242Y-80010000D01*
X82314577Y-79774577D01*
X82631740Y-79299909D01*
X82743113Y-78740000D01*
X82631740Y-78180091D01*
X82314577Y-77705423D01*
X81962242Y-77470000D01*
X82314577Y-77234577D01*
X82631740Y-76759909D01*
X82743113Y-76200000D01*
X82631740Y-75640091D01*
X82314577Y-75165423D01*
X81962242Y-74930000D01*
X82314577Y-74694577D01*
X82631740Y-74219909D01*
X82743113Y-73660000D01*
X82631740Y-73100091D01*
X82314577Y-72625423D01*
X81962242Y-72390000D01*
X82314577Y-72154577D01*
X82631740Y-71679909D01*
X82743113Y-71120000D01*
X82742595Y-71117397D01*
X84330000Y-72704802D01*
X84330001Y-96205197D01*
X78255530Y-102279669D01*
X78192071Y-102322071D01*
X78024096Y-102573464D01*
X77980000Y-102795149D01*
X77980000Y-102795153D01*
X77965112Y-102870000D01*
X77980000Y-102944847D01*
X77980001Y-116765143D01*
X77980000Y-116765148D01*
X77980000Y-117676851D01*
X77980001Y-117676856D01*
X77980000Y-135575197D01*
X75885199Y-137670000D01*
X69213614Y-137670000D01*
X68181252Y-136637639D01*
X68376412Y-136556801D01*
X68934801Y-135998412D01*
X69232000Y-135280912D01*
X69529199Y-135998412D01*
X70087588Y-136556801D01*
X70817159Y-136859000D01*
X71606841Y-136859000D01*
X72336412Y-136556801D01*
X72894801Y-135998412D01*
X73192000Y-135280912D01*
X73489199Y-135998412D01*
X74047588Y-136556801D01*
X74777159Y-136859000D01*
X75566841Y-136859000D01*
X76296412Y-136556801D01*
X76854801Y-135998412D01*
X77157000Y-135268841D01*
X77157000Y-134479159D01*
X76854801Y-133749588D01*
X76296412Y-133191199D01*
X75566841Y-132889000D01*
X74777159Y-132889000D01*
X74047588Y-133191199D01*
X73489199Y-133749588D01*
X73192000Y-134467088D01*
X72894801Y-133749588D01*
X72347000Y-133201787D01*
X72347000Y-109665781D01*
X72369235Y-109553999D01*
X72347000Y-109442217D01*
X72281146Y-109111145D01*
X72030289Y-108735711D01*
X71935522Y-108672390D01*
X65404334Y-102141203D01*
X65940769Y-101782769D01*
X66302136Y-101241945D01*
X66429031Y-100604000D01*
X66302136Y-99966055D01*
X65940769Y-99425231D01*
X65399945Y-99063864D01*
X64923031Y-98969000D01*
X63600969Y-98969000D01*
X63124055Y-99063864D01*
X62583231Y-99425231D01*
X62221864Y-99966055D01*
X62094969Y-100604000D01*
X62221864Y-101241945D01*
X62583231Y-101782769D01*
X63124055Y-102144136D01*
X63127001Y-102144722D01*
X63127001Y-102492212D01*
X63104765Y-102604000D01*
X63192854Y-103046854D01*
X63192855Y-103046855D01*
X63443712Y-103422289D01*
X63538480Y-103485611D01*
X70077000Y-110024132D01*
X70077001Y-132853025D01*
X70077000Y-132853030D01*
X70077000Y-133201787D01*
X69529199Y-133749588D01*
X69232000Y-134467088D01*
X68934801Y-133749588D01*
X68376412Y-133191199D01*
X67646841Y-132889000D01*
X66857159Y-132889000D01*
X66127588Y-133191199D01*
X65569199Y-133749588D01*
X65272000Y-134467088D01*
X64974801Y-133749588D01*
X64416412Y-133191199D01*
X64052000Y-133040254D01*
X64052000Y-129020000D01*
X64410494Y-129020000D01*
X64919540Y-128809147D01*
X65309147Y-128419540D01*
X65520000Y-127910494D01*
X65520000Y-127359506D01*
X65309147Y-126850460D01*
X64919540Y-126460853D01*
X64410494Y-126250000D01*
X63859506Y-126250000D01*
X63350460Y-126460853D01*
X62960853Y-126850460D01*
X62750000Y-127359506D01*
X62750000Y-127910494D01*
X62755066Y-127922725D01*
X62744072Y-127930071D01*
X62701672Y-127993527D01*
X62701671Y-127993528D01*
X62576097Y-128181463D01*
X62517112Y-128478000D01*
X62532001Y-128552852D01*
X62532000Y-133040254D01*
X62167588Y-133191199D01*
X61609199Y-133749588D01*
X61312000Y-134467088D01*
X61014801Y-133749588D01*
X60456412Y-133191199D01*
X60092000Y-133040254D01*
X60092000Y-128621848D01*
X60106888Y-128547000D01*
X60092000Y-128472152D01*
X60092000Y-128472148D01*
X60047904Y-128250463D01*
X60047904Y-128250462D01*
X59922329Y-128062527D01*
X59879929Y-127999071D01*
X59816473Y-127956671D01*
X59794835Y-127935034D01*
X59805000Y-127910494D01*
X59805000Y-127359506D01*
X59594147Y-126850460D01*
X59204540Y-126460853D01*
X58695494Y-126250000D01*
X58144506Y-126250000D01*
X57635460Y-126460853D01*
X57245853Y-126850460D01*
X57035000Y-127359506D01*
X57035000Y-127910494D01*
X57245853Y-128419540D01*
X57635460Y-128809147D01*
X58144506Y-129020000D01*
X58572001Y-129020000D01*
X58572000Y-133040254D01*
X58207588Y-133191199D01*
X57649199Y-133749588D01*
X57369440Y-134424984D01*
X57369440Y-133774001D01*
X57301126Y-133430565D01*
X57106586Y-133139414D01*
X56815435Y-132944874D01*
X56471999Y-132876560D01*
X54272001Y-132876560D01*
X53928565Y-132944874D01*
X53637414Y-133139414D01*
X53442874Y-133430565D01*
X53374560Y-133774001D01*
X53205000Y-133774001D01*
X53205000Y-121031000D01*
X55127000Y-121031000D01*
X55127000Y-121531000D01*
X55300058Y-122147020D01*
X55695683Y-122649922D01*
X56253645Y-122963144D01*
X56381566Y-122994124D01*
X56635000Y-122874777D01*
X56635000Y-121031000D01*
X56889000Y-121031000D01*
X56889000Y-122874777D01*
X57142434Y-122994124D01*
X57270355Y-122963144D01*
X57828317Y-122649922D01*
X58223942Y-122147020D01*
X58397000Y-121531000D01*
X58397000Y-121031000D01*
X56889000Y-121031000D01*
X56635000Y-121031000D01*
X55127000Y-121031000D01*
X53205000Y-121031000D01*
X53205000Y-120277000D01*
X55127000Y-120277000D01*
X55127000Y-120777000D01*
X56635000Y-120777000D01*
X56635000Y-118933223D01*
X56889000Y-118933223D01*
X56889000Y-120777000D01*
X58397000Y-120777000D01*
X58397000Y-120277000D01*
X58223942Y-119660980D01*
X58021780Y-119404000D01*
X62614560Y-119404000D01*
X62614560Y-122404000D01*
X62663843Y-122651765D01*
X62804191Y-122861809D01*
X63014235Y-123002157D01*
X63262000Y-123051440D01*
X65262000Y-123051440D01*
X65509765Y-123002157D01*
X65719809Y-122861809D01*
X65860157Y-122651765D01*
X65909440Y-122404000D01*
X65909440Y-119404000D01*
X65860157Y-119156235D01*
X65719809Y-118946191D01*
X65509765Y-118805843D01*
X65262000Y-118756560D01*
X63262000Y-118756560D01*
X63014235Y-118805843D01*
X62804191Y-118946191D01*
X62663843Y-119156235D01*
X62614560Y-119404000D01*
X58021780Y-119404000D01*
X57828317Y-119158078D01*
X57270355Y-118844856D01*
X57142434Y-118813876D01*
X56889000Y-118933223D01*
X56635000Y-118933223D01*
X56381566Y-118813876D01*
X56253645Y-118844856D01*
X55695683Y-119158078D01*
X55300058Y-119660980D01*
X55127000Y-120277000D01*
X53205000Y-120277000D01*
X53205000Y-113754131D01*
X61175521Y-105783611D01*
X61270289Y-105720289D01*
X61521146Y-105344855D01*
X61587000Y-105013783D01*
X61609235Y-104902001D01*
X61587000Y-104790218D01*
X61587000Y-90386131D01*
X62308671Y-89664460D01*
X62479499Y-89698440D01*
X63504501Y-89698440D01*
X63847936Y-89630127D01*
X64139086Y-89435586D01*
X64333627Y-89144436D01*
X64401940Y-88801001D01*
X64401940Y-85950999D01*
X64333627Y-85607564D01*
X64139086Y-85316414D01*
X63847936Y-85121873D01*
X63802000Y-85112736D01*
X63802000Y-83440184D01*
X64900000Y-82083347D01*
X64900001Y-84039222D01*
X64884132Y-84119000D01*
X64946998Y-84435046D01*
X65126024Y-84702977D01*
X65193654Y-84748166D01*
X67557060Y-87111573D01*
X67557060Y-88801001D01*
X67625373Y-89144436D01*
X67819914Y-89435586D01*
X67832001Y-89443662D01*
X67832000Y-92888868D01*
X66291869Y-94429000D01*
X65970015Y-94429000D01*
X65940769Y-94385231D01*
X65399945Y-94023864D01*
X64923031Y-93929000D01*
X63600969Y-93929000D01*
X63124055Y-94023864D01*
X62583231Y-94385231D01*
X62221864Y-94926055D01*
X62094969Y-95564000D01*
X62221864Y-96201945D01*
X62583231Y-96742769D01*
X63124055Y-97104136D01*
X63600969Y-97199000D01*
X64923031Y-97199000D01*
X65399945Y-97104136D01*
X65940769Y-96742769D01*
X65970015Y-96699000D01*
X66650217Y-96699000D01*
X66762000Y-96721235D01*
X66873783Y-96699000D01*
X67204855Y-96633146D01*
X67580289Y-96382289D01*
X67643613Y-96287518D01*
X69690521Y-94240611D01*
X69785289Y-94177289D01*
X70036146Y-93801855D01*
X70102000Y-93470783D01*
X70102000Y-93470782D01*
X70124235Y-93359000D01*
X70102000Y-93247217D01*
X70102000Y-90170000D01*
X74685908Y-90170000D01*
X74801161Y-90749418D01*
X75129375Y-91240625D01*
X75620582Y-91568839D01*
X76053744Y-91655000D01*
X76346256Y-91655000D01*
X76779418Y-91568839D01*
X77270625Y-91240625D01*
X77598839Y-90749418D01*
X77714092Y-90170000D01*
X77598839Y-89590582D01*
X77270625Y-89099375D01*
X77252381Y-89087184D01*
X77297765Y-89078157D01*
X77507809Y-88937809D01*
X77648157Y-88727765D01*
X77697440Y-88480000D01*
X77697440Y-86780000D01*
X77648157Y-86532235D01*
X77507809Y-86322191D01*
X77297765Y-86181843D01*
X77050000Y-86132560D01*
X75350000Y-86132560D01*
X75102235Y-86181843D01*
X74892191Y-86322191D01*
X74751843Y-86532235D01*
X74702560Y-86780000D01*
X74702560Y-88480000D01*
X74751843Y-88727765D01*
X74892191Y-88937809D01*
X75102235Y-89078157D01*
X75147619Y-89087184D01*
X75129375Y-89099375D01*
X74801161Y-89590582D01*
X74685908Y-90170000D01*
X70102000Y-90170000D01*
X70102000Y-89443662D01*
X70114086Y-89435586D01*
X70308627Y-89144436D01*
X70376940Y-88801001D01*
X70376940Y-85950999D01*
X70308627Y-85607564D01*
X70114086Y-85316414D01*
X69822936Y-85121873D01*
X69479501Y-85053560D01*
X68454499Y-85053560D01*
X68111064Y-85121873D01*
X67959595Y-85223082D01*
X66520000Y-83783488D01*
X66520000Y-81941254D01*
X66572235Y-81976157D01*
X66596792Y-81981042D01*
X66628750Y-82013000D01*
X66696310Y-82013000D01*
X66716148Y-82004783D01*
X66820000Y-82025440D01*
X67220000Y-82025440D01*
X67467765Y-81976157D01*
X67677809Y-81835809D01*
X67818157Y-81625765D01*
X67867440Y-81378000D01*
X67867440Y-81358000D01*
X69187153Y-81358000D01*
X69262000Y-81372888D01*
X69336847Y-81358000D01*
X69336852Y-81358000D01*
X69558537Y-81313904D01*
X69809929Y-81145929D01*
X69852331Y-81082470D01*
X72366473Y-78568329D01*
X72429929Y-78525929D01*
X72597904Y-78274537D01*
X72642000Y-78052852D01*
X72642000Y-78052848D01*
X72656888Y-77978000D01*
X72642000Y-77903152D01*
X72642000Y-68897087D01*
X72850435Y-68855626D01*
X73141586Y-68661086D01*
X73336126Y-68369935D01*
X73404440Y-68026500D01*
X73404440Y-67101500D01*
X73336126Y-66758065D01*
X73141586Y-66466914D01*
X72850435Y-66272374D01*
X72507000Y-66204060D01*
X71257000Y-66204060D01*
X70913565Y-66272374D01*
X70622414Y-66466914D01*
X70494642Y-66658138D01*
X70182874Y-66529000D01*
X69771126Y-66529000D01*
X69390720Y-66686569D01*
X69099569Y-66977720D01*
X68942000Y-67358126D01*
X68942000Y-67769874D01*
X69099569Y-68150280D01*
X69390720Y-68441431D01*
X69771126Y-68599000D01*
X70182874Y-68599000D01*
X70494642Y-68469862D01*
X70622414Y-68661086D01*
X70913565Y-68855626D01*
X71122000Y-68897087D01*
X71122001Y-75871144D01*
X71122000Y-75871149D01*
X71122000Y-76260852D01*
X71122001Y-76260856D01*
X71122000Y-77663198D01*
X68947199Y-79838000D01*
X67867440Y-79838000D01*
X67867440Y-79818000D01*
X67818157Y-79570235D01*
X67677809Y-79360191D01*
X67509905Y-79248000D01*
X67677809Y-79135809D01*
X67818157Y-78925765D01*
X67867440Y-78678000D01*
X67867440Y-78658000D01*
X68892290Y-78658000D01*
X69136126Y-78759000D01*
X69547874Y-78759000D01*
X69928280Y-78601431D01*
X70219431Y-78310280D01*
X70377000Y-77929874D01*
X70377000Y-77518126D01*
X70219431Y-77137720D01*
X69928280Y-76846569D01*
X69547874Y-76689000D01*
X69136126Y-76689000D01*
X68755720Y-76846569D01*
X68464569Y-77137720D01*
X68464453Y-77138000D01*
X67867440Y-77138000D01*
X67867440Y-77118000D01*
X67818157Y-76870235D01*
X67677809Y-76660191D01*
X67662704Y-76650098D01*
X67860802Y-76452000D01*
X68130289Y-76452000D01*
X68247720Y-76569431D01*
X68628126Y-76727000D01*
X69039874Y-76727000D01*
X69420280Y-76569431D01*
X69711431Y-76278280D01*
X69869000Y-75897874D01*
X69869000Y-75486126D01*
X69711431Y-75105720D01*
X69420280Y-74814569D01*
X69039874Y-74657000D01*
X68628126Y-74657000D01*
X68247720Y-74814569D01*
X68130289Y-74932000D01*
X67620846Y-74932000D01*
X67545999Y-74917112D01*
X67471152Y-74932000D01*
X67471148Y-74932000D01*
X67249463Y-74976096D01*
X66998071Y-75144071D01*
X66955671Y-75207527D01*
X66470000Y-75693198D01*
X66470000Y-75107801D01*
X67223653Y-74354149D01*
X67357565Y-74443626D01*
X67701000Y-74511940D01*
X68951000Y-74511940D01*
X69294435Y-74443626D01*
X69585586Y-74249086D01*
X69780126Y-73957935D01*
X69848440Y-73614500D01*
X69848440Y-72689500D01*
X69780126Y-72346065D01*
X69585586Y-72054914D01*
X69294435Y-71860374D01*
X68951000Y-71792060D01*
X67701000Y-71792060D01*
X67357565Y-71860374D01*
X67066414Y-72054914D01*
X66871874Y-72346065D01*
X66823233Y-72590599D01*
X66803071Y-72604071D01*
X66760673Y-72667524D01*
X65225530Y-74202669D01*
X65162071Y-74245071D01*
X64994096Y-74496464D01*
X64950000Y-74718149D01*
X64950000Y-74718153D01*
X64935112Y-74793000D01*
X64950000Y-74867847D01*
X64950001Y-76470560D01*
X64860000Y-76470560D01*
X64612235Y-76519843D01*
X64429048Y-76642246D01*
X64006000Y-76219199D01*
X64006000Y-74485087D01*
X64214435Y-74443626D01*
X64505586Y-74249086D01*
X64700126Y-73957935D01*
X64768440Y-73614500D01*
X64768440Y-72689500D01*
X64700126Y-72346065D01*
X64505586Y-72054914D01*
X64214435Y-71860374D01*
X63871000Y-71792060D01*
X62621000Y-71792060D01*
X62277565Y-71860374D01*
X61986414Y-72054914D01*
X61791874Y-72346065D01*
X61723560Y-72689500D01*
X61723560Y-73614500D01*
X61791874Y-73957935D01*
X61986414Y-74249086D01*
X62277565Y-74443626D01*
X62486000Y-74485087D01*
X62486001Y-76459148D01*
X62471112Y-76534000D01*
X62486001Y-76608852D01*
X62496213Y-76660191D01*
X62530097Y-76830537D01*
X62619167Y-76963839D01*
X62698072Y-77081929D01*
X62761528Y-77124329D01*
X64019673Y-78382476D01*
X64062071Y-78445929D01*
X64125524Y-78488327D01*
X64125526Y-78488329D01*
X64181799Y-78525929D01*
X64212560Y-78546483D01*
X64212560Y-78678000D01*
X64261843Y-78925765D01*
X64402191Y-79135809D01*
X64570095Y-79248000D01*
X64402191Y-79360191D01*
X64261843Y-79570235D01*
X64212560Y-79818000D01*
X64212560Y-80357581D01*
X62439716Y-82548346D01*
X62408023Y-82569523D01*
X62339071Y-82672717D01*
X62312160Y-82705972D01*
X62294852Y-82738896D01*
X62228997Y-82837455D01*
X62220450Y-82880426D01*
X62200064Y-82919204D01*
X62189257Y-83037242D01*
X62182000Y-83073727D01*
X62182000Y-83116510D01*
X62170685Y-83240099D01*
X62182000Y-83276497D01*
X62182001Y-85112736D01*
X62136064Y-85121873D01*
X61844914Y-85316414D01*
X61650373Y-85607564D01*
X61582060Y-85950999D01*
X61582060Y-87180808D01*
X59728482Y-89034387D01*
X59633711Y-89097711D01*
X59423474Y-89412354D01*
X59382854Y-89473146D01*
X59294765Y-89916000D01*
X59317000Y-90027783D01*
X59317001Y-104431867D01*
X51346482Y-112402387D01*
X51251711Y-112465711D01*
X51083099Y-112718058D01*
X51000854Y-112841146D01*
X50912765Y-113284000D01*
X50935000Y-113395783D01*
X50935001Y-140096212D01*
X50912765Y-140208000D01*
X51000854Y-140650854D01*
X51061403Y-140741471D01*
X51251712Y-141026289D01*
X51346480Y-141089611D01*
X54490389Y-144233521D01*
X54553711Y-144328289D01*
X54929145Y-144579146D01*
X55371999Y-144667235D01*
X55483782Y-144645000D01*
X70649869Y-144645000D01*
X71405000Y-145400132D01*
X71405000Y-146028787D01*
X70857199Y-146576588D01*
X70560000Y-147294088D01*
X70262801Y-146576588D01*
X69704412Y-146018199D01*
X68974841Y-145716000D01*
X68185159Y-145716000D01*
X67455588Y-146018199D01*
X66897199Y-146576588D01*
X66600000Y-147294088D01*
X66302801Y-146576588D01*
X65744412Y-146018199D01*
X65014841Y-145716000D01*
X64225159Y-145716000D01*
X63495588Y-146018199D01*
X62937199Y-146576588D01*
X62657440Y-147251984D01*
X62657440Y-146601001D01*
X62589126Y-146257565D01*
X62394586Y-145966414D01*
X62103435Y-145771874D01*
X61759999Y-145703560D01*
X59560001Y-145703560D01*
X59216565Y-145771874D01*
X58925414Y-145966414D01*
X58730874Y-146257565D01*
X58662560Y-146601001D01*
X58662560Y-148800999D01*
X58730874Y-149144435D01*
X58925414Y-149435586D01*
X59216565Y-149630126D01*
X59560001Y-149698440D01*
X61759999Y-149698440D01*
X62103435Y-149630126D01*
X62394586Y-149435586D01*
X62589126Y-149144435D01*
X62657440Y-148800999D01*
X62657440Y-148150016D01*
X62937199Y-148825412D01*
X63495588Y-149383801D01*
X64225159Y-149686000D01*
X65014841Y-149686000D01*
X65744412Y-149383801D01*
X66302801Y-148825412D01*
X66600000Y-148107912D01*
X66897199Y-148825412D01*
X67455588Y-149383801D01*
X68185159Y-149686000D01*
X68974841Y-149686000D01*
X69704412Y-149383801D01*
X70262801Y-148825412D01*
X70560000Y-148107912D01*
X70857199Y-148825412D01*
X71338327Y-149306540D01*
X69379869Y-151265000D01*
X60160132Y-151265000D01*
X51234110Y-142338979D01*
X51234108Y-142338976D01*
X50157000Y-141261869D01*
X50157000Y-100604000D01*
X54594969Y-100604000D01*
X54721864Y-101241945D01*
X55083231Y-101782769D01*
X55624055Y-102144136D01*
X56100969Y-102239000D01*
X57423031Y-102239000D01*
X57899945Y-102144136D01*
X58440769Y-101782769D01*
X58802136Y-101241945D01*
X58929031Y-100604000D01*
X58802136Y-99966055D01*
X58440769Y-99425231D01*
X57899945Y-99063864D01*
X57423031Y-98969000D01*
X56100969Y-98969000D01*
X55624055Y-99063864D01*
X55083231Y-99425231D01*
X54721864Y-99966055D01*
X54594969Y-100604000D01*
X50157000Y-100604000D01*
X50157000Y-90951631D01*
X51076021Y-90032611D01*
X51170789Y-89969289D01*
X51421646Y-89593855D01*
X51446006Y-89471387D01*
X51499586Y-89435586D01*
X51694127Y-89144436D01*
X51762440Y-88801001D01*
X51762440Y-85950999D01*
X51694127Y-85607564D01*
X51499586Y-85316414D01*
X51208436Y-85121873D01*
X51102000Y-85100702D01*
X51102000Y-83440184D01*
X52200000Y-82083347D01*
X52200001Y-83978722D01*
X52184132Y-84058500D01*
X52245682Y-84367929D01*
X52246998Y-84374546D01*
X52426024Y-84642477D01*
X52493654Y-84687666D01*
X54917560Y-87111573D01*
X54917560Y-88801001D01*
X54985873Y-89144436D01*
X55180414Y-89435586D01*
X55192500Y-89443662D01*
X55192501Y-94312219D01*
X55083231Y-94385231D01*
X54721864Y-94926055D01*
X54594969Y-95564000D01*
X54721864Y-96201945D01*
X55083231Y-96742769D01*
X55624055Y-97104136D01*
X56100969Y-97199000D01*
X57423031Y-97199000D01*
X57899945Y-97104136D01*
X58440769Y-96742769D01*
X58802136Y-96201945D01*
X58929031Y-95564000D01*
X58802136Y-94926055D01*
X58440769Y-94385231D01*
X57899945Y-94023864D01*
X57462500Y-93936851D01*
X57462500Y-89443662D01*
X57474586Y-89435586D01*
X57669127Y-89144436D01*
X57737440Y-88801001D01*
X57737440Y-85950999D01*
X57669127Y-85607564D01*
X57474586Y-85316414D01*
X57183436Y-85121873D01*
X56840001Y-85053560D01*
X55814999Y-85053560D01*
X55471564Y-85121873D01*
X55320095Y-85223082D01*
X53820000Y-83722988D01*
X53820000Y-81941254D01*
X53872235Y-81976157D01*
X53896792Y-81981042D01*
X53928750Y-82013000D01*
X53996310Y-82013000D01*
X54016148Y-82004783D01*
X54120000Y-82025440D01*
X54520000Y-82025440D01*
X54767765Y-81976157D01*
X54977809Y-81835809D01*
X55118157Y-81625765D01*
X55167440Y-81378000D01*
X55167440Y-81358000D01*
X56487153Y-81358000D01*
X56562000Y-81372888D01*
X56636847Y-81358000D01*
X56636852Y-81358000D01*
X56858537Y-81313904D01*
X57109929Y-81145929D01*
X57152331Y-81082470D01*
X59666473Y-78568329D01*
X59729929Y-78525929D01*
X59897904Y-78274537D01*
X59942000Y-78052852D01*
X59942000Y-78052848D01*
X59956888Y-77978000D01*
X59942000Y-77903152D01*
X59942000Y-70462750D01*
X61736000Y-70462750D01*
X61736000Y-71015809D01*
X61832673Y-71249198D01*
X62011301Y-71427827D01*
X62244690Y-71524500D01*
X62960250Y-71524500D01*
X63119000Y-71365750D01*
X63119000Y-70304000D01*
X63373000Y-70304000D01*
X63373000Y-71365750D01*
X63531750Y-71524500D01*
X64247310Y-71524500D01*
X64480699Y-71427827D01*
X64659327Y-71249198D01*
X64756000Y-71015809D01*
X64756000Y-70462750D01*
X66816000Y-70462750D01*
X66816000Y-71015809D01*
X66912673Y-71249198D01*
X67091301Y-71427827D01*
X67324690Y-71524500D01*
X68040250Y-71524500D01*
X68199000Y-71365750D01*
X68199000Y-70304000D01*
X68453000Y-70304000D01*
X68453000Y-71365750D01*
X68611750Y-71524500D01*
X69327310Y-71524500D01*
X69560699Y-71427827D01*
X69739327Y-71249198D01*
X69836000Y-71015809D01*
X69836000Y-70462750D01*
X69677250Y-70304000D01*
X68453000Y-70304000D01*
X68199000Y-70304000D01*
X66974750Y-70304000D01*
X66816000Y-70462750D01*
X64756000Y-70462750D01*
X64597250Y-70304000D01*
X63373000Y-70304000D01*
X63119000Y-70304000D01*
X61894750Y-70304000D01*
X61736000Y-70462750D01*
X59942000Y-70462750D01*
X59942000Y-69338191D01*
X61736000Y-69338191D01*
X61736000Y-69891250D01*
X61894750Y-70050000D01*
X63119000Y-70050000D01*
X63119000Y-68988250D01*
X63373000Y-68988250D01*
X63373000Y-70050000D01*
X64597250Y-70050000D01*
X64756000Y-69891250D01*
X64756000Y-69338191D01*
X66816000Y-69338191D01*
X66816000Y-69891250D01*
X66974750Y-70050000D01*
X68199000Y-70050000D01*
X68199000Y-68988250D01*
X68453000Y-68988250D01*
X68453000Y-70050000D01*
X69677250Y-70050000D01*
X69836000Y-69891250D01*
X69836000Y-69338191D01*
X69739327Y-69104802D01*
X69560699Y-68926173D01*
X69327310Y-68829500D01*
X68611750Y-68829500D01*
X68453000Y-68988250D01*
X68199000Y-68988250D01*
X68040250Y-68829500D01*
X67324690Y-68829500D01*
X67091301Y-68926173D01*
X66912673Y-69104802D01*
X66816000Y-69338191D01*
X64756000Y-69338191D01*
X64659327Y-69104802D01*
X64480699Y-68926173D01*
X64247310Y-68829500D01*
X63531750Y-68829500D01*
X63373000Y-68988250D01*
X63119000Y-68988250D01*
X62960250Y-68829500D01*
X62244690Y-68829500D01*
X62011301Y-68926173D01*
X61832673Y-69104802D01*
X61736000Y-69338191D01*
X59942000Y-69338191D01*
X59942000Y-68897087D01*
X60150435Y-68855626D01*
X60441586Y-68661086D01*
X60636126Y-68369935D01*
X60704440Y-68026500D01*
X60704440Y-67101500D01*
X60636126Y-66758065D01*
X60441586Y-66466914D01*
X60150435Y-66272374D01*
X59807000Y-66204060D01*
X58557000Y-66204060D01*
X58213565Y-66272374D01*
X57922414Y-66466914D01*
X57794642Y-66658138D01*
X57482874Y-66529000D01*
X57071126Y-66529000D01*
X56690720Y-66686569D01*
X56399569Y-66977720D01*
X56242000Y-67358126D01*
X56242000Y-67769874D01*
X56399569Y-68150280D01*
X56690720Y-68441431D01*
X57071126Y-68599000D01*
X57482874Y-68599000D01*
X57794642Y-68469862D01*
X57922414Y-68661086D01*
X58213565Y-68855626D01*
X58422001Y-68897087D01*
X58422000Y-76260851D01*
X58422001Y-76260856D01*
X58422000Y-77663198D01*
X56247199Y-79838000D01*
X55167440Y-79838000D01*
X55167440Y-79818000D01*
X55118157Y-79570235D01*
X54977809Y-79360191D01*
X54809905Y-79248000D01*
X54977809Y-79135809D01*
X55118157Y-78925765D01*
X55167440Y-78678000D01*
X55167440Y-78658000D01*
X55938290Y-78658000D01*
X56182126Y-78759000D01*
X56593874Y-78759000D01*
X56974280Y-78601431D01*
X57265431Y-78310280D01*
X57423000Y-77929874D01*
X57423000Y-77518126D01*
X57265431Y-77137720D01*
X56974280Y-76846569D01*
X56593874Y-76689000D01*
X56182126Y-76689000D01*
X55801720Y-76846569D01*
X55510569Y-77137720D01*
X55510453Y-77138000D01*
X55167440Y-77138000D01*
X55167440Y-77118000D01*
X55118157Y-76870235D01*
X54977809Y-76660191D01*
X54962704Y-76650098D01*
X55160802Y-76452000D01*
X55176289Y-76452000D01*
X55293720Y-76569431D01*
X55674126Y-76727000D01*
X56085874Y-76727000D01*
X56466280Y-76569431D01*
X56757431Y-76278280D01*
X56915000Y-75897874D01*
X56915000Y-75486126D01*
X56757431Y-75105720D01*
X56466280Y-74814569D01*
X56085874Y-74657000D01*
X55674126Y-74657000D01*
X55293720Y-74814569D01*
X55176289Y-74932000D01*
X54920846Y-74932000D01*
X54845999Y-74917112D01*
X54771152Y-74932000D01*
X54771148Y-74932000D01*
X54549463Y-74976096D01*
X54298071Y-75144071D01*
X54255671Y-75207527D01*
X53770000Y-75693198D01*
X53770000Y-75107801D01*
X54523653Y-74354149D01*
X54657565Y-74443626D01*
X55001000Y-74511940D01*
X56251000Y-74511940D01*
X56594435Y-74443626D01*
X56885586Y-74249086D01*
X57080126Y-73957935D01*
X57148440Y-73614500D01*
X57148440Y-72689500D01*
X57080126Y-72346065D01*
X56885586Y-72054914D01*
X56594435Y-71860374D01*
X56251000Y-71792060D01*
X55001000Y-71792060D01*
X54657565Y-71860374D01*
X54366414Y-72054914D01*
X54171874Y-72346065D01*
X54123233Y-72590599D01*
X54103071Y-72604071D01*
X54060673Y-72667524D01*
X53930651Y-72797546D01*
X53887231Y-72692720D01*
X53596080Y-72401569D01*
X53215674Y-72244000D01*
X52803926Y-72244000D01*
X52423520Y-72401569D01*
X52132369Y-72692720D01*
X52068440Y-72847059D01*
X52068440Y-72689500D01*
X52000126Y-72346065D01*
X51805586Y-72054914D01*
X51514435Y-71860374D01*
X51171000Y-71792060D01*
X49921000Y-71792060D01*
X49577565Y-71860374D01*
X49286414Y-72054914D01*
X49091874Y-72346065D01*
X49023560Y-72689500D01*
X49023560Y-73614500D01*
X49091874Y-73957935D01*
X49286414Y-74249086D01*
X49577565Y-74443626D01*
X49786000Y-74485087D01*
X49786001Y-76459148D01*
X49771112Y-76534000D01*
X49786001Y-76608852D01*
X49796213Y-76660191D01*
X49830097Y-76830537D01*
X49919167Y-76963839D01*
X49998072Y-77081929D01*
X50061528Y-77124329D01*
X51319673Y-78382476D01*
X51362071Y-78445929D01*
X51425524Y-78488327D01*
X51425526Y-78488329D01*
X51481799Y-78525929D01*
X51512560Y-78546483D01*
X51512560Y-78678000D01*
X51561843Y-78925765D01*
X51702191Y-79135809D01*
X51870095Y-79248000D01*
X51702191Y-79360191D01*
X51561843Y-79570235D01*
X51512560Y-79818000D01*
X51512560Y-80357581D01*
X49739716Y-82548346D01*
X49708023Y-82569523D01*
X49639071Y-82672717D01*
X49612160Y-82705972D01*
X49594852Y-82738896D01*
X49528997Y-82837455D01*
X49520450Y-82880426D01*
X49500064Y-82919204D01*
X49489257Y-83037242D01*
X49482000Y-83073727D01*
X49482000Y-83116510D01*
X49470685Y-83240099D01*
X49482000Y-83276497D01*
X49482001Y-85131604D01*
X49205414Y-85316414D01*
X49010873Y-85607564D01*
X48942560Y-85950999D01*
X48942560Y-88801001D01*
X48968244Y-88930124D01*
X48298482Y-89599887D01*
X48203711Y-89663211D01*
X47952855Y-90038645D01*
X47952854Y-90038646D01*
X47864765Y-90481500D01*
X46405000Y-90481500D01*
X46405000Y-70462750D01*
X49036000Y-70462750D01*
X49036000Y-71015809D01*
X49132673Y-71249198D01*
X49311301Y-71427827D01*
X49544690Y-71524500D01*
X50260250Y-71524500D01*
X50419000Y-71365750D01*
X50419000Y-70304000D01*
X50673000Y-70304000D01*
X50673000Y-71365750D01*
X50831750Y-71524500D01*
X51547310Y-71524500D01*
X51780699Y-71427827D01*
X51959327Y-71249198D01*
X52056000Y-71015809D01*
X52056000Y-70462750D01*
X54116000Y-70462750D01*
X54116000Y-71015809D01*
X54212673Y-71249198D01*
X54391301Y-71427827D01*
X54624690Y-71524500D01*
X55340250Y-71524500D01*
X55499000Y-71365750D01*
X55499000Y-70304000D01*
X55753000Y-70304000D01*
X55753000Y-71365750D01*
X55911750Y-71524500D01*
X56627310Y-71524500D01*
X56860699Y-71427827D01*
X57039327Y-71249198D01*
X57136000Y-71015809D01*
X57136000Y-70462750D01*
X56977250Y-70304000D01*
X55753000Y-70304000D01*
X55499000Y-70304000D01*
X54274750Y-70304000D01*
X54116000Y-70462750D01*
X52056000Y-70462750D01*
X51897250Y-70304000D01*
X50673000Y-70304000D01*
X50419000Y-70304000D01*
X49194750Y-70304000D01*
X49036000Y-70462750D01*
X46405000Y-70462750D01*
X46405000Y-69338191D01*
X49036000Y-69338191D01*
X49036000Y-69891250D01*
X49194750Y-70050000D01*
X50419000Y-70050000D01*
X50419000Y-68988250D01*
X50673000Y-68988250D01*
X50673000Y-70050000D01*
X51897250Y-70050000D01*
X52056000Y-69891250D01*
X52056000Y-69338191D01*
X54116000Y-69338191D01*
X54116000Y-69891250D01*
X54274750Y-70050000D01*
X55499000Y-70050000D01*
X55499000Y-68988250D01*
X55753000Y-68988250D01*
X55753000Y-70050000D01*
X56977250Y-70050000D01*
X57136000Y-69891250D01*
X57136000Y-69338191D01*
X57039327Y-69104802D01*
X56860699Y-68926173D01*
X56627310Y-68829500D01*
X55911750Y-68829500D01*
X55753000Y-68988250D01*
X55499000Y-68988250D01*
X55340250Y-68829500D01*
X54624690Y-68829500D01*
X54391301Y-68926173D01*
X54212673Y-69104802D01*
X54116000Y-69338191D01*
X52056000Y-69338191D01*
X51959327Y-69104802D01*
X51780699Y-68926173D01*
X51547310Y-68829500D01*
X50831750Y-68829500D01*
X50673000Y-68988250D01*
X50419000Y-68988250D01*
X50260250Y-68829500D01*
X49544690Y-68829500D01*
X49311301Y-68926173D01*
X49132673Y-69104802D01*
X49036000Y-69338191D01*
X46405000Y-69338191D01*
X46405000Y-64874750D01*
X57672000Y-64874750D01*
X57672000Y-65427809D01*
X57768673Y-65661198D01*
X57947301Y-65839827D01*
X58180690Y-65936500D01*
X58896250Y-65936500D01*
X59055000Y-65777750D01*
X59055000Y-64716000D01*
X59309000Y-64716000D01*
X59309000Y-65777750D01*
X59467750Y-65936500D01*
X60183310Y-65936500D01*
X60416699Y-65839827D01*
X60595327Y-65661198D01*
X60692000Y-65427809D01*
X60692000Y-64874750D01*
X70372000Y-64874750D01*
X70372000Y-65427809D01*
X70468673Y-65661198D01*
X70647301Y-65839827D01*
X70880690Y-65936500D01*
X71596250Y-65936500D01*
X71755000Y-65777750D01*
X71755000Y-64716000D01*
X72009000Y-64716000D01*
X72009000Y-65777750D01*
X72167750Y-65936500D01*
X72883310Y-65936500D01*
X73116699Y-65839827D01*
X73295327Y-65661198D01*
X73392000Y-65427809D01*
X73392000Y-64874750D01*
X73233250Y-64716000D01*
X72009000Y-64716000D01*
X71755000Y-64716000D01*
X70530750Y-64716000D01*
X70372000Y-64874750D01*
X60692000Y-64874750D01*
X60533250Y-64716000D01*
X59309000Y-64716000D01*
X59055000Y-64716000D01*
X57830750Y-64716000D01*
X57672000Y-64874750D01*
X46405000Y-64874750D01*
X46405000Y-63750191D01*
X57672000Y-63750191D01*
X57672000Y-64303250D01*
X57830750Y-64462000D01*
X59055000Y-64462000D01*
X59055000Y-63400250D01*
X59309000Y-63400250D01*
X59309000Y-64462000D01*
X60533250Y-64462000D01*
X60692000Y-64303250D01*
X60692000Y-63750191D01*
X70372000Y-63750191D01*
X70372000Y-64303250D01*
X70530750Y-64462000D01*
X71755000Y-64462000D01*
X71755000Y-63400250D01*
X72009000Y-63400250D01*
X72009000Y-64462000D01*
X73233250Y-64462000D01*
X73392000Y-64303250D01*
X73392000Y-63750191D01*
X73295327Y-63516802D01*
X73116699Y-63338173D01*
X72883310Y-63241500D01*
X72167750Y-63241500D01*
X72009000Y-63400250D01*
X71755000Y-63400250D01*
X71596250Y-63241500D01*
X70880690Y-63241500D01*
X70647301Y-63338173D01*
X70468673Y-63516802D01*
X70372000Y-63750191D01*
X60692000Y-63750191D01*
X60595327Y-63516802D01*
X60416699Y-63338173D01*
X60183310Y-63241500D01*
X59467750Y-63241500D01*
X59309000Y-63400250D01*
X59055000Y-63400250D01*
X58896250Y-63241500D01*
X58180690Y-63241500D01*
X57947301Y-63338173D01*
X57768673Y-63516802D01*
X57672000Y-63750191D01*
X46405000Y-63750191D01*
X46405000Y-61954316D01*
X47445290Y-61954316D01*
X47946139Y-62564068D01*
X49749242Y-63340745D01*
X51712314Y-63368283D01*
X53536494Y-62642490D01*
X53653861Y-62564068D01*
X54154710Y-61954316D01*
X50800000Y-58599605D01*
X47445290Y-61954316D01*
X46405000Y-61954316D01*
X46405000Y-60722914D01*
X46577510Y-61156494D01*
X46655932Y-61273861D01*
X47265684Y-61774710D01*
X50620395Y-58420000D01*
X50979605Y-58420000D01*
X54334316Y-61774710D01*
X54944068Y-61273861D01*
X55720745Y-59470758D01*
X55737098Y-58305000D01*
X64232560Y-58305000D01*
X64232560Y-59805000D01*
X64281843Y-60052765D01*
X64422191Y-60262809D01*
X64632235Y-60403157D01*
X64880000Y-60452440D01*
X65930000Y-60452440D01*
X66177765Y-60403157D01*
X66223134Y-60372842D01*
X66675000Y-60462725D01*
X67127609Y-60372695D01*
X67319996Y-60244146D01*
X67577664Y-60390266D01*
X67639190Y-60398964D01*
X67818000Y-60273163D01*
X67818000Y-59479709D01*
X67835000Y-59394245D01*
X67835000Y-59182000D01*
X68072000Y-59182000D01*
X68072000Y-60273163D01*
X68250810Y-60398964D01*
X68312336Y-60390266D01*
X68709255Y-60165179D01*
X68989823Y-59805331D01*
X69111326Y-59365506D01*
X69082434Y-59332314D01*
X106811717Y-59332314D01*
X107537510Y-61156494D01*
X107615932Y-61273861D01*
X108225684Y-61774710D01*
X111580395Y-58420000D01*
X108225684Y-55065290D01*
X107615932Y-55566139D01*
X106839255Y-57369242D01*
X106811717Y-59332314D01*
X69082434Y-59332314D01*
X68951593Y-59182000D01*
X68072000Y-59182000D01*
X67835000Y-59182000D01*
X67835000Y-58715754D01*
X67818000Y-58630290D01*
X67818000Y-57836837D01*
X68072000Y-57836837D01*
X68072000Y-58928000D01*
X68951593Y-58928000D01*
X69111326Y-58744494D01*
X68989823Y-58304669D01*
X68709255Y-57944821D01*
X68312336Y-57719734D01*
X68250810Y-57711036D01*
X68072000Y-57836837D01*
X67818000Y-57836837D01*
X67639190Y-57711036D01*
X67577664Y-57719734D01*
X67319996Y-57865854D01*
X67127608Y-57737305D01*
X66675000Y-57647275D01*
X66223133Y-57737157D01*
X66177765Y-57706843D01*
X65930000Y-57657560D01*
X64880000Y-57657560D01*
X64632235Y-57706843D01*
X64422191Y-57847191D01*
X64281843Y-58057235D01*
X64232560Y-58305000D01*
X55737098Y-58305000D01*
X55748283Y-57507686D01*
X55022490Y-55683506D01*
X54944068Y-55566139D01*
X54334316Y-55065290D01*
X50979605Y-58420000D01*
X50620395Y-58420000D01*
X50606252Y-58405858D01*
X50785858Y-58226252D01*
X50800000Y-58240395D01*
X54154710Y-54885684D01*
X53653861Y-54275932D01*
X53071307Y-54025000D01*
X109457086Y-54025000D01*
X109023506Y-54197510D01*
G04 #@! TD*
M02*
