M48
;DRILL file {KiCad (5.0.2)-1} date 3/19/2019 3:18:49 PM
;FORMAT={-:-/ absolute / inch / decimal}
FMAT,2
INCH,TZ
T1C0.0157
T2C0.0295
T3C0.0315
T4C0.0358
T5C0.0394
T6C0.0512
T7C0.0669
T8C0.1693
%
G90
G05
T1
X2.087Y-2.885
X2.2Y-2.98
X2.22Y-3.06
X2.255Y-2.66
X2.71Y-2.98
X2.73Y-3.06
X2.755Y-2.66
T2
X2.575Y-2.325
X2.625Y-2.325
X2.675Y-2.325
T3
X3.2Y-2.4
X3.2Y-2.5
X3.2Y-2.6
X3.2Y-2.7
X3.2Y-2.8
X3.2Y-2.9
X3.2Y-3.
X3.2Y-3.1
X3.2Y-3.2
X3.2Y-3.3
X3.2Y-3.4
X3.2Y-3.5
X3.2Y-3.6
X3.2Y-3.7
X3.2Y-3.8
X3.8Y-2.4
X3.8Y-2.5
X3.8Y-2.6
X3.8Y-2.7
X3.8Y-2.8
X3.8Y-2.9
X3.8Y-3.
X3.8Y-3.1
X3.8Y-3.2
X3.8Y-3.3
X3.8Y-3.4
X3.8Y-3.5
X3.8Y-3.6
X3.8Y-3.7
X3.8Y-3.8
T4
X3.42Y-5.
X3.42Y-5.6
X3.52Y-5.
X3.52Y-5.6
X4.12Y-5.
X4.12Y-5.6
X4.32Y-5.
X4.32Y-5.6
T5
X4.Y-3.45
X4.Y-3.55
X3.Y-3.45
X3.Y-3.55
X3.65Y-4.775
X3.75Y-4.775
X3.Y-2.875
X3.Y-2.975
X4.3Y-2.7
X4.3Y-2.8
X4.3Y-2.9
X4.3Y-3.
X4.3Y-3.1
X4.3Y-3.2
X4.3Y-3.3
X4.3Y-3.4
X4.4Y-2.7
X4.4Y-2.8
X4.4Y-2.9
X4.4Y-3.
X4.4Y-3.1
X4.4Y-3.2
X4.4Y-3.3
X4.4Y-3.4
T6
X2.2347Y-3.7624
X2.2347Y-3.9608
X2.2347Y-4.76
X2.53Y-3.7624
X2.53Y-3.9608
X2.53Y-4.76
X3.4024Y-4.2
X3.4024Y-4.4953
X3.6008Y-4.2
X3.6008Y-4.4953
X4.4Y-4.2
X4.4Y-4.4953
T7
X2.3882Y-5.815
X2.5441Y-5.815
X2.7Y-5.815
X2.8559Y-5.815
X2.18Y-5.31
X2.3359Y-5.31
X2.4918Y-5.31
X2.6477Y-5.31
X2.8036Y-5.31
X2.9595Y-5.31
X4.3Y-3.6441
X4.3Y-3.8
T8
X4.4Y-2.3
X4.4Y-6.
X2.Y-2.3
X2.Y-6.
T0
M30
